<?xml version="1.0" encoding="utf-8"?>
<svg xmlns="http://www.w3.org/2000/svg" xmlns:xlink="http://www.w3.org/1999/xlink" width="900" height="800" viewBox="0 0 3600 3200">
<defs>
  <clipPath id="clip360">
    <rect x="0" y="0" width="3600" height="3200"/>
  </clipPath>
</defs>
<path clip-path="url(#clip360)" d="M0 3200 L3600 3200 L3600 0 L0 0  Z" fill="#ffffff" fill-rule="evenodd" fill-opacity="1"/>
<defs>
  <clipPath id="clip361">
    <rect x="306" y="47" width="3247" height="2673"/>
  </clipPath>
</defs>
<path clip-path="url(#clip360)" d="M306.562 2718.93 L3552.76 2718.93 L3552.76 47.2441 L306.562 47.2441  Z" fill="#ffffff" fill-rule="evenodd" fill-opacity="1"/>
<polyline clip-path="url(#clip361)" style="stroke:#000000; stroke-linecap:round; stroke-linejoin:round; stroke-width:2; stroke-opacity:0.1; fill:none" points="654.369,2718.93 654.369,47.2441 "/>
<polyline clip-path="url(#clip361)" style="stroke:#000000; stroke-linecap:round; stroke-linejoin:round; stroke-width:2; stroke-opacity:0.1; fill:none" points="1504.56,2718.93 1504.56,47.2441 "/>
<polyline clip-path="url(#clip361)" style="stroke:#000000; stroke-linecap:round; stroke-linejoin:round; stroke-width:2; stroke-opacity:0.1; fill:none" points="2354.76,2718.93 2354.76,47.2441 "/>
<polyline clip-path="url(#clip361)" style="stroke:#000000; stroke-linecap:round; stroke-linejoin:round; stroke-width:2; stroke-opacity:0.1; fill:none" points="3204.95,2718.93 3204.95,47.2441 "/>
<polyline clip-path="url(#clip361)" style="stroke:#000000; stroke-linecap:round; stroke-linejoin:round; stroke-width:2; stroke-opacity:0.1; fill:none" points="306.562,2718.93 3552.76,2718.93 "/>
<polyline clip-path="url(#clip361)" style="stroke:#000000; stroke-linecap:round; stroke-linejoin:round; stroke-width:2; stroke-opacity:0.1; fill:none" points="306.562,2326.24 3552.76,2326.24 "/>
<polyline clip-path="url(#clip361)" style="stroke:#000000; stroke-linecap:round; stroke-linejoin:round; stroke-width:2; stroke-opacity:0.1; fill:none" points="306.562,1933.54 3552.76,1933.54 "/>
<polyline clip-path="url(#clip361)" style="stroke:#000000; stroke-linecap:round; stroke-linejoin:round; stroke-width:2; stroke-opacity:0.1; fill:none" points="306.562,1540.85 3552.76,1540.85 "/>
<polyline clip-path="url(#clip361)" style="stroke:#000000; stroke-linecap:round; stroke-linejoin:round; stroke-width:2; stroke-opacity:0.1; fill:none" points="306.562,1148.15 3552.76,1148.15 "/>
<polyline clip-path="url(#clip361)" style="stroke:#000000; stroke-linecap:round; stroke-linejoin:round; stroke-width:2; stroke-opacity:0.1; fill:none" points="306.562,755.458 3552.76,755.458 "/>
<polyline clip-path="url(#clip361)" style="stroke:#000000; stroke-linecap:round; stroke-linejoin:round; stroke-width:2; stroke-opacity:0.1; fill:none" points="306.562,362.763 3552.76,362.763 "/>
<polyline clip-path="url(#clip360)" style="stroke:#000000; stroke-linecap:round; stroke-linejoin:round; stroke-width:4; stroke-opacity:1; fill:none" points="306.562,2718.93 3552.76,2718.93 "/>
<polyline clip-path="url(#clip360)" style="stroke:#000000; stroke-linecap:round; stroke-linejoin:round; stroke-width:4; stroke-opacity:1; fill:none" points="654.369,2718.93 654.369,2700.03 "/>
<polyline clip-path="url(#clip360)" style="stroke:#000000; stroke-linecap:round; stroke-linejoin:round; stroke-width:4; stroke-opacity:1; fill:none" points="1504.56,2718.93 1504.56,2700.03 "/>
<polyline clip-path="url(#clip360)" style="stroke:#000000; stroke-linecap:round; stroke-linejoin:round; stroke-width:4; stroke-opacity:1; fill:none" points="2354.76,2718.93 2354.76,2700.03 "/>
<polyline clip-path="url(#clip360)" style="stroke:#000000; stroke-linecap:round; stroke-linejoin:round; stroke-width:4; stroke-opacity:1; fill:none" points="3204.95,2718.93 3204.95,2700.03 "/>
<path clip-path="url(#clip360)" d="M593.237 2807.7 L593.237 2804.53 Q605.391 2804.53 611.666 2798.06 Q613.395 2798.06 613.692 2798.46 Q613.988 2798.85 613.988 2800.68 L613.988 2857.45 Q613.988 2860.46 615.47 2861.4 Q616.953 2862.34 623.425 2862.34 L626.636 2862.34 L626.636 2865.45 Q623.079 2865.16 610.233 2865.16 Q597.387 2865.16 593.88 2865.45 L593.88 2862.34 L597.091 2862.34 Q603.464 2862.34 604.996 2861.45 Q606.528 2860.51 606.528 2857.45 L606.528 2805.03 Q601.241 2807.7 593.237 2807.7 Z" fill="#000000" fill-rule="nonzero" fill-opacity="1" /><path clip-path="url(#clip360)" d="M638.79 2833.09 Q638.79 2818.22 642.545 2810.12 Q647.782 2798.06 660.134 2798.06 Q662.753 2798.06 665.47 2798.8 Q668.237 2799.49 671.695 2802.21 Q675.203 2804.93 677.328 2809.38 Q681.379 2817.97 681.379 2833.09 Q681.379 2847.86 677.624 2855.92 Q672.14 2867.68 660.035 2867.68 Q655.49 2867.68 650.846 2865.35 Q646.251 2863.03 643.336 2857.45 Q638.79 2849.1 638.79 2833.09 M647.189 2831.86 Q647.189 2847.12 648.276 2853.2 Q649.512 2859.77 652.871 2862.64 Q656.28 2865.45 660.035 2865.45 Q664.087 2865.45 667.446 2862.44 Q670.855 2859.38 671.893 2852.8 Q673.029 2846.33 672.98 2831.86 Q672.98 2817.77 671.992 2812.14 Q670.658 2805.57 667.1 2802.95 Q663.592 2800.28 660.035 2800.28 Q658.701 2800.28 657.268 2800.68 Q655.885 2801.08 653.859 2802.21 Q651.834 2803.35 650.253 2806.16 Q648.721 2808.98 647.98 2813.23 Q647.189 2818.71 647.189 2831.86 Z" fill="#000000" fill-rule="nonzero" fill-opacity="1" /><path clip-path="url(#clip360)" d="M681.379 2799.55 Q681.379 2797.1 682.784 2795.94 Q684.189 2794.78 685.995 2794.78 Q687.882 2794.78 689.207 2796.02 Q690.572 2797.22 690.572 2799.35 Q690.572 2801.64 688.966 2802.92 Q687.4 2804.21 685.152 2803.89 Q687.119 2807.18 690.732 2808.66 Q694.385 2810.15 697.757 2810.15 Q701.29 2810.15 704.14 2807.1 Q707.03 2804.05 707.03 2796.58 Q707.03 2790.24 704.541 2786.59 Q702.093 2782.93 697.235 2782.93 L693.622 2782.93 Q692.378 2782.93 692.017 2782.81 Q691.655 2782.69 691.655 2782.01 Q691.655 2781.21 692.9 2781.05 Q694.144 2781.05 696.111 2780.81 Q700.888 2780.64 703.417 2776.51 Q705.706 2772.66 705.706 2767.16 Q705.706 2762.14 703.297 2760.05 Q700.929 2757.92 697.838 2757.92 Q694.947 2757.92 691.776 2759.13 Q688.605 2760.33 686.878 2763.02 Q691.977 2763.02 691.977 2767.16 Q691.977 2768.96 690.812 2770.17 Q689.688 2771.33 687.802 2771.33 Q685.995 2771.33 684.791 2770.21 Q683.587 2769.04 683.587 2767.08 Q683.587 2762.38 687.762 2759.13 Q691.977 2755.88 698.159 2755.88 Q704.26 2755.88 708.756 2759.09 Q713.293 2762.3 713.293 2767.24 Q713.293 2772.09 710.081 2776.07 Q706.87 2780.04 701.772 2781.69 Q708.034 2782.93 711.767 2787.19 Q715.5 2791.4 715.5 2796.58 Q715.5 2803 710.442 2807.74 Q705.384 2812.44 697.998 2812.44 Q691.174 2812.44 686.276 2808.74 Q681.379 2805.05 681.379 2799.55 Z" fill="#000000" fill-rule="nonzero" fill-opacity="1" /><path clip-path="url(#clip360)" d="M1442.27 2807.7 L1442.27 2804.53 Q1454.42 2804.53 1460.7 2798.06 Q1462.42 2798.06 1462.72 2798.46 Q1463.02 2798.85 1463.02 2800.68 L1463.02 2857.45 Q1463.02 2860.46 1464.5 2861.4 Q1465.98 2862.34 1472.45 2862.34 L1475.67 2862.34 L1475.67 2865.45 Q1472.11 2865.16 1459.26 2865.16 Q1446.42 2865.16 1442.91 2865.45 L1442.91 2862.34 L1446.12 2862.34 Q1452.49 2862.34 1454.03 2861.45 Q1455.56 2860.51 1455.56 2857.45 L1455.56 2805.03 Q1450.27 2807.7 1442.27 2807.7 Z" fill="#000000" fill-rule="nonzero" fill-opacity="1" /><path clip-path="url(#clip360)" d="M1487.82 2833.09 Q1487.82 2818.22 1491.57 2810.12 Q1496.81 2798.06 1509.16 2798.06 Q1511.78 2798.06 1514.5 2798.8 Q1517.27 2799.49 1520.72 2802.21 Q1524.23 2804.93 1526.36 2809.38 Q1530.41 2817.97 1530.41 2833.09 Q1530.41 2847.86 1526.65 2855.92 Q1521.17 2867.68 1509.06 2867.68 Q1504.52 2867.68 1499.87 2865.35 Q1495.28 2863.03 1492.36 2857.45 Q1487.82 2849.1 1487.82 2833.09 M1496.22 2831.86 Q1496.22 2847.12 1497.31 2853.2 Q1498.54 2859.77 1501.9 2862.64 Q1505.31 2865.45 1509.06 2865.45 Q1513.12 2865.45 1516.48 2862.44 Q1519.88 2859.38 1520.92 2852.8 Q1522.06 2846.33 1522.01 2831.86 Q1522.01 2817.77 1521.02 2812.14 Q1519.69 2805.57 1516.13 2802.95 Q1512.62 2800.28 1509.06 2800.28 Q1507.73 2800.28 1506.3 2800.68 Q1504.91 2801.08 1502.89 2802.21 Q1500.86 2803.35 1499.28 2806.16 Q1497.75 2808.98 1497.01 2813.23 Q1496.22 2818.71 1496.22 2831.86 Z" fill="#000000" fill-rule="nonzero" fill-opacity="1" /><path clip-path="url(#clip360)" d="M1530.41 2797.06 L1530.41 2794.53 L1555.66 2755.96 Q1556.3 2754.95 1557.3 2754.99 Q1558.23 2754.99 1558.43 2755.35 Q1558.63 2755.72 1558.63 2757.12 L1558.63 2794.53 L1566.86 2794.53 L1566.86 2797.06 L1558.63 2797.06 L1558.63 2804.21 Q1558.63 2806.58 1559.59 2807.34 Q1560.6 2808.1 1564.85 2808.1 L1566.58 2808.1 L1566.58 2810.63 Q1563.2 2810.39 1555.42 2810.39 Q1547.67 2810.39 1544.3 2810.63 L1544.3 2808.1 L1546.02 2808.1 Q1550.28 2808.1 1551.28 2807.38 Q1552.29 2806.62 1552.29 2804.21 L1552.29 2797.06 L1530.41 2797.06 M1532.74 2794.53 L1552.77 2794.53 L1552.77 2763.87 L1532.74 2794.53 Z" fill="#000000" fill-rule="nonzero" fill-opacity="1" /><path clip-path="url(#clip360)" d="M2294.27 2807.7 L2294.27 2804.53 Q2306.42 2804.53 2312.69 2798.06 Q2314.42 2798.06 2314.72 2798.46 Q2315.02 2798.85 2315.02 2800.68 L2315.02 2857.45 Q2315.02 2860.46 2316.5 2861.4 Q2317.98 2862.34 2324.45 2862.34 L2327.67 2862.34 L2327.67 2865.45 Q2324.11 2865.16 2311.26 2865.16 Q2298.42 2865.16 2294.91 2865.45 L2294.91 2862.34 L2298.12 2862.34 Q2304.49 2862.34 2306.03 2861.45 Q2307.56 2860.51 2307.56 2857.45 L2307.56 2805.03 Q2302.27 2807.7 2294.27 2807.7 Z" fill="#000000" fill-rule="nonzero" fill-opacity="1" /><path clip-path="url(#clip360)" d="M2339.82 2833.09 Q2339.82 2818.22 2343.57 2810.12 Q2348.81 2798.06 2361.16 2798.06 Q2363.78 2798.06 2366.5 2798.8 Q2369.27 2799.49 2372.72 2802.21 Q2376.23 2804.93 2378.36 2809.38 Q2382.41 2817.97 2382.41 2833.09 Q2382.41 2847.86 2378.65 2855.92 Q2373.17 2867.68 2361.06 2867.68 Q2356.52 2867.68 2351.87 2865.35 Q2347.28 2863.03 2344.36 2857.45 Q2339.82 2849.1 2339.82 2833.09 M2348.22 2831.86 Q2348.22 2847.12 2349.31 2853.2 Q2350.54 2859.77 2353.9 2862.64 Q2357.31 2865.45 2361.06 2865.45 Q2365.12 2865.45 2368.48 2862.44 Q2371.88 2859.38 2372.92 2852.8 Q2374.06 2846.33 2374.01 2831.86 Q2374.01 2817.77 2373.02 2812.14 Q2371.69 2805.57 2368.13 2802.95 Q2364.62 2800.28 2361.06 2800.28 Q2359.73 2800.28 2358.3 2800.68 Q2356.91 2801.08 2354.89 2802.21 Q2352.86 2803.35 2351.28 2806.16 Q2349.75 2808.98 2349.01 2813.23 Q2348.22 2818.71 2348.22 2831.86 Z" fill="#000000" fill-rule="nonzero" fill-opacity="1" /><path clip-path="url(#clip360)" d="M2382.41 2797.38 Q2382.41 2794.94 2383.73 2794.01 Q2385.06 2793.05 2386.46 2793.05 Q2388.35 2793.05 2389.43 2794.25 Q2390.56 2795.42 2390.56 2797.06 Q2390.56 2798.71 2389.43 2799.91 Q2388.35 2801.08 2386.46 2801.08 Q2385.54 2801.08 2385.06 2800.92 Q2386.14 2804.69 2389.43 2807.42 Q2392.76 2810.15 2397.14 2810.15 Q2402.64 2810.15 2405.93 2804.81 Q2407.9 2801.36 2407.9 2793.53 Q2407.9 2786.63 2406.41 2783.17 Q2404.13 2777.92 2399.43 2777.92 Q2392.76 2777.92 2388.83 2783.66 Q2388.35 2784.38 2387.79 2784.42 Q2386.98 2784.42 2386.78 2783.98 Q2386.62 2783.49 2386.62 2782.25 L2386.62 2757.92 Q2386.62 2755.96 2387.43 2755.96 Q2387.75 2755.96 2388.43 2756.2 Q2393.61 2758.49 2399.35 2758.53 Q2405.25 2758.53 2410.55 2756.12 Q2410.95 2755.88 2411.19 2755.88 Q2411.99 2755.88 2412.03 2756.8 Q2412.03 2757.12 2411.35 2758.08 Q2410.71 2759.01 2409.3 2760.25 Q2407.9 2761.46 2406.09 2762.62 Q2404.29 2763.78 2401.64 2764.59 Q2399.03 2765.35 2396.14 2765.35 Q2392.68 2765.35 2389.15 2764.27 L2389.15 2780.28 Q2393.41 2776.11 2399.59 2776.11 Q2406.17 2776.11 2410.71 2781.41 Q2415.24 2786.71 2415.24 2794.09 Q2415.24 2801.84 2409.87 2807.14 Q2404.53 2812.44 2397.3 2812.44 Q2390.72 2812.44 2386.54 2807.74 Q2382.41 2803.04 2382.41 2797.38 Z" fill="#000000" fill-rule="nonzero" fill-opacity="1" /><path clip-path="url(#clip360)" d="M3143.82 2807.7 L3143.82 2804.53 Q3155.97 2804.53 3162.25 2798.06 Q3163.98 2798.06 3164.27 2798.46 Q3164.57 2798.85 3164.57 2800.68 L3164.57 2857.45 Q3164.57 2860.46 3166.05 2861.4 Q3167.53 2862.34 3174 2862.34 L3177.22 2862.34 L3177.22 2865.45 Q3173.66 2865.16 3160.81 2865.16 Q3147.97 2865.16 3144.46 2865.45 L3144.46 2862.34 L3147.67 2862.34 Q3154.04 2862.34 3155.58 2861.45 Q3157.11 2860.51 3157.11 2857.45 L3157.11 2805.03 Q3151.82 2807.7 3143.82 2807.7 Z" fill="#000000" fill-rule="nonzero" fill-opacity="1" /><path clip-path="url(#clip360)" d="M3189.37 2833.09 Q3189.37 2818.22 3193.13 2810.12 Q3198.36 2798.06 3210.71 2798.06 Q3213.33 2798.06 3216.05 2798.8 Q3218.82 2799.49 3222.28 2802.21 Q3225.78 2804.93 3227.91 2809.38 Q3231.96 2817.97 3231.96 2833.09 Q3231.96 2847.86 3228.2 2855.92 Q3222.72 2867.68 3210.62 2867.68 Q3206.07 2867.68 3201.43 2865.35 Q3196.83 2863.03 3193.92 2857.45 Q3189.37 2849.1 3189.37 2833.09 M3197.77 2831.86 Q3197.77 2847.12 3198.86 2853.2 Q3200.09 2859.77 3203.45 2862.64 Q3206.86 2865.45 3210.62 2865.45 Q3214.67 2865.45 3218.03 2862.44 Q3221.44 2859.38 3222.47 2852.8 Q3223.61 2846.33 3223.56 2831.86 Q3223.56 2817.77 3222.57 2812.14 Q3221.24 2805.57 3217.68 2802.95 Q3214.17 2800.28 3210.62 2800.28 Q3209.28 2800.28 3207.85 2800.68 Q3206.46 2801.08 3204.44 2802.21 Q3202.41 2803.35 3200.83 2806.16 Q3199.3 2808.98 3198.56 2813.23 Q3197.77 2818.71 3197.77 2831.86 Z" fill="#000000" fill-rule="nonzero" fill-opacity="1" /><path clip-path="url(#clip360)" d="M3231.96 2784.66 Q3231.96 2771.73 3238.54 2763.82 Q3245.13 2755.88 3253.6 2755.88 Q3258.53 2755.88 3261.26 2758.41 Q3264.03 2760.89 3264.03 2764.75 Q3264.03 2766.88 3262.79 2767.8 Q3261.54 2768.72 3260.26 2768.72 Q3258.77 2768.72 3257.61 2767.72 Q3256.45 2766.72 3256.45 2764.91 Q3256.45 2761.22 3260.98 2761.22 Q3258.85 2757.92 3253.76 2757.92 Q3252.19 2757.92 3250.59 2758.41 Q3248.98 2758.85 3246.89 2760.37 Q3244.8 2761.9 3243.2 2764.31 Q3241.59 2766.72 3240.47 2771.25 Q3239.35 2775.79 3239.35 2781.69 L3239.35 2783.66 Q3242.72 2775.51 3249.62 2775.55 Q3256.53 2775.55 3261.3 2780.81 Q3266.08 2786.06 3266.08 2793.85 Q3266.08 2801.84 3261.1 2807.14 Q3256.12 2812.44 3249.14 2812.44 Q3246.01 2812.44 3243.16 2811.11 Q3240.35 2809.83 3237.7 2806.86 Q3235.09 2803.89 3233.52 2798.19 Q3231.96 2792.49 3231.96 2784.66 M3239.51 2792.05 Q3239.51 2800.11 3240.99 2803.97 Q3241.23 2804.61 3241.75 2805.49 Q3242.32 2806.38 3243.24 2807.54 Q3244.2 2808.66 3245.77 2809.43 Q3247.33 2810.15 3249.14 2810.15 Q3254.64 2810.15 3257.29 2804.81 Q3258.69 2801.84 3258.69 2793.77 Q3258.69 2785.54 3257.21 2782.53 Q3254.68 2777.43 3249.54 2777.43 Q3246.09 2777.43 3243.68 2779.8 Q3241.31 2782.17 3240.39 2785.34 Q3239.51 2788.51 3239.51 2792.05 Z" fill="#000000" fill-rule="nonzero" fill-opacity="1" /><path clip-path="url(#clip360)" d="M1977.61 2924.12 Q1977.61 2926.28 1975.76 2926.28 Q1969.81 2926.49 1967.39 2928.49 Q1965.01 2930.44 1964.12 2934.24 L1949.05 2994.37 Q1948.52 2996.26 1948.2 2996.48 Q1947.89 2996.63 1947.31 2996.63 Q1946.57 2996.63 1946.15 2996.26 Q1945.78 2995.9 1945.25 2994.58 L1918.37 2931.02 Q1918.16 2930.6 1917.9 2930.02 Q1917.64 2929.44 1917.42 2929.07 L1903.14 2986.04 Q1902.72 2987.67 1902.72 2988.52 Q1902.72 2990.57 1904.14 2991.89 Q1905.62 2993.16 1909.84 2993.31 Q1912 2993.31 1912 2994.47 Q1912 2996.63 1910.05 2996.63 Q1908.26 2996.63 1904.51 2996.48 Q1900.77 2996.32 1898.93 2996.32 Q1897.14 2996.32 1893.5 2996.48 Q1889.86 2996.63 1888.12 2996.63 Q1886.75 2996.63 1886.75 2995.42 Q1886.75 2994.47 1887.12 2994 Q1887.49 2993.47 1887.81 2993.42 Q1888.12 2993.31 1888.6 2993.31 Q1891.76 2993.21 1893.92 2992.58 Q1896.08 2991.94 1897.29 2990.73 Q1898.56 2989.52 1899.14 2988.31 Q1899.77 2987.04 1900.24 2985.2 L1914.68 2927.23 Q1914.68 2926.28 1907.36 2926.28 Q1906.09 2926.28 1905.57 2926.23 Q1905.09 2926.17 1904.72 2925.91 Q1904.36 2925.65 1904.36 2925.07 Q1904.36 2923.59 1904.99 2923.27 Q1905.62 2922.91 1907.46 2922.91 L1921.96 2922.91 Q1923.8 2922.91 1924.28 2923.22 Q1924.75 2923.49 1925.38 2924.96 L1949.26 2981.3 L1961.32 2933.29 Q1961.64 2932.34 1961.64 2931.02 Q1961.64 2928.91 1960.06 2927.65 Q1958.53 2926.33 1954.32 2926.28 Q1952.37 2926.28 1952.37 2925.07 Q1952.37 2924.06 1952.73 2923.59 Q1953.16 2923.06 1953.47 2923.01 Q1953.84 2922.91 1954.32 2922.91 Q1956.11 2922.91 1959.8 2923.06 Q1963.49 2923.22 1965.33 2923.22 Q1967.12 2923.22 1970.76 2923.06 Q1974.45 2922.91 1976.24 2922.91 Q1976.87 2922.91 1977.19 2923.22 Q1977.56 2923.49 1977.61 2923.8 L1977.61 2924.12 Z" fill="#000000" fill-rule="nonzero" fill-opacity="1" /><polyline clip-path="url(#clip360)" style="stroke:#000000; stroke-linecap:round; stroke-linejoin:round; stroke-width:4; stroke-opacity:1; fill:none" points="306.562,2718.93 306.562,47.2441 "/>
<polyline clip-path="url(#clip360)" style="stroke:#000000; stroke-linecap:round; stroke-linejoin:round; stroke-width:4; stroke-opacity:1; fill:none" points="306.562,2718.93 325.459,2718.93 "/>
<polyline clip-path="url(#clip360)" style="stroke:#000000; stroke-linecap:round; stroke-linejoin:round; stroke-width:4; stroke-opacity:1; fill:none" points="306.562,2326.24 325.459,2326.24 "/>
<polyline clip-path="url(#clip360)" style="stroke:#000000; stroke-linecap:round; stroke-linejoin:round; stroke-width:4; stroke-opacity:1; fill:none" points="306.562,1933.54 325.459,1933.54 "/>
<polyline clip-path="url(#clip360)" style="stroke:#000000; stroke-linecap:round; stroke-linejoin:round; stroke-width:4; stroke-opacity:1; fill:none" points="306.562,1540.85 325.459,1540.85 "/>
<polyline clip-path="url(#clip360)" style="stroke:#000000; stroke-linecap:round; stroke-linejoin:round; stroke-width:4; stroke-opacity:1; fill:none" points="306.562,1148.15 325.459,1148.15 "/>
<polyline clip-path="url(#clip360)" style="stroke:#000000; stroke-linecap:round; stroke-linejoin:round; stroke-width:4; stroke-opacity:1; fill:none" points="306.562,755.458 325.459,755.458 "/>
<polyline clip-path="url(#clip360)" style="stroke:#000000; stroke-linecap:round; stroke-linejoin:round; stroke-width:4; stroke-opacity:1; fill:none" points="306.562,362.763 325.459,362.763 "/>
<path clip-path="url(#clip360)" d="M209.973 2721.13 Q209.973 2706.26 213.728 2698.16 Q218.965 2686.1 231.317 2686.1 Q233.935 2686.1 236.653 2686.84 Q239.42 2687.53 242.878 2690.25 Q246.386 2692.97 248.51 2697.42 Q252.562 2706.01 252.562 2721.13 Q252.562 2735.9 248.807 2743.96 Q243.323 2755.72 231.218 2755.72 Q226.673 2755.72 222.028 2753.39 Q217.434 2751.07 214.519 2745.49 Q209.973 2737.14 209.973 2721.13 M218.372 2719.9 Q218.372 2735.16 219.459 2741.24 Q220.694 2747.81 224.054 2750.68 Q227.463 2753.49 231.218 2753.49 Q235.269 2753.49 238.629 2750.48 Q242.038 2747.42 243.076 2740.84 Q244.212 2734.37 244.163 2719.9 Q244.163 2705.81 243.174 2700.18 Q241.84 2693.61 238.283 2690.99 Q234.775 2688.32 231.218 2688.32 Q229.884 2688.32 228.451 2688.72 Q227.068 2689.12 225.042 2690.25 Q223.017 2691.39 221.436 2694.2 Q219.904 2697.02 219.163 2701.27 Q218.372 2706.75 218.372 2719.9 Z" fill="#000000" fill-rule="nonzero" fill-opacity="1" /><path clip-path="url(#clip360)" d="M212.147 2360.8 Q212.147 2358.97 212.295 2358.43 Q212.493 2357.88 213.283 2357.04 L232.7 2335.4 Q243.323 2323.45 243.323 2313.02 Q243.323 2306.25 239.765 2301.41 Q236.258 2296.57 229.785 2296.57 Q225.339 2296.57 221.584 2299.29 Q217.829 2302 216.1 2306.85 Q216.396 2306.75 217.434 2306.75 Q219.953 2306.75 221.337 2308.33 Q222.769 2309.91 222.769 2312.03 Q222.769 2314.75 220.991 2316.08 Q219.262 2317.37 217.532 2317.37 Q216.841 2317.37 215.902 2317.22 Q215.013 2317.07 213.58 2315.69 Q212.147 2314.26 212.147 2311.74 Q212.147 2304.67 217.483 2299.04 Q222.868 2293.41 231.07 2293.41 Q240.358 2293.41 246.435 2298.94 Q252.562 2304.42 252.562 2313.02 Q252.562 2316.04 251.623 2318.8 Q250.734 2321.52 249.499 2323.64 Q248.313 2325.77 245.052 2329.18 Q241.791 2332.59 239.173 2335.01 Q236.554 2337.43 230.675 2342.57 L219.953 2352.99 L238.184 2352.99 Q247.078 2352.99 247.769 2352.2 Q248.757 2350.77 249.993 2343.21 L252.562 2343.21 L249.696 2360.8 L212.147 2360.8 Z" fill="#000000" fill-rule="nonzero" fill-opacity="1" /><path clip-path="url(#clip360)" d="M207.7 1951.4 L207.7 1948.29 L238.777 1900.81 Q239.568 1899.58 240.803 1899.62 Q241.939 1899.62 242.186 1900.07 Q242.433 1900.51 242.433 1902.24 L242.433 1948.29 L252.562 1948.29 L252.562 1951.4 L242.433 1951.4 L242.433 1960.2 Q242.433 1963.11 243.619 1964.05 Q244.854 1964.99 250.091 1964.99 L252.216 1964.99 L252.216 1968.1 Q248.066 1967.81 238.481 1967.81 Q228.945 1967.81 224.795 1968.1 L224.795 1964.99 L226.92 1964.99 Q232.157 1964.99 233.392 1964.1 Q234.627 1963.16 234.627 1960.2 L234.627 1951.4 L207.7 1951.4 M210.566 1948.29 L235.22 1948.29 L235.22 1910.54 L210.566 1948.29 Z" fill="#000000" fill-rule="nonzero" fill-opacity="1" /><path clip-path="url(#clip360)" d="M210.566 1543.44 Q210.566 1527.53 218.669 1517.8 Q226.771 1508.02 237.196 1508.02 Q243.273 1508.02 246.633 1511.13 Q250.042 1514.19 250.042 1518.94 Q250.042 1521.55 248.51 1522.69 Q246.979 1523.83 245.398 1523.83 Q243.57 1523.83 242.137 1522.59 Q240.704 1521.36 240.704 1519.13 Q240.704 1514.59 246.287 1514.59 Q243.669 1510.54 237.394 1510.54 Q235.467 1510.54 233.491 1511.13 Q231.514 1511.67 228.945 1513.55 Q226.376 1515.43 224.4 1518.39 Q222.424 1521.36 221.04 1526.94 Q219.657 1532.52 219.657 1539.79 L219.657 1542.21 Q223.807 1532.18 232.305 1532.23 Q240.803 1532.23 246.682 1538.7 Q252.562 1545.17 252.562 1554.76 Q252.562 1564.59 246.435 1571.11 Q240.309 1577.63 231.712 1577.63 Q227.858 1577.63 224.351 1576 Q220.892 1574.42 217.631 1570.76 Q214.42 1567.11 212.493 1560.09 Q210.566 1553.08 210.566 1543.44 M219.854 1552.53 Q219.854 1562.46 221.683 1567.21 Q221.979 1568 222.621 1569.08 Q223.313 1570.17 224.449 1571.6 Q225.635 1572.99 227.562 1573.93 Q229.489 1574.81 231.712 1574.81 Q238.481 1574.81 241.742 1568.24 Q243.471 1564.59 243.471 1554.66 Q243.471 1544.53 241.643 1540.82 Q238.53 1534.55 232.206 1534.55 Q227.957 1534.55 224.993 1537.46 Q222.078 1540.38 220.941 1544.28 Q219.854 1548.18 219.854 1552.53 Z" fill="#000000" fill-rule="nonzero" fill-opacity="1" /><path clip-path="url(#clip360)" d="M210.566 1167.45 Q210.566 1156.13 225.141 1148.82 Q218.866 1144.57 217.73 1143.34 Q213.283 1138.4 213.283 1132.22 Q213.283 1125.15 218.619 1120.26 Q224.005 1115.32 231.613 1115.32 Q238.876 1115.32 244.36 1119.52 Q249.844 1123.72 249.844 1130.39 Q249.844 1139.78 237.592 1146.1 Q245.694 1151.14 247.621 1153.27 Q252.562 1158.75 252.562 1165.72 Q252.562 1173.82 246.336 1179.4 Q240.111 1184.94 231.514 1184.94 Q223.115 1184.94 216.841 1180.05 Q210.566 1175.15 210.566 1167.45 M215.606 1167.45 Q215.606 1173.72 220.299 1177.92 Q225.042 1182.12 231.613 1182.12 Q237.987 1182.12 242.73 1178.46 Q247.522 1174.81 247.522 1169.37 Q247.522 1167.25 246.781 1165.42 Q246.089 1163.59 244.657 1162.16 Q243.273 1160.68 242.384 1160.04 Q241.544 1159.34 239.914 1158.21 L227.463 1150.35 Q215.606 1156.92 215.606 1167.45 M217.73 1128.27 Q217.73 1133.11 222.819 1136.47 L235.368 1144.57 Q245.398 1138.69 245.398 1130.39 Q245.398 1125.01 241.297 1121.45 Q237.196 1117.84 231.514 1117.84 Q225.932 1117.84 221.831 1120.81 Q217.73 1123.72 217.73 1128.27 Z" fill="#000000" fill-rule="nonzero" fill-opacity="1" /><path clip-path="url(#clip360)" d="M164.42 732.262 L164.42 729.1 Q176.574 729.1 182.849 722.627 Q184.578 722.627 184.875 723.023 Q185.171 723.418 185.171 725.246 L185.171 782.014 Q185.171 785.028 186.653 785.967 Q188.135 786.906 194.608 786.906 L197.819 786.906 L197.819 790.018 Q194.262 789.722 181.416 789.722 Q168.57 789.722 165.062 790.018 L165.062 786.906 L168.274 786.906 Q174.647 786.906 176.179 786.016 Q177.711 785.077 177.711 782.014 L177.711 729.594 Q172.424 732.262 164.42 732.262 Z" fill="#000000" fill-rule="nonzero" fill-opacity="1" /><path clip-path="url(#clip360)" d="M209.973 757.657 Q209.973 742.785 213.728 734.683 Q218.965 722.627 231.317 722.627 Q233.935 722.627 236.653 723.368 Q239.42 724.06 242.878 726.778 Q246.386 729.495 248.51 733.942 Q252.562 742.538 252.562 757.657 Q252.562 772.429 248.807 780.483 Q243.323 792.241 231.218 792.241 Q226.673 792.241 222.028 789.919 Q217.434 787.597 214.519 782.014 Q209.973 773.665 209.973 757.657 M218.372 756.422 Q218.372 771.688 219.459 777.765 Q220.694 784.336 224.054 787.202 Q227.463 790.018 231.218 790.018 Q235.269 790.018 238.629 787.004 Q242.038 783.941 243.076 777.37 Q244.212 770.898 244.163 756.422 Q244.163 742.341 243.174 736.708 Q241.84 730.137 238.283 727.519 Q234.775 724.851 231.218 724.851 Q229.884 724.851 228.451 725.246 Q227.068 725.641 225.042 726.778 Q223.017 727.914 221.436 730.73 Q219.904 733.546 219.163 737.795 Q218.372 743.279 218.372 756.422 Z" fill="#000000" fill-rule="nonzero" fill-opacity="1" /><path clip-path="url(#clip360)" d="M165.507 339.567 L165.507 336.405 Q177.661 336.405 183.936 329.933 Q185.665 329.933 185.961 330.328 Q186.258 330.723 186.258 332.551 L186.258 389.319 Q186.258 392.333 187.74 393.272 Q189.222 394.211 195.695 394.211 L198.906 394.211 L198.906 397.323 Q195.349 397.027 182.503 397.027 Q169.657 397.027 166.149 397.323 L166.149 394.211 L169.361 394.211 Q175.734 394.211 177.266 393.321 Q178.798 392.383 178.798 389.319 L178.798 336.899 Q173.511 339.567 165.507 339.567 Z" fill="#000000" fill-rule="nonzero" fill-opacity="1" /><path clip-path="url(#clip360)" d="M212.147 397.323 Q212.147 395.495 212.295 394.952 Q212.493 394.408 213.283 393.568 L232.7 371.928 Q243.323 359.972 243.323 349.547 Q243.323 342.778 239.765 337.936 Q236.258 333.095 229.785 333.095 Q225.339 333.095 221.584 335.812 Q217.829 338.529 216.1 343.371 Q216.396 343.272 217.434 343.272 Q219.953 343.272 221.337 344.853 Q222.769 346.434 222.769 348.559 Q222.769 351.276 220.991 352.61 Q219.262 353.895 217.532 353.895 Q216.841 353.895 215.902 353.747 Q215.013 353.598 213.58 352.215 Q212.147 350.782 212.147 348.262 Q212.147 341.197 217.483 335.565 Q222.868 329.933 231.07 329.933 Q240.358 329.933 246.435 335.466 Q252.562 340.95 252.562 349.547 Q252.562 352.561 251.623 355.328 Q250.734 358.045 249.499 360.169 Q248.313 362.294 245.052 365.703 Q241.791 369.112 239.173 371.533 Q236.554 373.954 230.675 379.092 L219.953 389.517 L238.184 389.517 Q247.078 389.517 247.769 388.727 Q248.757 387.294 249.993 379.735 L252.562 379.735 L249.696 397.323 L212.147 397.323 Z" fill="#000000" fill-rule="nonzero" fill-opacity="1" /><path clip-path="url(#clip360)" d="M35.6227 1695.3 L10.0547 1693.13 L10.0547 1623.59 L35.6227 1621.43 L35.6227 1624.26 Q30.5091 1624.71 27.5632 1625.15 Q24.6174 1625.54 21.8382 1626.54 Q19.0035 1627.48 17.6695 1628.71 Q16.28 1629.87 15.2239 1632.15 Q14.1123 1634.43 13.8343 1637.38 Q13.5564 1640.32 13.5564 1644.77 Q13.5564 1650 13.7788 1651.27 Q14.1123 1652.66 15.1127 1653 Q16.0576 1653.33 18.1142 1653.33 L78.0878 1653.33 Q80.3667 1653.33 81.3116 1652.89 Q82.2009 1652.39 82.9235 1649.77 Q83.5905 1647.16 83.5905 1641.38 L83.5905 1636.82 L87.0922 1636.82 Q86.7587 1641.49 86.7587 1658.44 Q86.7587 1675.29 87.0922 1679.95 L83.5905 1679.95 L83.5905 1675.4 Q83.5905 1669.62 82.9235 1667 Q82.2009 1664.34 81.3116 1663.89 Q80.3667 1663.45 78.0878 1663.45 L18.1142 1663.45 Q16.5023 1663.45 15.8353 1663.56 Q15.1683 1663.67 14.6125 1664.17 Q14.0011 1664.67 13.7788 1665.84 Q13.5564 1666.95 13.5564 1671.95 Q13.5564 1676.4 13.8343 1679.4 Q14.1123 1682.34 15.2239 1684.62 Q16.28 1686.9 17.6695 1688.13 Q19.0035 1689.29 21.8382 1690.29 Q24.6174 1691.24 27.5632 1691.63 Q30.5091 1692.02 35.6227 1692.46 L35.6227 1695.3 Z" fill="#000000" fill-rule="nonzero" fill-opacity="1" /><path clip-path="url(#clip360)" d="M87.0922 1613.48 L83.5905 1613.48 Q83.5905 1607.42 82.8679 1606.03 Q82.0897 1604.64 78.4213 1604.64 L47.7953 1604.64 Q43.571 1604.64 42.5705 1606.09 Q41.57 1607.48 41.57 1613.03 L38.0128 1613.03 L36.7899 1597.14 L78.5324 1597.14 Q81.923 1597.14 82.7567 1595.91 Q83.5905 1594.69 83.5905 1589.13 L87.0922 1589.13 Q86.7587 1600.75 86.7587 1600.97 Q86.7587 1602.53 87.0922 1613.48 M16.947 1608.7 Q14.6681 1608.7 12.8339 1606.97 Q10.9441 1605.2 10.9441 1602.69 Q10.9441 1600.19 12.6671 1598.42 Q14.3346 1596.64 17.0026 1596.64 Q19.6149 1596.64 21.338 1598.42 Q23.0055 1600.19 23.0055 1602.69 Q23.0055 1605.31 21.1712 1607.03 Q19.337 1608.7 16.947 1608.7 Z" fill="#000000" fill-rule="nonzero" fill-opacity="1" /><path clip-path="url(#clip360)" d="M87.0922 1582.07 L83.5905 1582.07 Q83.5905 1576.02 82.8679 1574.63 Q82.0897 1573.24 78.4213 1573.24 L47.9065 1573.24 Q43.6822 1573.24 42.6261 1574.74 Q41.57 1576.18 41.57 1582.07 L38.0128 1582.07 L36.7899 1566.07 L48.7402 1566.07 Q36.7899 1560.73 36.7899 1549.22 Q36.7899 1535.88 47.9065 1534.05 Q43.571 1532.11 40.1805 1528.05 Q36.7899 1523.93 36.7899 1517.54 Q36.7899 1508.98 41.0142 1505.59 Q43.8489 1503.09 47.0171 1502.59 Q50.1853 1502.09 58.4116 1502.09 L80.1443 1502.09 Q82.5344 1501.98 83.0902 1500.15 Q83.5905 1498.31 83.5905 1493.2 L87.0922 1493.2 Q86.7587 1504.81 86.7587 1505.93 Q86.7587 1506.82 87.0922 1518.82 L83.5905 1518.82 Q83.5905 1512.76 82.8679 1511.37 Q82.0897 1509.93 78.4213 1509.93 L51.9084 1509.93 Q46.1278 1509.93 42.7373 1511.71 Q39.2912 1513.48 39.2912 1518.38 Q39.2912 1524.27 44.238 1528.99 Q49.1849 1533.72 57.5222 1533.72 L78.4213 1533.72 Q82.0897 1533.72 82.8679 1532.33 Q83.5905 1530.88 83.5905 1524.82 L87.0922 1524.82 Q86.7587 1536.44 86.7587 1537.61 Q86.7587 1538.5 87.0922 1550.45 L83.5905 1550.45 Q83.5905 1544.39 82.8679 1543 Q82.0897 1541.55 78.4213 1541.55 L51.9084 1541.55 Q46.1278 1541.55 42.7373 1543.33 Q39.2912 1545.11 39.2912 1550 Q39.2912 1555.89 44.238 1560.62 Q49.1849 1565.34 57.5222 1565.34 L78.4213 1565.34 Q82.0897 1565.34 82.8679 1563.95 Q83.5905 1562.51 83.5905 1556.51 L87.0922 1556.51 Q86.7587 1568.12 86.7587 1569.23 Q86.7587 1570.12 87.0922 1582.07 Z" fill="#000000" fill-rule="nonzero" fill-opacity="1" /><path clip-path="url(#clip360)" d="M87.0922 1487.19 L83.5905 1487.19 Q83.5905 1481.14 82.8679 1479.75 Q82.0897 1478.36 78.4213 1478.36 L47.7953 1478.36 Q43.571 1478.36 42.5705 1479.8 Q41.57 1481.19 41.57 1486.75 L38.0128 1486.75 L36.7899 1470.85 L78.5324 1470.85 Q81.923 1470.85 82.7567 1469.63 Q83.5905 1468.41 83.5905 1462.85 L87.0922 1462.85 Q86.7587 1474.47 86.7587 1474.69 Q86.7587 1476.24 87.0922 1487.19 M16.947 1482.41 Q14.6681 1482.41 12.8339 1480.69 Q10.9441 1478.91 10.9441 1476.41 Q10.9441 1473.91 12.6671 1472.13 Q14.3346 1470.35 17.0026 1470.35 Q19.6149 1470.35 21.338 1472.13 Q23.0055 1473.91 23.0055 1476.41 Q23.0055 1479.02 21.1712 1480.75 Q19.337 1482.41 16.947 1482.41 Z" fill="#000000" fill-rule="nonzero" fill-opacity="1" /><path clip-path="url(#clip360)" d="M87.0922 1455.79 L83.5905 1455.79 Q83.5905 1449.73 82.8679 1448.34 Q82.0897 1446.95 78.4213 1446.95 L47.9065 1446.95 Q43.6822 1446.95 42.6261 1448.45 Q41.57 1449.9 41.57 1455.79 L38.0128 1455.79 L36.7899 1439.78 L48.7402 1439.78 Q36.7899 1434.45 36.7899 1422.94 Q36.7899 1414.38 41.0142 1410.99 Q43.8489 1408.49 47.0171 1407.99 Q50.1853 1407.43 58.4116 1407.43 L80.1443 1407.43 Q82.5344 1407.32 83.0902 1405.49 Q83.5905 1403.65 83.5905 1398.54 L87.0922 1398.54 Q86.7587 1410.16 86.7587 1411.32 Q86.7587 1412.21 87.0922 1424.16 L83.5905 1424.16 Q83.5905 1418.11 82.8679 1416.72 Q82.0897 1415.27 78.4213 1415.27 L51.9084 1415.27 Q46.1278 1415.27 42.7373 1417.05 Q39.2912 1418.83 39.2912 1423.72 Q39.2912 1429.61 44.238 1434.34 Q49.1849 1439.06 57.5222 1439.06 L78.4213 1439.06 Q82.0897 1439.06 82.8679 1437.67 Q83.5905 1436.23 83.5905 1430.22 L87.0922 1430.22 Q86.7587 1441.84 86.7587 1442.95 Q86.7587 1443.84 87.0922 1455.79 Z" fill="#000000" fill-rule="nonzero" fill-opacity="1" /><path clip-path="url(#clip360)" d="M96.0965 1393.15 Q92.4281 1393.15 89.2599 1390.37 Q86.0917 1387.53 84.7021 1382.64 Q81.5339 1387.65 74.5861 1387.65 Q69.2502 1387.65 65.137 1384.14 Q60.6904 1389.48 53.4091 1389.48 Q46.6836 1389.48 41.7368 1384.14 Q36.7899 1378.81 36.7899 1371.03 Q36.7899 1364.19 40.9031 1358.97 Q35.5671 1353.52 35.5115 1346.9 Q35.5115 1343.96 37.3458 1342.57 Q39.18 1341.12 41.1254 1341.12 Q42.8484 1341.12 43.6822 1342.24 Q44.5159 1343.29 44.5159 1344.4 Q44.5159 1345.79 43.6266 1346.79 Q42.6817 1347.74 41.2365 1347.74 Q38.8465 1347.74 38.1239 1345.9 Q38.0128 1346.24 38.0128 1347.02 Q38.0128 1352.57 42.4594 1357.3 Q46.7948 1352.63 53.5203 1352.63 Q60.2458 1352.63 65.1926 1357.96 Q70.1395 1363.3 70.1395 1371.03 Q70.1395 1377.42 66.5822 1382.31 Q68.8611 1384.26 71.9737 1384.26 Q74.8084 1384.26 77.0317 1382.53 Q79.255 1380.81 79.5885 1378.2 Q79.6997 1377.42 79.6997 1369.69 Q79.6997 1365.14 79.8108 1362.63 Q79.922 1360.13 80.7002 1356.58 Q81.4227 1352.96 82.8679 1350.13 Q86.981 1342.74 95.8742 1342.68 Q102.377 1342.68 106.435 1350.18 Q110.548 1357.63 110.548 1367.97 Q110.548 1378.42 106.379 1385.81 Q102.266 1393.15 96.0965 1393.15 M96.0965 1387.2 Q100.765 1387.2 104.323 1381.7 Q107.936 1376.2 107.936 1367.86 Q107.936 1359.69 104.378 1354.19 Q100.877 1348.63 96.0965 1348.63 Q92.706 1348.63 90.5383 1350.57 Q88.3706 1352.52 87.4812 1356.52 Q86.6475 1360.47 86.4807 1363.25 Q86.314 1366.02 86.314 1371.14 L86.314 1377.86 Q86.5363 1381.75 89.371 1384.48 Q92.2058 1387.2 96.0965 1387.2 M53.5203 1380.98 Q67.5271 1380.98 67.5271 1371.03 Q67.5271 1366.02 62.9693 1362.97 Q59.9123 1361.13 53.4091 1361.13 Q39.4023 1361.13 39.4023 1371.03 Q39.4023 1376.03 43.9601 1379.14 Q47.0171 1380.98 53.5203 1380.98 Z" fill="#000000" fill-rule="nonzero" fill-opacity="1" /><path clip-path="url(#clip360)" d="M87.0922 1298.38 L83.5905 1298.38 Q83.5905 1292.32 82.8679 1290.93 Q82.0897 1289.49 78.4213 1289.49 L47.9065 1289.49 Q43.6822 1289.49 42.6261 1290.99 Q41.57 1292.43 41.57 1298.38 L38.0128 1298.38 L36.7899 1282.54 L49.296 1282.54 Q44.4048 1280.93 40.6251 1277.54 Q36.7899 1274.09 36.7899 1268.53 Q36.7899 1264.86 38.8465 1262.53 Q40.9031 1260.14 43.7378 1260.14 Q46.239 1260.14 47.5174 1261.7 Q48.7402 1263.2 48.7402 1265.03 Q48.7402 1267.09 47.4618 1268.53 Q46.1278 1269.92 43.8489 1269.92 Q42.4594 1269.92 41.4033 1269.31 Q40.2916 1268.64 39.9026 1268.14 Q39.5135 1267.64 39.4023 1267.31 Q39.2912 1267.53 39.2912 1268.53 Q39.2912 1274.81 45.572 1278.43 Q51.7972 1281.98 60.6904 1281.98 L78.1989 1281.98 Q81.4783 1281.98 82.5344 1280.65 Q83.5905 1279.26 83.5905 1273.31 L83.5905 1270.92 L87.0922 1270.92 Q86.7587 1275.48 86.7587 1285.37 Q86.7587 1286.76 86.8142 1288.93 Q86.8698 1291.1 86.981 1293.93 Q87.0922 1296.77 87.0922 1298.38 Z" fill="#000000" fill-rule="nonzero" fill-opacity="1" /><path clip-path="url(#clip360)" d="M76.2536 1252.3 Q66.5822 1252.3 61.4686 1240.91 Q58.1892 1234.07 57.3555 1219.95 L53.1868 1219.95 Q46.1278 1219.95 42.4038 1223.68 Q38.6242 1227.35 38.6242 1232.01 Q38.6242 1240.35 43.8489 1244.35 Q43.9601 1240.96 45.6832 1239.74 Q47.3506 1238.52 49.0737 1238.52 Q51.3526 1238.52 52.8533 1239.96 Q54.2984 1241.35 54.2984 1243.74 Q54.2984 1246.02 52.9089 1247.52 Q51.4637 1249.02 48.9625 1249.02 Q43.4043 1249.02 39.7358 1244.02 Q36.0674 1238.96 36.0674 1231.79 Q36.0674 1222.45 42.3482 1216.23 Q44.2936 1214.28 46.7948 1213.34 Q49.296 1212.34 50.9635 1212.23 Q52.5754 1212.12 55.7992 1212.12 L78.5324 1212.12 Q79.1994 1212.12 80.3111 1211.89 Q81.4227 1211.67 82.8679 1210.67 Q84.2574 1209.62 84.2574 1207.89 Q84.2574 1203.78 76.9761 1203.83 L70.5841 1203.83 L70.5841 1200.94 L76.9761 1200.94 Q83.0346 1200.94 85.4247 1204.17 Q87.7591 1207.34 87.7591 1210.28 Q87.7591 1214.06 84.98 1216.45 Q82.2009 1218.84 78.4213 1219.18 Q82.7567 1220.9 85.5914 1224.84 Q88.3706 1228.74 88.3706 1234.07 Q88.3706 1238.18 87.3145 1242.08 Q86.314 1245.91 83.4793 1249.13 Q80.589 1252.3 76.2536 1252.3 M76.1424 1243.52 Q80.3667 1243.52 83.0902 1240.52 Q85.8138 1237.52 85.8138 1233.29 Q85.8138 1228.51 82.1453 1224.23 Q78.4213 1219.95 71.14 1219.95 L59.7455 1219.95 Q60.1902 1232.57 65.2482 1238.07 Q70.2506 1243.52 76.1424 1243.52 Z" fill="#000000" fill-rule="nonzero" fill-opacity="1" /><path clip-path="url(#clip360)" d="M41.57 1198 L39.0688 1198 Q38.8465 1192.77 35.178 1189.33 Q31.454 1185.83 26.8962 1184.66 Q22.3385 1183.44 17.0581 1183.32 L17.0581 1180.49 L38.0128 1180.49 L38.0128 1164.2 L41.57 1164.2 L41.57 1180.49 L73.1965 1180.49 Q85.4803 1180.49 85.4803 1172.82 Q85.4803 1169.54 82.1453 1167.37 Q78.7548 1165.2 72.7519 1165.2 L66.471 1165.2 L66.471 1162.37 L72.9742 1162.37 Q79.1439 1162.37 83.7572 1165.2 Q88.3706 1168.04 88.3706 1173.65 Q88.3706 1175.71 87.8147 1177.77 Q87.3145 1179.77 85.9805 1182.44 Q84.5909 1185.05 81.256 1186.72 Q77.8655 1188.33 72.9742 1188.33 L41.57 1188.33 L41.57 1198 Z" fill="#000000" fill-rule="nonzero" fill-opacity="1" /><path clip-path="url(#clip360)" d="M87.0922 1152.25 L83.5905 1152.25 Q83.5905 1146.2 82.8679 1144.81 Q82.0897 1143.42 78.4213 1143.42 L47.7953 1143.42 Q43.571 1143.42 42.5705 1144.86 Q41.57 1146.25 41.57 1151.81 L38.0128 1151.81 L36.7899 1135.91 L78.5324 1135.91 Q81.923 1135.91 82.7567 1134.69 Q83.5905 1133.47 83.5905 1127.91 L87.0922 1127.91 Q86.7587 1139.53 86.7587 1139.75 Q86.7587 1141.3 87.0922 1152.25 M16.947 1147.47 Q14.6681 1147.47 12.8339 1145.75 Q10.9441 1143.97 10.9441 1141.47 Q10.9441 1138.97 12.6671 1137.19 Q14.3346 1135.41 17.0026 1135.41 Q19.6149 1135.41 21.338 1137.19 Q23.0055 1138.97 23.0055 1141.47 Q23.0055 1144.08 21.1712 1145.81 Q19.337 1147.47 16.947 1147.47 Z" fill="#000000" fill-rule="nonzero" fill-opacity="1" /><path clip-path="url(#clip360)" d="M80.9781 1113.85 Q73.53 1121.35 62.747 1121.35 Q51.9084 1121.35 44.0157 1114.01 Q36.0674 1106.62 36.0674 1096.06 Q36.0674 1085.72 43.9601 1078.33 Q51.7972 1070.88 62.747 1070.88 Q73.4744 1070.88 80.9225 1078.38 Q88.3706 1085.83 88.3706 1096.17 Q88.3706 1106.29 80.9781 1113.85 M61.8021 1111.9 Q72.863 1111.9 77.8655 1109.01 Q85.4803 1104.56 85.4803 1096.06 Q85.4803 1091.84 83.2014 1088.33 Q80.9225 1084.78 77.0873 1082.83 Q72.0849 1080.33 61.8021 1080.33 Q50.8523 1080.33 46.0166 1083.33 Q38.6242 1087.78 38.6242 1096.17 Q38.6242 1099.84 40.5696 1103.45 Q42.4594 1107.01 46.239 1109.18 Q51.2414 1111.9 61.8021 1111.9 Z" fill="#000000" fill-rule="nonzero" fill-opacity="1" /><polyline clip-path="url(#clip361)" style="stroke:#e26f46; stroke-linecap:round; stroke-linejoin:round; stroke-width:4; stroke-opacity:1; fill:none" points="398.435,2550.22 654.369,2570.9 1248.63,2587.38 1504.56,2592.46 2098.82,2598.38 2354.76,2594.53 2949.02,2571.86 3204.95,2565.24 3460.88,2551.15 "/>
<polyline clip-path="url(#clip361)" style="stroke:#3da44d; stroke-linecap:round; stroke-linejoin:round; stroke-width:4; stroke-opacity:1; fill:none" points="398.435,640.425 654.369,928.764 1248.63,1189.78 1504.56,1273.59 2098.82,1421.84 2354.76,1369.5 2949.02,1230.5 3204.95,1196.37 3460.88,1324.45 "/>
<polyline clip-path="url(#clip361)" style="stroke:#c271d2; stroke-linecap:round; stroke-linejoin:round; stroke-width:4; stroke-opacity:1; fill:none" points="398.435,47.2441 654.369,1283.92 1248.63,1490.27 1504.56,1626.83 2098.82,1794.6 2354.76,1675.51 2949.02,1658.73 3204.95,1692.04 3460.88,1793.06 "/>
<polyline clip-path="url(#clip361)" style="stroke:#000000; stroke-linecap:round; stroke-linejoin:round; stroke-width:4; stroke-opacity:1; fill:none" points="-2939.63,2522.58 6798.95,2522.58 "/>
<path clip-path="url(#clip360)" d="M414.768 551.02 L2146.64 551.02 L2146.64 136.3 L414.768 136.3  Z" fill="#ffffff" fill-rule="evenodd" fill-opacity="1"/>
<polyline clip-path="url(#clip360)" style="stroke:#000000; stroke-linecap:round; stroke-linejoin:round; stroke-width:4; stroke-opacity:1; fill:none" points="414.768,551.02 2146.64,551.02 2146.64,136.3 414.768,136.3 414.768,551.02 "/>
<polyline clip-path="url(#clip360)" style="stroke:#e26f46; stroke-linecap:round; stroke-linejoin:round; stroke-width:8; stroke-opacity:1; fill:none" points="450.837,239.98 667.25,239.98 "/>
<path clip-path="url(#clip360)" d="M713.694 266.042 Q703.319 255.321 703.319 239.956 Q703.319 224.541 713.793 213.869 Q724.267 203.197 738.496 203.197 Q742.054 203.197 745.067 204.037 Q748.131 204.827 750.552 206.458 Q752.973 208.039 754.208 209.126 Q755.492 210.163 757.222 211.893 L762.31 204.432 Q763.101 203.197 763.891 203.197 Q764.731 203.197 764.88 203.691 Q765.028 204.136 765.028 205.618 L765.028 229.63 Q765.028 231.26 764.83 231.655 Q764.633 232.051 763.397 232.051 Q762.409 232.051 762.212 231.754 Q762.014 231.458 761.767 230.321 Q760.235 219.402 754.109 212.881 Q748.032 206.359 739.732 206.359 Q737.311 206.359 734.593 206.903 Q731.925 207.446 727.973 209.521 Q724.07 211.596 721.056 215.005 Q718.091 218.365 715.918 224.887 Q713.744 231.359 713.744 239.956 Q713.744 248.454 715.918 254.975 Q718.091 261.497 721.105 264.906 Q724.168 268.266 728.121 270.39 Q732.123 272.515 734.939 273.108 Q737.805 273.651 740.324 273.651 Q742.054 273.651 744.079 273.305 Q746.105 272.91 749.119 271.823 Q752.182 270.687 754.109 268.019 Q756.036 265.351 756.036 261.398 L756.036 254.926 Q756.036 251.912 754.554 250.973 Q753.071 250.035 746.599 250.035 L743.388 250.035 L743.388 246.922 Q747.044 247.218 759.642 247.218 Q760.779 247.218 771.994 246.922 L771.994 250.035 Q767.152 250.035 766.065 250.776 Q765.028 251.467 765.028 254.481 L765.028 272.119 Q765.028 274.442 764.138 274.442 Q763.348 274.442 760.976 272.169 Q758.654 269.896 757.617 268.167 Q755.196 272.416 749.909 274.59 Q744.672 276.764 738.694 276.764 Q724.119 276.764 713.694 266.042 Z" fill="#000000" fill-rule="nonzero" fill-opacity="1" /><path clip-path="url(#clip360)" d="M781.184 264.906 Q781.184 256.309 791.312 251.764 Q797.389 248.849 809.939 248.108 L809.939 244.402 Q809.939 238.128 806.628 234.817 Q803.367 231.458 799.217 231.458 Q791.806 231.458 788.249 236.102 Q791.263 236.201 792.35 237.732 Q793.437 239.215 793.437 240.746 Q793.437 242.772 792.152 244.106 Q790.917 245.39 788.792 245.39 Q786.767 245.39 785.433 244.155 Q784.099 242.871 784.099 240.647 Q784.099 235.707 788.545 232.446 Q793.041 229.185 799.415 229.185 Q807.715 229.185 813.249 234.768 Q814.978 236.497 815.818 238.72 Q816.707 240.944 816.806 242.426 Q816.905 243.859 816.905 246.724 L816.905 266.932 Q816.905 267.525 817.102 268.513 Q817.3 269.501 818.189 270.785 Q819.128 272.021 820.66 272.021 Q824.316 272.021 824.266 265.548 L824.266 259.867 L826.836 259.867 L826.836 265.548 Q826.836 270.934 823.97 273.058 Q821.154 275.133 818.535 275.133 Q815.176 275.133 813.051 272.663 Q810.927 270.193 810.63 266.833 Q809.099 270.687 805.591 273.206 Q802.132 275.677 797.389 275.677 Q793.733 275.677 790.275 274.738 Q786.866 273.849 784 271.329 Q781.184 268.76 781.184 264.906 M788.99 264.807 Q788.99 268.562 791.658 270.983 Q794.326 273.404 798.081 273.404 Q802.33 273.404 806.134 270.143 Q809.939 266.833 809.939 260.361 L809.939 250.232 Q798.723 250.628 793.832 255.124 Q788.99 259.57 788.99 264.807 Z" fill="#000000" fill-rule="nonzero" fill-opacity="1" /><path clip-path="url(#clip360)" d="M830.788 234.076 L830.788 230.914 L845.66 229.827 L845.66 263.424 Q845.66 265.845 845.857 267.278 Q846.055 268.661 846.845 270.291 Q847.685 271.922 849.563 272.663 Q851.49 273.404 854.553 273.404 Q860.037 273.404 863.397 268.908 Q866.806 264.412 866.806 257.742 L866.806 239.709 Q866.806 235.954 865.472 235.015 Q864.138 234.076 858.901 234.076 L858.901 230.914 L873.772 229.827 L873.772 265.746 Q873.772 269.501 875.057 270.489 Q876.391 271.428 881.677 271.428 L881.677 274.54 L867.102 275.677 L867.102 266.536 Q862.853 275.627 854.059 275.677 Q849.612 275.677 846.549 274.54 Q843.535 273.404 842.003 272.021 Q840.472 270.588 839.632 267.87 Q838.841 265.153 838.743 263.473 Q838.644 261.793 838.644 258.533 L838.644 243.365 Q838.644 236.497 837.656 235.311 Q836.668 234.076 830.788 234.076 Z" fill="#000000" fill-rule="nonzero" fill-opacity="1" /><path clip-path="url(#clip360)" d="M887.013 273.206 L887.013 259.867 Q887.013 258.73 887.062 258.335 Q887.112 257.94 887.408 257.643 Q887.705 257.347 888.298 257.347 Q888.989 257.347 889.236 257.643 Q889.533 257.94 889.73 259.076 Q891.262 266.042 894.523 269.748 Q897.833 273.404 903.811 273.404 Q909.493 273.404 912.359 270.884 Q915.224 268.365 915.224 264.214 Q915.224 256.803 904.701 254.926 Q898.624 253.691 896.104 252.9 Q893.584 252.06 891.361 250.232 Q887.013 246.675 887.013 241.635 Q887.013 236.596 890.817 232.891 Q894.671 229.185 903.169 229.185 Q908.851 229.185 912.704 232.051 Q913.841 231.161 914.434 230.42 Q915.768 229.185 916.459 229.185 Q917.25 229.185 917.398 229.728 Q917.546 230.223 917.546 231.655 L917.546 241.833 Q917.546 242.969 917.497 243.365 Q917.448 243.76 917.151 244.056 Q916.855 244.303 916.212 244.303 Q915.076 244.303 915.027 243.365 Q914.236 231.112 903.169 231.112 Q897.191 231.112 894.523 233.434 Q891.855 235.707 891.855 238.819 Q891.855 240.549 892.645 241.883 Q893.485 243.167 894.523 243.958 Q895.61 244.699 897.586 245.44 Q899.562 246.132 900.748 246.379 Q901.983 246.626 904.305 247.12 Q912.408 248.651 915.817 251.961 Q920.066 256.21 920.066 261.596 Q920.066 267.574 916.015 271.625 Q911.963 275.677 903.811 275.677 Q897.24 275.677 892.645 271.28 Q892.052 271.872 891.608 272.416 Q891.163 272.91 890.966 273.108 Q890.817 273.305 890.768 273.453 Q890.718 273.552 890.62 273.651 Q888.594 275.677 888.1 275.677 Q887.309 275.677 887.161 275.133 Q887.013 274.639 887.013 273.206 Z" fill="#000000" fill-rule="nonzero" fill-opacity="1" /><path clip-path="url(#clip360)" d="M926.835 273.206 L926.835 259.867 Q926.835 258.73 926.884 258.335 Q926.934 257.94 927.23 257.643 Q927.526 257.347 928.119 257.347 Q928.811 257.347 929.058 257.643 Q929.355 257.94 929.552 259.076 Q931.084 266.042 934.345 269.748 Q937.655 273.404 943.633 273.404 Q949.315 273.404 952.18 270.884 Q955.046 268.365 955.046 264.214 Q955.046 256.803 944.522 254.926 Q938.445 253.691 935.926 252.9 Q933.406 252.06 931.183 250.232 Q926.835 246.675 926.835 241.635 Q926.835 236.596 930.639 232.891 Q934.493 229.185 942.991 229.185 Q948.673 229.185 952.526 232.051 Q953.663 231.161 954.256 230.42 Q955.59 229.185 956.281 229.185 Q957.072 229.185 957.22 229.728 Q957.368 230.223 957.368 231.655 L957.368 241.833 Q957.368 242.969 957.319 243.365 Q957.269 243.76 956.973 244.056 Q956.676 244.303 956.034 244.303 Q954.898 244.303 954.848 243.365 Q954.058 231.112 942.991 231.112 Q937.013 231.112 934.345 233.434 Q931.677 235.707 931.677 238.819 Q931.677 240.549 932.467 241.883 Q933.307 243.167 934.345 243.958 Q935.432 244.699 937.408 245.44 Q939.384 246.132 940.57 246.379 Q941.805 246.626 944.127 247.12 Q952.23 248.651 955.639 251.961 Q959.888 256.21 959.888 261.596 Q959.888 267.574 955.837 271.625 Q951.785 275.677 943.633 275.677 Q937.062 275.677 932.467 271.28 Q931.874 271.872 931.43 272.416 Q930.985 272.91 930.787 273.108 Q930.639 273.305 930.59 273.453 Q930.54 273.552 930.441 273.651 Q928.416 275.677 927.922 275.677 Q927.131 275.677 926.983 275.133 Q926.835 274.639 926.835 273.206 Z" fill="#000000" fill-rule="nonzero" fill-opacity="1" /><path clip-path="url(#clip360)" d="M966.657 274.54 L966.657 271.428 Q972.042 271.428 973.277 270.785 Q974.512 270.094 974.512 266.833 L974.512 239.61 Q974.512 235.855 973.228 234.966 Q971.993 234.076 967.052 234.076 L967.052 230.914 L981.182 229.827 L981.182 266.932 Q981.182 269.946 982.269 270.687 Q983.356 271.428 988.297 271.428 L988.297 274.54 Q977.971 274.244 977.773 274.244 Q976.39 274.244 966.657 274.54 M970.906 212.189 Q970.906 210.163 972.437 208.533 Q974.018 206.853 976.242 206.853 Q978.465 206.853 980.046 208.385 Q981.627 209.867 981.627 212.238 Q981.627 214.561 980.046 216.092 Q978.465 217.574 976.242 217.574 Q973.919 217.574 972.388 215.944 Q970.906 214.314 970.906 212.189 Z" fill="#000000" fill-rule="nonzero" fill-opacity="1" /><path clip-path="url(#clip360)" d="M995.56 264.906 Q995.56 256.309 1005.69 251.764 Q1011.76 248.849 1024.31 248.108 L1024.31 244.402 Q1024.31 238.128 1021 234.817 Q1017.74 231.458 1013.59 231.458 Q1006.18 231.458 1002.62 236.102 Q1005.64 236.201 1006.73 237.732 Q1007.81 239.215 1007.81 240.746 Q1007.81 242.772 1006.53 244.106 Q1005.29 245.39 1003.17 245.39 Q1001.14 245.39 999.809 244.155 Q998.475 242.871 998.475 240.647 Q998.475 235.707 1002.92 232.446 Q1007.42 229.185 1013.79 229.185 Q1022.09 229.185 1027.62 234.768 Q1029.35 236.497 1030.19 238.72 Q1031.08 240.944 1031.18 242.426 Q1031.28 243.859 1031.28 246.724 L1031.28 266.932 Q1031.28 267.525 1031.48 268.513 Q1031.68 269.501 1032.57 270.785 Q1033.5 272.021 1035.04 272.021 Q1038.69 272.021 1038.64 265.548 L1038.64 259.867 L1041.21 259.867 L1041.21 265.548 Q1041.21 270.934 1038.35 273.058 Q1035.53 275.133 1032.91 275.133 Q1029.55 275.133 1027.43 272.663 Q1025.3 270.193 1025.01 266.833 Q1023.47 270.687 1019.97 273.206 Q1016.51 275.677 1011.76 275.677 Q1008.11 275.677 1004.65 274.738 Q1001.24 273.849 998.376 271.329 Q995.56 268.76 995.56 264.906 M1003.37 264.807 Q1003.37 268.562 1006.03 270.983 Q1008.7 273.404 1012.46 273.404 Q1016.71 273.404 1020.51 270.143 Q1024.31 266.833 1024.31 260.361 L1024.31 250.232 Q1013.1 250.628 1008.21 255.124 Q1003.37 259.57 1003.37 264.807 Z" fill="#000000" fill-rule="nonzero" fill-opacity="1" /><path clip-path="url(#clip360)" d="M1045.16 274.54 L1045.16 271.428 Q1050.55 271.428 1051.78 270.785 Q1053.02 270.094 1053.02 266.833 L1053.02 239.709 Q1053.02 235.954 1051.69 235.015 Q1050.4 234.076 1045.16 234.076 L1045.16 230.914 L1059.39 229.827 L1059.39 240.45 Q1064.14 229.827 1074.36 229.827 Q1081.97 229.827 1084.99 233.582 Q1087.21 236.102 1087.65 238.918 Q1088.15 241.734 1088.15 249.047 L1088.15 268.365 Q1088.25 270.489 1089.88 270.983 Q1091.51 271.428 1096.05 271.428 L1096.05 274.54 Q1085.73 274.244 1084.69 274.244 Q1083.9 274.244 1073.28 274.54 L1073.28 271.428 Q1078.66 271.428 1079.9 270.785 Q1081.18 270.094 1081.18 266.833 L1081.18 243.266 Q1081.18 238.128 1079.6 235.114 Q1078.02 232.051 1073.67 232.051 Q1068.43 232.051 1064.23 236.448 Q1060.04 240.845 1060.04 248.256 L1060.04 266.833 Q1060.04 270.094 1061.27 270.785 Q1062.56 271.428 1067.89 271.428 L1067.89 274.54 Q1057.56 274.244 1056.58 274.244 Q1055.79 274.244 1045.16 274.54 Z" fill="#000000" fill-rule="nonzero" fill-opacity="1" /><path clip-path="url(#clip360)" d="M1101.78 274.54 L1101.78 271.428 Q1105.44 271.428 1107.76 270.736 Q1110.08 269.995 1110.92 268.661 Q1111.81 267.278 1112.01 266.388 Q1112.21 265.45 1112.21 263.918 L1112.21 213.325 Q1112.21 210.41 1110.92 209.521 Q1109.69 208.582 1104.2 208.582 L1101.78 208.582 L1101.78 205.42 L1118.88 205.42 Q1120.71 205.42 1121.2 205.766 Q1121.69 206.063 1122.44 207.644 L1144.37 264.313 L1166.51 207.347 Q1167 205.914 1167.45 205.667 Q1167.94 205.42 1169.87 205.42 L1186.96 205.42 L1186.96 208.582 L1184.54 208.582 Q1179.06 208.582 1177.77 209.521 Q1176.54 210.41 1176.54 213.325 L1176.54 266.635 Q1176.54 269.55 1177.77 270.489 Q1179.06 271.428 1184.54 271.428 L1186.96 271.428 L1186.96 274.54 Q1183.21 274.244 1172.49 274.244 Q1161.66 274.244 1157.91 274.54 L1157.91 271.428 L1160.38 271.428 Q1165.86 271.428 1167.1 270.538 Q1168.33 269.6 1168.33 266.635 L1168.33 208.582 L1168.24 208.582 L1143.38 272.614 Q1142.69 274.54 1141.56 274.54 Q1140.32 274.54 1139.53 272.317 L1115.12 209.373 L1115.02 209.373 L1115.02 263.918 Q1115.02 265.45 1115.22 266.388 Q1115.42 267.278 1116.26 268.661 Q1117.15 269.995 1119.47 270.736 Q1121.79 271.428 1125.45 271.428 L1125.45 274.54 Q1114.83 274.244 1113.59 274.244 Q1112.41 274.244 1101.78 274.54 Z" fill="#000000" fill-rule="nonzero" fill-opacity="1" /><path clip-path="url(#clip360)" d="M1194.03 274.54 L1194.03 271.428 Q1199.41 271.428 1200.65 270.785 Q1201.88 270.094 1201.88 266.833 L1201.88 239.61 Q1201.88 235.855 1200.6 234.966 Q1199.36 234.076 1194.42 234.076 L1194.42 230.914 L1208.55 229.827 L1208.55 266.932 Q1208.55 269.946 1209.64 270.687 Q1210.73 271.428 1215.67 271.428 L1215.67 274.54 Q1205.34 274.244 1205.14 274.244 Q1203.76 274.244 1194.03 274.54 M1198.28 212.189 Q1198.28 210.163 1199.81 208.533 Q1201.39 206.853 1203.61 206.853 Q1205.83 206.853 1207.42 208.385 Q1209 209.867 1209 212.238 Q1209 214.561 1207.42 216.092 Q1205.83 217.574 1203.61 217.574 Q1201.29 217.574 1199.76 215.944 Q1198.28 214.314 1198.28 212.189 Z" fill="#000000" fill-rule="nonzero" fill-opacity="1" /><path clip-path="url(#clip360)" d="M1219.92 274.54 L1219.92 271.428 Q1227.82 271.428 1232.86 265.351 Q1232.86 265.351 1242.35 253.295 L1232.32 240.252 Q1228.76 235.707 1227.18 234.916 Q1225.65 234.076 1220.41 234.076 L1220.41 230.914 Q1224.56 231.211 1229.99 231.211 Q1233.01 231.211 1240.96 230.914 L1240.96 234.076 Q1237.41 234.274 1237.41 236.596 Q1237.41 237.387 1238.29 238.424 L1246.2 248.651 L1252.47 240.746 Q1254.01 238.918 1254.01 237.189 Q1254.01 234.373 1251.04 234.076 L1251.04 230.914 Q1254.99 231.211 1260.77 231.211 Q1265.12 231.211 1269.08 230.914 L1269.08 234.076 Q1261.37 234.274 1257.02 239.313 Q1255.09 241.438 1247.73 250.776 L1261.27 268.266 Q1262.9 270.39 1264.73 270.934 Q1266.56 271.428 1270.9 271.428 L1270.9 274.54 Q1266.36 274.244 1261.17 274.244 Q1259.34 274.244 1250.25 274.54 L1250.25 271.428 Q1252.08 271.329 1252.97 270.538 Q1253.91 269.699 1253.91 268.859 Q1253.91 268.463 1251.78 265.548 L1244.08 255.42 Q1236.37 264.511 1235.38 266.635 Q1234.98 267.525 1234.98 268.266 Q1234.98 270.983 1237.9 271.428 L1237.9 274.54 Q1230.64 274.244 1228.31 274.244 Q1223.87 274.244 1219.92 274.54 Z" fill="#000000" fill-rule="nonzero" fill-opacity="1" /><path clip-path="url(#clip360)" d="M1273.92 234.076 L1273.92 231.853 Q1278.56 231.655 1281.62 228.394 Q1284.74 225.084 1285.77 221.033 Q1286.86 216.982 1286.96 212.288 L1289.48 212.288 L1289.48 230.914 L1303.96 230.914 L1303.96 234.076 L1289.48 234.076 L1289.48 262.189 Q1289.48 273.108 1296.3 273.108 Q1299.21 273.108 1301.14 270.143 Q1303.07 267.129 1303.07 261.793 L1303.07 256.21 L1305.59 256.21 L1305.59 261.991 Q1305.59 267.475 1303.07 271.576 Q1300.55 275.677 1295.56 275.677 Q1293.73 275.677 1291.9 275.183 Q1290.12 274.738 1287.75 273.552 Q1285.43 272.317 1283.95 269.353 Q1282.51 266.339 1282.51 261.991 L1282.51 234.076 L1273.92 234.076 Z" fill="#000000" fill-rule="nonzero" fill-opacity="1" /><path clip-path="url(#clip360)" d="M1314.48 234.076 L1314.48 230.914 L1329.35 229.827 L1329.35 263.424 Q1329.35 265.845 1329.55 267.278 Q1329.75 268.661 1330.54 270.291 Q1331.38 271.922 1333.25 272.663 Q1335.18 273.404 1338.24 273.404 Q1343.73 273.404 1347.09 268.908 Q1350.5 264.412 1350.5 257.742 L1350.5 239.709 Q1350.5 235.954 1349.16 235.015 Q1347.83 234.076 1342.59 234.076 L1342.59 230.914 L1357.46 229.827 L1357.46 265.746 Q1357.46 269.501 1358.75 270.489 Q1360.08 271.428 1365.37 271.428 L1365.37 274.54 L1350.79 275.677 L1350.79 266.536 Q1346.54 275.627 1337.75 275.677 Q1333.3 275.677 1330.24 274.54 Q1327.23 273.404 1325.7 272.021 Q1324.16 270.588 1323.32 267.87 Q1322.53 265.153 1322.43 263.473 Q1322.34 261.793 1322.34 258.533 L1322.34 243.365 Q1322.34 236.497 1321.35 235.311 Q1320.36 234.076 1314.48 234.076 Z" fill="#000000" fill-rule="nonzero" fill-opacity="1" /><path clip-path="url(#clip360)" d="M1370.16 274.54 L1370.16 271.428 Q1375.55 271.428 1376.78 270.785 Q1378.07 270.094 1378.07 266.833 L1378.07 239.709 Q1378.07 235.954 1376.73 235.015 Q1375.45 234.076 1370.16 234.076 L1370.16 230.914 L1384.24 229.827 L1384.24 240.944 Q1385.68 236.596 1388.69 233.236 Q1391.75 229.827 1396.69 229.827 Q1399.95 229.827 1402.03 231.655 Q1404.15 233.483 1404.15 236.003 Q1404.15 238.226 1402.77 239.363 Q1401.44 240.45 1399.81 240.45 Q1397.98 240.45 1396.69 239.313 Q1395.46 238.128 1395.46 236.102 Q1395.46 234.867 1396 233.928 Q1396.59 232.94 1397.04 232.594 Q1397.48 232.248 1397.78 232.149 Q1397.58 232.051 1396.69 232.051 Q1391.11 232.051 1387.9 237.634 Q1384.74 243.167 1384.74 251.072 L1384.74 266.635 Q1384.74 269.55 1385.92 270.489 Q1387.16 271.428 1392.44 271.428 L1394.57 271.428 L1394.57 274.54 Q1390.52 274.244 1381.72 274.244 Q1380.49 274.244 1378.56 274.293 Q1376.63 274.343 1374.11 274.442 Q1371.59 274.54 1370.16 274.54 Z" fill="#000000" fill-rule="nonzero" fill-opacity="1" /><path clip-path="url(#clip360)" d="M1409.69 252.258 Q1409.69 242.722 1415.81 235.954 Q1421.94 229.185 1430.73 229.185 Q1439.63 229.185 1444.22 234.966 Q1448.87 240.746 1448.87 249.047 Q1448.87 250.578 1448.47 250.875 Q1448.08 251.171 1446.35 251.171 L1418.09 251.171 Q1418.09 261.497 1421.15 266.339 Q1425.4 273.108 1432.56 273.108 Q1433.55 273.108 1434.74 272.91 Q1435.92 272.712 1438.34 271.872 Q1440.76 270.983 1442.89 268.661 Q1445.01 266.339 1446.25 262.683 Q1446.54 261.25 1447.53 261.299 Q1448.87 261.299 1448.87 262.485 Q1448.87 263.374 1447.88 265.4 Q1446.94 267.376 1445.11 269.748 Q1443.28 272.119 1439.73 273.898 Q1436.22 275.677 1431.97 275.677 Q1423.08 275.677 1416.36 268.957 Q1409.69 262.189 1409.69 252.258 M1418.18 249.047 L1442.2 249.047 Q1442.2 246.922 1441.8 244.55 Q1441.46 242.179 1440.37 238.918 Q1439.33 235.608 1436.86 233.533 Q1434.39 231.458 1430.73 231.458 Q1429.1 231.458 1427.32 232.149 Q1425.6 232.841 1423.47 234.521 Q1421.35 236.201 1419.86 240.005 Q1418.38 243.809 1418.18 249.047 Z" fill="#000000" fill-rule="nonzero" fill-opacity="1" /><path clip-path="url(#clip360)" d="M1455.54 274.54 L1455.54 271.428 Q1459.19 271.428 1461.51 270.736 Q1463.84 269.995 1464.68 268.661 Q1465.57 267.278 1465.76 266.388 Q1465.96 265.45 1465.96 263.918 L1465.96 213.325 Q1465.96 210.41 1464.68 209.521 Q1463.44 208.582 1457.96 208.582 L1455.54 208.582 L1455.54 205.42 L1472.63 205.42 Q1474.46 205.42 1474.95 205.766 Q1475.45 206.063 1476.19 207.644 L1498.12 264.313 L1520.26 207.347 Q1520.75 205.914 1521.2 205.667 Q1521.69 205.42 1523.62 205.42 L1540.71 205.42 L1540.71 208.582 L1538.29 208.582 Q1532.81 208.582 1531.52 209.521 Q1530.29 210.41 1530.29 213.325 L1530.29 266.635 Q1530.29 269.55 1531.52 270.489 Q1532.81 271.428 1538.29 271.428 L1540.71 271.428 L1540.71 274.54 Q1536.96 274.244 1526.24 274.244 Q1515.42 274.244 1511.66 274.54 L1511.66 271.428 L1514.13 271.428 Q1519.62 271.428 1520.85 270.538 Q1522.09 269.6 1522.09 266.635 L1522.09 208.582 L1521.99 208.582 L1497.14 272.614 Q1496.44 274.54 1495.31 274.54 Q1494.07 274.54 1493.28 272.317 L1468.88 209.373 L1468.78 209.373 L1468.78 263.918 Q1468.78 265.45 1468.97 266.388 Q1469.17 267.278 1470.01 268.661 Q1470.9 269.995 1473.22 270.736 Q1475.55 271.428 1479.2 271.428 L1479.2 274.54 Q1468.58 274.244 1467.34 274.244 Q1466.16 274.244 1455.54 274.54 Z" fill="#000000" fill-rule="nonzero" fill-opacity="1" /><path clip-path="url(#clip360)" d="M1553.9 269.106 Q1547.23 262.485 1547.23 252.9 Q1547.23 243.266 1553.76 236.25 Q1560.33 229.185 1569.72 229.185 Q1578.9 229.185 1585.48 236.201 Q1592.1 243.167 1592.1 252.9 Q1592.1 262.436 1585.43 269.056 Q1578.81 275.677 1569.62 275.677 Q1560.62 275.677 1553.9 269.106 M1555.63 252.06 Q1555.63 261.892 1558.2 266.339 Q1562.16 273.108 1569.72 273.108 Q1573.47 273.108 1576.58 271.082 Q1579.74 269.056 1581.47 265.647 Q1583.7 261.201 1583.7 252.06 Q1583.7 242.327 1581.03 238.029 Q1577.08 231.458 1569.62 231.458 Q1566.36 231.458 1563.14 233.187 Q1559.98 234.867 1558.06 238.226 Q1555.63 242.673 1555.63 252.06 Z" fill="#000000" fill-rule="nonzero" fill-opacity="1" /><path clip-path="url(#clip360)" d="M1601.29 252.801 Q1601.29 243.167 1608.01 236.497 Q1614.72 229.827 1623.82 229.827 Q1631.52 229.827 1636.56 236.102 L1636.56 214.215 Q1636.56 210.46 1635.23 209.521 Q1633.94 208.582 1628.71 208.582 L1628.71 205.42 L1643.28 204.333 L1643.28 265.746 Q1643.28 269.501 1644.57 270.489 Q1645.9 271.428 1651.14 271.428 L1651.14 274.54 L1636.27 275.677 L1636.27 268.957 Q1631.03 275.627 1622.73 275.677 Q1614.03 275.677 1607.66 269.007 Q1601.29 262.337 1601.29 252.801 M1609.69 252.9 Q1609.69 262.288 1612.6 266.932 Q1616.65 273.404 1623.22 273.404 Q1630.73 273.404 1635.18 266.339 Q1636.32 264.61 1636.27 262.584 L1636.27 241.833 Q1636.27 239.807 1635.18 238.128 Q1631.03 232.051 1624.26 232.051 Q1617.19 232.051 1612.8 238.523 Q1609.69 243.365 1609.69 252.9 Z" fill="#000000" fill-rule="nonzero" fill-opacity="1" /><path clip-path="url(#clip360)" d="M1656.77 252.258 Q1656.77 242.722 1662.9 235.954 Q1669.02 229.185 1677.82 229.185 Q1686.71 229.185 1691.3 234.966 Q1695.95 240.746 1695.95 249.047 Q1695.95 250.578 1695.55 250.875 Q1695.16 251.171 1693.43 251.171 L1665.17 251.171 Q1665.17 261.497 1668.23 266.339 Q1672.48 273.108 1679.64 273.108 Q1680.63 273.108 1681.82 272.91 Q1683 272.712 1685.43 271.872 Q1687.85 270.983 1689.97 268.661 Q1692.1 266.339 1693.33 262.683 Q1693.63 261.25 1694.62 261.299 Q1695.95 261.299 1695.95 262.485 Q1695.95 263.374 1694.96 265.4 Q1694.02 267.376 1692.19 269.748 Q1690.37 272.119 1686.81 273.898 Q1683.3 275.677 1679.05 275.677 Q1670.16 275.677 1663.44 268.957 Q1656.77 262.189 1656.77 252.258 M1665.27 249.047 L1689.28 249.047 Q1689.28 246.922 1688.88 244.55 Q1688.54 242.179 1687.45 238.918 Q1686.41 235.608 1683.94 233.533 Q1681.47 231.458 1677.82 231.458 Q1676.19 231.458 1674.41 232.149 Q1672.68 232.841 1670.55 234.521 Q1668.43 236.201 1666.95 240.005 Q1665.47 243.809 1665.27 249.047 Z" fill="#000000" fill-rule="nonzero" fill-opacity="1" /><path clip-path="url(#clip360)" d="M1702.22 274.54 L1702.22 271.428 Q1707.61 271.428 1708.84 270.785 Q1710.08 270.094 1710.08 266.833 L1710.08 214.215 Q1710.08 210.46 1708.75 209.521 Q1707.46 208.582 1702.22 208.582 L1702.22 205.42 L1716.75 204.333 L1716.75 266.833 Q1716.75 270.094 1718.03 270.785 Q1719.32 271.428 1724.65 271.428 L1724.65 274.54 Q1723.42 274.54 1720.85 274.442 Q1718.28 274.343 1716.4 274.293 Q1714.53 274.244 1713.44 274.244 Q1712.25 274.244 1702.22 274.54 Z" fill="#000000" fill-rule="nonzero" fill-opacity="1" /><path clip-path="url(#clip360)" d="M1737.01 272.91 Q1735.47 271.28 1735.47 269.155 Q1735.47 267.031 1737.01 265.499 Q1738.54 263.918 1740.86 263.918 Q1743.08 263.918 1744.57 265.4 Q1746.1 266.833 1746.1 269.204 Q1746.1 271.527 1744.47 273.058 Q1742.89 274.54 1740.86 274.54 Q1738.54 274.54 1737.01 272.91 Z" fill="#000000" fill-rule="nonzero" fill-opacity="1" /><path clip-path="url(#clip360)" d="M1750.94 287.188 Q1750.94 285.163 1752.22 283.829 Q1753.46 282.544 1755.58 282.544 Q1757.71 282.544 1758.94 283.829 Q1760.23 285.163 1760.23 287.188 Q1760.23 289.017 1759.14 290.153 Q1758.1 291.339 1756.72 291.734 Q1759.34 293.068 1762.15 293.068 Q1764.48 293.068 1766.06 291.685 Q1767.64 290.301 1768.33 288.028 Q1769.07 285.756 1769.32 283.829 Q1769.57 281.951 1769.57 279.777 L1769.57 239.709 Q1769.57 235.954 1768.08 235.015 Q1766.65 234.076 1760.87 234.076 L1760.87 230.914 L1776.24 229.827 L1776.24 279.58 Q1776.24 286.349 1772.18 290.795 Q1768.13 295.291 1762.4 295.291 Q1757.76 295.291 1754.35 293.117 Q1750.94 290.943 1750.94 287.188 M1767.09 216.043 Q1765.51 214.462 1765.51 212.238 Q1765.51 210.015 1767.09 208.434 Q1768.68 206.853 1770.9 206.853 Q1773.12 206.853 1774.7 208.434 Q1776.28 210.015 1776.28 212.238 Q1776.28 214.462 1774.7 216.043 Q1773.12 217.574 1770.9 217.574 Q1768.68 217.574 1767.09 216.043 Z" fill="#000000" fill-rule="nonzero" fill-opacity="1" /><path clip-path="url(#clip360)" d="M1789.18 274.54 L1789.18 271.428 Q1794.57 271.428 1795.8 270.785 Q1797.04 270.094 1797.04 266.833 L1797.04 214.215 Q1797.04 210.46 1795.7 209.521 Q1794.42 208.582 1789.18 208.582 L1789.18 205.42 L1803.71 204.333 L1803.71 266.833 Q1803.71 270.094 1804.99 270.785 Q1806.27 271.428 1811.61 271.428 L1811.61 274.54 Q1810.38 274.54 1807.81 274.442 Q1805.24 274.343 1803.36 274.293 Q1801.48 274.244 1800.4 274.244 Q1799.21 274.244 1789.18 274.54 Z" fill="#000000" fill-rule="nonzero" fill-opacity="1" /><path clip-path="url(#clip360)" d="M1819.61 298.404 Q1819.61 297.91 1820.01 296.823 L1855.73 201.369 Q1855.73 201.27 1855.98 200.727 Q1856.22 200.183 1856.37 199.837 Q1856.52 199.442 1856.82 199.146 Q1857.16 198.849 1857.56 198.849 Q1858.55 198.849 1858.55 200.084 Q1858.55 200.183 1858.25 201.369 L1822.43 296.922 Q1821.84 298.651 1821.44 299.145 Q1821.1 299.639 1820.5 299.639 Q1819.61 299.639 1819.61 298.404 Z" fill="#000000" fill-rule="nonzero" fill-opacity="1" /><path clip-path="url(#clip360)" d="M1867.79 274.54 L1867.79 271.428 L1870.21 271.428 Q1875.69 271.428 1876.93 270.538 Q1878.21 269.6 1878.21 266.635 L1878.21 213.622 Q1878.21 210.707 1876.93 209.818 Q1875.64 208.879 1870.21 208.879 L1867.79 208.879 L1867.79 205.717 L1924.75 205.717 L1927.57 228.493 L1925.05 228.493 Q1924.36 222.713 1923.42 219.402 Q1922.53 216.043 1920.31 213.474 Q1918.13 210.905 1914.52 209.916 Q1910.97 208.879 1905.19 208.879 L1892.14 208.879 Q1888.68 208.879 1887.94 209.62 Q1887.2 210.312 1887.2 212.93 L1887.2 237.189 L1896.29 237.189 Q1903.26 237.189 1905.24 234.768 Q1907.21 232.347 1907.21 225.381 L1909.78 225.381 L1909.78 252.159 L1907.21 252.159 Q1907.21 245.292 1905.24 242.821 Q1903.26 240.351 1896.29 240.351 L1887.2 240.351 L1887.2 267.376 Q1887.2 269.995 1887.94 270.736 Q1888.73 271.428 1892.14 271.428 L1905.63 271.428 Q1909.98 271.428 1913.14 270.884 Q1916.35 270.291 1918.58 268.908 Q1920.8 267.475 1922.28 265.845 Q1923.81 264.214 1924.85 261.299 Q1925.94 258.335 1926.53 255.618 Q1927.17 252.9 1927.86 248.454 L1930.38 248.454 L1926.14 274.54 L1867.79 274.54 Z" fill="#000000" fill-rule="nonzero" fill-opacity="1" /><path clip-path="url(#clip360)" d="M1936.96 274.54 L1936.96 271.428 Q1940.61 271.428 1942.93 270.736 Q1945.26 269.995 1946.1 268.661 Q1946.98 267.278 1947.18 266.388 Q1947.38 265.45 1947.38 263.918 L1947.38 213.325 Q1947.38 210.41 1946.1 209.521 Q1944.86 208.582 1939.38 208.582 L1936.96 208.582 L1936.96 205.42 L1954.05 205.42 Q1955.88 205.42 1956.37 205.766 Q1956.87 206.063 1957.61 207.644 L1979.54 264.313 L2001.68 207.347 Q2002.17 205.914 2002.62 205.667 Q2003.11 205.42 2005.04 205.42 L2022.13 205.42 L2022.13 208.582 L2019.71 208.582 Q2014.23 208.582 2012.94 209.521 Q2011.71 210.41 2011.71 213.325 L2011.71 266.635 Q2011.71 269.55 2012.94 270.489 Q2014.23 271.428 2019.71 271.428 L2022.13 271.428 L2022.13 274.54 Q2018.38 274.244 2007.66 274.244 Q1996.84 274.244 1993.08 274.54 L1993.08 271.428 L1995.55 271.428 Q2001.04 271.428 2002.27 270.538 Q2003.51 269.6 2003.51 266.635 L2003.51 208.582 L2003.41 208.582 L1978.56 272.614 Q1977.86 274.54 1976.73 274.54 Q1975.49 274.54 1974.7 272.317 L1950.29 209.373 L1950.2 209.373 L1950.2 263.918 Q1950.2 265.45 1950.39 266.388 Q1950.59 267.278 1951.43 268.661 Q1952.32 269.995 1954.64 270.736 Q1956.96 271.428 1960.62 271.428 L1960.62 274.54 Q1950 274.244 1948.76 274.244 Q1947.58 274.244 1936.96 274.54 Z" fill="#000000" fill-rule="nonzero" fill-opacity="1" /><path clip-path="url(#clip360)" d="M2035.97 272.91 Q2034.43 271.28 2034.43 269.155 Q2034.43 267.031 2035.97 265.499 Q2037.5 263.918 2039.82 263.918 Q2042.04 263.918 2043.53 265.4 Q2045.06 266.833 2045.06 269.204 Q2045.06 271.527 2043.43 273.058 Q2041.85 274.54 2039.82 274.54 Q2037.5 274.54 2035.97 272.91 Z" fill="#000000" fill-rule="nonzero" fill-opacity="1" /><path clip-path="url(#clip360)" d="M2049.9 287.188 Q2049.9 285.163 2051.18 283.829 Q2052.42 282.544 2054.54 282.544 Q2056.67 282.544 2057.9 283.829 Q2059.19 285.163 2059.19 287.188 Q2059.19 289.017 2058.1 290.153 Q2057.06 291.339 2055.68 291.734 Q2058.3 293.068 2061.11 293.068 Q2063.44 293.068 2065.02 291.685 Q2066.6 290.301 2067.29 288.028 Q2068.03 285.756 2068.28 283.829 Q2068.53 281.951 2068.53 279.777 L2068.53 239.709 Q2068.53 235.954 2067.04 235.015 Q2065.61 234.076 2059.83 234.076 L2059.83 230.914 L2075.2 229.827 L2075.2 279.58 Q2075.2 286.349 2071.14 290.795 Q2067.09 295.291 2061.36 295.291 Q2056.72 295.291 2053.31 293.117 Q2049.9 290.943 2049.9 287.188 M2066.05 216.043 Q2064.47 214.462 2064.47 212.238 Q2064.47 210.015 2066.05 208.434 Q2067.64 206.853 2069.86 206.853 Q2072.08 206.853 2073.66 208.434 Q2075.24 210.015 2075.24 212.238 Q2075.24 214.462 2073.66 216.043 Q2072.08 217.574 2069.86 217.574 Q2067.64 217.574 2066.05 216.043 Z" fill="#000000" fill-rule="nonzero" fill-opacity="1" /><path clip-path="url(#clip360)" d="M2088.14 274.54 L2088.14 271.428 Q2093.53 271.428 2094.76 270.785 Q2096 270.094 2096 266.833 L2096 214.215 Q2096 210.46 2094.66 209.521 Q2093.38 208.582 2088.14 208.582 L2088.14 205.42 L2102.67 204.333 L2102.67 266.833 Q2102.67 270.094 2103.95 270.785 Q2105.23 271.428 2110.57 271.428 L2110.57 274.54 Q2109.34 274.54 2106.77 274.442 Q2104.2 274.343 2102.32 274.293 Q2100.44 274.244 2099.36 274.244 Q2098.17 274.244 2088.14 274.54 Z" fill="#000000" fill-rule="nonzero" fill-opacity="1" /><polyline clip-path="url(#clip360)" style="stroke:#3da44d; stroke-linecap:round; stroke-linejoin:round; stroke-width:8; stroke-opacity:1; fill:none" points="450.837,343.66 667.25,343.66 "/>
<path clip-path="url(#clip360)" d="M703.319 378.22 L703.319 375.108 Q708.704 375.108 709.939 374.465 Q711.174 373.774 711.174 370.513 L711.174 343.389 Q711.174 339.634 709.84 338.695 Q708.556 337.756 703.319 337.756 L703.319 334.594 L717.548 333.507 L717.548 344.13 Q722.291 333.507 732.518 333.507 Q744.376 333.507 746.006 343.389 Q747.735 339.535 751.342 336.521 Q754.998 333.507 760.68 333.507 Q768.289 333.507 771.302 337.262 Q773.526 339.782 773.97 342.598 Q774.415 345.414 774.415 352.727 L774.415 372.045 Q774.514 374.169 776.144 374.663 Q777.775 375.108 782.32 375.108 L782.32 378.22 Q771.994 377.924 771.006 377.924 Q770.216 377.924 759.544 378.22 L759.544 375.108 Q764.929 375.108 766.164 374.465 Q767.449 373.774 767.449 370.513 L767.449 346.946 Q767.449 341.808 765.868 338.794 Q764.287 335.731 759.939 335.731 Q754.702 335.731 750.502 340.128 Q746.303 344.525 746.303 351.936 L746.303 370.513 Q746.303 373.774 747.538 374.465 Q748.822 375.108 754.208 375.108 L754.208 378.22 Q743.882 377.924 742.844 377.924 Q742.054 377.924 731.431 378.22 L731.431 375.108 Q736.817 375.108 738.052 374.465 Q739.336 373.774 739.336 370.513 L739.336 346.946 Q739.336 341.808 737.755 338.794 Q736.174 335.731 731.826 335.731 Q726.589 335.731 722.39 340.128 Q718.19 344.525 718.19 351.936 L718.19 370.513 Q718.19 373.774 719.425 374.465 Q720.71 375.108 726.046 375.108 L726.046 378.22 Q715.72 377.924 714.732 377.924 Q713.941 377.924 703.319 378.22 Z" fill="#000000" fill-rule="nonzero" fill-opacity="1" /><path clip-path="url(#clip360)" d="M787.656 378.22 L787.656 375.108 Q793.041 375.108 794.277 374.465 Q795.512 373.774 795.512 370.513 L795.512 343.29 Q795.512 339.535 794.227 338.646 Q792.992 337.756 788.051 337.756 L788.051 334.594 L802.182 333.507 L802.182 370.612 Q802.182 373.626 803.269 374.367 Q804.356 375.108 809.296 375.108 L809.296 378.22 Q798.97 377.924 798.773 377.924 Q797.389 377.924 787.656 378.22 M791.905 315.869 Q791.905 313.843 793.437 312.213 Q795.018 310.533 797.241 310.533 Q799.464 310.533 801.045 312.065 Q802.626 313.547 802.626 315.918 Q802.626 318.241 801.045 319.772 Q799.464 321.254 797.241 321.254 Q794.919 321.254 793.387 319.624 Q791.905 317.994 791.905 315.869 Z" fill="#000000" fill-rule="nonzero" fill-opacity="1" /><path clip-path="url(#clip360)" d="M813.545 378.22 L813.545 375.108 Q821.45 375.108 826.49 369.031 Q826.49 369.031 835.976 356.975 L825.946 343.932 Q822.389 339.387 820.808 338.596 Q819.276 337.756 814.039 337.756 L814.039 334.594 Q818.189 334.891 823.624 334.891 Q826.638 334.891 834.592 334.594 L834.592 337.756 Q831.035 337.954 831.035 340.276 Q831.035 341.067 831.924 342.104 L839.83 352.331 L846.104 344.426 Q847.636 342.598 847.636 340.869 Q847.636 338.053 844.671 337.756 L844.671 334.594 Q848.624 334.891 854.405 334.891 Q858.752 334.891 862.705 334.594 L862.705 337.756 Q854.997 337.954 850.65 342.993 Q848.723 345.118 841.361 354.456 L854.899 371.946 Q856.529 374.07 858.357 374.614 Q860.185 375.108 864.533 375.108 L864.533 378.22 Q859.988 377.924 854.8 377.924 Q852.972 377.924 843.881 378.22 L843.881 375.108 Q845.709 375.009 846.598 374.218 Q847.537 373.379 847.537 372.539 Q847.537 372.143 845.413 369.228 L837.705 359.1 Q829.998 368.191 829.01 370.315 Q828.614 371.205 828.614 371.946 Q828.614 374.663 831.529 375.108 L831.529 378.22 Q824.266 377.924 821.944 377.924 Q817.498 377.924 813.545 378.22 Z" fill="#000000" fill-rule="nonzero" fill-opacity="1" /><path clip-path="url(#clip360)" d="M867.547 337.756 L867.547 335.533 Q872.191 335.335 875.254 332.074 Q878.367 328.764 879.404 324.713 Q880.491 320.662 880.59 315.968 L883.11 315.968 L883.11 334.594 L897.586 334.594 L897.586 337.756 L883.11 337.756 L883.11 365.869 Q883.11 376.788 889.928 376.788 Q892.843 376.788 894.77 373.823 Q896.697 370.809 896.697 365.473 L896.697 359.89 L899.216 359.89 L899.216 365.671 Q899.216 371.155 896.697 375.256 Q894.177 379.357 889.187 379.357 Q887.359 379.357 885.531 378.863 Q883.752 378.418 881.381 377.232 Q879.059 375.997 877.576 373.033 Q876.144 370.019 876.144 365.671 L876.144 337.756 L867.547 337.756 Z" fill="#000000" fill-rule="nonzero" fill-opacity="1" /><path clip-path="url(#clip360)" d="M914.335 372.786 Q907.665 366.165 907.665 356.58 Q907.665 346.946 914.187 339.93 Q920.758 332.865 930.145 332.865 Q939.335 332.865 945.906 339.881 Q952.526 346.847 952.526 356.58 Q952.526 366.116 945.856 372.736 Q939.236 379.357 930.046 379.357 Q921.054 379.357 914.335 372.786 M916.064 355.74 Q916.064 365.572 918.633 370.019 Q922.586 376.788 930.145 376.788 Q933.9 376.788 937.013 374.762 Q940.175 372.736 941.904 369.327 Q944.127 364.881 944.127 355.74 Q944.127 346.007 941.459 341.709 Q937.507 335.138 930.046 335.138 Q926.785 335.138 923.574 336.867 Q920.412 338.547 918.485 341.906 Q916.064 346.353 916.064 355.74 Z" fill="#000000" fill-rule="nonzero" fill-opacity="1" /><path clip-path="url(#clip360)" d="M967.744 372.786 Q961.074 366.165 961.074 356.58 Q961.074 346.946 967.595 339.93 Q974.166 332.865 983.554 332.865 Q992.743 332.865 999.314 339.881 Q1005.93 346.847 1005.93 356.58 Q1005.93 366.116 999.265 372.736 Q992.645 379.357 983.455 379.357 Q974.463 379.357 967.744 372.786 M969.473 355.74 Q969.473 365.572 972.042 370.019 Q975.994 376.788 983.554 376.788 Q987.309 376.788 990.421 374.762 Q993.583 372.736 995.313 369.327 Q997.536 364.881 997.536 355.74 Q997.536 346.007 994.868 341.709 Q990.915 335.138 983.455 335.138 Q980.194 335.138 976.983 336.867 Q973.821 338.547 971.894 341.906 Q969.473 346.353 969.473 355.74 Z" fill="#000000" fill-rule="nonzero" fill-opacity="1" /><path clip-path="url(#clip360)" d="M1012.21 378.22 L1012.21 375.108 Q1017.59 375.108 1018.83 374.465 Q1020.07 373.774 1020.07 370.513 L1020.07 317.895 Q1020.07 314.14 1018.73 313.201 Q1017.45 312.262 1012.21 312.262 L1012.21 309.1 L1026.74 308.013 L1026.74 370.513 Q1026.74 373.774 1028.02 374.465 Q1029.3 375.108 1034.64 375.108 L1034.64 378.22 Q1033.41 378.22 1030.84 378.122 Q1028.27 378.023 1026.39 377.973 Q1024.51 377.924 1023.42 377.924 Q1022.24 377.924 1012.21 378.22 Z" fill="#000000" fill-rule="nonzero" fill-opacity="1" /><path clip-path="url(#clip360)" d="M1040.22 376.886 L1040.22 363.547 Q1040.22 362.41 1040.27 362.015 Q1040.32 361.62 1040.62 361.323 Q1040.91 361.027 1041.51 361.027 Q1042.2 361.027 1042.45 361.323 Q1042.74 361.62 1042.94 362.756 Q1044.47 369.722 1047.73 373.428 Q1051.04 377.084 1057.02 377.084 Q1062.7 377.084 1065.57 374.564 Q1068.43 372.045 1068.43 367.894 Q1068.43 360.483 1057.91 358.606 Q1051.83 357.371 1049.31 356.58 Q1046.79 355.74 1044.57 353.912 Q1040.22 350.355 1040.22 345.315 Q1040.22 340.276 1044.03 336.571 Q1047.88 332.865 1056.38 332.865 Q1062.06 332.865 1065.91 335.731 Q1067.05 334.841 1067.64 334.1 Q1068.98 332.865 1069.67 332.865 Q1070.46 332.865 1070.61 333.408 Q1070.76 333.903 1070.76 335.335 L1070.76 345.513 Q1070.76 346.649 1070.71 347.045 Q1070.66 347.44 1070.36 347.736 Q1070.06 347.983 1069.42 347.983 Q1068.29 347.983 1068.24 347.045 Q1067.45 334.792 1056.38 334.792 Q1050.4 334.792 1047.73 337.114 Q1045.07 339.387 1045.07 342.499 Q1045.07 344.229 1045.86 345.563 Q1046.7 346.847 1047.73 347.638 Q1048.82 348.379 1050.8 349.12 Q1052.77 349.812 1053.96 350.059 Q1055.19 350.306 1057.52 350.8 Q1065.62 352.331 1069.03 355.641 Q1073.28 359.89 1073.28 365.276 Q1073.28 371.254 1069.22 375.305 Q1065.17 379.357 1057.02 379.357 Q1050.45 379.357 1045.86 374.96 Q1045.26 375.552 1044.82 376.096 Q1044.37 376.59 1044.18 376.788 Q1044.03 376.985 1043.98 377.133 Q1043.93 377.232 1043.83 377.331 Q1041.8 379.357 1041.31 379.357 Q1040.52 379.357 1040.37 378.813 Q1040.22 378.319 1040.22 376.886 Z" fill="#000000" fill-rule="nonzero" fill-opacity="1" /><path clip-path="url(#clip360)" d="M1086.81 376.59 Q1085.28 374.96 1085.28 372.835 Q1085.28 370.711 1086.81 369.179 Q1088.35 367.598 1090.67 367.598 Q1092.89 367.598 1094.37 369.08 Q1095.9 370.513 1095.9 372.884 Q1095.9 375.207 1094.27 376.738 Q1092.69 378.22 1090.67 378.22 Q1088.35 378.22 1086.81 376.59 Z" fill="#000000" fill-rule="nonzero" fill-opacity="1" /><path clip-path="url(#clip360)" d="M1108.36 378.22 L1108.36 375.108 L1110.78 375.108 Q1116.26 375.108 1117.5 374.218 Q1118.78 373.28 1118.78 370.315 L1118.78 317.005 Q1118.78 314.09 1117.5 313.201 Q1116.21 312.262 1110.78 312.262 L1108.36 312.262 L1108.36 309.1 L1140.12 309.1 Q1151.14 309.1 1158.8 314.535 Q1166.51 319.92 1166.51 327.331 Q1166.51 333.013 1161.52 337.46 Q1156.53 341.906 1148.82 343.833 Q1158.85 347.292 1161.17 355.543 L1162.46 363.645 Q1162.85 366.56 1163.1 368.043 Q1163.39 369.525 1163.84 371.55 Q1164.28 373.576 1164.73 374.564 Q1165.22 375.503 1165.91 376.541 Q1166.61 377.529 1167.49 377.875 Q1168.43 378.22 1169.67 378.22 Q1171.99 378.22 1173.97 376.145 Q1175.94 374.07 1176.34 369.228 Q1176.54 367.598 1177.57 367.598 Q1178.86 367.598 1178.86 369.228 Q1178.86 370.661 1178.46 372.341 Q1178.07 373.971 1177.08 375.898 Q1176.14 377.825 1174.07 379.11 Q1171.99 380.444 1169.27 380.444 Q1161.37 380.444 1156.53 376.195 Q1154.5 374.367 1153.56 371.995 Q1152.67 369.624 1152.52 367.746 Q1152.38 365.869 1152.38 361.719 Q1152.38 355.839 1151.73 353.27 Q1151.14 350.701 1148.52 348.181 Q1144.97 344.723 1139.09 344.723 L1127.48 344.723 L1127.48 370.315 Q1127.48 373.23 1128.71 374.169 Q1130 375.108 1135.48 375.108 L1137.9 375.108 L1137.9 378.22 Q1134.24 377.924 1123.13 377.924 Q1112.01 377.924 1108.36 378.22 M1127.48 342.499 L1138.69 342.499 Q1144.08 342.499 1147.68 341.215 Q1151.34 339.881 1153.07 337.509 Q1154.8 335.138 1155.44 332.766 Q1156.08 330.345 1156.08 327.331 Q1156.08 323.774 1155.29 321.106 Q1154.5 318.438 1152.77 316.857 Q1151.04 315.276 1149.31 314.288 Q1147.58 313.251 1144.92 312.855 Q1142.25 312.46 1140.42 312.361 Q1138.59 312.262 1135.68 312.262 Q1130.74 312.262 1129.7 312.46 Q1128.56 312.559 1128.12 313.102 Q1127.67 313.646 1127.57 314.288 Q1127.48 314.881 1127.48 316.314 L1127.48 342.499 Z" fill="#000000" fill-rule="nonzero" fill-opacity="1" /><path clip-path="url(#clip360)" d="M1185.03 402.084 Q1185.03 401.59 1185.43 400.503 L1221.15 305.049 Q1221.15 304.95 1221.4 304.407 Q1221.64 303.863 1221.79 303.517 Q1221.94 303.122 1222.24 302.826 Q1222.58 302.529 1222.98 302.529 Q1223.97 302.529 1223.97 303.764 Q1223.97 303.863 1223.67 305.049 L1187.85 400.602 Q1187.26 402.331 1186.86 402.825 Q1186.52 403.319 1185.92 403.319 Q1185.03 403.319 1185.03 402.084 Z" fill="#000000" fill-rule="nonzero" fill-opacity="1" /><path clip-path="url(#clip360)" d="M1233.21 378.22 L1233.21 375.108 L1235.63 375.108 Q1241.11 375.108 1242.35 374.218 Q1243.63 373.28 1243.63 370.315 L1243.63 317.302 Q1243.63 314.387 1242.35 313.498 Q1241.06 312.559 1235.63 312.559 L1233.21 312.559 L1233.21 309.397 L1290.17 309.397 L1292.99 332.173 L1290.47 332.173 Q1289.78 326.393 1288.84 323.082 Q1287.95 319.723 1285.73 317.154 Q1283.55 314.585 1279.94 313.596 Q1276.39 312.559 1270.61 312.559 L1257.56 312.559 Q1254.1 312.559 1253.36 313.3 Q1252.62 313.992 1252.62 316.61 L1252.62 340.869 L1261.71 340.869 Q1268.68 340.869 1270.66 338.448 Q1272.63 336.027 1272.63 329.061 L1275.2 329.061 L1275.2 355.839 L1272.63 355.839 Q1272.63 348.972 1270.66 346.501 Q1268.68 344.031 1261.71 344.031 L1252.62 344.031 L1252.62 371.056 Q1252.62 373.675 1253.36 374.416 Q1254.15 375.108 1257.56 375.108 L1271.05 375.108 Q1275.4 375.108 1278.56 374.564 Q1281.77 373.971 1284 372.588 Q1286.22 371.155 1287.7 369.525 Q1289.23 367.894 1290.27 364.979 Q1291.36 362.015 1291.95 359.298 Q1292.59 356.58 1293.28 352.134 L1295.8 352.134 L1291.56 378.22 L1233.21 378.22 Z" fill="#000000" fill-rule="nonzero" fill-opacity="1" /><path clip-path="url(#clip360)" d="M1302.38 378.22 L1302.38 375.108 Q1306.03 375.108 1308.35 374.416 Q1310.68 373.675 1311.52 372.341 Q1312.4 370.958 1312.6 370.068 Q1312.8 369.13 1312.8 367.598 L1312.8 317.005 Q1312.8 314.09 1311.52 313.201 Q1310.28 312.262 1304.8 312.262 L1302.38 312.262 L1302.38 309.1 L1319.47 309.1 Q1321.3 309.1 1321.79 309.446 Q1322.29 309.743 1323.03 311.324 L1344.96 367.993 L1367.1 311.027 Q1367.59 309.594 1368.04 309.347 Q1368.53 309.1 1370.46 309.1 L1387.55 309.1 L1387.55 312.262 L1385.13 312.262 Q1379.65 312.262 1378.36 313.201 Q1377.13 314.09 1377.13 317.005 L1377.13 370.315 Q1377.13 373.23 1378.36 374.169 Q1379.65 375.108 1385.13 375.108 L1387.55 375.108 L1387.55 378.22 Q1383.8 377.924 1373.08 377.924 Q1362.26 377.924 1358.5 378.22 L1358.5 375.108 L1360.97 375.108 Q1366.46 375.108 1367.69 374.218 Q1368.93 373.28 1368.93 370.315 L1368.93 312.262 L1368.83 312.262 L1343.98 376.294 Q1343.28 378.22 1342.15 378.22 Q1340.91 378.22 1340.12 375.997 L1315.72 313.053 L1315.62 313.053 L1315.62 367.598 Q1315.62 369.13 1315.81 370.068 Q1316.01 370.958 1316.85 372.341 Q1317.74 373.675 1320.06 374.416 Q1322.38 375.108 1326.04 375.108 L1326.04 378.22 Q1315.42 377.924 1314.18 377.924 Q1313 377.924 1302.38 378.22 Z" fill="#000000" fill-rule="nonzero" fill-opacity="1" /><path clip-path="url(#clip360)" d="M1401.39 376.59 Q1399.85 374.96 1399.85 372.835 Q1399.85 370.711 1401.39 369.179 Q1402.92 367.598 1405.24 367.598 Q1407.46 367.598 1408.95 369.08 Q1410.48 370.513 1410.48 372.884 Q1410.48 375.207 1408.85 376.738 Q1407.27 378.22 1405.24 378.22 Q1402.92 378.22 1401.39 376.59 Z" fill="#000000" fill-rule="nonzero" fill-opacity="1" /><path clip-path="url(#clip360)" d="M1415.32 390.868 Q1415.32 388.843 1416.6 387.509 Q1417.84 386.224 1419.96 386.224 Q1422.09 386.224 1423.32 387.509 Q1424.61 388.843 1424.61 390.868 Q1424.61 392.697 1423.52 393.833 Q1422.48 395.019 1421.1 395.414 Q1423.72 396.748 1426.53 396.748 Q1428.86 396.748 1430.44 395.365 Q1432.02 393.981 1432.71 391.708 Q1433.45 389.436 1433.7 387.509 Q1433.95 385.631 1433.95 383.457 L1433.95 343.389 Q1433.95 339.634 1432.46 338.695 Q1431.03 337.756 1425.25 337.756 L1425.25 334.594 L1440.62 333.507 L1440.62 383.26 Q1440.62 390.029 1436.56 394.475 Q1432.51 398.971 1426.78 398.971 Q1422.14 398.971 1418.73 396.797 Q1415.32 394.623 1415.32 390.868 M1431.48 319.723 Q1429.89 318.142 1429.89 315.918 Q1429.89 313.695 1431.48 312.114 Q1433.06 310.533 1435.28 310.533 Q1437.5 310.533 1439.08 312.114 Q1440.66 313.695 1440.66 315.918 Q1440.66 318.142 1439.08 319.723 Q1437.5 321.254 1435.28 321.254 Q1433.06 321.254 1431.48 319.723 Z" fill="#000000" fill-rule="nonzero" fill-opacity="1" /><path clip-path="url(#clip360)" d="M1453.56 378.22 L1453.56 375.108 Q1458.95 375.108 1460.18 374.465 Q1461.42 373.774 1461.42 370.513 L1461.42 317.895 Q1461.42 314.14 1460.08 313.201 Q1458.8 312.262 1453.56 312.262 L1453.56 309.1 L1468.09 308.013 L1468.09 370.513 Q1468.09 373.774 1469.37 374.465 Q1470.65 375.108 1475.99 375.108 L1475.99 378.22 Q1474.76 378.22 1472.19 378.122 Q1469.62 378.023 1467.74 377.973 Q1465.86 377.924 1464.78 377.924 Q1463.59 377.924 1453.56 378.22 Z" fill="#000000" fill-rule="nonzero" fill-opacity="1" /><polyline clip-path="url(#clip360)" style="stroke:#c271d2; stroke-linecap:round; stroke-linejoin:round; stroke-width:8; stroke-opacity:1; fill:none" points="450.837,447.34 667.25,447.34 "/>
<path clip-path="url(#clip360)" d="M703.319 481.703 L703.319 461.446 Q703.319 460.31 703.368 459.914 Q703.418 459.519 703.714 459.223 Q704.011 458.926 704.603 458.926 Q705.74 458.926 705.839 459.964 Q706.135 469.993 712.113 475.527 Q717.993 481.011 728.072 481.011 Q734.149 481.011 737.904 476.663 Q741.658 472.266 741.658 466.535 Q741.658 461.051 738.496 457.197 Q737.162 455.468 735.483 454.381 Q733.852 453.244 732.815 452.899 Q731.826 452.553 729.9 452.059 Q717.35 449.045 716.56 448.699 Q710.582 446.673 706.925 441.584 Q703.319 436.446 703.319 430.172 Q703.319 422.069 709.001 416.338 Q714.732 410.557 723.032 410.557 Q727.182 410.557 730.641 411.891 Q734.149 413.176 735.581 414.361 Q737.014 415.547 739.237 417.672 L742.745 411.891 Q743.536 410.557 744.277 410.557 Q745.067 410.557 745.216 411.051 Q745.413 411.496 745.413 412.978 L745.413 433.334 Q745.413 434.47 745.364 434.865 Q745.315 435.26 744.969 435.507 Q744.672 435.754 744.079 435.754 Q743.091 435.754 742.844 434.569 Q740.028 413.423 723.131 413.423 Q717.35 413.423 713.546 417.326 Q709.791 421.18 709.791 426.664 Q709.791 431.11 712.558 434.766 Q715.325 438.373 720.018 439.509 L732.963 442.622 Q739.435 444.154 743.783 449.885 Q748.131 455.616 748.131 463.076 Q748.131 471.673 742.498 477.898 Q736.915 484.124 728.17 484.124 Q721.896 484.124 717.054 482.049 Q712.212 479.974 709.593 477.059 Q707.568 480.418 706.234 482.296 L705.937 482.79 Q705.147 484.124 704.406 484.124 Q703.615 484.124 703.467 483.63 Q703.319 483.136 703.319 481.703 Z" fill="#000000" fill-rule="nonzero" fill-opacity="1" /><path clip-path="url(#clip360)" d="M756.579 481.9 L756.579 478.788 Q761.965 478.788 763.2 478.145 Q764.484 477.454 764.484 474.193 L764.484 421.575 Q764.484 417.82 763.15 416.881 Q761.866 415.942 756.579 415.942 L756.579 412.78 L771.154 411.693 L771.154 460.26 L785.433 447.909 Q787.656 445.982 787.656 443.956 Q787.656 441.634 784.741 441.436 L784.741 438.274 Q788.99 438.571 796.055 438.571 Q800.205 438.571 803.12 438.274 L803.12 441.436 Q796.747 441.733 790.373 446.871 Q788.941 448.007 785.532 450.972 Q782.172 453.887 782.172 454.183 Q782.172 454.282 782.271 454.529 Q782.419 454.776 782.617 454.974 Q782.814 455.171 782.814 455.27 L795.66 473.402 Q798.279 477.059 800.205 477.948 Q802.132 478.788 805.492 478.788 L805.492 481.9 Q801.144 481.604 796.648 481.604 Q794.227 481.604 785.729 481.9 L785.729 478.788 Q789.385 478.788 789.385 476.416 Q789.385 474.786 781.184 463.472 Q780.591 462.681 779.257 460.952 Q778.022 459.124 777.33 458.235 L770.858 463.768 L770.858 474.193 Q770.858 477.454 772.093 478.145 Q773.378 478.788 778.763 478.788 L778.763 481.9 Q772.686 481.604 767.646 481.604 Q766.609 481.604 756.579 481.9 Z" fill="#000000" fill-rule="nonzero" fill-opacity="1" /><path clip-path="url(#clip360)" d="M810.433 481.9 L810.433 478.788 Q815.818 478.788 817.053 478.145 Q818.288 477.454 818.288 474.193 L818.288 421.575 Q818.288 417.82 816.954 416.881 Q815.67 415.942 810.433 415.942 L810.433 412.78 L824.958 411.693 L824.958 474.193 Q824.958 477.454 826.243 478.145 Q827.527 478.788 832.863 478.788 L832.863 481.9 Q831.628 481.9 829.059 481.802 Q826.49 481.703 824.612 481.653 Q822.735 481.604 821.648 481.604 Q820.462 481.604 810.433 481.9 Z" fill="#000000" fill-rule="nonzero" fill-opacity="1" /><path clip-path="url(#clip360)" d="M837.903 459.618 Q837.903 450.082 844.029 443.314 Q850.156 436.545 858.95 436.545 Q867.843 436.545 872.438 442.326 Q877.082 448.106 877.082 456.407 Q877.082 457.938 876.687 458.235 Q876.292 458.531 874.562 458.531 L846.302 458.531 Q846.302 468.857 849.365 473.699 Q853.614 480.468 860.778 480.468 Q861.766 480.468 862.952 480.27 Q864.138 480.072 866.559 479.232 Q868.98 478.343 871.104 476.021 Q873.229 473.699 874.464 470.043 Q874.76 468.61 875.748 468.659 Q877.082 468.659 877.082 469.845 Q877.082 470.734 876.094 472.76 Q875.155 474.736 873.327 477.108 Q871.499 479.479 867.942 481.258 Q864.434 483.037 860.185 483.037 Q851.292 483.037 844.573 476.317 Q837.903 469.549 837.903 459.618 M846.401 456.407 L870.412 456.407 Q870.412 454.282 870.017 451.91 Q869.671 449.539 868.584 446.278 Q867.547 442.968 865.076 440.893 Q862.606 438.818 858.95 438.818 Q857.32 438.818 855.541 439.509 Q853.812 440.201 851.687 441.881 Q849.563 443.561 848.08 447.365 Q846.598 451.169 846.401 456.407 Z" fill="#000000" fill-rule="nonzero" fill-opacity="1" /><path clip-path="url(#clip360)" d="M884.246 472.266 Q884.246 463.669 894.375 459.124 Q900.452 456.209 913.001 455.468 L913.001 451.762 Q913.001 445.488 909.691 442.177 Q906.43 438.818 902.28 438.818 Q894.869 438.818 891.311 443.462 Q894.325 443.561 895.412 445.092 Q896.499 446.575 896.499 448.106 Q896.499 450.132 895.215 451.466 Q893.979 452.75 891.855 452.75 Q889.829 452.75 888.495 451.515 Q887.161 450.231 887.161 448.007 Q887.161 443.067 891.608 439.806 Q896.104 436.545 902.477 436.545 Q910.778 436.545 916.311 442.128 Q918.04 443.857 918.88 446.08 Q919.77 448.304 919.868 449.786 Q919.967 451.219 919.967 454.084 L919.967 474.292 Q919.967 474.885 920.165 475.873 Q920.363 476.861 921.252 478.145 Q922.191 479.381 923.722 479.381 Q927.378 479.381 927.329 472.908 L927.329 467.227 L929.898 467.227 L929.898 472.908 Q929.898 478.294 927.032 480.418 Q924.216 482.493 921.598 482.493 Q918.238 482.493 916.114 480.023 Q913.989 477.553 913.693 474.193 Q912.161 478.047 908.653 480.566 Q905.195 483.037 900.452 483.037 Q896.796 483.037 893.337 482.098 Q889.928 481.209 887.062 478.689 Q884.246 476.12 884.246 472.266 M892.052 472.167 Q892.052 475.922 894.72 478.343 Q897.388 480.764 901.143 480.764 Q905.392 480.764 909.197 477.503 Q913.001 474.193 913.001 467.721 L913.001 457.592 Q901.786 457.988 896.894 462.484 Q892.052 466.93 892.052 472.167 Z" fill="#000000" fill-rule="nonzero" fill-opacity="1" /><path clip-path="url(#clip360)" d="M933.406 481.9 L933.406 478.788 Q938.791 478.788 940.026 478.145 Q941.311 477.454 941.311 474.193 L941.311 447.069 Q941.311 443.314 939.977 442.375 Q938.692 441.436 933.406 441.436 L933.406 438.274 L947.487 437.187 L947.487 448.304 Q948.92 443.956 951.933 440.596 Q954.997 437.187 959.937 437.187 Q963.198 437.187 965.273 439.015 Q967.398 440.843 967.398 443.363 Q967.398 445.586 966.014 446.723 Q964.68 447.81 963.05 447.81 Q961.222 447.81 959.937 446.673 Q958.702 445.488 958.702 443.462 Q958.702 442.227 959.246 441.288 Q959.838 440.3 960.283 439.954 Q960.728 439.608 961.024 439.509 Q960.827 439.411 959.937 439.411 Q954.354 439.411 951.143 444.994 Q947.981 450.527 947.981 458.432 L947.981 473.995 Q947.981 476.91 949.167 477.849 Q950.402 478.788 955.688 478.788 L957.813 478.788 L957.813 481.9 Q953.761 481.604 944.967 481.604 Q943.732 481.604 941.805 481.653 Q939.878 481.703 937.358 481.802 Q934.839 481.9 933.406 481.9 Z" fill="#000000" fill-rule="nonzero" fill-opacity="1" /><path clip-path="url(#clip360)" d="M973.376 481.9 L973.376 478.788 Q978.761 478.788 979.996 478.145 Q981.232 477.454 981.232 474.193 L981.232 447.069 Q981.232 443.314 979.898 442.375 Q978.613 441.436 973.376 441.436 L973.376 438.274 L987.605 437.187 L987.605 447.81 Q992.348 437.187 1002.58 437.187 Q1010.18 437.187 1013.2 440.942 Q1015.42 443.462 1015.87 446.278 Q1016.36 449.094 1016.36 456.407 L1016.36 475.725 Q1016.46 477.849 1018.09 478.343 Q1019.72 478.788 1024.26 478.788 L1024.26 481.9 Q1013.94 481.604 1012.9 481.604 Q1012.11 481.604 1001.49 481.9 L1001.49 478.788 Q1006.87 478.788 1008.11 478.145 Q1009.39 477.454 1009.39 474.193 L1009.39 450.626 Q1009.39 445.488 1007.81 442.474 Q1006.23 439.411 1001.88 439.411 Q996.646 439.411 992.447 443.808 Q988.247 448.205 988.247 455.616 L988.247 474.193 Q988.247 477.454 989.483 478.145 Q990.767 478.788 996.103 478.788 L996.103 481.9 Q985.777 481.604 984.789 481.604 Q983.998 481.604 973.376 481.9 Z" fill="#000000" fill-rule="nonzero" fill-opacity="1" /><path clip-path="url(#clip360)" d="M1036.37 480.27 Q1034.84 478.64 1034.84 476.515 Q1034.84 474.391 1036.37 472.859 Q1037.9 471.278 1040.22 471.278 Q1042.45 471.278 1043.93 472.76 Q1045.46 474.193 1045.46 476.564 Q1045.46 478.887 1043.83 480.418 Q1042.25 481.9 1040.22 481.9 Q1037.9 481.9 1036.37 480.27 Z" fill="#000000" fill-rule="nonzero" fill-opacity="1" /><path clip-path="url(#clip360)" d="M1057.17 498.402 Q1062.56 498.402 1063.79 497.711 Q1065.07 497.068 1065.07 493.857 L1065.07 446.476 Q1065.07 443.116 1063.79 442.276 Q1062.56 441.436 1057.17 441.436 L1057.17 438.274 L1071.74 437.187 L1071.74 443.857 Q1077.82 437.187 1085.92 437.187 Q1094.52 437.187 1100.8 443.857 Q1107.07 450.527 1107.07 460.063 Q1107.07 469.697 1100.4 476.367 Q1093.73 483.037 1084.49 483.037 Q1079.45 483.037 1076.04 480.468 Q1072.68 477.849 1072.04 475.922 L1072.04 476.861 L1072.04 493.857 Q1072.04 497.118 1073.33 497.76 Q1074.61 498.402 1079.95 498.402 L1079.95 501.515 Q1069.32 501.218 1068.53 501.218 Q1067.55 501.218 1057.17 501.515 L1057.17 498.402 M1072.04 470.389 Q1072.04 471.92 1072.24 472.464 Q1072.49 473.007 1073.47 474.638 Q1077.48 480.764 1084 480.764 Q1084.05 480.764 1084.1 480.764 Q1089.88 480.764 1094.27 474.885 Q1098.67 468.956 1098.67 460.063 Q1098.67 451.565 1094.67 445.636 Q1090.67 439.707 1085.13 439.707 Q1081.18 439.707 1077.72 441.832 Q1074.26 443.956 1072.04 447.81 L1072.04 470.389 Z" fill="#000000" fill-rule="nonzero" fill-opacity="1" /><path clip-path="url(#clip360)" d="M1109.59 494.45 Q1109.59 492.325 1110.83 491.189 Q1112.11 490.102 1113.84 490.102 Q1115.67 490.102 1116.85 491.238 Q1118.09 492.424 1118.09 494.351 Q1118.09 498.106 1114.14 498.6 Q1116.06 500.428 1118.88 500.428 Q1121.89 500.428 1124.31 498.205 Q1126.78 495.981 1127.82 493.857 Q1128.91 491.732 1130.44 487.879 Q1131.87 484.865 1132.96 481.9 L1117.79 444.944 Q1116.8 442.523 1115.27 441.98 Q1113.74 441.436 1109.59 441.436 L1109.59 438.274 Q1114.14 438.571 1119.42 438.571 Q1122.53 438.571 1130.44 438.274 L1130.44 441.436 Q1124.76 441.436 1124.76 444.055 Q1124.76 444.351 1125.35 445.883 L1136.62 473.106 L1146.84 448.205 Q1147.44 446.772 1147.44 445.784 Q1147.44 441.634 1142.69 441.436 L1142.69 438.274 Q1149.36 438.571 1151.49 438.571 Q1155.64 438.571 1159.05 438.274 L1159.05 441.436 Q1152.28 441.436 1149.66 447.909 L1131.82 491.09 Q1126.98 502.602 1118.88 502.651 Q1115.02 502.651 1112.31 500.28 Q1109.59 497.908 1109.59 494.45 Z" fill="#000000" fill-rule="nonzero" fill-opacity="1" /><path clip-path="url(#clip360)" d="M1166.75 505.764 Q1166.75 505.27 1167.15 504.183 L1202.87 408.729 Q1202.87 408.63 1203.12 408.087 Q1203.36 407.543 1203.51 407.197 Q1203.66 406.802 1203.96 406.506 Q1204.3 406.209 1204.7 406.209 Q1205.69 406.209 1205.69 407.444 Q1205.69 407.543 1205.39 408.729 L1169.57 504.282 Q1168.98 506.011 1168.58 506.505 Q1168.24 506.999 1167.64 506.999 Q1166.75 506.999 1166.75 505.764 Z" fill="#000000" fill-rule="nonzero" fill-opacity="1" /><path clip-path="url(#clip360)" d="M1214.93 481.9 L1214.93 478.788 L1217.35 478.788 Q1222.83 478.788 1224.07 477.898 Q1225.35 476.96 1225.35 473.995 L1225.35 420.982 Q1225.35 418.067 1224.07 417.178 Q1222.78 416.239 1217.35 416.239 L1214.93 416.239 L1214.93 413.077 L1271.89 413.077 L1274.71 435.853 L1272.19 435.853 Q1271.5 430.073 1270.56 426.762 Q1269.67 423.403 1267.44 420.834 Q1265.27 418.265 1261.66 417.276 Q1258.11 416.239 1252.33 416.239 L1239.28 416.239 Q1235.82 416.239 1235.08 416.98 Q1234.34 417.672 1234.34 420.29 L1234.34 444.549 L1243.43 444.549 Q1250.4 444.549 1252.38 442.128 Q1254.35 439.707 1254.35 432.741 L1256.92 432.741 L1256.92 459.519 L1254.35 459.519 Q1254.35 452.652 1252.38 450.181 Q1250.4 447.711 1243.43 447.711 L1234.34 447.711 L1234.34 474.736 Q1234.34 477.355 1235.08 478.096 Q1235.87 478.788 1239.28 478.788 L1252.77 478.788 Q1257.12 478.788 1260.28 478.244 Q1263.49 477.651 1265.72 476.268 Q1267.94 474.835 1269.42 473.205 Q1270.95 471.574 1271.99 468.659 Q1273.08 465.695 1273.67 462.978 Q1274.31 460.26 1275 455.814 L1277.52 455.814 L1273.27 481.9 L1214.93 481.9 Z" fill="#000000" fill-rule="nonzero" fill-opacity="1" /><path clip-path="url(#clip360)" d="M1284.09 481.9 L1284.09 478.788 Q1287.75 478.788 1290.07 478.096 Q1292.4 477.355 1293.24 476.021 Q1294.12 474.638 1294.32 473.748 Q1294.52 472.81 1294.52 471.278 L1294.52 420.685 Q1294.52 417.77 1293.24 416.881 Q1292 415.942 1286.52 415.942 L1284.09 415.942 L1284.09 412.78 L1301.19 412.78 Q1303.02 412.78 1303.51 413.126 Q1304.01 413.423 1304.75 415.004 L1326.68 471.673 L1348.82 414.707 Q1349.31 413.274 1349.76 413.027 Q1350.25 412.78 1352.18 412.78 L1369.27 412.78 L1369.27 415.942 L1366.85 415.942 Q1361.37 415.942 1360.08 416.881 Q1358.85 417.77 1358.85 420.685 L1358.85 473.995 Q1358.85 476.91 1360.08 477.849 Q1361.37 478.788 1366.85 478.788 L1369.27 478.788 L1369.27 481.9 Q1365.52 481.604 1354.8 481.604 Q1343.98 481.604 1340.22 481.9 L1340.22 478.788 L1342.69 478.788 Q1348.18 478.788 1349.41 477.898 Q1350.65 476.96 1350.65 473.995 L1350.65 415.942 L1350.55 415.942 L1325.7 479.974 Q1325 481.9 1323.87 481.9 Q1322.63 481.9 1321.84 479.677 L1297.43 416.733 L1297.34 416.733 L1297.34 471.278 Q1297.34 472.81 1297.53 473.748 Q1297.73 474.638 1298.57 476.021 Q1299.46 477.355 1301.78 478.096 Q1304.1 478.788 1307.76 478.788 L1307.76 481.9 Q1297.14 481.604 1295.9 481.604 Q1294.72 481.604 1284.09 481.9 Z" fill="#000000" fill-rule="nonzero" fill-opacity="1" /><path clip-path="url(#clip360)" d="M1383.11 480.27 Q1381.57 478.64 1381.57 476.515 Q1381.57 474.391 1383.11 472.859 Q1384.64 471.278 1386.96 471.278 Q1389.18 471.278 1390.67 472.76 Q1392.2 474.193 1392.2 476.564 Q1392.2 478.887 1390.57 480.418 Q1388.99 481.9 1386.96 481.9 Q1384.64 481.9 1383.11 480.27 Z" fill="#000000" fill-rule="nonzero" fill-opacity="1" /><path clip-path="url(#clip360)" d="M1397.04 494.548 Q1397.04 492.523 1398.32 491.189 Q1399.56 489.904 1401.68 489.904 Q1403.81 489.904 1405.04 491.189 Q1406.33 492.523 1406.33 494.548 Q1406.33 496.377 1405.24 497.513 Q1404.2 498.699 1402.82 499.094 Q1405.44 500.428 1408.25 500.428 Q1410.58 500.428 1412.16 499.045 Q1413.74 497.661 1414.43 495.388 Q1415.17 493.116 1415.42 491.189 Q1415.66 489.311 1415.66 487.137 L1415.66 447.069 Q1415.66 443.314 1414.18 442.375 Q1412.75 441.436 1406.97 441.436 L1406.97 438.274 L1422.33 437.187 L1422.33 486.94 Q1422.33 493.709 1418.28 498.155 Q1414.23 502.651 1408.5 502.651 Q1403.86 502.651 1400.45 500.477 Q1397.04 498.303 1397.04 494.548 M1413.19 423.403 Q1411.61 421.822 1411.61 419.598 Q1411.61 417.375 1413.19 415.794 Q1414.78 414.213 1417 414.213 Q1419.22 414.213 1420.8 415.794 Q1422.38 417.375 1422.38 419.598 Q1422.38 421.822 1420.8 423.403 Q1419.22 424.934 1417 424.934 Q1414.78 424.934 1413.19 423.403 Z" fill="#000000" fill-rule="nonzero" fill-opacity="1" /><path clip-path="url(#clip360)" d="M1435.28 481.9 L1435.28 478.788 Q1440.66 478.788 1441.9 478.145 Q1443.14 477.454 1443.14 474.193 L1443.14 421.575 Q1443.14 417.82 1441.8 416.881 Q1440.52 415.942 1435.28 415.942 L1435.28 412.78 L1449.8 411.693 L1449.8 474.193 Q1449.8 477.454 1451.09 478.145 Q1452.37 478.788 1457.71 478.788 L1457.71 481.9 Q1456.47 481.9 1453.91 481.802 Q1451.34 481.703 1449.46 481.653 Q1447.58 481.604 1446.49 481.604 Q1445.31 481.604 1435.28 481.9 Z" fill="#000000" fill-rule="nonzero" fill-opacity="1" /></svg>
