<?xml version="1.0" encoding="UTF-8" standalone="no"?>
<!-- Created with Inkscape (http://www.inkscape.org/) -->

<svg
   width="231.867mm"
   height="124.94423mm"
   viewBox="0 0 231.867 124.94423"
   version="1.1"
   id="svg17959"
   inkscape:version="1.2.1 (9c6d41e410, 2022-07-14)"
   sodipodi:docname="export_v1.svg"
   xmlns:inkscape="http://www.inkscape.org/namespaces/inkscape"
   xmlns:sodipodi="http://sodipodi.sourceforge.net/DTD/sodipodi-0.dtd"
   xmlns="http://www.w3.org/2000/svg"
   xmlns:svg="http://www.w3.org/2000/svg">
  <sodipodi:namedview
     id="namedview17961"
     pagecolor="#ffffff"
     bordercolor="#000000"
     borderopacity="0.25"
     inkscape:showpageshadow="2"
     inkscape:pageopacity="0.0"
     inkscape:pagecheckerboard="0"
     inkscape:deskcolor="#d1d1d1"
     inkscape:document-units="mm"
     showgrid="false"
     inkscape:zoom="0.50646226"
     inkscape:cx="451.16886"
     inkscape:cy="348.49586"
     inkscape:window-width="1920"
     inkscape:window-height="991"
     inkscape:window-x="-9"
     inkscape:window-y="-9"
     inkscape:window-maximized="1"
     inkscape:current-layer="layer1" />
  <defs
     id="defs17956">
    <clipPath
       id="clip-0-a7a371d1">
      <path
         clip-rule="nonzero"
         d="M 16,21 H 584 V 434 H 16 Z m 0,0"
         id="path817" />
    </clipPath>
    <clipPath
       id="clip-1-a7a371d1">
      <path
         clip-rule="nonzero"
         d="M 16,117 H 584 V 434 H 16 Z m 0,0"
         id="path820" />
    </clipPath>
    <clipPath
       id="clip-2-a7a371d1">
      <path
         clip-rule="nonzero"
         d="M 16,16 H 584 V 434 H 16 Z m 0,0"
         id="path823" />
    </clipPath>
  </defs>
  <g
     inkscape:label="Calque 1"
     inkscape:groupmode="layer"
     id="layer1"
     transform="translate(-41.825279,-21.87088)">
    <g
       id="g1014"
       transform="matrix(0.26458333,0,0,0.26458333,63.31389,15.285163)">
      <g
         clip-path="url(#clip-0-a7a371d1)"
         id="g834">
        <path
           fill="none"
           stroke-width="20"
           stroke-linecap="butt"
           stroke-linejoin="miter"
           stroke="#cb3c33"
           stroke-opacity="0.9"
           stroke-miterlimit="2"
           d="m 41.816406,413.32422 0.519532,-0.0274 1.03125,-0.0547 0.519531,-0.0274 1.03125,-0.0625 0.519531,-0.0273 1.03125,-0.0625 0.519531,-0.0312 0.515625,-0.0352 0.515625,-0.0312 0.519532,-0.0312 1.03125,-0.0703 0.519531,-0.0352 1.03125,-0.0703 0.519531,-0.0391 0.515625,-0.0352 0.515625,-0.0391 0.519531,-0.0391 1.03125,-0.0781 0.515625,-0.043 0.519532,-0.0391 1.03125,-0.0859 0.519531,-0.043 0.515625,-0.043 0.515625,-0.0469 0.519531,-0.043 1.03125,-0.0937 0.519531,-0.0469 0.515625,-0.0508 0.515625,-0.0469 0.519532,-0.0508 1.03125,-0.10156 0.519531,-0.0547 1.03125,-0.10937 0.519531,-0.0547 0.515625,-0.0547 0.515625,-0.0586 0.519531,-0.0586 1.03125,-0.11718 0.519532,-0.0625 0.515625,-0.0586 0.515625,-0.0664 0.515625,-0.0625 0.519531,-0.0664 0.515625,-0.0625 0.515625,-0.0703 0.519531,-0.0664 1.03125,-0.14062 0.519531,-0.0703 1.03125,-0.14843 0.519532,-0.0742 1.03125,-0.15625 0.519531,-0.0781 0.515625,-0.0781 0.515625,-0.082 0.519531,-0.0859 0.515625,-0.082 0.515625,-0.0859 0.519531,-0.0859 1.03125,-0.17969 0.519532,-0.0937 0.515625,-0.0898 0.515625,-0.0977 0.519531,-0.0937 0.515625,-0.0976 0.515625,-0.10156 0.515625,-0.0977 0.519531,-0.10547 0.515625,-0.10156 0.515625,-0.10547 0.519531,-0.10938 0.515625,-0.10937 0.515625,-0.11328 0.519532,-0.10938 1.03125,-0.23437 0.519531,-0.11719 1.03125,-0.24219 0.519531,-0.125 1.03125,-0.25781 0.519531,-0.12891 0.515625,-0.13281 0.515625,-0.13672 0.519532,-0.13672 1.03125,-0.28125 0.519531,-0.14453 1.03125,-0.29687 0.519531,-0.15235 0.515625,-0.15234 0.515625,-0.15625 0.515625,-0.16016 0.519531,-0.16015 0.515625,-0.16406 0.515625,-0.16797 0.519529,-0.16797 0.51563,-0.17578 0.51562,-0.17188 0.51953,-0.17969 0.51563,-0.17968 0.51562,-0.1875 0.51954,-0.1875 0.51562,-0.1875 0.51563,-0.19532 0.51953,-0.19531 0.51562,-0.19922 0.51563,-0.20312 0.51953,-0.20703 1.03125,-0.42188 0.51953,-0.21875 0.51562,-0.21875 0.51563,-0.22265 0.51953,-0.23047 0.51563,-0.23047 0.51562,-0.23438 0.51953,-0.23828 0.51563,-0.24219 0.51562,-0.24609 0.51563,-0.25391 0.51953,-0.2539 0.51562,-0.25781 0.51563,-0.26563 0.51953,-0.26562 0.51562,-0.27344 0.51563,-0.27735 0.51953,-0.28125 0.51563,-0.28515 0.51562,-0.28906 0.51953,-0.29688 0.51563,-0.29687 0.51562,-0.30469 0.51953,-0.3125 0.51563,-0.3125 0.51562,-0.32031 0.51953,-0.32813 0.51563,-0.32812 0.51562,-0.33594 0.51954,-0.34375 0.51562,-0.34766 0.51563,-0.35156 0.51953,-0.35938 0.51562,-0.36328 0.51563,-0.37109 0.51953,-0.37891 0.51562,-0.38281 0.51563,-0.38672 0.51562,-0.39453 0.51953,-0.40234 0.51563,-0.41016 0.51562,-0.41406 0.51953,-0.42188 0.51563,-0.42968 0.51562,-0.4375 0.51954,-0.44141 0.51562,-0.45313 0.51563,-0.45703 0.51953,-0.46484 0.51562,-0.47266 0.51563,-0.48047 0.51953,-0.48828 0.51562,-0.49609 0.51563,-0.50781 0.51953,-0.51172 0.51562,-0.51953 0.51563,-0.53125 0.51953,-0.53907 0.51563,-0.54687 0.51562,-0.55859 0.51953,-0.56641 0.51563,-0.57422 0.51562,-0.58203 0.51953,-0.59375 0.51563,-0.60547 0.51562,-0.61328 0.51563,-0.625 0.51953,-0.63281 0.51562,-0.64453 0.51563,-0.65625 0.51953,-0.66407 0.51563,-0.67578 0.51562,-0.6875 0.51953,-0.69922 0.51563,-0.71093 0.51562,-0.72266 0.51953,-0.73438 0.51563,-0.74609 0.51562,-0.75781 0.51953,-0.76953 0.51563,-0.78125 0.51562,-0.79688 0.51954,-0.80859 0.51562,-0.82422 0.51563,-0.83594 0.51953,-0.84765 0.51562,-0.86329 0.51563,-0.8789 0.51953,-0.89063 0.51562,-0.91015 0.51563,-0.92188 0.51953,-0.93359 0.51562,-0.95313 0.51563,-0.96875 0.51562,-0.98047 0.51954,-1 0.51562,-1.01562 0.51563,-1.03516 0.51953,-1.05078 0.51562,-1.0664 0.51563,-1.08204 0.51953,-1.10156 0.51562,-1.12109 0.51563,-1.14063 0.51953,-1.15625 0.51562,-1.17578 0.51563,-1.19531 0.51953,-1.21484 0.51563,-1.23438 0.51562,-1.25781 0.51953,-1.27344 0.51563,-1.29687 0.51562,-1.32032 0.51953,-1.33984 0.51563,-1.35938 0.51562,-1.38281 0.51953,-1.41015 0.51563,-1.42969 0.51562,-1.45313 0.51954,-1.47656 0.51562,-1.5 0.51563,-1.52734 0.51562,-1.55078 0.51953,-1.57422 0.51563,-1.60157 0.51562,-1.6289 0.51953,-1.65625 0.51563,-1.6836 0.51562,-1.70703 0.51953,-1.73828 0.51563,-1.76562 0.51562,-1.79688 0.51954,-1.82422 0.51562,-1.85547 0.51563,-1.88281 0.51953,-1.91797 0.51562,-1.94922 0.51563,-1.97656 0.51953,-2.01172 0.51562,-2.04687 0.51563,-2.07813 0.51953,-2.11328 0.51562,-2.14453 0.51563,-2.18359 0.51953,-2.21875 0.51563,-2.25391 0.51562,-2.29297 0.51953,-2.32812 0.51563,-2.36719 0.51562,-2.40625 0.51563,-2.44531 0.51953,-2.48438 0.51562,-2.52734 0.51563,-2.56641 0.51953,-2.61328 0.51562,-2.65234 0.51563,-2.69532 0.51953,-2.73828 0.51563,-2.78515 0.51562,-2.83203 0.51953,-2.87891 0.51563,-2.92578 0.51562,-2.97266 0.51953,-3.01953 0.51563,-3.07031 0.51562,-3.1211 0.51953,-3.17187 0.51563,-3.22656 0.51562,-3.27735 0.51954,-3.33203 0.51562,-3.38672 0.51563,-3.4414 0.51953,-3.4961 0.51562,-3.55468 0.51563,-3.61329 0.51953,-3.67187 0.51562,-3.73438 0.51563,-3.79296 0.51562,-3.85547 0.51953,-3.92188 0.51563,-3.98437 0.51562,-4.04688 0.51954,-4.11719 0.51562,-4.18359 0.51563,-4.25 0.51953,-4.32031 0.51562,-4.39453 0.51563,-4.46485 0.51953,-4.53515 0.51562,-4.61328 0.51563,-4.6875 0.51953,-4.76563 0.51562,-4.83984 0.51563,-4.92188 0.51953,-5.0039 0.51563,-5.085941 0.51562,-5.167969 0.51953,-5.253906 0.51563,-5.335938 0.51562,-5.429687 0.51953,-1.050781 0.51563,5.441406 0.51562,5.355469 0.51953,5.269531 0.51563,5.183594 0.51562,5.101562 0.51563,5.01953 0.51953,4.9375 0.51563,4.85547 0.51562,4.78125 0.51953,4.70312 0.51563,4.625 0.51562,4.55079 0.51953,4.48046 0.51563,4.40625 0.51562,4.33204 0.51953,4.26562 0.51563,4.19922 0.51562,4.125 0.51954,4.0625 0.51562,3.99609 0.51563,3.9336 0.51953,3.86718 0.51562,3.8086 0.51563,3.74219 0.51953,3.68359 0.51562,3.625 0.51563,3.56641 0.51953,3.50781 0.51562,3.45312 0.51563,3.39844 0.51953,3.33984 0.51563,3.28907 0.51562,3.23437 0.51563,3.1836 0.51953,3.1289 0.51562,3.08203 0.51563,3.03125 0.51953,2.98047 0.51562,2.9336 0.51563,2.88671 0.51953,2.83985 0.51562,2.79297 0.51563,2.75 0.51953,2.70703 0.51563,2.66015 0.51562,2.61719 0.51953,2.57422 0.51563,2.53516 0.51562,2.49609 0.51953,2.45313 0.51563,2.41015 0.51562,2.375 0.51953,2.33594 0.51563,2.30078 0.51562,2.26172 0.51954,2.22266 0.51562,2.1914 0.51563,2.15235 0.51953,2.12109 0.51562,2.08594 0.51563,2.05078 0.51562,2.01562 0.51953,1.98828 0.51563,1.95313 0.51562,1.92187 0.51953,1.89063 0.51563,1.85937 0.51562,1.83204 0.51954,1.80078 0.51562,1.76953 0.51563,1.74609 0.51953,1.71485 0.51562,1.6875 0.51563,1.66015 0.51953,1.63281 0.51562,1.60938 0.51563,1.57812 0.51953,1.5586 0.51562,1.52734 0.51563,1.50781 0.51953,1.48047 0.51563,1.45703 0.51562,1.4375 0.51953,1.41016 0.51563,1.38672 0.51562,1.36719 0.51953,1.34375 0.51563,1.32031 0.51562,1.30078 0.51563,1.28125 0.51953,1.25781 0.51562,1.24219 0.51563,1.21875 0.51953,1.19922 0.51563,1.17969 0.51562,1.16015 0.51953,1.14063 0.51563,1.125 0.51562,1.10547 0.51953,1.08593 0.51563,1.07032 0.51562,1.05468 0.51953,1.03516 0.51563,1.01953 0.51562,1.00391 0.51954,0.98437 0.51562,0.97266 0.51563,0.95312 0.51953,0.94141 0.51562,0.92188 0.51563,0.91015 0.51953,0.89453 0.51562,0.88282 0.51563,0.86328 0.51953,0.85547 0.51562,0.83593 0.51563,0.82422 0.51562,0.8125 0.51954,0.80078 0.51562,0.78516 0.51563,0.77344 0.51953,0.75781 0.51562,0.75 0.51563,0.73437 0.51953,0.72657 0.51562,0.71093 0.51563,0.70313 0.51953,0.6875 0.51562,0.67969 0.51563,0.66797 0.51953,0.65625 0.51563,0.64453 0.51562,0.63672 0.51953,0.625 0.51563,0.61718 0.51562,0.60547 0.51953,0.59766 0.51563,0.58594 0.51562,0.57421 0.51953,0.57032 0.51563,0.55859 0.51562,0.54688 0.51954,0.53906 0.51562,0.53515 0.51563,0.52344 0.51562,0.51172 0.51953,0.50781 0.51563,0.4961 0.51562,0.49218 0.51953,0.48047 0.51563,0.47657 0.51562,0.46484 0.51953,0.46094 0.51563,0.45312 0.51562,0.44531 0.51954,0.4336 0.51562,0.43359 0.51563,0.42188 0.51953,0.41797 0.51562,0.41015 0.51563,0.40235 0.51953,0.39453 0.51562,0.39062 0.51563,0.38672 0.51953,0.375 0.51562,0.375 0.51563,0.36328 0.51953,0.35938 0.51563,0.35547 0.51562,0.34765 0.51953,0.34375 0.51563,0.33594 0.51562,0.33203 0.51563,0.32813 0.51953,0.32031 0.51562,0.3164 0.51563,0.3086 0.51953,0.30859 0.51562,0.30078 0.51563,0.29688 0.51953,0.28906 1.03125,0.57031 0.51953,0.27735 0.51563,0.27343 0.51562,0.26563 0.51953,0.26562 1.03125,0.51563 0.51953,0.25 0.51563,0.25 0.51562,0.24219 0.51954,0.23828 0.51562,0.23828 0.51563,0.23047 0.51953,0.23047 1.03125,0.44531 0.51953,0.21484 0.51562,0.21485 0.51563,0.21093 0.51562,0.20704 0.51953,0.20312 1.03125,0.39844 0.51954,0.1914 0.51562,0.19141 0.51563,0.1875 0.51953,0.1875 1.03125,0.35938 0.51953,0.17578 1.03125,0.34375 0.51953,0.16797 0.51562,0.16406 0.51563,0.16015 0.51953,0.16016 1.03125,0.3125 0.51953,0.15234 1.03125,0.29688 0.51953,0.14453 1.03125,0.28125 0.51953,0.13672 0.51563,0.13672 1.03125,0.26562 0.51953,0.12891 1.03125,0.25 0.51953,0.125 0.51563,0.12109 0.51562,0.11719 0.51953,0.11719 0.51563,0.11719 0.51562,0.11328 0.51953,0.11328 0.51563,0.10937 0.51562,0.10547 0.51954,0.10547 1.03125,0.21094 0.51953,0.0976 0.51562,0.10157 0.51563,0.0976 0.51953,0.0977 1.03125,0.1875 0.51953,0.0898 1.03125,0.17969 0.51953,0.0898 0.51563,0.0859 0.51562,0.082 0.51563,0.0859 0.51953,0.082 1.03125,0.15625 0.51953,0.0781 0.51562,0.0781 0.51563,0.0742 0.51953,0.0742 1.03125,0.14844 0.51953,0.0703 0.51563,0.0664 0.51562,0.0703 0.51953,0.0664 1.03125,0.13282 0.51953,0.0625 1.03125,0.125 0.51953,0.0625 0.51563,0.0586 0.51562,0.0625 0.51954,0.0547 1.03125,0.11719 0.51953,0.0547 0.51562,0.0547 0.51563,0.0508 0.51562,0.0547 0.51953,0.0508 1.03125,0.10156 0.51953,0.0508 0.51563,0.0469 0.51562,0.0508 0.51954,0.0469 0.51562,0.043 0.51563,0.0469 0.51953,0.0469 1.03125,0.0859 0.51953,0.043 0.51562,0.043 0.51563,0.0391 0.51953,0.043 1.03125,0.0781 0.51953,0.0391 0.51563,0.0391 0.51562,0.0352 0.51953,0.0391 1.03125,0.0703 0.51953,0.0352 1.03125,0.0703 0.51563,0.0312 0.51953,0.0352 1.03125,0.0625 0.51953,0.0312 1.03125,0.0625 0.51953,0.0312 0.51563,0.0273 0.51562,0.0312 0.51953,0.0273 1.03125,0.0547 0.51953,0.0274 1.03125,0.0547 0.51954,0.0234 0.51562,0.0273 0.51563,0.0234 0.51953,0.0234 0.51562,0.0273 0.51563,0.0234 0.51953,0.0234 0.51562,0.0234 0.51563,0.0195 0.51953,0.0234 0.51562,0.0234 0.51563,0.0195 0.51562,0.0234 0.51954,0.0195 1.03125,0.0391 0.51953,0.0195 1.03125,0.0391 0.51953,0.0195 1.03125,0.0391 0.51953,0.0156 0.51562,0.0195 0.51563,0.0156 0.51953,0.0195 1.03125,0.0312 0.51953,0.0195 1.03125,0.0312 0.51953,0.0156 0.51563,0.0156 0.51562,0.0117 0.51953,0.0156 1.03125,0.0312 0.51954,0.0117 0.51562,0.0156 0.51563,0.0117 0.51562,0.0156 0.51953,0.0117 0.51563,0.0156 0.51562,0.0117 0.51953,0.0117 1.03125,0.0234 0.51953,0.0117 1.03125,0.0234 0.51954,0.0117 1.03125,0.0234 0.51953,0.0117 0.51562,0.0117 0.51563,0.008 0.51953,0.0117 0.51562,0.0117 0.51563,0.008 0.51953,0.0117 0.51562,0.008 0.51563,0.0117 0.51953,0.008 0.51563,0.008 0.51562,0.0117 0.51953,0.008 0.51563,0.008 0.51562,0.0117 0.51563,0.008 0.51953,0.008 1.03125,0.0156 0.51953,0.008 1.03125,0.0156 0.51953,0.008 1.03125,0.0156 0.51953,0.008 0.51563,0.008 0.51562,0.004 0.51953,0.008 1.03125,0.0156 0.51953,0.004 1.03125,0.0156 0.51954,0.004 0.51562,0.008 0.51563,0.004 0.51953,0.008 0.51562,0.004 0.51563,0.008 0.51953,0.004 0.51562,0.008 1.03125,0.008 0.51953,0.008 0.51563,0.004 0.51562,0.008 0.51954,0.004 1.03125,0.008 0.51953,0.008 1.03125,0.008 0.51953,0.004 1.03125,0.008 0.51953,0.008 1.03125,0.008 0.51953,0.004 1.03125,0.008 0.51953,0.004 1.03125,0.008 0.51953,0.004 1.03125,0.008 0.51953,0.004 1.03125,0.008 H 445.5 l 0.51953,0.004 1.03125,0.008 0.51953,0.004 0.51563,0.004 h 0.51562 l 0.51953,0.004 1.03125,0.008 h 0.51953 l 1.03125,0.008 0.51954,0.004 h 0.51562 l 0.51563,0.004 0.51953,0.004 h 0.51562 l 0.51563,0.004 0.51953,0.004 h 0.51562 l 0.51563,0.004 0.51953,0.004 h 0.51562 l 0.51563,0.004 h 0.51953 l 0.51563,0.004 h 0.51562 l 0.51563,0.004 0.51953,0.004 h 0.51562 l 0.51563,0.004 h 0.51953 l 0.51562,0.004 h 0.51563 l 0.51953,0.004 h 0.51562 l 0.51563,0.004 h 0.51953 l 0.51563,0.004 h 1.03515 l 0.51563,0.004 h 0.51562 l 0.51953,0.004 h 0.51563 l 0.51562,0.004 h 1.03516 l 0.51562,0.004 h 0.51954 l 0.51562,0.004 h 1.03516 l 0.51562,0.004 h 1.03125 l 0.51953,0.004 h 1.03125 l 0.51953,0.004 h 1.03125 l 0.51954,0.004 h 1.03125 l 0.51953,0.004 h 1.03125 l 0.51953,0.004 h 1.55078 l 0.51562,0.004 h 1.55079 l 0.51562,0.004 h 1.55078 l 0.51953,0.004 h 1.54688 l 0.51953,0.004 h 2.06641 l 0.51562,0.004 h 2.07031 l 0.51563,0.004 h 2.58594 l 0.51562,0.004 h 2.58594 l 0.51562,0.004 h 3.10157 l 0.51562,0.004 h 3.10156 l 0.51563,0.004 h 4.13672 l 0.51562,0.004 h 4.65235 l 0.51562,0.004 h 6.20313 l 0.51953,0.004 h 7.23437 l 0.51563,0.004 h 10.33984 l 0.51563,0.004 h 14.99218"
           id="path832" />
      </g>
      <g
         clip-path="url(#clip-1-a7a371d1)"
         id="g838">
        <path
           fill="none"
           stroke-width="20"
           stroke-linecap="butt"
           stroke-linejoin="miter"
           stroke="#389826"
           stroke-opacity="0.9"
           stroke-miterlimit="2"
           d="m 41.816406,415 h 47.039063 l 0.515625,-0.004 h 10.335937 l 0.519529,-0.004 h 5.16797 l 0.51563,-0.004 h 3.10156 l 0.51953,-0.004 h 2.06641 l 0.51562,-0.004 h 1.55078 l 0.51563,-0.004 h 1.55078 l 0.51953,-0.004 h 1.03125 l 0.51953,-0.004 h 1.03125 l 0.51953,-0.004 h 0.51563 l 0.51562,-0.004 h 0.51953 l 0.51563,-0.004 h 0.51562 l 0.51954,-0.004 h 0.51562 l 0.51563,-0.004 h 0.51953 l 1.03125,-0.008 h 0.51953 l 1.03125,-0.008 h 0.51562 l 0.51953,-0.004 1.03125,-0.008 0.51953,-0.004 0.51563,-0.004 h 0.51562 l 0.51954,-0.004 0.51562,-0.008 0.51563,-0.004 0.51953,-0.004 1.03125,-0.008 0.51953,-0.004 0.51562,-0.008 0.51563,-0.004 0.51953,-0.004 0.51562,-0.008 0.51563,-0.004 0.51953,-0.008 0.51563,-0.008 0.51562,-0.004 0.51953,-0.008 1.03125,-0.0156 0.51953,-0.008 1.54688,-0.0234 0.51953,-0.0117 0.51562,-0.008 0.51563,-0.0117 0.51953,-0.008 1.03125,-0.0234 0.51953,-0.0117 1.03125,-0.0234 0.51953,-0.0117 0.51563,-0.0156 0.51562,-0.0117 0.51953,-0.0156 0.51563,-0.0156 0.51562,-0.0117 0.51954,-0.0156 0.51562,-0.0195 0.51563,-0.0156 0.51953,-0.0195 0.51562,-0.0156 0.51563,-0.0195 0.51953,-0.0195 0.51562,-0.0195 0.51563,-0.0234 0.51953,-0.0195 1.54687,-0.0703 0.51954,-0.0234 1.03125,-0.0547 0.51953,-0.0273 0.51562,-0.0273 0.51563,-0.0312 0.51953,-0.0274 0.51562,-0.0312 0.51563,-0.0351 0.51953,-0.0312 1.03125,-0.0703 0.51953,-0.0391 1.03125,-0.0781 0.51953,-0.0391 1.03125,-0.0859 0.51953,-0.0469 1.03125,-0.0937 0.51953,-0.0508 1.03125,-0.10156 0.51954,-0.0547 0.51562,-0.0547 1.03125,-0.11718 0.51953,-0.0625 0.51563,-0.0625 0.51562,-0.0664 0.51953,-0.0664 1.03125,-0.14062 0.51953,-0.0742 0.51563,-0.0742 0.51562,-0.0781 0.51954,-0.082 0.51562,-0.082 0.51563,-0.0859 0.51953,-0.0859 0.51562,-0.0899 0.51563,-0.0937 0.51953,-0.0976 0.51562,-0.0977 0.51563,-0.10156 0.51953,-0.10156 1.03125,-0.21875 0.51953,-0.11328 0.51563,-0.11329 0.51562,-0.12109 0.51953,-0.12109 1.03125,-0.25782 0.51563,-0.13281 0.51953,-0.13672 0.51562,-0.14062 0.51563,-0.14453 0.51953,-0.14844 0.51562,-0.15234 0.51563,-0.15625 0.51953,-0.16016 0.51563,-0.16406 0.51562,-0.16797 0.51953,-0.17188 1.03125,-0.35937 0.51953,-0.1875 0.51563,-0.19141 0.51562,-0.19922 0.51953,-0.19922 0.51563,-0.20703 0.51562,-0.21093 0.51954,-0.21875 0.51562,-0.21875 0.51563,-0.23047 0.51953,-0.23047 1.03125,-0.48438 0.51953,-0.25 0.51562,-0.25781 0.51563,-0.26172 0.51562,-0.26953 0.51953,-0.27344 0.51563,-0.28125 0.51562,-0.28906 0.51954,-0.29297 0.51562,-0.30078 0.51563,-0.30859 0.51953,-0.3125 0.51562,-0.32422 0.51563,-0.32813 0.51953,-0.33593 0.51562,-0.34375 0.51563,-0.35157 0.51953,-0.35937 0.51562,-0.36719 0.51563,-0.37109 0.51953,-0.38282 0.51563,-0.39062 0.51562,-0.39844 0.51953,-0.40625 0.51563,-0.41797 0.51562,-0.42187 0.51953,-0.4336 0.51563,-0.4414 0.51562,-0.44922 0.51953,-0.45703 0.51563,-0.46875 0.51562,-0.47656 0.51563,-0.48829 0.51953,-0.49609 0.51563,-0.50391 0.51562,-0.51562 0.51953,-0.52734 0.51563,-0.53516 0.51562,-0.54297 0.51953,-0.55469 0.51563,-0.5664 0.51562,-0.57813 0.51953,-0.58594 0.51563,-0.59375 0.51562,-0.60937 0.51954,-0.61719 0.51562,-0.6289 0.51563,-0.64063 0.51953,-0.64844 0.51562,-0.66406 0.51563,-0.67187 0.51953,-0.6836 0.51562,-0.69531 0.51563,-0.70703 0.51953,-0.71875 0.51562,-0.73047 0.51563,-0.74219 0.51953,-0.7539 0.51563,-0.76563 0.51562,-0.77734 0.51563,-0.78907 0.51953,-0.80078 0.51562,-0.8125 0.51563,-0.82812 0.51953,-0.83594 0.51562,-0.85156 0.51563,-0.86328 0.51953,-0.875 0.51562,-0.88672 0.51563,-0.90235 0.51953,-0.91015 0.51563,-0.92578 0.51562,-0.9375 0.51953,-0.94922 0.51563,-0.96485 0.51562,-0.97265 0.51953,-0.98828 0.51563,-1 0.51562,-1.01563 0.51953,-1.02344 0.51563,-1.03906 0.51562,-1.05078 0.51954,-1.06641 0.51562,-1.07421 0.51563,-1.08985 0.51953,-1.10156 0.51562,-1.11328 0.51563,-1.125 0.51562,-1.14063 0.51953,-1.15234 0.51563,-1.16016 0.51562,-1.17578 0.51953,-1.1875 0.51563,-1.20312 0.51562,-1.21094 0.51954,-1.22266 0.51562,-1.23828 0.51563,-1.24609 0.51953,-1.25781 0.51562,-1.27344 0.51563,-1.28125 0.51953,-1.29297 0.51562,-1.30469 0.51563,-1.3164 0.51953,-1.32813 0.51562,-1.33594 0.51563,-1.34765 0.51953,-1.35938 0.51563,-1.37109 0.51562,-1.37891 0.51953,-1.38672 0.51563,-1.39843 0.51562,-1.41016 0.51953,-1.41797 0.51563,-1.42969 0.51562,-1.43359 0.51563,-1.44531 0.51953,-1.45703 0.51562,-1.46094 0.51563,-1.46875 0.51953,-1.48047 0.51563,-1.48438 0.51562,-1.49609 0.51953,-1.5 0.51563,-1.50781 0.51562,-1.51563 0.51953,-1.51953 0.51563,-1.52734 0.51562,-1.53125 0.51953,-1.53906 0.51563,-1.54297 0.51562,-1.55078 0.51954,-1.55469 0.51562,-1.55469 0.51563,-1.5625 0.51953,-1.56641 1.03125,-3.14062 0.51953,-1.57422 1.03125,-3.15625 0.51953,-1.58203 1.03125,-3.16406 0.51562,-1.58594 0.51954,-1.58203 0.51562,-1.58594 0.51563,-1.58203 0.51953,-1.58203 1.03125,-3.16406 0.51953,-1.57813 1.03125,-3.14844 0.51953,-1.5664 0.51562,-1.56641 0.51563,-1.5625 0.51953,-1.55859 0.51563,-1.55078 0.51562,-1.54688 0.51953,-1.54297 0.51563,-1.53515 0.51562,-1.52735 0.51953,-1.52344 0.51563,-1.51562 0.51562,-1.50391 0.51953,-1.5 0.51563,-1.49218 0.51562,-1.48047 0.51954,-1.47266 0.51562,-1.46094 0.51563,-1.44922 0.51562,-1.4414 0.51953,-1.42969 0.51563,-1.41797 0.51562,-1.40625 0.51953,-1.39453 0.51563,-1.37891 0.51562,-1.36718 0.51953,-1.35547 0.51563,-1.33985 0.51562,-1.32421 0.51954,-1.3125 0.51562,-1.29297 0.51563,-1.28125 0.51953,-1.26172 0.51562,-1.2461 0.51563,-1.23046 0.51953,-1.21485 0.51562,-1.19531 0.51563,-1.17578 0.51953,-1.15625 0.51562,-1.14063 0.51563,-1.12109 0.51953,-1.10156 0.51563,-1.07813 0.51562,-1.0625 0.51953,-1.03906 0.51563,-1.01953 0.51562,-1 0.51563,-0.97266 0.51953,-0.95703 0.51562,-0.92969 0.51563,-0.91015 0.51953,-0.88672 0.51562,-0.86328 0.51563,-0.83985 0.51953,-0.8164 0.51563,-0.79297 0.51562,-0.76563 0.51953,-0.74609 0.51563,-0.71484 0.51562,-0.69532 0.51953,-0.66797 0.51563,-0.64062 0.51562,-0.61719 0.51953,-0.58984 0.51563,-0.56641 0.51562,-0.53906 0.51954,-0.51172 0.51562,-0.48437 0.51563,-0.45704 0.51953,-0.42968 0.51562,-0.40235 0.51563,-0.3789 0.51953,-0.34766 0.51562,-0.32031 0.51563,-0.29297 0.51562,-0.26563 0.51953,-0.23828 0.51563,-0.21093 0.51562,-0.17969 0.51954,-0.15235 0.51562,-0.125 0.51563,-0.0977 0.51953,-0.0703 0.51562,-0.0391 0.51563,-0.0117 0.51953,0.0156 0.51562,0.043 0.51563,0.0742 0.51953,0.10156 0.51562,0.12891 0.51563,0.15625 0.51953,0.1875 0.51563,0.21484 0.51562,0.24219 0.51953,0.26953 0.51563,0.29687 0.51562,0.32422 0.51953,0.35547 0.51563,0.37891 0.51562,0.40625 0.51953,0.4375 0.51563,0.46093 0.51562,0.48829 0.51563,0.51562 0.51953,0.54297 0.51563,0.56641 0.51562,0.59765 0.51953,0.6211 0.51563,0.64453 0.51562,0.67187 0.51953,0.69531 0.51563,0.72266 0.51562,0.75 0.51953,0.76953 0.51563,0.79688 0.51562,0.82031 0.51954,0.84375 0.51562,0.86328 0.51563,0.89063 0.51953,0.91406 0.51562,0.93359 0.51563,0.96094 0.51953,0.97656 0.51562,1.00391 0.51563,1.01953 0.51953,1.04297 0.51562,1.0664 0.51563,1.08204 0.51953,1.10546 0.51563,1.1211 0.51562,1.14453 0.51563,1.16016 0.51953,1.17968 0.51562,1.19922 0.51563,1.21485 0.51953,1.23046 0.51562,1.25 0.51563,1.26563 0.51953,1.28125 0.51562,1.30078 0.51563,1.3125 0.51953,1.32813 0.51563,1.33984 0.51562,1.35547 0.51953,1.37109 0.51563,1.38281 0.51562,1.39454 0.51953,1.40625 0.51563,1.42187 0.51562,1.42969 0.51953,1.44531 0.51563,1.45313 0.51562,1.46093 0.51954,1.47266 0.51562,1.48437 0.51563,1.49219 0.51953,1.5 0.51562,1.50781 0.51563,1.51563 0.51562,1.52344 0.51953,1.52734 0.51563,1.53906 0.51562,1.54297 0.51953,1.54688 1.03125,3.10937 0.51954,1.5625 0.51562,1.56641 0.51563,1.57031 0.51953,1.57422 0.51562,1.57422 0.51563,1.57812 0.51953,1.58203 1.03125,3.16407 0.51953,1.58203 1.03125,3.17187 0.51953,1.58203 1.03125,3.16407 0.51953,1.58203 1.03125,3.15625 0.51953,1.57422 1.03125,3.14062 0.51563,1.5625 0.51953,1.5625 0.51562,1.5586 0.51563,1.55078 0.51953,1.55078 0.51563,1.54297 0.51562,1.53515 0.51953,1.53125 0.51563,1.52735 0.51562,1.51953 0.51953,1.51562 0.51563,1.50391 0.51562,1.5 0.51953,1.49219 0.51563,1.48828 0.51562,1.47656 0.51954,1.46875 0.51562,1.46094 0.51563,1.45312 0.51953,1.44141 0.51562,1.4375 0.51563,1.42578 0.51953,1.41797 0.51562,1.40625 0.51563,1.39844 0.51953,1.38672 0.51562,1.3789 0.51563,1.36719 0.51562,1.35547 0.51954,1.34765 0.51562,1.33594 0.51563,1.32422 0.51953,1.31641 0.51562,1.30078 0.51563,1.29297 0.51953,1.28125 0.51562,1.26562 0.51563,1.25781 0.51953,1.2461 0.51562,1.23437 0.51563,1.22266 0.51953,1.21094 0.51563,1.19922 0.51562,1.18359 0.51953,1.17578 0.51563,1.16016 0.51562,1.14843 0.51953,1.13672 0.51563,1.125 0.51562,1.11328 0.51953,1.09766 0.51563,1.08984 0.51562,1.07422 0.51954,1.0586 0.51562,1.05078 0.51563,1.03515 0.51562,1.02344 0.51953,1.01172 0.51563,1 0.51562,0.98438 0.51953,0.97656 0.51563,0.96094 0.51562,0.94531 0.51953,0.9375 0.51563,0.92187 0.51562,0.91016 0.51954,0.89844 0.51562,0.88672 0.51563,0.87109 0.51953,0.86328 0.51562,0.84766 0.51563,0.83593 0.51953,0.82422 0.51562,0.8125 0.51563,0.79688 0.51953,0.78906 0.51562,0.77734 0.51563,0.76172 0.51953,0.75391 0.51563,0.73828 0.51562,0.72656 0.51953,0.71875 0.51563,0.70703 0.51562,0.69141 0.51563,0.68359 0.51953,0.67188 0.51562,0.66016 0.51563,0.64843 0.51953,0.63672 0.51562,0.62891 0.51563,0.61328 0.51953,0.60547 0.51563,0.59765 0.51562,0.58204 0.51953,0.57421 0.51563,0.56641 0.51562,0.55078 0.51953,0.54297 0.51563,0.53516 0.51562,0.52343 0.51953,0.51563 0.51563,0.50391 0.51562,0.49218 0.51954,0.48828 0.51562,0.47266 0.51563,0.46875 0.51953,0.45703 0.51562,0.44922 0.51563,0.4375 0.51953,0.43359 0.51562,0.42188 0.51563,0.41406 0.51562,0.40625 0.51953,0.39453 0.51563,0.39063 0.51562,0.38281 0.51954,0.37109 0.51562,0.36719 0.51563,0.35547 0.51953,0.35156 0.51562,0.33985 0.51563,0.33593 0.51953,0.32813 0.51562,0.32031 0.51563,0.3125 0.51953,0.3086 0.51562,0.30078 0.51563,0.29297 0.51953,0.28515 0.51563,0.28125 0.51562,0.27344 0.51953,0.26562 0.51563,0.26172 0.51562,0.25782 0.51953,0.25 0.51563,0.24218 0.51562,0.23828 0.51953,0.23047 0.51563,0.22657 0.51562,0.22265 0.51563,0.21485 0.51953,0.21093 0.51563,0.20703 0.51562,0.19922 0.51953,0.19532 0.51563,0.1914 0.51562,0.1875 0.51953,0.17969 0.51563,0.17969 0.51562,0.17187 0.51953,0.16797 0.51563,0.16406 0.51562,0.16016 0.51954,0.15234 0.51562,0.15235 0.51563,0.14843 0.51953,0.14454 1.03125,0.27343 0.51953,0.13282 1.03125,0.25781 0.51953,0.12109 1.03125,0.23438 0.51953,0.11328 0.51563,0.10937 0.51562,0.10547 0.51563,0.10156 0.51953,0.10157 1.03125,0.19531 0.51953,0.0898 1.03125,0.17969 0.51953,0.082 1.03125,0.16406 0.51953,0.0781 1.03125,0.14844 0.51953,0.0703 0.51563,0.0703 0.51562,0.0664 0.51953,0.0625 1.03125,0.125 0.51953,0.0586 0.51563,0.0586 0.51562,0.0547 0.51954,0.0547 1.03125,0.10156 0.51953,0.0508 1.03125,0.0937 0.51562,0.043 0.51953,0.0469 0.51563,0.0391 0.51562,0.043 0.51953,0.0391 0.51563,0.0391 0.51562,0.0352 0.51954,0.0352 1.03125,0.0703 0.51953,0.0312 1.03125,0.0625 0.51953,0.0273 1.03125,0.0547 0.51953,0.0273 0.51562,0.0274 0.51563,0.0234 0.51953,0.0234 1.03125,0.0469 0.51953,0.0195 0.51563,0.0234 0.51562,0.0195 0.51953,0.0195 0.51563,0.0195 0.51562,0.0156 0.51563,0.0195 0.51953,0.0156 1.03125,0.0312 0.51953,0.0156 0.51563,0.0156 0.51562,0.0117 0.51953,0.0156 0.51563,0.0117 0.51562,0.0156 0.51953,0.0117 1.03125,0.0234 0.51953,0.008 1.03125,0.0234 0.51954,0.008 0.51562,0.0117 0.51563,0.008 0.51953,0.008 1.03125,0.0156 0.51953,0.008 1.03125,0.0156 0.51953,0.008 0.51562,0.008 0.51563,0.004 0.51562,0.008 0.51954,0.004 0.51562,0.008 0.51563,0.004 0.51953,0.008 1.03125,0.008 0.51953,0.004 0.51562,0.004 0.51563,0.008 0.51953,0.004 1.03125,0.008 0.51953,0.004 0.51563,0.004 h 0.51562 l 0.51953,0.004 1.03125,0.008 0.51953,0.004 h 0.51563 l 0.51562,0.004 0.51953,0.004 h 0.51563 l 0.51562,0.004 h 0.51954 l 0.51562,0.004 h 0.51563 l 0.51562,0.004 h 0.51953 l 0.51563,0.004 h 0.51562 l 0.51953,0.004 h 0.51563 l 0.51562,0.004 H 522 l 0.51562,0.004 h 1.03516 l 0.51563,0.004 h 1.55078 l 0.51953,0.004 h 1.55078 l 0.51562,0.004 h 2.06641 l 0.51953,0.004 h 3.09766 l 0.51953,0.004 h 4.65234 l 0.51563,0.004 h 10.85547 l 0.51562,0.004 h 7.23828"
           id="path836" />
      </g>
      <g
         clip-path="url(#clip-2-a7a371d1)"
         id="g844">
        <path
           fill="none"
           stroke-width="20"
           stroke-linecap="butt"
           stroke-linejoin="miter"
           stroke="#9558b2"
           stroke-opacity="0.9"
           stroke-miterlimit="2"
           d="M 41.816406,415 H 326.10156 l 0.51953,-0.004 h 4.13282 l 0.51562,-0.004 h 2.07031 l 0.51563,-0.004 h 1.03515 l 0.51563,-0.004 h 1.03516 l 0.51562,-0.004 h 0.51563 l 0.51953,-0.004 0.51562,-0.004 h 0.51563 l 0.51953,-0.004 1.03125,-0.008 0.51953,-0.004 1.03125,-0.008 0.51953,-0.008 0.51563,-0.004 0.51562,-0.008 0.51563,-0.004 0.51953,-0.008 0.51562,-0.008 0.51563,-0.0117 0.51953,-0.008 1.03125,-0.0234 0.51953,-0.0117 0.51562,-0.0156 0.51563,-0.0117 0.51953,-0.0195 0.51563,-0.0156 0.51562,-0.0195 0.51953,-0.0195 1.03125,-0.0469 0.51953,-0.0273 0.51563,-0.0312 0.51562,-0.0274 0.51953,-0.0351 0.51563,-0.0352 0.51562,-0.0391 0.51954,-0.043 0.51562,-0.0469 0.51563,-0.0508 0.51953,-0.0508 0.51562,-0.0586 0.51563,-0.0625 0.51562,-0.0664 0.51953,-0.0703 0.51563,-0.0781 0.51562,-0.082 0.51953,-0.0898 0.51563,-0.0937 0.51562,-0.10156 0.51954,-0.10938 0.51562,-0.11719 0.51563,-0.125 0.51953,-0.13281 0.51562,-0.14453 0.51563,-0.15234 0.51953,-0.16407 0.51562,-0.17578 0.51563,-0.18359 0.51953,-0.19922 0.51562,-0.21094 0.51563,-0.22656 0.51953,-0.23828 0.51563,-0.25391 0.51562,-0.27343 0.51953,-0.28516 0.51563,-0.30469 0.51562,-0.32422 0.51953,-0.34375 0.51563,-0.36328 0.51562,-0.38672 0.51563,-0.40625 0.51953,-0.43359 0.51562,-0.45313 0.51563,-0.48437 0.51953,-0.50781 0.51563,-0.53516 0.51562,-0.56641 0.51953,-0.59765 0.51563,-0.62891 0.51562,-0.66015 0.51953,-0.69922 0.51563,-0.73047 0.51562,-0.76953 0.51953,-0.8086 0.51563,-0.84765 0.51562,-0.89063 0.51954,-0.93359 0.51562,-0.97656 0.51563,-1.02344 0.51953,-1.07031 0.51562,-1.11719 0.51563,-1.17188 0.51953,-1.22265 0.51562,-1.27735 0.51563,-1.32812 0.51953,-1.39063 0.51562,-1.44531 0.51563,-1.50391 0.51562,-1.5664 0.51954,-1.62891 0.51562,-1.69531 0.51563,-1.75781 0.51953,-1.82813 0.51562,-1.89453 0.51563,-1.96094 0.51953,-2.03515 0.51562,-2.10938 0.51563,-2.17969 0.51953,-2.2539 0.51562,-2.32813 0.51563,-2.40625 0.51953,-2.48437 0.51563,-2.5625 0.51562,-2.64063 0.51953,-2.71875 0.51563,-2.80078 0.51562,-2.88281 0.51953,-2.96094 0.51563,-3.04297 0.51562,-3.12109 0.51953,-3.20703 0.51563,-3.28516 0.51562,-3.37109 0.51954,-3.44531 0.51562,-3.53125 0.51563,-3.60547 0.51562,-3.6875 0.51953,-3.76563 0.51563,-3.83984 0.51562,-3.91797 0.51953,-3.99219 0.51563,-4.0625 0.51562,-4.13672 0.51953,-4.20312 0.51563,-4.27344 0.51562,-4.33594 0.51954,-4.39843 0.51562,-4.46094 0.51563,-4.51563 0.51953,-4.57031 0.51562,-4.625 0.51563,-4.67187 0.51953,-4.71875 0.51562,-4.75782 0.51563,-4.79687 0.51953,-4.83594 0.51562,-4.86328 0.51563,-4.88672 0.51953,-4.91406 0.51563,-4.92969 0.51562,-4.94531 0.51953,-4.95313 1.03125,-9.91406 0.51563,-4.95312 0.51953,-4.94141 0.51562,-4.92969 0.51563,-4.90625 0.51953,-4.8789 0.51562,-4.85157 0.51563,-4.8125 0.51953,-4.77343 0.51563,-4.72657 0.51562,-4.67187 0.51953,-4.61719 0.51563,-4.55078 0.51562,-4.48437 0.51953,-4.41016 0.51563,-4.33203 0.51562,-4.24219 0.51953,-4.15625 0.51563,-4.05859 0.51562,-3.960941 0.51954,-3.851563 0.51562,-3.742187 0.51563,-3.628906 0.51953,-3.503907 0.51562,-3.382812 0.51563,-3.25 0.51953,-3.117188 0.51562,-2.980468 0.51563,-2.835938 0.51562,-2.691406 0.51953,-2.542969 0.51563,-2.386719 0.51562,-2.234375 0.51954,-2.070312 0.51562,-1.90625 0.51563,-1.746094 0.51953,-1.574219 0.51562,-1.40625 0.51563,-1.230468 0.51953,-1.0625 0.51562,-0.882813 0.51563,-0.707031 0.51953,-0.527344 0.51562,-0.351562 0.51563,-0.171875 0.51953,0.0039 0.51563,0.1875 0.51562,0.363281 0.51953,0.542969 0.51563,0.722656 0.51562,0.898438 0.51953,1.070312 0.51563,1.246094 0.51562,1.421875 0.51953,1.585937 0.51563,1.757813 0.51562,1.921875 0.51563,2.082031 0.51953,2.242188 0.51563,2.402343 0.51562,2.550782 0.51953,2.703125 0.51563,2.847656 0.51562,2.992187 0.51953,3.128907 0.51563,3.261718 0.51562,3.390625 0.51953,3.515625 0.51563,3.636719 0.51562,3.75 0.51954,3.859371 0.51562,3.96875 0.51563,4.06641 0.51953,4.16015 0.51562,4.25391 0.51563,4.33594 0.51953,4.41406 0.51562,4.49219 0.51563,4.55468 0.51953,4.6211 0.51562,4.67968 0.51563,4.72657 0.51953,4.77734 0.51563,4.81641 0.51562,4.85547 0.51563,4.88281 0.51953,4.90625 0.51562,4.92969 0.51563,4.9414 0.51953,4.95313 0.51562,4.96093 0.51563,4.95704 0.51953,4.95312 0.51562,4.94141 0.51563,4.92968 0.51953,4.91016 0.51563,4.88672 0.51562,4.86328 0.51953,4.82813 0.51563,4.79687 0.51562,4.75781 0.51953,4.71094 0.51563,4.66797 0.51562,4.62109 0.51953,4.56641 0.51563,4.51562 0.51562,4.45313 0.51954,4.39453 0.51562,4.33203 0.51563,4.26563 0.51953,4.19922 0.51562,4.1289 0.51563,4.0586 0.51562,3.98828 0.51953,3.91015 0.51563,3.83594 0.51562,3.75781 0.51953,3.67969 0.51563,3.60547 0.51562,3.51953 0.51954,3.44141 0.51562,3.36328 0.51563,3.28125 0.51953,3.19922 0.51562,3.11718 0.51563,3.03516 0.51953,2.95703 0.51562,2.875 0.51563,2.79297 0.51953,2.71484 0.51562,2.63282 0.51563,2.55859 0.51953,2.47656 0.51563,2.39844 0.51562,2.32422 0.51953,2.25 0.51563,2.17578 0.51562,2.10156 0.51953,2.02735 0.51563,1.95703 0.51562,1.89062 0.51563,1.82032 0.51953,1.7539 0.51562,1.6875 0.51563,1.625 0.51953,1.5625 0.51563,1.5 0.51562,1.44141 0.51953,1.38281 0.51563,1.32813 0.51562,1.27343 0.51953,1.21875 0.51563,1.16407 0.51562,1.11718 0.51953,1.06641 0.51563,1.01953 0.51562,0.97266 0.51954,0.92968 0.51562,0.88672 0.51563,0.84375 0.51953,0.80469 0.51562,0.76953 0.51563,0.72656 0.51953,0.69532 0.51562,0.66015 0.51563,0.625 0.51953,0.59375 0.51562,0.56641 0.51563,0.53125 0.51562,0.50781 0.51954,0.48047 0.51562,0.45313 0.51563,0.42968 0.51953,0.40625 0.51562,0.38282 0.51563,0.36328 0.51953,0.33984 0.51562,0.32422 0.51563,0.30469 0.51953,0.28515 0.51562,0.26953 0.51563,0.25391 0.51953,0.23828 0.51563,0.22266 0.51562,0.21094 0.51953,0.19531 0.51563,0.1875 0.51562,0.17187 0.51953,0.16407 0.51563,0.15234 0.51562,0.14062 0.51953,0.13282 0.51563,0.125 0.51562,0.11718 0.51954,0.10938 0.51562,0.10156 0.51563,0.0937 0.51562,0.0899 0.51953,0.082 0.51563,0.0742 0.51562,0.0703 0.51953,0.0664 0.51563,0.0625 0.51562,0.0586 0.51953,0.0508 0.51563,0.0508 0.51562,0.0469 0.51954,0.0391 1.03125,0.0781 0.51953,0.0312 0.51562,0.0312 0.51563,0.0274 0.51953,0.0273 1.03125,0.0469 0.51953,0.0195 1.03125,0.0391 0.51953,0.0156 0.51563,0.0156 0.51562,0.0117 0.51953,0.0117 1.54688,0.0351 0.51953,0.008 1.03125,0.0156 0.51953,0.008 0.51562,0.004 0.51563,0.008 0.51953,0.004 1.03125,0.008 0.51953,0.004 1.03125,0.008 0.51953,0.004 h 0.51563 l 0.51562,0.004 0.51953,0.004 h 0.51563 l 0.51562,0.004 h 1.03516 l 0.51563,0.004 h 1.03515 l 0.51563,0.004 h 2.0664 l 0.51953,0.004 h 4.13282 l 0.51953,0.004 h 6.20312"
           id="path840" />
        <path
           fill="none"
           stroke-width="20"
           stroke-linecap="butt"
           stroke-linejoin="miter"
           stroke="#4063d8"
           stroke-opacity="0.75"
           stroke-miterlimit="2"
           d="m 41.816406,413.32422 0.519532,-0.0274 1.03125,-0.0547 0.519531,-0.0274 1.03125,-0.0625 0.519531,-0.0273 1.03125,-0.0625 0.519531,-0.0312 0.515625,-0.0352 0.515625,-0.0312 0.519532,-0.0351 0.515625,-0.0312 0.515625,-0.0352 0.519531,-0.0352 1.03125,-0.0703 0.519531,-0.0391 0.515625,-0.0352 0.515625,-0.0391 0.519531,-0.0391 1.03125,-0.0781 0.515625,-0.043 0.519532,-0.0391 1.03125,-0.0859 0.519531,-0.043 0.515625,-0.043 0.515625,-0.0469 0.519531,-0.043 1.03125,-0.0937 0.519531,-0.0469 0.515625,-0.0508 0.515625,-0.0469 0.519532,-0.0508 0.515625,-0.0508 0.515625,-0.0547 0.519531,-0.0508 1.03125,-0.10937 0.519531,-0.0547 0.515625,-0.0547 0.515625,-0.0586 0.519531,-0.0586 1.03125,-0.11718 0.519532,-0.0625 0.515625,-0.0586 0.515625,-0.0664 0.515625,-0.0625 0.519531,-0.0664 1.03125,-0.13281 0.519531,-0.0664 1.03125,-0.14062 0.519531,-0.0703 1.03125,-0.14843 0.519532,-0.0742 1.03125,-0.15625 0.519531,-0.0781 1.03125,-0.16406 0.519531,-0.082 0.515625,-0.082 0.515625,-0.0859 0.519531,-0.0898 0.515625,-0.0859 0.515625,-0.0899 0.519532,-0.0937 1.03125,-0.1875 0.519531,-0.0937 0.515625,-0.0976 1.03125,-0.20313 0.519531,-0.10156 1.03125,-0.21094 0.519531,-0.10547 0.515625,-0.10937 0.515625,-0.11328 0.519532,-0.11328 0.515625,-0.11328 0.515625,-0.11719 0.519531,-0.1211 1.03125,-0.24218 0.519531,-0.125 0.515625,-0.125 0.515625,-0.12891 0.519531,-0.13281 0.515625,-0.13281 0.515625,-0.13672 0.519532,-0.13672 1.03125,-0.28125 0.519531,-0.14453 1.03125,-0.29688 0.519531,-0.15234 0.515625,-0.15235 0.515625,-0.15625 0.515625,-0.16015 0.519531,-0.16016 0.515625,-0.16797 0.515625,-0.16406 0.519529,-0.17187 0.51563,-0.17188 0.51562,-0.17578 0.51953,-0.17969 0.51563,-0.17969 0.51562,-0.1875 0.51954,-0.1875 0.51562,-0.1875 0.51563,-0.19531 0.51953,-0.19531 1.03125,-0.40625 0.51953,-0.20703 0.51562,-0.20703 0.51563,-0.21485 0.51953,-0.21875 0.51562,-0.21875 0.51563,-0.22656 0.51953,-0.22656 1.03125,-0.46875 0.51953,-0.23828 1.03125,-0.49219 0.51563,-0.25 0.51953,-0.25781 1.03125,-0.52344 0.51953,-0.26953 0.51562,-0.27344 0.51563,-0.27734 0.51953,-0.28125 1.03125,-0.57813 0.51953,-0.29687 0.51563,-0.30078 0.51562,-0.3086 0.51953,-0.3125 0.51563,-0.3164 0.51562,-0.32032 0.51953,-0.32812 0.51563,-0.33203 0.51562,-0.33594 0.51954,-0.34375 0.51562,-0.35156 0.51563,-0.35547 0.51953,-0.35938 0.51562,-0.36718 0.51563,-0.375 0.51953,-0.37891 0.51562,-0.38281 0.51563,-0.39453 0.51562,-0.39844 0.51953,-0.40235 0.51563,-0.41406 0.51562,-0.41797 0.51953,-0.42578 0.51563,-0.43359 0.51562,-0.4375 0.51954,-0.44922 0.51562,-0.45313 0.51563,-0.46093 0.51953,-0.47266 0.51562,-0.47656 0.51563,-0.48438 0.51953,-0.49609 0.51562,-0.5 0.51563,-0.51172 0.51953,-0.51562 0.51562,-0.52735 0.51563,-0.53906 0.51953,-0.54297 0.51563,-0.55469 0.51562,-0.5625 0.51953,-0.57422 0.51563,-0.58203 0.51562,-0.58984 0.51953,-0.60156 0.51563,-0.61328 0.51562,-0.6211 0.51563,-0.63281 0.51953,-0.64453 0.51562,-0.65235 0.51563,-0.66406 0.51953,-0.67578 0.51563,-0.6875 0.51562,-0.69922 0.51953,-0.71094 0.51563,-0.72265 0.51562,-0.73438 0.51953,-0.74609 0.51563,-0.75781 0.51562,-0.77344 0.51953,-0.78516 0.51563,-0.79687 0.51562,-0.8125 0.51954,-0.82422 0.51562,-0.83984 0.51563,-0.85157 0.51953,-0.86718 0.51562,-0.88282 0.51563,-0.89453 0.51953,-0.91406 0.51562,-0.92578 0.51563,-0.94141 0.51953,-0.95703 0.51562,-0.97656 0.51563,-0.99219 0.51562,-1.00391 0.51954,-1.02734 0.51562,-1.03906 0.51563,-1.0625 0.51953,-1.07422 0.51562,-1.09766 0.51563,-1.11328 0.51953,-1.13281 0.51562,-1.15234 0.51563,-1.16797 0.51953,-1.19141 0.51562,-1.21094 0.51563,-1.23047 0.51953,-1.2539 0.51563,-1.27344 0.51562,-1.29297 0.51953,-1.32031 0.51563,-1.33594 0.51562,-1.36328 0.51953,-1.38281 0.51563,-1.41016 0.51562,-1.42969 0.51953,-1.45703 0.51563,-1.48047 0.51562,-1.50781 0.51954,-1.53125 0.51562,-1.55469 0.51563,-1.58593 0.51562,-1.60938 0.51953,-1.63672 0.51563,-1.66797 0.51562,-1.6914 0.51953,-1.72266 0.51563,-1.75 0.51562,-1.78125 0.51953,-1.8125 0.51563,-1.84375 0.51562,-1.87109 0.51954,-1.90625 0.51562,-1.9375 0.51563,-1.96875 0.51953,-2.00391 0.51562,-2.03906 0.51563,-2.07031 0.51953,-2.10938 0.51562,-2.14453 0.51563,-2.17578 0.51953,-2.21875 0.51562,-2.25391 0.51563,-2.29297 0.51953,-2.33203 0.51563,-2.36718 0.51562,-2.41407 0.51953,-2.44922 0.51563,-2.49609 0.51562,-2.53516 0.51563,-2.57812 0.51953,-2.62109 0.51562,-2.66797 0.51563,-2.71094 0.51953,-2.75781 0.51562,-2.80469 0.51563,-2.85547 0.51953,-2.89844 0.51563,-2.94922 0.51562,-3 0.51953,-3.05078 0.51563,-3.10156 0.51562,-3.15625 0.51953,-3.20703 0.51563,-3.26563 0.51562,-3.3164 0.51953,-3.375 0.51563,-3.42969 0.51562,-3.48828 0.51954,-3.54688 0.51562,-3.60937 0.51563,-3.66797 0.51953,-3.73047 0.51562,-3.79687 0.51563,-3.85547 0.51953,-3.92188 0.51562,-3.99218 0.51563,-4.05469 0.51562,-4.125 0.51953,-4.19531 0.51563,-4.26563 0.51562,-4.33594 0.51954,-4.41015 0.51562,-4.48438 0.51563,-4.55859 0.51953,-4.63672 0.51562,-4.71484 0.51563,-4.79297 0.51953,-4.8711 0.51562,-4.95703 0.51563,-5.03906 0.51953,-5.12109 0.51562,-5.21094 0.51563,-5.296876 0.51953,-5.382813 0.51563,-5.476562 0.51562,-5.566406 0.51953,-5.660157 0.51563,-5.753906 0.51562,-5.851562 0.51953,-1.484375 0.51563,5 0.51562,4.90625 0.51953,4.8125 0.51563,4.714843 0.51562,4.625 0.51563,4.53125 0.51953,4.441407 0.51563,4.351562 0.51562,4.265625 0.51953,4.17578 0.51563,4.08985 0.51562,4.00781 0.51953,3.92187 0.51563,3.84375 0.51562,3.75782 0.51953,3.67968 0.51563,3.59766 0.51562,3.52344 0.51954,3.4414 0.51562,3.36719 0.51563,3.29297 0.51953,3.21875 0.51562,3.14453 0.51563,3.07031 0.51953,3 0.51562,2.92969 0.51563,2.85937 0.51953,2.78907 0.51562,2.72265 0.51563,2.65625 0.51953,2.58594 0.51563,2.52344 0.51562,2.45703 0.51563,2.39453 0.51953,2.32813 0.51562,2.26562 0.51563,2.20703 0.51953,2.14453 0.51562,2.08203 0.51563,2.02344 0.51953,1.96485 0.51562,1.90625 0.51563,1.85156 0.51953,1.78906 0.51563,1.73828 0.51562,1.67969 0.51953,1.625 0.51563,1.57422 0.51562,1.51562 0.51953,1.46485 0.51563,1.41406 0.51562,1.36328 0.51953,1.30859 0.51563,1.26172 0.51562,1.21094 0.51954,1.16016 0.51562,1.11328 0.51563,1.0625 0.51953,1.01953 0.51562,0.97266 0.51563,0.92187 0.51562,0.87891 0.51953,0.83593 0.51563,0.78907 0.51562,0.74609 0.51953,0.70313 0.51563,0.66406 0.51562,0.61719 0.51954,0.57812 0.51562,0.53516 0.51563,0.49609 0.51953,0.45703 0.51562,0.41406 0.51563,0.37891 0.51953,0.33984 0.51562,0.30079 0.51563,0.26562 0.51953,0.23047 0.51562,0.19141 0.51563,0.16015 0.51953,0.1211 0.51563,0.0898 0.51562,0.0547 0.51953,0.0234 0.51563,-0.0117 0.51562,-0.043 0.51953,-0.0742 0.51563,-0.10547 0.51562,-0.13672 0.51563,-0.16406 0.51953,-0.19531 0.51562,-0.22266 0.51563,-0.25391 0.51953,-0.27734 0.51563,-0.30859 0.51562,-0.33204 0.51953,-0.35937 0.51563,-0.38281 0.51562,-0.41016 0.51953,-0.43359 0.51563,-0.45703 0.51562,-0.48047 0.51953,-0.5 0.51563,-0.52344 0.51562,-0.54688 0.51954,-0.5664 0.51562,-0.58985 0.51563,-0.60546 0.51953,-0.625 0.51562,-0.64454 0.51563,-0.66406 0.51953,-0.67969 0.51562,-0.69531 0.51563,-0.71484 0.51953,-0.72656 0.51562,-0.7461 0.51563,-0.75781 0.51562,-0.77344 0.51954,-0.78515 0.51562,-0.79688 0.51563,-0.8125 0.51953,-0.82031 0.51562,-0.83594 0.51563,-0.84375 0.51953,-0.85156 0.51562,-0.86328 0.51563,-0.8711 0.51953,-0.8789 0.51562,-0.88672 0.51563,-0.89453 0.51953,-0.90235 0.51563,-0.90625 0.51562,-0.91015 0.51953,-0.91407 1.03125,-1.84375 0.51953,-0.92578 1.03125,-1.85937 0.51953,-0.9336 0.51563,-0.92968 0.51562,-0.9336 0.51954,-0.92968 1.03125,-1.85938 0.51562,-0.92578 0.51953,-0.92188 0.51563,-0.92187 0.51562,-0.91406 0.51953,-0.91016 0.51563,-0.90625 0.51562,-0.90234 0.51953,-0.89453 0.51563,-0.88672 0.51562,-0.88282 0.51954,-0.87109 0.51562,-0.86719 0.51563,-0.85547 0.51953,-0.84765 0.51562,-0.83594 0.51563,-0.82422 0.51953,-0.8164 0.51562,-0.80469 0.51563,-0.79297 0.51953,-0.78125 0.51562,-0.76953 0.51563,-0.75391 0.51953,-0.73828 0.51563,-0.72656 0.51562,-0.71485 0.51953,-0.69531 0.51563,-0.68359 0.51562,-0.66406 0.51563,-0.65235 0.51953,-0.63281 0.51562,-0.61719 0.51563,-0.59765 0.51953,-0.57813 0.51562,-0.5625 0.51563,-0.54687 0.51953,-0.52344 0.51563,-0.50391 0.51562,-0.48828 0.51953,-0.46484 0.51563,-0.44532 0.51562,-0.42578 0.51953,-0.40234 0.51563,-0.38281 0.51562,-0.35938 0.51953,-0.33984 0.51563,-0.31641 0.51562,-0.29687 0.51954,-0.26953 0.51562,-0.25 0.51563,-0.22657 0.51953,-0.20312 0.51562,-0.17578 0.51563,-0.15625 0.51953,-0.13282 0.51562,-0.10546 0.51563,-0.0859 0.51562,-0.0586 0.51953,-0.0312 0.51563,-0.0117 0.51562,0.0156 0.51954,0.043 0.51562,0.0664 0.51563,0.0898 0.51953,0.11719 0.51562,0.14062 0.51563,0.16406 0.51953,0.19532 0.51562,0.21484 0.51563,0.24609 0.51953,0.26563 0.51562,0.29687 0.51563,0.32032 0.51953,0.34375 0.51563,0.37109 0.51562,0.39453 0.51953,0.42188 0.51563,0.44922 0.51562,0.47265 0.51953,0.4961 0.51563,0.52343 0.51562,0.54688 0.51953,0.57031 0.51563,0.59766 0.51562,0.62109 0.51563,0.64844 0.51953,0.67187 0.51563,0.69532 0.51562,0.71875 0.51953,0.74218 0.51563,0.76563 0.51562,0.78906 0.51953,0.81641 0.51563,0.83593 0.51562,0.85938 0.51953,0.87891 0.51563,0.90625 0.51562,0.92578 0.51954,0.94922 0.51562,0.96875 0.51563,0.98828 0.51953,1.01172 0.51562,1.03515 0.51563,1.05078 0.51953,1.07422 0.51562,1.09375 0.51563,1.10938 0.51953,1.13281 0.51562,1.14844 0.51563,1.16797 0.51953,1.1875 0.51563,1.20312 0.51562,1.22266 0.51563,1.23437 0.51953,1.25391 0.51562,1.27344 0.51563,1.28515 0.51953,1.30078 0.51562,1.3125 0.51563,1.33203 0.51953,1.34375 0.51562,1.35547 0.51563,1.3711 0.51953,1.38281 0.51563,1.39062 0.51562,1.40625 0.51953,1.41797 0.51563,1.42578 0.51562,1.4375 0.51953,1.44532 0.51563,1.45312 0.51562,1.46094 0.51953,1.47266 0.51563,1.47656 0.51562,1.48047 0.51954,1.48828 0.51562,1.49609 0.51563,1.5 0.51953,1.5 0.51562,1.50391 0.51563,1.50781 0.51562,1.51172 0.51953,1.51172 0.51563,1.50781 0.51562,1.51172 0.51953,1.50781 0.51563,1.50781 0.51562,1.50391 0.51954,1.5 0.51562,1.49609 0.51563,1.48829 0.51953,1.48437 0.51562,1.47656 0.51563,1.46875 0.51953,1.46094 0.51562,1.44922 0.51563,1.4375 0.51953,1.42578 0.51562,1.41406 0.51563,1.39844 0.51953,1.38281 0.51563,1.36719 0.51562,1.34766 0.51953,1.33203 0.51563,1.30859 0.51562,1.28906 0.51953,1.26563 0.51563,1.24219 0.51562,1.21875 0.51563,1.1914 0.51953,1.16016 0.51562,1.13672 0.51563,1.10156 0.51953,1.07031 0.51563,1.03516 0.51562,1.00391 0.51953,0.96484 0.51563,0.92578 0.51562,0.88672 0.51953,0.84766 0.51563,0.80078 0.51562,0.75781 0.51953,0.71094 0.51563,0.66406 0.51562,0.61328 0.51954,0.5625 0.51562,0.51172 0.51563,0.45312 0.51953,0.39844 0.51562,0.33985 0.51563,0.27734 0.51953,0.21875 0.51562,0.15625 0.51563,0.0898 0.51953,0.0195 0.51562,-0.043 0.51563,-0.11719 0.51562,-0.1875 0.51954,-0.26563 0.51562,-0.33593 0.51563,-0.41407 0.51953,-0.49218 0.51562,-0.57032 0.51563,-0.65234 0.51953,-0.73438 0.51562,-0.82031 0.51563,-0.90625 0.51953,-0.98828 0.51562,-1.07812 0.51563,-1.16797 0.51953,-1.25391 0.51563,-1.34766 0.51562,-1.4375 0.51953,-1.53125 0.51563,-1.62109 0.51562,-1.71875 0.51953,-1.80859 0.51563,-1.90235 0.51562,-1.99609 0.51953,-2.09375 0.51563,-2.18359 0.51562,-2.27735 0.51954,-2.375 0.51562,-2.46484 0.51563,-2.5586 0.51562,-2.64843 0.51953,-2.73828 0.51563,-2.83204 0.51562,-2.91796 0.51953,-3.00391 0.51563,-3.09375 0.51562,-3.17188 0.51953,-3.25781 0.51563,-3.33594 0.51562,-3.41406 0.51954,-3.49219 0.51562,-3.5625 0.51563,-3.63281 0.51953,-3.69922 0.51562,-3.76562 0.51563,-3.82422 0.51953,-3.88281 0.51562,-3.9375 0.51563,-3.98828 0.51953,-4.03516 0.51562,-4.07813 0.51563,-4.11718 0.51953,-4.14844 0.51563,-4.18359 0.51562,-4.20704 0.51953,-4.22656 0.51563,-4.24219 0.51562,-4.2539 0.51563,-4.26172 0.51953,-4.26563 0.51562,-4.25781 0.51563,-4.25 0.51953,-4.23437 0.51562,-4.21485 0.51563,-4.1914 0.51953,-4.16016 0.51563,-4.12109 0.51562,-4.08203 0.51953,-4.03516 0.51563,-3.98047 0.51562,-3.92578 0.51953,-3.859375 0.51563,-3.789062 0.51562,-3.714844 0.51953,-3.632813 0.51563,-3.550781 0.51562,-3.457031 0.51954,-3.359375 0.51562,-3.261719 0.51563,-3.152344 0.51953,-3.042968 0.51562,-2.929688 0.51563,-2.804687 0.51953,-2.679688 0.51562,-2.554687 0.51563,-2.417969 0.51562,-2.277344 0.51953,-2.140625 0.51563,-1.992187 0.51562,-1.84375 0.51954,-1.695313 0.51562,-1.539062 0.51563,-1.378907 0.51953,-1.222656 0.51562,-1.058594 0.51563,-0.890625 0.51953,-0.726562 0.51562,-0.558594 0.51563,-0.390625 0.51953,-0.21875 0.51562,-0.04687 0.51563,0.125 0.51953,0.296875 0.51563,0.472656 0.51562,0.640625 0.51953,0.816407 0.51563,0.984375 0.51562,1.15625 0.51953,1.328125 0.51563,1.492187 0.51562,1.660156 0.51953,1.824219 0.51563,1.988281 0.51562,2.144532 0.51563,2.304687 0.51953,2.457031 0.51563,2.609375 0.51562,2.753907 0.51953,2.902343 0.51563,3.042969 0.51562,3.179688 0.51953,3.3125 0.51563,3.441406 0.51562,3.566406 0.51953,3.6875 0.51563,3.800781 0.51562,3.914063 0.51954,4.019531 0.51562,4.121094 0.51563,4.218756 0.51953,4.30859 0.51562,4.39453 0.51563,4.47266 0.51953,4.55078 0.51562,4.6211 0.51563,4.68749 0.51953,4.74219 0.51562,4.80078 0.51563,4.84766 0.51953,4.89062 0.51563,4.92969 0.51562,4.96094 0.51563,4.98828 0.51953,5.01172 0.51562,5.02734 0.51563,5.04297 0.51953,5.04688 0.51562,5.05078 0.51563,5.04687 0.51953,5.03907 0.51562,5.02734 0.51563,5.00781 0.51953,4.99219 0.51563,4.96484 0.51562,4.9375 0.51953,4.90235 0.51563,4.86328 0.51562,4.82422 0.51953,4.78125 0.51563,4.73437 0.51562,4.6836 0.51953,4.6289 0.51563,4.57031 0.51562,4.51172 0.51954,4.44922 0.51562,4.38672 0.51563,4.32031 0.51953,4.2461 0.51562,4.17968 0.51563,4.10547 0.51562,4.03516 0.51953,3.95312 0.51563,3.87891 0.51562,3.80078 0.51953,3.72266 0.51563,3.64062 0.51562,3.5625 0.51954,3.47657 0.51562,3.39843 0.51563,3.31641 0.51953,3.23047 0.51562,3.15234 0.51563,3.06641 0.51953,2.98828 0.51562,2.90234 0.51563,2.82422 0.51953,2.73828 0.51562,2.66407 0.51563,2.57812 0.51953,2.50391 0.51563,2.42578 0.51562,2.34765 0.51953,2.26954 0.51563,2.19531 0.51562,2.125 0.51953,2.04687 0.51563,1.98047 0.51562,1.90625 0.51563,1.83985 0.51953,1.77343 0.51562,1.70313 0.51563,1.64062 0.51953,1.57813 0.51563,1.51953 0.51562,1.45312 0.51953,1.39844 0.51563,1.33985 0.51562,1.28515 0.51953,1.23438 0.51563,1.17578 0.51562,1.1289 0.51953,1.07813 0.51563,1.03125 0.51562,0.98437 0.51954,0.94141 0.51562,0.89453 0.51563,0.85547 0.51953,0.8125 0.51562,0.77734 0.51563,0.73829 0.51953,0.70312 0.51562,0.66797 0.51563,0.63281 0.51953,0.60156 0.51562,0.57032 0.51563,0.54297 0.51562,0.51171 0.51954,0.48829 0.51562,0.46093 0.51563,0.4336 0.51953,0.41406 0.51562,0.38672 0.51563,0.36719 0.51953,0.34765 0.51562,0.32813 0.51563,0.30859 0.51953,0.28906 0.51562,0.27344 0.51563,0.25781 0.51953,0.24219 0.51563,0.23047 0.51562,0.21094 0.51953,0.20312 0.51563,0.1875 0.51562,0.17969 0.51953,0.16406 0.51563,0.15625 0.51562,0.14453 0.51953,0.13672 0.51563,0.12891 0.51562,0.11719 0.51954,0.11328 0.51562,0.10156 0.51563,0.0977 0.51562,0.0898 0.51953,0.0859 0.51563,0.0781 0.51562,0.0742 0.51953,0.0664 0.51563,0.0625 0.51562,0.0586 0.51953,0.0547 0.51563,0.0508 0.51562,0.0469 0.51954,0.0469 1.03125,0.0781 0.51953,0.0352 1.03125,0.0625 0.51953,0.0273 1.03125,0.0469 0.51953,0.0234 1.03125,0.0391 0.51953,0.0156 1.03125,0.0312 0.51953,0.0117 1.54688,0.0352 0.51953,0.0117 1.03125,0.0156 0.51953,0.008 0.51562,0.008 0.51563,0.004 0.51953,0.008 1.03125,0.008 0.51953,0.004 0.51563,0.008 h 0.51562 l 0.51953,0.004 1.03125,0.008 0.51953,0.004 h 0.51563 l 0.51562,0.004 h 0.51954 l 0.51562,0.004 h 0.51563 l 0.51953,0.004 h 1.03125 l 0.51562,0.004 h 1.03516 l 0.51562,0.004 h 2.07032 l 0.51562,0.004 h 4.13672 l 0.51562,0.004 h 4.13672"
           id="path842" />
      </g>
    </g>
    <path
       d="m 266.07056,42.537119 c 0.37783,-0.0066 0.75564,-0.01324 1.14492,-0.02006 2.33669,-0.01052 3.9291,0.04371 5.69903,1.701888 0.86816,1.391713 0.78214,2.576606 0.76708,4.186733 10e-4,0.326839 0.003,0.653677 0.004,0.990418 0.004,1.096613 9.9e-4,2.192999 -0.003,3.289612 10e-4,0.785592 0.003,1.571186 0.007,2.356778 0.004,1.913114 0.003,3.826139 4.9e-4,5.739251 -0.003,1.554818 -0.003,3.109614 -0.001,4.664429 1.9e-4,0.221286 3e-4,0.44258 4.8e-4,0.670573 3.3e-4,0.449545 9.8e-4,0.899095 0.001,1.348638 0.003,4.215391 -5.2e-4,8.430752 -0.007,12.646118 -0.004,3.616979 -0.004,7.233928 10e-4,10.85091 0.007,4.200304 0.008,8.400549 0.004,12.600883 -3e-4,0.44789 -9.8e-4,0.89579 -10e-4,1.34366 -3.2e-4,0.33057 -3.2e-4,0.33057 -5e-4,0.66781 -10e-4,1.55293 5e-4,3.10589 0.003,4.65885 0.003,2.09014 10e-4,4.18021 -0.004,6.27036 -10e-4,0.76797 -10e-4,1.53595 10e-4,2.30391 0.003,1.04666 -9.9e-4,2.09299 -0.007,3.13961 0.003,0.30541 0.004,0.61083 0.008,0.92552 -0.0171,1.35712 -0.0494,2.0956 -0.77725,3.27136 -1.89967,1.75535 -4.33011,1.38815 -6.76212,1.39063 -0.40554,0.007 -0.81113,0.0157 -1.22898,0.0238 -3.71962,0.0118 -3.71962,0.0118 -5.21512,-1.42912 -0.75879,-1.13818 -0.72527,-1.61984 -0.73183,-2.96955 -0.003,-0.42021 -0.007,-0.84046 -0.0118,-1.27343 -5.1e-4,-0.46674 -10e-4,-0.93348 -10e-4,-1.40021 -0.003,-0.49065 -0.004,-0.9813 -0.008,-1.47192 -0.008,-1.33315 -0.0137,-2.66629 -0.0187,-3.99949 -0.004,-1.3928 -0.0137,-2.78556 -0.0218,-4.17834 -0.0156,-2.63799 -0.0269,-5.276 -0.0375,-7.914 -0.0137,-3.003057 -0.028,-6.006051 -0.0444,-9.009032 -0.0331,-6.177953 -0.0619,-12.35586 -0.0876,-18.533787 -0.45897,0.815816 -0.91792,1.631664 -1.37688,2.447493 -0.12858,0.22876 -0.25736,0.45751 -0.38997,0.693193 -1.87879,3.339901 -3.75133,6.68333 -5.62078,10.028502 -0.19823,0.354537 -0.39644,0.709077 -0.60067,1.074354 -2.19888,3.935428 -4.37737,7.879996 -6.50589,11.853997 -1.48208,2.76366 -2.98251,5.51587 -4.51692,8.25088 -0.17375,0.31211 -0.34748,0.62418 -0.52649,0.94576 -0.16194,0.28705 -0.3241,0.57404 -0.49105,0.8698 -0.14144,0.25131 -0.28254,0.50261 -0.4281,0.76152 -0.41402,0.64366 -0.7962,1.1305 -1.38492,1.61863 -0.92344,0.16074 -0.92344,0.16074 -1.92722,0 -1.66545,-1.33291 -2.45367,-3.0769 -3.39268,-4.95857 -0.34196,-0.6703 -0.68451,-1.34029 -1.0276,-2.01003 -0.1732,-0.33921 -0.34646,-0.6784 -0.52494,-1.02789 -0.77672,-1.50336 -1.58713,-2.9874 -2.40225,-4.4702 -1.40976,-2.570351 -2.80759,-5.146728 -4.19569,-7.728862 -1.46212,-2.718644 -2.92643,-5.436076 -4.39644,-8.150461 -0.14951,-0.27615 -0.2989,-0.552257 -0.45287,-0.836737 -1.19342,-2.202538 -2.39299,-4.401683 -3.59273,-6.60075 -0.1788,-0.327637 -0.35747,-0.655274 -0.54161,-0.992852 -0.43828,-0.803406 -0.87656,-1.606805 -1.31486,-2.410186 -3.3e-4,0.256454 -9.9e-4,0.512923 -0.001,0.777159 -0.0118,6.240877 -0.0309,12.481691 -0.0577,18.722527 -0.0137,3.018011 -0.0231,6.036002 -0.0279,9.054082 -0.003,2.63061 -0.0137,5.26116 -0.0269,7.89174 -0.007,1.39282 -0.0137,2.78557 -0.0118,4.17842 2.4e-4,1.31139 -0.004,2.62265 -0.0156,3.93397 -0.003,0.48088 -0.003,0.96177 -0.001,1.44265 0.001,0.6578 -0.003,1.31507 -0.0118,1.97279 -0.001,0.55162 -0.001,0.55162 -0.003,1.11435 -0.20148,1.25958 -0.65897,1.95487 -1.44789,2.9469 -1.55551,1.03701 -3.36418,0.77434 -5.18463,0.77909 -0.69184,0.003 -1.38277,0.0196 -2.07443,0.0356 -0.44309,0.003 -0.88619,0.004 -1.32932,0.007 -0.40093,0.003 -0.80187,0.008 -1.21493,0.0137 -1.4767,-0.25439 -1.99064,-0.75189 -3.04478,-1.79852 -0.36871,-0.73739 -0.36267,-1.15107 -0.3652,-1.97103 -0.001,-0.42003 -0.001,-0.42003 -0.004,-0.84852 -1.5e-4,-0.30948 -2.9e-4,-0.61896 -4.9e-4,-0.9378 -0.001,-0.32735 -0.003,-0.65467 -0.003,-0.99191 -0.003,-1.10396 -0.004,-2.20793 -0.007,-3.31191 -10e-4,-0.78862 -0.004,-1.57721 -0.007,-2.36585 -0.007,-2.37165 -0.0137,-4.74331 -0.0171,-7.11503 -0.001,-0.66965 -0.001,-1.3393 -0.003,-2.00896 -0.007,-4.15687 -0.0156,-8.313718 -0.0192,-12.470542 -0.001,-0.96303 -0.001,-1.926087 -0.003,-2.889101 -2.4e-4,-0.23936 -3.3e-4,-0.478727 -4.9e-4,-0.725337 -0.003,-3.878849 -0.0156,-7.757635 -0.0281,-11.636414 -0.0137,-3.980628 -0.0212,-7.961233 -0.0229,-11.941884 -9.9e-4,-2.23568 -0.004,-4.471289 -0.0156,-6.706951 -0.008,-2.10252 -0.0118,-4.204936 -0.007,-6.307484 7e-5,-0.772641 -10e-4,-1.545283 -0.007,-2.317901 -0.007,-1.053074 -0.003,-2.105674 3e-4,-3.15875 -0.003,-0.30733 -0.008,-0.614658 -0.0137,-0.931297 0.0189,-1.488924 0.0402,-2.096965 1.00395,-3.291279 0.26759,-0.204847 0.53518,-0.409693 0.81087,-0.620746 0.1061,-0.105987 0.21201,-0.211993 0.3212,-0.321201 1.47515,-0.101582 2.9511,-0.114652 4.42938,-0.130101 0.49663,-0.007 0.99321,-0.01791 1.48964,-0.03294 4.64644,-0.140099 4.64644,-0.140099 6.02691,0.910828 1.23629,1.383992 1.99289,3.104714 2.76912,4.772845 0.33612,0.697035 0.6728,1.393805 1.01001,2.090318 0.16501,0.344179 0.33012,0.688355 0.50016,1.042964 0.66453,1.367484 1.36842,2.711892 2.08325,4.053594 0.26104,0.492226 0.52203,0.984482 0.78292,1.476773 0.13246,0.249723 0.265,0.499448 0.40153,0.756735 0.93703,1.773377 1.86066,3.553818 2.78667,5.332991 0.7309,1.403004 1.46364,2.804957 2.20283,4.203613 2.17585,4.118639 4.30222,8.261377 6.41712,12.411567 0.43529,0.853824 0.87121,1.707328 1.30718,2.560815 0.12898,0.253987 0.25834,0.507987 0.39144,0.769674 0.77086,1.508501 1.57822,2.985775 2.43609,4.446846 0.29788,0.622797 0.29788,0.622797 0.29788,1.586411 0.21199,0 0.42402,0 0.64239,0 0.0764,-0.25911 0.1533,-0.518237 0.23216,-0.785207 0.50232,-1.398261 1.15306,-2.678835 1.8356,-3.996426 0.14128,-0.2751 0.28238,-0.550197 0.42784,-0.833644 0.45168,-0.879197 0.90527,-1.757361 1.35882,-2.635565 0.29499,-0.573947 0.58983,-1.147974 0.88457,-1.722061 1.55188,-3.018884 3.1209,-6.028329 4.70529,-9.030261 1.19782,-2.271344 2.37523,-4.552886 3.54757,-6.837463 3.94113,-7.677326 3.94113,-7.677326 5.87748,-11.30388 0.29607,-0.556633 0.59023,-1.114288 0.8833,-1.672506 0.51221,-0.974905 1.02918,-1.947136 1.54704,-2.91904 0.15803,-0.302954 0.3162,-0.605908 0.47907,-0.918041 2.01838,-3.755555 3.98476,-3.982784 8.03304,-4.000356 z"
       fill="#1a2b40"
       id="path8"
       style="stroke-width:0.321201;paint-order:markers stroke fill" />
    <path
       d="m 159.07004,22.983142 c 0.82753,0.484362 1.45926,1.085858 2.1223,1.772203 0.12038,0.12174 0.24067,0.243476 0.36466,0.368903 0.38133,0.386221 0.76044,0.774528 1.13934,1.163122 0.49997,0.509831 1.00089,1.018725 1.50236,1.527081 0.11952,0.121385 0.23899,0.24277 0.36212,0.367836 0.75244,0.759849 1.52195,1.485721 2.3452,2.169504 0.90257,0.797946 1.77423,1.65271 1.86898,2.884498 -0.10581,1.586571 -1.00897,2.470995 -2.09656,3.520608 -0.13381,0.131357 -0.26762,0.262711 -0.4055,0.398047 -0.76189,0.743253 -1.53606,1.46485 -2.34868,2.152581 -0.8449,0.738194 -1.65587,1.513746 -2.47186,2.283617 -2.81267,2.643735 -2.81267,2.643735 -4.47705,2.622326 -0.96939,-0.117498 -1.53653,-0.647926 -2.15094,-1.36473 -0.44998,-1.124961 -0.39444,-2.099366 0.0527,-3.217335 0.70647,-1.093212 1.72498,-1.971127 2.66354,-2.86132 -0.5723,-0.190762 -0.90842,-0.238509 -1.49665,-0.241618 -0.26031,-0.0022 -0.26031,-0.0022 -0.52589,-0.004 -0.2818,-4.23e-4 -0.2818,-4.23e-4 -0.56931,-6.49e-4 -0.19614,-6.48e-4 -0.39227,-0.0014 -0.59435,-0.0022 -0.41731,-0.001 -0.83461,-0.0014 -1.25191,-0.0014 -0.62503,-4.21e-4 -1.24999,-0.0042 -1.87501,-0.0084 -6.72398,-0.02025 -12.38426,1.084653 -17.68917,5.371978 -0.93938,0.741967 -1.8381,0.71319 -3.00225,0.582648 -0.81937,-0.41714 -1.4748,-0.862197 -1.89875,-1.687784 -0.22057,-0.894222 -0.28574,-1.642397 -0.0264,-2.531674 3.26531,-4.609841 9.36325,-6.919665 14.71537,-7.871924 2.02596,-0.272699 4.03796,-0.391171 6.08113,-0.422769 0.24021,-0.0043 0.48045,-0.0088 0.72793,-0.01329 0.75865,-0.01367 1.51731,-0.02617 2.27595,-0.03865 0.51797,-0.0092 1.03592,-0.01835 1.55387,-0.0276 1.26211,-0.02245 2.52425,-0.04394 3.78637,-0.0647 -0.50125,-0.502202 -1.00229,-1.004007 -1.51223,-1.497415 -0.14061,-0.136792 -0.28121,-0.273586 -0.42607,-0.414526 -0.14223,-0.13734 -0.28447,-0.274676 -0.43101,-0.416177 -0.49295,-0.547363 -0.7747,-0.968498 -0.8274,-1.711683 0.11951,-1.238654 0.39268,-1.848139 1.29797,-2.711331 0.98933,-0.750518 2.17821,-0.601515 3.21713,-0.0737 z"
       fill="#192b3f"
       id="path16"
       style="stroke-width:0.210973" />
    <path
       d="m 134.05305,146.3731 c -0.82752,-0.48437 -1.45928,-1.08585 -2.12229,-1.7722 -0.12038,-0.12173 -0.2407,-0.24349 -0.36468,-0.36891 -0.38133,-0.38623 -0.76042,-0.77452 -1.13933,-1.16312 -0.49998,-0.50984 -1.00088,-1.01872 -1.50236,-1.52709 -0.11952,-0.12136 -0.239,-0.24277 -0.3621,-0.36782 -0.75245,-0.75985 -1.52197,-1.48572 -2.34521,-2.1695 -0.90258,-0.79796 -1.77423,-1.65271 -1.86898,-2.88451 0.1058,-1.58657 1.00897,-2.471 2.09654,-3.52061 0.13382,-0.13136 0.26764,-0.2627 0.40551,-0.39805 0.7619,-0.74325 1.53607,-1.46484 2.34868,-2.15258 0.84489,-0.73819 1.65588,-1.51374 2.47188,-2.28362 2.81266,-2.64373 2.81266,-2.64373 4.47703,-2.62233 0.96939,0.11744 1.53653,0.64794 2.15094,1.36473 0.44998,1.12498 0.39443,2.09938 -0.0526,3.21735 -0.70647,1.09321 -1.72498,1.97112 -2.66353,2.86132 0.57228,0.19076 0.90841,0.2385 1.49663,0.24161 0.26032,0.002 0.26032,0.002 0.5259,0.003 0.28179,3.2e-4 0.28179,3.2e-4 0.56929,6.5e-4 0.19614,6.4e-4 0.39228,0.001 0.59438,0.002 0.4173,9.7e-4 0.8346,0.001 1.2519,0.001 0.62504,3.4e-4 1.24999,0.004 1.87501,0.009 6.72397,0.0203 12.38425,-1.08466 17.68916,-5.37199 0.93939,-0.74197 1.83811,-0.71318 3.00226,-0.58265 0.81937,0.41715 1.4748,0.8622 1.89874,1.68779 0.22057,0.89422 0.28574,1.64239 0.0264,2.53167 -3.2653,4.60984 -9.36324,6.91967 -14.71534,7.87194 -2.02597,0.27269 -4.03795,0.39117 -6.08114,0.42275 -0.24022,0.004 -0.48043,0.009 -0.72794,0.0133 -0.75864,0.0137 -1.51728,0.0262 -2.27596,0.0386 -0.51794,0.0103 -1.0359,0.0182 -1.55385,0.0277 -1.26212,0.0225 -2.52424,0.0438 -3.78639,0.0648 0.50128,0.5022 1.0023,1.00401 1.51224,1.49742 0.14061,0.1368 0.28122,0.27359 0.42608,0.41453 0.14222,0.13735 0.28446,0.27467 0.43101,0.41618 0.49294,0.54736 0.77471,0.96849 0.82741,1.71168 -0.11953,1.23865 -0.39268,1.84815 -1.29798,2.71133 -0.98931,0.75052 -2.17822,0.60152 -3.21713,0.0737 z"
       fill="#192b3f"
       id="path16-6"
       style="stroke-width:0.210973" />
    <g
       id="g10627"
       transform="matrix(0.30331734,0,0,0.32117438,-10.225135,-21.322881)">
      <path
         d="m 0,0 c 1.2506835,-0.00701996 1.2506835,-0.00701996 2.5266333,-0.01418173 2.7921469,-0.01196008 5.583804,-0.0024888 8.3759547,0.00694906 2.002454,-0.00406524 4.004907,-0.00940686 6.007355,-0.01593017 5.437938,-0.01368491 10.875706,-0.0083701 16.313648,0.0011372 5.688495,0.0075905 11.376976,5.5269e-4 17.065471,-0.0041585 9.553168,-0.0054593 19.106267,0.0017387 28.659424,0.01602173 11.047818,0.01632682 22.095474,0.01103844 33.143284,-0.0054792 9.48207,-0.01360978 18.96409,-0.015537 28.44616,-0.007684 5.6647,0.0046793 11.32933,0.0052943 16.99402,-0.0046095 5.32536,-0.00866 10.6505,-0.0026654 15.97583,0.01468277 1.95554,0.00397002 3.91111,0.002822 5.86664,-0.003788 2.66727,-0.0081852 5.33385,0.0020694 8.00107,0.01704025 0.77578,-0.00669217 1.55156,-0.01338433 2.35084,-0.02027929 4.49971,0.04906354 7.36702,0.64797705 10.96141,3.40123018 2.87206,3.6551974 2.34192,8.3022082 2.3711,12.7460942 0.009,0.848127 0.018,1.696255 0.0274,2.570083 0.0145,1.791138 0.0234,3.582328 0.0271,5.37352 0.0119,2.735202 0.0611,5.468155 0.11157,8.202881 0.009,1.742828 0.0167,3.485669 0.0215,5.228516 0.0195,0.814722 0.0391,1.629445 0.0592,2.468856 -0.0342,4.322408 -0.21796,5.913576 -3.0277,9.402482 -3.94998,3.061615 -5.93343,3.131712 -10.90481,3.127822 -0.65508,8.55e-4 -1.31016,0.0017 -1.98509,0.0026 -2.20494,0.0017 -4.4098,-0.0039 -6.61474,-0.0093 -1.57663,-2.82e-4 -3.15326,-1.24e-4 -4.72989,4.43e-4 -4.28901,2.88e-4 -8.57799,-0.0056 -12.867,-0.01257 -4.479,-0.0062 -8.95801,-0.0068 -13.43701,-0.008 -8.48561,-0.0031 -16.9712,-0.01132 -25.4568,-0.02135 -9.65887,-0.01116 -19.31774,-0.01667 -28.976613,-0.0217 -19.872719,-0.01046 -39.745422,-0.02881 -59.618133,-0.05032 0,17.82 0,35.64 0,54.000002 12.257051,-0.0522 12.257051,-0.0522 24.761719,-0.10547 5.830222,-0.0173 11.660424,-0.0327 17.490655,-0.0453 7.554849,-0.0166 15.109598,-0.0377 22.664372,-0.0756 6.62004,-0.0331 13.24,-0.0505 19.86012,-0.0583 2.5274,-0.006 5.05479,-0.0164 7.58215,-0.0326 3.5363,-0.0217 7.07216,-0.0248 10.60851,-0.0234 1.04801,-0.0108 2.09602,-0.0216 3.17578,-0.0327 6.28667,0.0268 9.92949,0.64155 14.64429,5.04147 1.79556,3.45336 1.64071,6.83878 1.61084,10.64038 0.004,1.20561 0.004,1.20561 0.009,2.43557 0.002,1.69702 -0.003,3.39407 -0.016,5.09105 -0.016,2.58997 -1.6e-4,5.17838 0.019,7.76831 -0.002,1.65169 -0.006,3.30339 -0.0117,4.95507 0.006,0.77098 0.0121,1.54196 0.0184,2.33629 -0.0589,4.53102 -0.50561,7.56558 -3.41684,11.10512 -3.02954,1.87333 -5.31215,2.24823 -8.84686,2.24051 -1.45969,0.004 -1.45969,0.004 -2.94887,0.008 -1.06095,-0.007 -2.1219,-0.0144 -3.21501,-0.0218 -1.68337,4.4e-4 -1.68337,4.4e-4 -3.40074,8.9e-4 -3.71188,-0.001 -7.42355,-0.017 -11.13539,-0.0326 -2.57261,-0.004 -5.14522,-0.007 -7.71784,-0.009 -6.08082,-0.007 -12.16157,-0.0226 -18.24236,-0.0427 -7.603097,-0.0246 -15.206206,-0.0355 -22.809332,-0.0464 -13.561254,-0.0195 -27.122351,-0.0595 -40.683594,-0.0977 0,18.15 0,36.3 0,55 4.785161,-0.0209 9.570322,-0.0419 14.500488,-0.0635 15.79387,-0.0662 31.587744,-0.11064 47.381716,-0.14377 9.577752,-0.0206 19.155362,-0.0487 28.733032,-0.0945 8.348,-0.0399 16.6959,-0.0657 25.04399,-0.0746 4.4202,-0.005 8.84013,-0.0175 13.26024,-0.0466 4.16146,-0.0272 8.32252,-0.0355 12.48406,-0.0295 1.5262,-0.001 3.05242,-0.009 4.57855,-0.0244 2.08718,-0.02 4.17292,-0.0151 6.26014,-0.004 1.75049,-0.006 1.75049,-0.006 3.53634,-0.0112 4.46254,0.68181 7.79335,2.65004 10.57545,6.23877 0.97758,3.41007 0.97146,6.78932 0.98193,10.30811 0.01,1.16875 0.01,1.16875 0.0202,2.36111 0.0101,1.64572 0.0148,3.29148 0.0145,4.93723 0.004,2.50671 0.0407,5.01166 0.0786,7.51806 0.006,1.60286 0.01,3.20573 0.0117,4.8086 0.0144,0.74394 0.0287,1.48788 0.0435,2.25436 -0.045,5.17251 -1.21787,8.09985 -4.50449,12.06595 -3.76075,2.50717 -6.71008,2.2847 -11.06501,2.26743 -0.83138,0.005 -1.66275,0.009 -2.51932,0.0137 -2.79592,0.0127 -5.59164,0.011 -8.38759,0.009 -2.00054,0.006 -4.00107,0.0128 -6.0016,0.0204 -5.44221,0.0177 -10.88436,0.0224 -16.3266,0.0236 -4.54029,0.002 -9.08056,0.009 -13.62084,0.0163 -10.71133,0.0163 -21.42263,0.0212 -32.13397,0.0197 -11.054595,-0.001 -22.108997,0.0199 -33.163545,0.0515 -9.485435,0.0261 -18.970807,0.0369 -28.456278,0.0356 -5.6676,-5.1e-4 -11.335026,0.005 -17.00259,0.0264 -5.331107,0.0193 -10.661874,0.0195 -15.992992,0.005 -1.956745,-0.002 -3.91351,0.003 -5.8702187,0.0147 -2.6715582,0.0154 -5.341941,0.006 -8.01347353,-0.009 -0.77423005,0.0103 -1.54846007,0.0206 -2.34615167,0.0312 -5.170881,-0.066 -8.1715981,-1.16921 -12.0998171,-4.52565 -1.756395,-2.86174 -2.250597,-4.99668 -2.254475,-8.33292 -0.0058,-0.86466 -0.01167,-1.72933 -0.01767,-2.62019 0.0038,-0.94532 0.0076,-1.89064 0.01145,-2.86461 -0.0038,-1.00782 -0.0077,-2.01564 -0.01159,-3.054 -0.01034,-3.38705 -0.0063,-6.77393 -0.0024,-10.16099 -0.0043,-2.42433 -0.0095,-4.84865 -0.01549,-7.27297 -0.01202,-5.90772 -0.01454,-11.8154 -0.0122,-17.72313 0.0018,-4.80201 3.5e-5,-9.60401 -0.0042,-14.40602 -5.95e-4,-0.68324 -0.0012,-1.36648 -0.0018,-2.07043 -0.0012,-1.38798 -0.0024,-2.77595 -0.0036,-4.16393 -0.01088,-13.01987 -0.0087,-26.0397 -0.0026,-39.05957 0.0052,-11.9103 -0.0061,-23.82052 -0.0251,-35.7308 -0.01937,-12.22916 -0.02764,-24.45828 -0.02388,-36.687453 0.0019,-6.865853 -5.84e-4,-13.731636 -0.01472,-20.597477 -0.01315,-6.456335 -0.01066,-12.912547 0.0024,-19.368883 0.0024,-2.371168 -3.88e-4,-4.742348 -0.0086,-7.113502 -0.01042,-3.234006 -0.0024,-6.467456 0.01031,-9.701441 -0.0074,-0.940859 -0.01475,-1.881718 -0.02235,-2.851087 0.0424,-5.117667 0.365749,-8.8872214 3.396568,-13.2205992 C -9.2426678,-0.09397465 -5.1256598,-0.04421591 0,0 Z"
         fill="#192b40"
         id="path6"
         transform="translate(188.31226,199.61905)" />
      <path
         d="m 0,0 c 3,1 3,1 4.1665039,2.559082 1.1859026,3.4729508 1.1586345,6.8662675 1.1694336,10.495606 0.00666,0.779167 0.013314,1.558335 0.020172,2.361114 0.010108,1.645718 0.014818,3.291476 0.014496,4.937225 0.00437,2.506716 0.04069,5.011663 0.078613,7.518067 0.00587,1.602858 0.00984,3.205725 0.011719,4.808593 0.014371,0.743941 0.028742,1.487881 0.043549,2.254365 C 5.4596387,40.089735 4.2904266,43.050727 1,47 c -2.25,0.875 -2.25,0.875 -4,1 0.6459814,-0.474375 1.2919629,-0.94875 1.9575195,-1.4375 C 1.920848,42.844702 1.6383868,39.633666 1.6796875,35 c 0.031919,-1.309043 0.031919,-1.309043 0.064484,-2.644531 0.040831,-1.842266 0.072178,-3.684763 0.094696,-5.527344 C 1.8748791,24.009463 1.9428154,21.192927 2.015625,18.375 2.0513687,16.58337 2.0852844,14.791702 2.1171875,13 2.1368356,12.158242 2.1564838,11.316484 2.1767273,10.449219 2.1839883,9.6616016 2.1912494,8.8739844 2.1987305,8.0625 2.2088718,7.3728516 2.2190131,6.6832031 2.2294617,5.9726562 1.9585269,3.6434603 1.1471882,2.0282908 0,0 Z"
         fill="#283444"
         id="path24"
         transform="translate(386,415)" />
    </g>
    <ellipse
       style="fill:#9558b2;fill-opacity:1;stroke:none;stroke-width:1.02577;paint-order:stroke fill markers"
       id="path473"
       cx="179.80286"
       cy="105.69482"
       rx="7.3161197"
       ry="7.0548306" />
    <ellipse
       style="fill:#389826;fill-opacity:1;stroke:none;stroke-width:1.02577;paint-order:stroke fill markers"
       id="path473-2"
       cx="147.90175"
       cy="81.152748"
       rx="7.3161197"
       ry="7.0548306" />
    <ellipse
       style="fill:#cb3c33;fill-opacity:1;stroke:none;stroke-width:1.02577;paint-order:stroke fill markers"
       id="path473-2-1-2"
       cx="117.66814"
       cy="105.69483"
       rx="7.3161197"
       ry="7.0548306" />
  </g>
</svg>
