<?xml version="1.0" encoding="utf-8"?>
<svg xmlns="http://www.w3.org/2000/svg" xmlns:xlink="http://www.w3.org/1999/xlink" width="900" height="800" viewBox="0 0 3600 3200">
<defs>
  <clipPath id="clip600">
    <rect x="0" y="0" width="3600" height="3200"/>
  </clipPath>
</defs>
<path clip-path="url(#clip600)" d="M0 3200 L3600 3200 L3600 0 L0 0  Z" fill="#ffffff" fill-rule="evenodd" fill-opacity="1"/>
<defs>
  <clipPath id="clip601">
    <rect x="720" y="0" width="2521" height="2521"/>
  </clipPath>
</defs>
<path clip-path="url(#clip600)" d="M385.267 2718.93 L3552.76 2718.93 L3552.76 47.2441 L385.267 47.2441  Z" fill="#ffffff" fill-rule="evenodd" fill-opacity="1"/>
<defs>
  <clipPath id="clip602">
    <rect x="385" y="47" width="3168" height="2673"/>
  </clipPath>
</defs>
<polyline clip-path="url(#clip602)" style="stroke:#000000; stroke-linecap:round; stroke-linejoin:round; stroke-width:2; stroke-opacity:0.1; fill:none" points="724.641,2718.93 724.641,47.2441 "/>
<polyline clip-path="url(#clip602)" style="stroke:#000000; stroke-linecap:round; stroke-linejoin:round; stroke-width:2; stroke-opacity:0.1; fill:none" points="1554.22,2718.93 1554.22,47.2441 "/>
<polyline clip-path="url(#clip602)" style="stroke:#000000; stroke-linecap:round; stroke-linejoin:round; stroke-width:2; stroke-opacity:0.1; fill:none" points="2383.8,2718.93 2383.8,47.2441 "/>
<polyline clip-path="url(#clip602)" style="stroke:#000000; stroke-linecap:round; stroke-linejoin:round; stroke-width:2; stroke-opacity:0.1; fill:none" points="3213.38,2718.93 3213.38,47.2441 "/>
<polyline clip-path="url(#clip602)" style="stroke:#000000; stroke-linecap:round; stroke-linejoin:round; stroke-width:2; stroke-opacity:0.1; fill:none" points="385.267,2718.93 3552.76,2718.93 "/>
<polyline clip-path="url(#clip602)" style="stroke:#000000; stroke-linecap:round; stroke-linejoin:round; stroke-width:2; stroke-opacity:0.1; fill:none" points="385.267,2184.59 3552.76,2184.59 "/>
<polyline clip-path="url(#clip602)" style="stroke:#000000; stroke-linecap:round; stroke-linejoin:round; stroke-width:2; stroke-opacity:0.1; fill:none" points="385.267,1650.26 3552.76,1650.26 "/>
<polyline clip-path="url(#clip602)" style="stroke:#000000; stroke-linecap:round; stroke-linejoin:round; stroke-width:2; stroke-opacity:0.1; fill:none" points="385.267,1115.92 3552.76,1115.92 "/>
<polyline clip-path="url(#clip602)" style="stroke:#000000; stroke-linecap:round; stroke-linejoin:round; stroke-width:2; stroke-opacity:0.1; fill:none" points="385.267,581.582 3552.76,581.582 "/>
<polyline clip-path="url(#clip602)" style="stroke:#000000; stroke-linecap:round; stroke-linejoin:round; stroke-width:2; stroke-opacity:0.1; fill:none" points="385.267,47.2441 3552.76,47.2441 "/>
<polyline clip-path="url(#clip600)" style="stroke:#000000; stroke-linecap:round; stroke-linejoin:round; stroke-width:4; stroke-opacity:1; fill:none" points="385.267,2718.93 3552.76,2718.93 "/>
<polyline clip-path="url(#clip600)" style="stroke:#000000; stroke-linecap:round; stroke-linejoin:round; stroke-width:4; stroke-opacity:1; fill:none" points="724.641,2718.93 724.641,2700.03 "/>
<polyline clip-path="url(#clip600)" style="stroke:#000000; stroke-linecap:round; stroke-linejoin:round; stroke-width:4; stroke-opacity:1; fill:none" points="1554.22,2718.93 1554.22,2700.03 "/>
<polyline clip-path="url(#clip600)" style="stroke:#000000; stroke-linecap:round; stroke-linejoin:round; stroke-width:4; stroke-opacity:1; fill:none" points="2383.8,2718.93 2383.8,2700.03 "/>
<polyline clip-path="url(#clip600)" style="stroke:#000000; stroke-linecap:round; stroke-linejoin:round; stroke-width:4; stroke-opacity:1; fill:none" points="3213.38,2718.93 3213.38,2700.03 "/>
<path clip-path="url(#clip600)" d="M663.51 2807.7 L663.51 2804.53 Q675.664 2804.53 681.938 2798.06 Q683.667 2798.06 683.964 2798.46 Q684.26 2798.85 684.26 2800.68 L684.26 2857.45 Q684.26 2860.46 685.743 2861.4 Q687.225 2862.34 693.697 2862.34 L696.908 2862.34 L696.908 2865.45 Q693.351 2865.16 680.505 2865.16 Q667.66 2865.16 664.152 2865.45 L664.152 2862.34 L667.363 2862.34 Q673.737 2862.34 675.268 2861.45 Q676.8 2860.51 676.8 2857.45 L676.8 2805.03 Q671.513 2807.7 663.51 2807.7 Z" fill="#000000" fill-rule="nonzero" fill-opacity="1" /><path clip-path="url(#clip600)" d="M709.063 2833.09 Q709.063 2818.22 712.817 2810.12 Q718.055 2798.06 730.406 2798.06 Q733.025 2798.06 735.742 2798.8 Q738.509 2799.49 741.967 2802.21 Q745.475 2804.93 747.6 2809.38 Q751.651 2817.97 751.651 2833.09 Q751.651 2847.86 747.896 2855.92 Q742.412 2867.68 730.307 2867.68 Q725.762 2867.68 721.118 2865.35 Q716.523 2863.03 713.608 2857.45 Q709.063 2849.1 709.063 2833.09 M717.462 2831.86 Q717.462 2847.12 718.549 2853.2 Q719.784 2859.77 723.143 2862.64 Q726.552 2865.45 730.307 2865.45 Q734.359 2865.45 737.718 2862.44 Q741.127 2859.38 742.165 2852.8 Q743.301 2846.33 743.252 2831.86 Q743.252 2817.77 742.264 2812.14 Q740.93 2805.57 737.373 2802.95 Q733.865 2800.28 730.307 2800.28 Q728.973 2800.28 727.541 2800.68 Q726.157 2801.08 724.132 2802.21 Q722.106 2803.35 720.525 2806.16 Q718.993 2808.98 718.252 2813.23 Q717.462 2818.71 717.462 2831.86 Z" fill="#000000" fill-rule="nonzero" fill-opacity="1" /><path clip-path="url(#clip600)" d="M751.651 2799.55 Q751.651 2797.1 753.056 2795.94 Q754.461 2794.78 756.268 2794.78 Q758.154 2794.78 759.479 2796.02 Q760.844 2797.22 760.844 2799.35 Q760.844 2801.64 759.238 2802.92 Q757.673 2804.21 755.425 2803.89 Q757.392 2807.18 761.004 2808.66 Q764.657 2810.15 768.029 2810.15 Q771.562 2810.15 774.412 2807.1 Q777.302 2804.05 777.302 2796.58 Q777.302 2790.24 774.814 2786.59 Q772.365 2782.93 767.508 2782.93 L763.895 2782.93 Q762.65 2782.93 762.289 2782.81 Q761.928 2782.69 761.928 2782.01 Q761.928 2781.21 763.172 2781.05 Q764.417 2781.05 766.384 2780.81 Q771.161 2780.64 773.69 2776.51 Q775.978 2772.66 775.978 2767.16 Q775.978 2762.14 773.569 2760.05 Q771.201 2757.92 768.11 2757.92 Q765.219 2757.92 762.048 2759.13 Q758.877 2760.33 757.151 2763.02 Q762.249 2763.02 762.249 2767.16 Q762.249 2768.96 761.085 2770.17 Q759.961 2771.33 758.074 2771.33 Q756.268 2771.33 755.063 2770.21 Q753.859 2769.04 753.859 2767.08 Q753.859 2762.38 758.034 2759.13 Q762.249 2755.88 768.431 2755.88 Q774.533 2755.88 779.029 2759.09 Q783.565 2762.3 783.565 2767.24 Q783.565 2772.09 780.353 2776.07 Q777.142 2780.04 772.044 2781.69 Q778.306 2782.93 782.039 2787.19 Q785.773 2791.4 785.773 2796.58 Q785.773 2803 780.715 2807.74 Q775.657 2812.44 768.27 2812.44 Q761.446 2812.44 756.549 2808.74 Q751.651 2805.05 751.651 2799.55 Z" fill="#000000" fill-rule="nonzero" fill-opacity="1" /><path clip-path="url(#clip600)" d="M1491.93 2807.7 L1491.93 2804.53 Q1504.08 2804.53 1510.35 2798.06 Q1512.08 2798.06 1512.38 2798.46 Q1512.68 2798.85 1512.68 2800.68 L1512.68 2857.45 Q1512.68 2860.46 1514.16 2861.4 Q1515.64 2862.34 1522.11 2862.34 L1525.32 2862.34 L1525.32 2865.45 Q1521.77 2865.16 1508.92 2865.16 Q1496.08 2865.16 1492.57 2865.45 L1492.57 2862.34 L1495.78 2862.34 Q1502.15 2862.34 1503.68 2861.45 Q1505.22 2860.51 1505.22 2857.45 L1505.22 2805.03 Q1499.93 2807.7 1491.93 2807.7 Z" fill="#000000" fill-rule="nonzero" fill-opacity="1" /><path clip-path="url(#clip600)" d="M1537.48 2833.09 Q1537.48 2818.22 1541.23 2810.12 Q1546.47 2798.06 1558.82 2798.06 Q1561.44 2798.06 1564.16 2798.8 Q1566.92 2799.49 1570.38 2802.21 Q1573.89 2804.93 1576.02 2809.38 Q1580.07 2817.97 1580.07 2833.09 Q1580.07 2847.86 1576.31 2855.92 Q1570.83 2867.68 1558.72 2867.68 Q1554.18 2867.68 1549.53 2865.35 Q1544.94 2863.03 1542.02 2857.45 Q1537.48 2849.1 1537.48 2833.09 M1545.88 2831.86 Q1545.88 2847.12 1546.96 2853.2 Q1548.2 2859.77 1551.56 2862.64 Q1554.97 2865.45 1558.72 2865.45 Q1562.77 2865.45 1566.13 2862.44 Q1569.54 2859.38 1570.58 2852.8 Q1571.72 2846.33 1571.67 2831.86 Q1571.67 2817.77 1570.68 2812.14 Q1569.35 2805.57 1565.79 2802.95 Q1562.28 2800.28 1558.72 2800.28 Q1557.39 2800.28 1555.96 2800.68 Q1554.57 2801.08 1552.55 2802.21 Q1550.52 2803.35 1548.94 2806.16 Q1547.41 2808.98 1546.67 2813.23 Q1545.88 2818.71 1545.88 2831.86 Z" fill="#000000" fill-rule="nonzero" fill-opacity="1" /><path clip-path="url(#clip600)" d="M1580.07 2797.06 L1580.07 2794.53 L1605.32 2755.96 Q1605.96 2754.95 1606.96 2754.99 Q1607.89 2754.99 1608.09 2755.35 Q1608.29 2755.72 1608.29 2757.12 L1608.29 2794.53 L1616.52 2794.53 L1616.52 2797.06 L1608.29 2797.06 L1608.29 2804.21 Q1608.29 2806.58 1609.25 2807.34 Q1610.25 2808.1 1614.51 2808.1 L1616.24 2808.1 L1616.24 2810.63 Q1612.86 2810.39 1605.08 2810.39 Q1597.33 2810.39 1593.96 2810.63 L1593.96 2808.1 L1595.68 2808.1 Q1599.94 2808.1 1600.94 2807.38 Q1601.95 2806.62 1601.95 2804.21 L1601.95 2797.06 L1580.07 2797.06 M1582.4 2794.53 L1602.43 2794.53 L1602.43 2763.87 L1582.4 2794.53 Z" fill="#000000" fill-rule="nonzero" fill-opacity="1" /><path clip-path="url(#clip600)" d="M2323.31 2807.7 L2323.31 2804.53 Q2335.47 2804.53 2341.74 2798.06 Q2343.47 2798.06 2343.77 2798.46 Q2344.06 2798.85 2344.06 2800.68 L2344.06 2857.45 Q2344.06 2860.46 2345.55 2861.4 Q2347.03 2862.34 2353.5 2862.34 L2356.71 2862.34 L2356.71 2865.45 Q2353.15 2865.16 2340.31 2865.16 Q2327.46 2865.16 2323.95 2865.45 L2323.95 2862.34 L2327.17 2862.34 Q2333.54 2862.34 2335.07 2861.45 Q2336.6 2860.51 2336.6 2857.45 L2336.6 2805.03 Q2331.32 2807.7 2323.31 2807.7 Z" fill="#000000" fill-rule="nonzero" fill-opacity="1" /><path clip-path="url(#clip600)" d="M2368.87 2833.09 Q2368.87 2818.22 2372.62 2810.12 Q2377.86 2798.06 2390.21 2798.06 Q2392.83 2798.06 2395.54 2798.8 Q2398.31 2799.49 2401.77 2802.21 Q2405.28 2804.93 2407.4 2809.38 Q2411.45 2817.97 2411.45 2833.09 Q2411.45 2847.86 2407.7 2855.92 Q2402.21 2867.68 2390.11 2867.68 Q2385.56 2867.68 2380.92 2865.35 Q2376.33 2863.03 2373.41 2857.45 Q2368.87 2849.1 2368.87 2833.09 M2377.26 2831.86 Q2377.26 2847.12 2378.35 2853.2 Q2379.59 2859.77 2382.95 2862.64 Q2386.36 2865.45 2390.11 2865.45 Q2394.16 2865.45 2397.52 2862.44 Q2400.93 2859.38 2401.97 2852.8 Q2403.1 2846.33 2403.05 2831.86 Q2403.05 2817.77 2402.07 2812.14 Q2400.73 2805.57 2397.18 2802.95 Q2393.67 2800.28 2390.11 2800.28 Q2388.78 2800.28 2387.34 2800.68 Q2385.96 2801.08 2383.93 2802.21 Q2381.91 2803.35 2380.33 2806.16 Q2378.8 2808.98 2378.05 2813.23 Q2377.26 2818.71 2377.26 2831.86 Z" fill="#000000" fill-rule="nonzero" fill-opacity="1" /><path clip-path="url(#clip600)" d="M2411.45 2797.38 Q2411.45 2794.94 2412.78 2794.01 Q2414.1 2793.05 2415.51 2793.05 Q2417.39 2793.05 2418.48 2794.25 Q2419.6 2795.42 2419.6 2797.06 Q2419.6 2798.71 2418.48 2799.91 Q2417.39 2801.08 2415.51 2801.08 Q2414.58 2801.08 2414.1 2800.92 Q2415.19 2804.69 2418.48 2807.42 Q2421.81 2810.15 2426.19 2810.15 Q2431.69 2810.15 2434.98 2804.81 Q2436.94 2801.36 2436.94 2793.53 Q2436.94 2786.63 2435.46 2783.17 Q2433.17 2777.92 2428.47 2777.92 Q2421.81 2777.92 2417.88 2783.66 Q2417.39 2784.38 2416.83 2784.42 Q2416.03 2784.42 2415.83 2783.98 Q2415.67 2783.49 2415.67 2782.25 L2415.67 2757.92 Q2415.67 2755.96 2416.47 2755.96 Q2416.79 2755.96 2417.48 2756.2 Q2422.65 2758.49 2428.39 2758.53 Q2434.3 2758.53 2439.59 2756.12 Q2440 2755.88 2440.24 2755.88 Q2441.04 2755.88 2441.08 2756.8 Q2441.08 2757.12 2440.4 2758.08 Q2439.75 2759.01 2438.35 2760.25 Q2436.94 2761.46 2435.14 2762.62 Q2433.33 2763.78 2430.68 2764.59 Q2428.07 2765.35 2425.18 2765.35 Q2421.73 2765.35 2418.2 2764.27 L2418.2 2780.28 Q2422.45 2776.11 2428.63 2776.11 Q2435.22 2776.11 2439.75 2781.41 Q2444.29 2786.71 2444.29 2794.09 Q2444.29 2801.84 2438.91 2807.14 Q2433.57 2812.44 2426.35 2812.44 Q2419.76 2812.44 2415.59 2807.74 Q2411.45 2803.04 2411.45 2797.38 Z" fill="#000000" fill-rule="nonzero" fill-opacity="1" /><path clip-path="url(#clip600)" d="M3152.25 2807.7 L3152.25 2804.53 Q3164.4 2804.53 3170.68 2798.06 Q3172.41 2798.06 3172.7 2798.46 Q3173 2798.85 3173 2800.68 L3173 2857.45 Q3173 2860.46 3174.48 2861.4 Q3175.97 2862.34 3182.44 2862.34 L3185.65 2862.34 L3185.65 2865.45 Q3182.09 2865.16 3169.25 2865.16 Q3156.4 2865.16 3152.89 2865.45 L3152.89 2862.34 L3156.1 2862.34 Q3162.48 2862.34 3164.01 2861.45 Q3165.54 2860.51 3165.54 2857.45 L3165.54 2805.03 Q3160.25 2807.7 3152.25 2807.7 Z" fill="#000000" fill-rule="nonzero" fill-opacity="1" /><path clip-path="url(#clip600)" d="M3197.8 2833.09 Q3197.8 2818.22 3201.56 2810.12 Q3206.79 2798.06 3219.15 2798.06 Q3221.77 2798.06 3224.48 2798.8 Q3227.25 2799.49 3230.71 2802.21 Q3234.22 2804.93 3236.34 2809.38 Q3240.39 2817.97 3240.39 2833.09 Q3240.39 2847.86 3236.64 2855.92 Q3231.15 2867.68 3219.05 2867.68 Q3214.5 2867.68 3209.86 2865.35 Q3205.26 2863.03 3202.35 2857.45 Q3197.8 2849.1 3197.8 2833.09 M3206.2 2831.86 Q3206.2 2847.12 3207.29 2853.2 Q3208.52 2859.77 3211.88 2862.64 Q3215.29 2865.45 3219.05 2865.45 Q3223.1 2865.45 3226.46 2862.44 Q3229.87 2859.38 3230.91 2852.8 Q3232.04 2846.33 3231.99 2831.86 Q3231.99 2817.77 3231 2812.14 Q3229.67 2805.57 3226.11 2802.95 Q3222.61 2800.28 3219.05 2800.28 Q3217.71 2800.28 3216.28 2800.68 Q3214.9 2801.08 3212.87 2802.21 Q3210.85 2803.35 3209.27 2806.16 Q3207.73 2808.98 3206.99 2813.23 Q3206.2 2818.71 3206.2 2831.86 Z" fill="#000000" fill-rule="nonzero" fill-opacity="1" /><path clip-path="url(#clip600)" d="M3240.39 2784.66 Q3240.39 2771.73 3246.97 2763.82 Q3253.56 2755.88 3262.03 2755.88 Q3266.97 2755.88 3269.7 2758.41 Q3272.47 2760.89 3272.47 2764.75 Q3272.47 2766.88 3271.22 2767.8 Q3269.98 2768.72 3268.69 2768.72 Q3267.21 2768.72 3266.04 2767.72 Q3264.88 2766.72 3264.88 2764.91 Q3264.88 2761.22 3269.41 2761.22 Q3267.29 2757.92 3262.19 2757.92 Q3260.62 2757.92 3259.02 2758.41 Q3257.41 2758.85 3255.32 2760.37 Q3253.24 2761.9 3251.63 2764.31 Q3250.03 2766.72 3248.9 2771.25 Q3247.78 2775.79 3247.78 2781.69 L3247.78 2783.66 Q3251.15 2775.51 3258.05 2775.55 Q3264.96 2775.55 3269.74 2780.81 Q3274.51 2786.06 3274.51 2793.85 Q3274.51 2801.84 3269.54 2807.14 Q3264.56 2812.44 3257.57 2812.44 Q3254.44 2812.44 3251.59 2811.11 Q3248.78 2809.83 3246.13 2806.86 Q3243.52 2803.89 3241.96 2798.19 Q3240.39 2792.49 3240.39 2784.66 M3247.94 2792.05 Q3247.94 2800.11 3249.42 2803.97 Q3249.66 2804.61 3250.19 2805.49 Q3250.75 2806.38 3251.67 2807.54 Q3252.64 2808.66 3254.2 2809.43 Q3255.77 2810.15 3257.57 2810.15 Q3263.07 2810.15 3265.72 2804.81 Q3267.13 2801.84 3267.13 2793.77 Q3267.13 2785.54 3265.64 2782.53 Q3263.11 2777.43 3257.97 2777.43 Q3254.52 2777.43 3252.11 2779.8 Q3249.74 2782.17 3248.82 2785.34 Q3247.94 2788.51 3247.94 2792.05 Z" fill="#000000" fill-rule="nonzero" fill-opacity="1" /><path clip-path="url(#clip600)" d="M2016.96 2924.12 Q2016.96 2926.28 2015.12 2926.28 Q2009.16 2926.49 2006.74 2928.49 Q2004.37 2930.44 2003.47 2934.24 L1988.4 2994.37 Q1987.87 2996.26 1987.55 2996.48 Q1987.24 2996.63 1986.66 2996.63 Q1985.92 2996.63 1985.5 2996.26 Q1985.13 2995.9 1984.6 2994.58 L1957.73 2931.02 Q1957.52 2930.6 1957.25 2930.02 Q1956.99 2929.44 1956.78 2929.07 L1942.5 2986.04 Q1942.07 2987.67 1942.07 2988.52 Q1942.07 2990.57 1943.5 2991.89 Q1944.97 2993.16 1949.19 2993.31 Q1951.35 2993.31 1951.35 2994.47 Q1951.35 2996.63 1949.4 2996.63 Q1947.61 2996.63 1943.87 2996.48 Q1940.12 2996.32 1938.28 2996.32 Q1936.49 2996.32 1932.85 2996.48 Q1929.22 2996.63 1927.48 2996.63 Q1926.11 2996.63 1926.11 2995.42 Q1926.11 2994.47 1926.47 2994 Q1926.84 2993.47 1927.16 2993.42 Q1927.48 2993.31 1927.95 2993.31 Q1931.11 2993.21 1933.27 2992.58 Q1935.43 2991.94 1936.65 2990.73 Q1937.91 2989.52 1938.49 2988.31 Q1939.12 2987.04 1939.6 2985.2 L1954.04 2927.23 Q1954.04 2926.28 1946.71 2926.28 Q1945.45 2926.28 1944.92 2926.23 Q1944.45 2926.17 1944.08 2925.91 Q1943.71 2925.65 1943.71 2925.07 Q1943.71 2923.59 1944.34 2923.27 Q1944.97 2922.91 1946.82 2922.91 L1961.31 2922.91 Q1963.15 2922.91 1963.63 2923.22 Q1964.1 2923.49 1964.74 2924.96 L1988.61 2981.3 L2000.68 2933.29 Q2000.99 2932.34 2000.99 2931.02 Q2000.99 2928.91 1999.41 2927.65 Q1997.88 2926.33 1993.67 2926.28 Q1991.72 2926.28 1991.72 2925.07 Q1991.72 2924.06 1992.09 2923.59 Q1992.51 2923.06 1992.82 2923.01 Q1993.19 2922.91 1993.67 2922.91 Q1995.46 2922.91 1999.15 2923.06 Q2002.84 2923.22 2004.68 2923.22 Q2006.47 2923.22 2010.11 2923.06 Q2013.8 2922.91 2015.59 2922.91 Q2016.22 2922.91 2016.54 2923.22 Q2016.91 2923.49 2016.96 2923.8 L2016.96 2924.12 Z" fill="#000000" fill-rule="nonzero" fill-opacity="1" /><polyline clip-path="url(#clip600)" style="stroke:#000000; stroke-linecap:round; stroke-linejoin:round; stroke-width:4; stroke-opacity:1; fill:none" points="385.267,2718.93 385.267,47.2441 "/>
<polyline clip-path="url(#clip600)" style="stroke:#000000; stroke-linecap:round; stroke-linejoin:round; stroke-width:4; stroke-opacity:1; fill:none" points="385.267,2718.93 404.164,2718.93 "/>
<polyline clip-path="url(#clip600)" style="stroke:#000000; stroke-linecap:round; stroke-linejoin:round; stroke-width:4; stroke-opacity:1; fill:none" points="385.267,2184.59 404.164,2184.59 "/>
<polyline clip-path="url(#clip600)" style="stroke:#000000; stroke-linecap:round; stroke-linejoin:round; stroke-width:4; stroke-opacity:1; fill:none" points="385.267,1650.26 404.164,1650.26 "/>
<polyline clip-path="url(#clip600)" style="stroke:#000000; stroke-linecap:round; stroke-linejoin:round; stroke-width:4; stroke-opacity:1; fill:none" points="385.267,1115.92 404.164,1115.92 "/>
<polyline clip-path="url(#clip600)" style="stroke:#000000; stroke-linecap:round; stroke-linejoin:round; stroke-width:4; stroke-opacity:1; fill:none" points="385.267,581.582 404.164,581.582 "/>
<polyline clip-path="url(#clip600)" style="stroke:#000000; stroke-linecap:round; stroke-linejoin:round; stroke-width:4; stroke-opacity:1; fill:none" points="385.267,47.2441 404.164,47.2441 "/>
<path clip-path="url(#clip600)" d="M209.973 2721.13 Q209.973 2706.26 213.728 2698.16 Q218.965 2686.1 231.317 2686.1 Q233.935 2686.1 236.653 2686.84 Q239.42 2687.53 242.878 2690.25 Q246.386 2692.97 248.51 2697.42 Q252.562 2706.01 252.562 2721.13 Q252.562 2735.9 248.807 2743.96 Q243.323 2755.72 231.218 2755.72 Q226.673 2755.72 222.028 2753.39 Q217.434 2751.07 214.519 2745.49 Q209.973 2737.14 209.973 2721.13 M218.372 2719.9 Q218.372 2735.16 219.459 2741.24 Q220.694 2747.81 224.054 2750.68 Q227.463 2753.49 231.218 2753.49 Q235.269 2753.49 238.629 2750.48 Q242.038 2747.42 243.076 2740.84 Q244.212 2734.37 244.163 2719.9 Q244.163 2705.81 243.174 2700.18 Q241.84 2693.61 238.283 2690.99 Q234.775 2688.32 231.218 2688.32 Q229.884 2688.32 228.451 2688.72 Q227.068 2689.12 225.042 2690.25 Q223.017 2691.39 221.436 2694.2 Q219.904 2697.02 219.163 2701.27 Q218.372 2706.75 218.372 2719.9 Z" fill="#000000" fill-rule="nonzero" fill-opacity="1" /><path clip-path="url(#clip600)" d="M266.741 2751.86 Q265.21 2750.23 265.21 2748.11 Q265.21 2745.98 266.741 2744.45 Q268.273 2742.87 270.595 2742.87 Q272.818 2742.87 274.301 2744.35 Q275.832 2745.78 275.832 2748.16 Q275.832 2750.48 274.202 2752.01 Q272.621 2753.49 270.595 2753.49 Q268.273 2753.49 266.741 2751.86 Z" fill="#000000" fill-rule="nonzero" fill-opacity="1" /><path clip-path="url(#clip600)" d="M288.678 2721.13 Q288.678 2706.26 292.433 2698.16 Q297.67 2686.1 310.022 2686.1 Q312.64 2686.1 315.358 2686.84 Q318.124 2687.53 321.583 2690.25 Q325.091 2692.97 327.215 2697.42 Q331.267 2706.01 331.267 2721.13 Q331.267 2735.9 327.512 2743.96 Q322.028 2755.72 309.923 2755.72 Q305.378 2755.72 300.733 2753.39 Q296.138 2751.07 293.223 2745.49 Q288.678 2737.14 288.678 2721.13 M297.077 2719.9 Q297.077 2735.16 298.164 2741.24 Q299.399 2747.81 302.759 2750.68 Q306.168 2753.49 309.923 2753.49 Q313.974 2753.49 317.334 2750.48 Q320.743 2747.42 321.781 2740.84 Q322.917 2734.37 322.868 2719.9 Q322.868 2705.81 321.879 2700.18 Q320.545 2693.61 316.988 2690.99 Q313.48 2688.32 309.923 2688.32 Q308.589 2688.32 307.156 2688.72 Q305.773 2689.12 303.747 2690.25 Q301.721 2691.39 300.14 2694.2 Q298.609 2697.02 297.868 2701.27 Q297.077 2706.75 297.077 2719.9 Z" fill="#000000" fill-rule="nonzero" fill-opacity="1" /><path clip-path="url(#clip600)" d="M212.147 2219.15 Q212.147 2217.33 212.295 2216.78 Q212.493 2216.24 213.283 2215.4 L232.7 2193.76 Q243.323 2181.8 243.323 2171.38 Q243.323 2164.61 239.765 2159.77 Q236.258 2154.93 229.785 2154.93 Q225.339 2154.93 221.584 2157.64 Q217.829 2160.36 216.1 2165.2 Q216.396 2165.1 217.434 2165.1 Q219.953 2165.1 221.337 2166.68 Q222.769 2168.27 222.769 2170.39 Q222.769 2173.11 220.991 2174.44 Q219.262 2175.73 217.532 2175.73 Q216.841 2175.73 215.902 2175.58 Q215.013 2175.43 213.58 2174.05 Q212.147 2172.61 212.147 2170.09 Q212.147 2163.03 217.483 2157.4 Q222.868 2151.76 231.07 2151.76 Q240.358 2151.76 246.435 2157.3 Q252.562 2162.78 252.562 2171.38 Q252.562 2174.39 251.623 2177.16 Q250.734 2179.88 249.499 2182 Q248.313 2184.13 245.052 2187.53 Q241.791 2190.94 239.173 2193.36 Q236.554 2195.79 230.675 2200.92 L219.953 2211.35 L238.184 2211.35 Q247.078 2211.35 247.769 2210.56 Q248.757 2209.13 249.993 2201.57 L252.562 2201.57 L249.696 2219.15 L212.147 2219.15 Z" fill="#000000" fill-rule="nonzero" fill-opacity="1" /><path clip-path="url(#clip600)" d="M267.828 2217.52 Q266.297 2215.89 266.297 2213.77 Q266.297 2211.64 267.828 2210.11 Q269.36 2208.53 271.682 2208.53 Q273.905 2208.53 275.388 2210.01 Q276.919 2211.45 276.919 2213.82 Q276.919 2216.14 275.289 2217.67 Q273.708 2219.15 271.682 2219.15 Q269.36 2219.15 267.828 2217.52 Z" fill="#000000" fill-rule="nonzero" fill-opacity="1" /><path clip-path="url(#clip600)" d="M290.852 2202.85 Q290.852 2199.84 292.482 2198.7 Q294.113 2197.51 295.842 2197.51 Q298.164 2197.51 299.498 2199 Q300.882 2200.43 300.882 2202.46 Q300.882 2204.48 299.498 2205.96 Q298.164 2207.4 295.842 2207.4 Q294.706 2207.4 294.113 2207.2 Q295.447 2211.84 299.498 2215.2 Q303.599 2218.56 308.984 2218.56 Q315.753 2218.56 319.804 2211.99 Q322.225 2207.74 322.225 2198.11 Q322.225 2189.61 320.397 2185.36 Q317.581 2178.89 311.8 2178.89 Q303.599 2178.89 298.757 2185.95 Q298.164 2186.84 297.472 2186.89 Q296.484 2186.89 296.237 2186.35 Q296.04 2185.76 296.04 2184.22 L296.04 2154.28 Q296.04 2151.86 297.028 2151.86 Q297.423 2151.86 298.263 2152.16 Q304.636 2154.98 311.702 2155.02 Q318.964 2155.02 325.486 2152.06 Q325.98 2151.76 326.277 2151.76 Q327.265 2151.76 327.314 2152.9 Q327.314 2153.3 326.474 2154.48 Q325.684 2155.62 323.954 2157.15 Q322.225 2158.63 320.002 2160.06 Q317.779 2161.5 314.518 2162.49 Q311.306 2163.42 307.749 2163.42 Q303.5 2163.42 299.152 2162.09 L299.152 2181.8 Q304.389 2176.66 311.998 2176.66 Q320.101 2176.66 325.684 2183.19 Q331.267 2189.71 331.267 2198.8 Q331.267 2208.33 324.646 2214.86 Q318.075 2221.38 309.182 2221.38 Q301.079 2221.38 295.941 2215.6 Q290.852 2209.82 290.852 2202.85 Z" fill="#000000" fill-rule="nonzero" fill-opacity="1" /><path clip-path="url(#clip600)" d="M211.06 1668.51 Q211.06 1665.5 212.691 1664.36 Q214.321 1663.18 216.05 1663.18 Q218.372 1663.18 219.706 1664.66 Q221.09 1666.09 221.09 1668.12 Q221.09 1670.14 219.706 1671.63 Q218.372 1673.06 216.05 1673.06 Q214.914 1673.06 214.321 1672.86 Q215.655 1677.5 219.706 1680.86 Q223.807 1684.22 229.192 1684.22 Q235.961 1684.22 240.012 1677.65 Q242.433 1673.4 242.433 1663.77 Q242.433 1655.27 240.605 1651.02 Q237.789 1644.55 232.009 1644.55 Q223.807 1644.55 218.965 1651.62 Q218.372 1652.51 217.681 1652.55 Q216.692 1652.55 216.445 1652.01 Q216.248 1651.42 216.248 1649.89 L216.248 1619.95 Q216.248 1617.53 217.236 1617.53 Q217.631 1617.53 218.471 1617.82 Q224.845 1620.64 231.91 1620.69 Q239.173 1620.69 245.694 1617.72 Q246.188 1617.43 246.485 1617.43 Q247.473 1617.43 247.522 1618.56 Q247.522 1618.96 246.682 1620.14 Q245.892 1621.28 244.163 1622.81 Q242.433 1624.29 240.21 1625.73 Q237.987 1627.16 234.726 1628.15 Q231.514 1629.09 227.957 1629.09 Q223.708 1629.09 219.36 1627.75 L219.36 1647.47 Q224.598 1642.33 232.206 1642.33 Q240.309 1642.33 245.892 1648.85 Q251.475 1655.37 251.475 1664.46 Q251.475 1674 244.854 1680.52 Q238.283 1687.04 229.39 1687.04 Q221.287 1687.04 216.149 1681.26 Q211.06 1675.48 211.06 1668.51 Z" fill="#000000" fill-rule="nonzero" fill-opacity="1" /><path clip-path="url(#clip600)" d="M266.741 1683.19 Q265.21 1681.56 265.21 1679.43 Q265.21 1677.31 266.741 1675.78 Q268.273 1674.19 270.595 1674.19 Q272.818 1674.19 274.301 1675.68 Q275.832 1677.11 275.832 1679.48 Q275.832 1681.8 274.202 1683.33 Q272.621 1684.82 270.595 1684.82 Q268.273 1684.82 266.741 1683.19 Z" fill="#000000" fill-rule="nonzero" fill-opacity="1" /><path clip-path="url(#clip600)" d="M288.678 1652.46 Q288.678 1637.58 292.433 1629.48 Q297.67 1617.43 310.022 1617.43 Q312.64 1617.43 315.358 1618.17 Q318.124 1618.86 321.583 1621.58 Q325.091 1624.29 327.215 1628.74 Q331.267 1637.34 331.267 1652.46 Q331.267 1667.23 327.512 1675.28 Q322.028 1687.04 309.923 1687.04 Q305.378 1687.04 300.733 1684.72 Q296.138 1682.4 293.223 1676.81 Q288.678 1668.46 288.678 1652.46 M297.077 1651.22 Q297.077 1666.49 298.164 1672.56 Q299.399 1679.14 302.759 1682 Q306.168 1684.82 309.923 1684.82 Q313.974 1684.82 317.334 1681.8 Q320.743 1678.74 321.781 1672.17 Q322.917 1665.7 322.868 1651.22 Q322.868 1637.14 321.879 1631.51 Q320.545 1624.94 316.988 1622.32 Q313.48 1619.65 309.923 1619.65 Q308.589 1619.65 307.156 1620.04 Q305.773 1620.44 303.747 1621.58 Q301.721 1622.71 300.14 1625.53 Q298.609 1628.35 297.868 1632.59 Q297.077 1638.08 297.077 1651.22 Z" fill="#000000" fill-rule="nonzero" fill-opacity="1" /><path clip-path="url(#clip600)" d="M212.789 1102.9 L216.1 1082.1 L218.619 1082.1 Q218.916 1083.34 219.41 1083.88 Q219.953 1084.42 222.819 1084.87 Q225.734 1085.31 231.613 1085.31 L256.168 1085.31 Q256.168 1087.63 255.279 1088.87 L241.593 1108.09 Q237.246 1114.17 235.319 1125.38 Q234.182 1132.89 234.232 1141.98 L234.232 1147.12 Q234.232 1152.7 229.538 1152.7 Q224.894 1152.7 224.894 1147.12 Q224.894 1127.8 237.344 1109.08 Q238.678 1107.15 243.57 1100.28 Q248.51 1093.41 248.708 1093.12 L227.76 1093.12 Q218.57 1093.12 217.829 1093.71 Q216.841 1094.6 215.309 1102.9 L212.789 1102.9 Z" fill="#000000" fill-rule="nonzero" fill-opacity="1" /><path clip-path="url(#clip600)" d="M267.828 1148.85 Q266.297 1147.22 266.297 1145.09 Q266.297 1142.97 267.828 1141.44 Q269.36 1139.86 271.682 1139.86 Q273.905 1139.86 275.388 1141.34 Q276.919 1142.77 276.919 1145.14 Q276.919 1147.47 275.289 1149 Q273.708 1150.48 271.682 1150.48 Q269.36 1150.48 267.828 1148.85 Z" fill="#000000" fill-rule="nonzero" fill-opacity="1" /><path clip-path="url(#clip600)" d="M290.852 1134.18 Q290.852 1131.16 292.482 1130.03 Q294.113 1128.84 295.842 1128.84 Q298.164 1128.84 299.498 1130.32 Q300.882 1131.75 300.882 1133.78 Q300.882 1135.81 299.498 1137.29 Q298.164 1138.72 295.842 1138.72 Q294.706 1138.72 294.113 1138.52 Q295.447 1143.17 299.498 1146.53 Q303.599 1149.89 308.984 1149.89 Q315.753 1149.89 319.804 1143.32 Q322.225 1139.07 322.225 1129.43 Q322.225 1120.93 320.397 1116.69 Q317.581 1110.21 311.8 1110.21 Q303.599 1110.21 298.757 1117.28 Q298.164 1118.17 297.472 1118.22 Q296.484 1118.22 296.237 1117.67 Q296.04 1117.08 296.04 1115.55 L296.04 1085.61 Q296.04 1083.19 297.028 1083.19 Q297.423 1083.19 298.263 1083.48 Q304.636 1086.3 311.702 1086.35 Q318.964 1086.35 325.486 1083.39 Q325.98 1083.09 326.277 1083.09 Q327.265 1083.09 327.314 1084.22 Q327.314 1084.62 326.474 1085.81 Q325.684 1086.94 323.954 1088.47 Q322.225 1089.96 320.002 1091.39 Q317.779 1092.82 314.518 1093.81 Q311.306 1094.75 307.749 1094.75 Q303.5 1094.75 299.152 1093.41 L299.152 1113.13 Q304.389 1107.99 311.998 1107.99 Q320.101 1107.99 325.684 1114.51 Q331.267 1121.03 331.267 1130.12 Q331.267 1139.66 324.646 1146.18 Q318.075 1152.7 309.182 1152.7 Q301.079 1152.7 295.941 1146.92 Q290.852 1141.14 290.852 1134.18 Z" fill="#000000" fill-rule="nonzero" fill-opacity="1" /><path clip-path="url(#clip600)" d="M164.42 558.385 L164.42 555.223 Q176.574 555.223 182.849 548.751 Q184.578 548.751 184.875 549.146 Q185.171 549.541 185.171 551.37 L185.171 608.138 Q185.171 611.152 186.653 612.09 Q188.135 613.029 194.608 613.029 L197.819 613.029 L197.819 616.142 Q194.262 615.845 181.416 615.845 Q168.57 615.845 165.062 616.142 L165.062 613.029 L168.274 613.029 Q174.647 613.029 176.179 612.14 Q177.711 611.201 177.711 608.138 L177.711 555.717 Q172.424 558.385 164.42 558.385 Z" fill="#000000" fill-rule="nonzero" fill-opacity="1" /><path clip-path="url(#clip600)" d="M209.973 583.78 Q209.973 568.909 213.728 560.806 Q218.965 548.751 231.317 548.751 Q233.935 548.751 236.653 549.492 Q239.42 550.184 242.878 552.901 Q246.386 555.619 248.51 560.065 Q252.562 568.662 252.562 583.78 Q252.562 598.553 248.807 606.606 Q243.323 618.365 231.218 618.365 Q226.673 618.365 222.028 616.043 Q217.434 613.721 214.519 608.138 Q209.973 599.788 209.973 583.78 M218.372 582.545 Q218.372 597.812 219.459 603.889 Q220.694 610.46 224.054 613.326 Q227.463 616.142 231.218 616.142 Q235.269 616.142 238.629 613.128 Q242.038 610.065 243.076 603.494 Q244.212 597.021 244.163 582.545 Q244.163 568.464 243.174 562.832 Q241.84 556.261 238.283 553.642 Q234.775 550.974 231.218 550.974 Q229.884 550.974 228.451 551.37 Q227.068 551.765 225.042 552.901 Q223.017 554.038 221.436 556.854 Q219.904 559.67 219.163 563.919 Q218.372 569.403 218.372 582.545 Z" fill="#000000" fill-rule="nonzero" fill-opacity="1" /><path clip-path="url(#clip600)" d="M266.741 614.511 Q265.21 612.881 265.21 610.756 Q265.21 608.632 266.741 607.1 Q268.273 605.519 270.595 605.519 Q272.818 605.519 274.301 607.002 Q275.832 608.434 275.832 610.806 Q275.832 613.128 274.202 614.66 Q272.621 616.142 270.595 616.142 Q268.273 616.142 266.741 614.511 Z" fill="#000000" fill-rule="nonzero" fill-opacity="1" /><path clip-path="url(#clip600)" d="M288.678 583.78 Q288.678 568.909 292.433 560.806 Q297.67 548.751 310.022 548.751 Q312.64 548.751 315.358 549.492 Q318.124 550.184 321.583 552.901 Q325.091 555.619 327.215 560.065 Q331.267 568.662 331.267 583.78 Q331.267 598.553 327.512 606.606 Q322.028 618.365 309.923 618.365 Q305.378 618.365 300.733 616.043 Q296.138 613.721 293.223 608.138 Q288.678 599.788 288.678 583.78 M297.077 582.545 Q297.077 597.812 298.164 603.889 Q299.399 610.46 302.759 613.326 Q306.168 616.142 309.923 616.142 Q313.974 616.142 317.334 613.128 Q320.743 610.065 321.781 603.494 Q322.917 597.021 322.868 582.545 Q322.868 568.464 321.879 562.832 Q320.545 556.261 316.988 553.642 Q313.48 550.974 309.923 550.974 Q308.589 550.974 307.156 551.37 Q305.773 551.765 303.747 552.901 Q301.721 554.038 300.14 556.854 Q298.609 559.67 297.868 563.919 Q297.077 569.403 297.077 582.545 Z" fill="#000000" fill-rule="nonzero" fill-opacity="1" /><path clip-path="url(#clip600)" d="M165.507 24.0476 L165.507 20.8856 Q177.661 20.8856 183.936 14.4133 Q185.665 14.4133 185.961 14.8086 Q186.258 15.2038 186.258 17.0319 L186.258 73.8002 Q186.258 76.814 187.74 77.7527 Q189.222 78.6915 195.695 78.6915 L198.906 78.6915 L198.906 81.8041 Q195.349 81.5077 182.503 81.5077 Q169.657 81.5077 166.149 81.8041 L166.149 78.6915 L169.361 78.6915 Q175.734 78.6915 177.266 77.8022 Q178.798 76.8634 178.798 73.8002 L178.798 21.3797 Q173.511 24.0476 165.507 24.0476 Z" fill="#000000" fill-rule="nonzero" fill-opacity="1" /><path clip-path="url(#clip600)" d="M212.147 81.8041 Q212.147 79.976 212.295 79.4326 Q212.493 78.8891 213.283 78.0492 L232.7 56.409 Q243.323 44.4526 243.323 34.0278 Q243.323 27.2591 239.765 22.4172 Q236.258 17.5754 229.785 17.5754 Q225.339 17.5754 221.584 20.2927 Q217.829 23.0101 216.1 27.852 Q216.396 27.7531 217.434 27.7531 Q219.953 27.7531 221.337 29.3342 Q222.769 30.9152 222.769 33.0397 Q222.769 35.757 220.991 37.091 Q219.262 38.3756 217.532 38.3756 Q216.841 38.3756 215.902 38.2274 Q215.013 38.0791 213.58 36.6958 Q212.147 35.263 212.147 32.7432 Q212.147 25.6781 217.483 20.0457 Q222.868 14.4133 231.07 14.4133 Q240.358 14.4133 246.435 19.9469 Q252.562 25.431 252.562 34.0278 Q252.562 37.0416 251.623 39.8084 Q250.734 42.5258 249.499 44.6502 Q248.313 46.7747 245.052 50.1838 Q241.791 53.5929 239.173 56.0138 Q236.554 58.4347 230.675 63.573 L219.953 73.9978 L238.184 73.9978 Q247.078 73.9978 247.769 73.2073 Q248.757 71.7745 249.993 64.2153 L252.562 64.2153 L249.696 81.8041 L212.147 81.8041 Z" fill="#000000" fill-rule="nonzero" fill-opacity="1" /><path clip-path="url(#clip600)" d="M267.828 80.1737 Q266.297 78.5433 266.297 76.4188 Q266.297 74.2943 267.828 72.7627 Q269.36 71.1816 271.682 71.1816 Q273.905 71.1816 275.388 72.6639 Q276.919 74.0966 276.919 76.4682 Q276.919 78.7903 275.289 80.3219 Q273.708 81.8041 271.682 81.8041 Q269.36 81.8041 267.828 80.1737 Z" fill="#000000" fill-rule="nonzero" fill-opacity="1" /><path clip-path="url(#clip600)" d="M290.852 65.4999 Q290.852 62.4861 292.482 61.3497 Q294.113 60.164 295.842 60.164 Q298.164 60.164 299.498 61.6462 Q300.882 63.0789 300.882 65.1046 Q300.882 67.1303 299.498 68.6125 Q298.164 70.0453 295.842 70.0453 Q294.706 70.0453 294.113 69.8477 Q295.447 74.4919 299.498 77.8516 Q303.599 81.2112 308.984 81.2112 Q315.753 81.2112 319.804 74.6401 Q322.225 70.3911 322.225 60.7568 Q322.225 52.2589 320.397 48.0099 Q317.581 41.5376 311.8 41.5376 Q303.599 41.5376 298.757 48.6028 Q298.164 49.4921 297.472 49.5415 Q296.484 49.5415 296.237 48.998 Q296.04 48.4052 296.04 46.8735 L296.04 16.9331 Q296.04 14.5121 297.028 14.5121 Q297.423 14.5121 298.263 14.8086 Q304.636 17.6248 311.702 17.6742 Q318.964 17.6742 325.486 14.7098 Q325.98 14.4133 326.277 14.4133 Q327.265 14.4133 327.314 15.5497 Q327.314 15.9449 326.474 17.1307 Q325.684 18.2671 323.954 19.7987 Q322.225 21.2809 320.002 22.7137 Q317.779 24.1465 314.518 25.1346 Q311.306 26.0733 307.749 26.0733 Q303.5 26.0733 299.152 24.7393 L299.152 44.4526 Q304.389 39.3143 311.998 39.3143 Q320.101 39.3143 325.684 45.836 Q331.267 52.3577 331.267 61.4485 Q331.267 70.984 324.646 77.5057 Q318.075 84.0274 309.182 84.0274 Q301.079 84.0274 295.941 78.2468 Q290.852 72.4662 290.852 65.4999 Z" fill="#000000" fill-rule="nonzero" fill-opacity="1" /><path clip-path="url(#clip600)" d="M35.6227 1590.36 L10.0547 1588.19 L10.0547 1518.65 L35.6227 1516.49 L35.6227 1519.32 Q30.5091 1519.77 27.5632 1520.21 Q24.6174 1520.6 21.8382 1521.6 Q19.0035 1522.54 17.6695 1523.77 Q16.28 1524.93 15.2239 1527.21 Q14.1123 1529.49 13.8343 1532.44 Q13.5564 1535.38 13.5564 1539.83 Q13.5564 1545.06 13.7788 1546.33 Q14.1123 1547.72 15.1127 1548.06 Q16.0576 1548.39 18.1142 1548.39 L78.0878 1548.39 Q80.3667 1548.39 81.3116 1547.95 Q82.2009 1547.45 82.9235 1544.83 Q83.5905 1542.22 83.5905 1536.44 L83.5905 1531.88 L87.0922 1531.88 Q86.7587 1536.55 86.7587 1553.5 Q86.7587 1570.35 87.0922 1575.01 L83.5905 1575.01 L83.5905 1570.46 Q83.5905 1564.68 82.9235 1562.06 Q82.2009 1559.4 81.3116 1558.95 Q80.3667 1558.51 78.0878 1558.51 L18.1142 1558.51 Q16.5023 1558.51 15.8353 1558.62 Q15.1683 1558.73 14.6125 1559.23 Q14.0011 1559.73 13.7788 1560.9 Q13.5564 1562.01 13.5564 1567.01 Q13.5564 1571.46 13.8343 1574.46 Q14.1123 1577.4 15.2239 1579.68 Q16.28 1581.96 17.6695 1583.19 Q19.0035 1584.35 21.8382 1585.35 Q24.6174 1586.3 27.5632 1586.69 Q30.5091 1587.08 35.6227 1587.52 L35.6227 1590.36 Z" fill="#000000" fill-rule="nonzero" fill-opacity="1" /><path clip-path="url(#clip600)" d="M87.0922 1508.54 L83.5905 1508.54 Q83.5905 1502.48 82.8679 1501.09 Q82.0897 1499.7 78.4213 1499.7 L47.7953 1499.7 Q43.571 1499.7 42.5705 1501.15 Q41.57 1502.54 41.57 1508.09 L38.0128 1508.09 L36.7899 1492.2 L78.5324 1492.2 Q81.923 1492.2 82.7567 1490.97 Q83.5905 1489.75 83.5905 1484.19 L87.0922 1484.19 Q86.7587 1495.81 86.7587 1496.03 Q86.7587 1497.59 87.0922 1508.54 M16.947 1503.76 Q14.6681 1503.76 12.8339 1502.03 Q10.9441 1500.26 10.9441 1497.76 Q10.9441 1495.25 12.6671 1493.48 Q14.3346 1491.7 17.0026 1491.7 Q19.6149 1491.7 21.338 1493.48 Q23.0055 1495.25 23.0055 1497.76 Q23.0055 1500.37 21.1712 1502.09 Q19.337 1503.76 16.947 1503.76 Z" fill="#000000" fill-rule="nonzero" fill-opacity="1" /><path clip-path="url(#clip600)" d="M87.0922 1477.13 L83.5905 1477.13 Q83.5905 1471.08 82.8679 1469.69 Q82.0897 1468.3 78.4213 1468.3 L47.9065 1468.3 Q43.6822 1468.3 42.6261 1469.8 Q41.57 1471.24 41.57 1477.13 L38.0128 1477.13 L36.7899 1461.13 L48.7402 1461.13 Q36.7899 1455.79 36.7899 1444.28 Q36.7899 1430.94 47.9065 1429.11 Q43.571 1427.17 40.1805 1423.11 Q36.7899 1418.99 36.7899 1412.6 Q36.7899 1404.04 41.0142 1400.65 Q43.8489 1398.15 47.0171 1397.65 Q50.1853 1397.15 58.4116 1397.15 L80.1443 1397.15 Q82.5344 1397.04 83.0902 1395.21 Q83.5905 1393.37 83.5905 1388.26 L87.0922 1388.26 Q86.7587 1399.87 86.7587 1400.99 Q86.7587 1401.88 87.0922 1413.88 L83.5905 1413.88 Q83.5905 1407.82 82.8679 1406.43 Q82.0897 1404.99 78.4213 1404.99 L51.9084 1404.99 Q46.1278 1404.99 42.7373 1406.77 Q39.2912 1408.55 39.2912 1413.44 Q39.2912 1419.33 44.238 1424.05 Q49.1849 1428.78 57.5222 1428.78 L78.4213 1428.78 Q82.0897 1428.78 82.8679 1427.39 Q83.5905 1425.94 83.5905 1419.88 L87.0922 1419.88 Q86.7587 1431.5 86.7587 1432.67 Q86.7587 1433.56 87.0922 1445.51 L83.5905 1445.51 Q83.5905 1439.45 82.8679 1438.06 Q82.0897 1436.61 78.4213 1436.61 L51.9084 1436.61 Q46.1278 1436.61 42.7373 1438.39 Q39.2912 1440.17 39.2912 1445.06 Q39.2912 1450.95 44.238 1455.68 Q49.1849 1460.4 57.5222 1460.4 L78.4213 1460.4 Q82.0897 1460.4 82.8679 1459.01 Q83.5905 1457.57 83.5905 1451.57 L87.0922 1451.57 Q86.7587 1463.18 86.7587 1464.29 Q86.7587 1465.18 87.0922 1477.13 Z" fill="#000000" fill-rule="nonzero" fill-opacity="1" /><path clip-path="url(#clip600)" d="M62.0244 1382.87 Q51.297 1382.87 43.6822 1375.97 Q36.0674 1369.08 36.0674 1359.19 Q36.0674 1349.18 42.5705 1344.01 Q49.0737 1338.79 58.4116 1338.79 Q60.1346 1338.79 60.4681 1339.23 Q60.8016 1339.68 60.8016 1341.62 L60.8016 1373.42 Q72.4184 1373.42 77.8655 1369.97 Q85.4803 1365.19 85.4803 1357.13 Q85.4803 1356.02 85.2579 1354.69 Q85.0356 1353.35 84.0907 1350.63 Q83.0902 1347.9 80.4778 1345.51 Q77.8655 1343.12 73.7523 1341.73 Q72.1404 1341.4 72.196 1340.29 Q72.196 1338.79 73.53 1338.79 Q74.5305 1338.79 76.8094 1339.9 Q79.0327 1340.96 81.7006 1343.01 Q84.3686 1345.07 86.3696 1349.07 Q88.3706 1353.02 88.3706 1357.8 Q88.3706 1367.8 80.8113 1375.36 Q73.1965 1382.87 62.0244 1382.87 M58.4116 1373.31 L58.4116 1346.29 Q56.0215 1346.29 53.3535 1346.74 Q50.6856 1347.13 47.0171 1348.35 Q43.2931 1349.52 40.9586 1352.3 Q38.6242 1355.07 38.6242 1359.19 Q38.6242 1361.02 39.4023 1363.02 Q40.1805 1364.97 42.0703 1367.36 Q43.9601 1369.75 48.2399 1371.42 Q52.5198 1373.08 58.4116 1373.31 Z" fill="#000000" fill-rule="nonzero" fill-opacity="1" /><path clip-path="url(#clip600)" d="M58.6339 1286.37 Q39.4023 1286.37 23.8948 1279.2 Q17.3916 1276.15 11.9445 1271.87 Q6.49745 1267.59 4.1074 1264.75 Q1.71735 1261.92 1.71735 1261.14 Q1.71735 1260.03 2.829 1259.97 Q3.38482 1259.97 4.77439 1261.47 Q23.4501 1279.82 58.6339 1279.76 Q93.9288 1279.76 111.882 1261.92 Q113.827 1259.97 114.439 1259.97 Q115.55 1259.97 115.55 1261.14 Q115.55 1261.92 113.272 1264.64 Q110.993 1267.37 105.768 1271.59 Q100.543 1275.81 94.1511 1278.87 Q78.6436 1286.37 58.6339 1286.37 Z" fill="#000000" fill-rule="nonzero" fill-opacity="1" /><path clip-path="url(#clip600)" d="M85.5914 1249.75 L70.5841 1249.75 Q69.3057 1249.75 68.8611 1249.69 Q68.4164 1249.63 68.0829 1249.3 Q67.7494 1248.97 67.7494 1248.3 Q67.7494 1247.52 68.0829 1247.24 Q68.4164 1246.91 69.6948 1246.69 Q77.532 1244.97 81.7006 1241.3 Q85.8138 1237.57 85.8138 1230.85 Q85.8138 1224.46 82.979 1221.23 Q80.1443 1218.01 75.4754 1218.01 Q67.138 1218.01 65.0259 1229.85 Q63.6363 1236.68 62.747 1239.52 Q61.8021 1242.35 59.7455 1244.85 Q55.7436 1249.75 50.0742 1249.75 Q44.4048 1249.75 40.2361 1245.47 Q36.0674 1241.13 36.0674 1231.57 Q36.0674 1225.18 39.2912 1220.84 Q38.2907 1219.56 37.4569 1218.9 Q36.0674 1217.4 36.0674 1216.62 Q36.0674 1215.73 36.6788 1215.56 Q37.2346 1215.4 38.8465 1215.4 L50.2965 1215.4 Q51.5749 1215.4 52.0196 1215.45 Q52.4642 1215.51 52.7977 1215.84 Q53.0756 1216.17 53.0756 1216.9 Q53.0756 1218.17 52.0196 1218.23 Q38.2351 1219.12 38.2351 1231.57 Q38.2351 1238.3 40.8475 1241.3 Q43.4043 1244.3 46.906 1244.3 Q48.8514 1244.3 50.3521 1243.41 Q51.7972 1242.46 52.6866 1241.3 Q53.5203 1240.07 54.354 1237.85 Q55.1322 1235.63 55.4101 1234.29 Q55.688 1232.9 56.2438 1230.29 Q57.9669 1221.18 61.6909 1217.34 Q66.471 1212.56 72.5295 1212.56 Q79.255 1212.56 83.8128 1217.12 Q88.3706 1221.68 88.3706 1230.85 Q88.3706 1238.24 83.4237 1243.41 Q84.0907 1244.08 84.7021 1244.58 Q85.2579 1245.08 85.4803 1245.3 Q85.7026 1245.47 85.8693 1245.52 Q85.9805 1245.58 86.0917 1245.69 Q88.3706 1247.97 88.3706 1248.52 Q88.3706 1249.41 87.7591 1249.58 Q87.2033 1249.75 85.5914 1249.75 Z" fill="#000000" fill-rule="nonzero" fill-opacity="1" /><path clip-path="url(#clip600)" d="M114.439 1202.22 Q113.883 1202.22 112.493 1200.78 Q93.8176 1182.44 58.6339 1182.44 Q23.339 1182.44 5.49696 1200.05 Q3.44041 1202.22 2.829 1202.22 Q1.71735 1202.22 1.71735 1201.11 Q1.71735 1200.33 3.99623 1197.61 Q6.27512 1194.83 11.4999 1190.66 Q16.7246 1186.44 23.1166 1183.32 Q38.6242 1175.82 58.6339 1175.82 Q77.8655 1175.82 93.373 1182.99 Q99.8761 1186.05 105.323 1190.33 Q110.77 1194.61 113.16 1197.44 Q115.55 1200.28 115.55 1201.11 Q115.55 1202.22 114.439 1202.22 Z" fill="#000000" fill-rule="nonzero" fill-opacity="1" /><polyline clip-path="url(#clip602)" style="stroke:#e26f46; stroke-linecap:round; stroke-linejoin:round; stroke-width:4; stroke-opacity:1; fill:none" points="474.913,2515.59 724.641,2543.09 1304.49,2572.29 1554.22,2588.36 2134.07,2595.36 2383.8,2584.46 2963.65,2566.04 3213.38,2545.99 3463.11,2546.76 "/>
<polyline clip-path="url(#clip602)" style="stroke:#3da44d; stroke-linecap:round; stroke-linejoin:round; stroke-width:4; stroke-opacity:1; fill:none" points="474.913,507.357 724.641,814.785 1304.49,1030.03 1554.22,1233.69 2134.07,1230.12 2383.8,1261.8 2963.65,1229.89 3213.38,895.037 3463.11,1164.23 "/>
<polyline clip-path="url(#clip602)" style="stroke:#c271d2; stroke-linecap:round; stroke-linejoin:round; stroke-width:4; stroke-opacity:1; fill:none" points="474.913,-1075.9 724.641,848.594 1304.49,939.297 1554.22,1414.61 2134.07,1737.65 2383.8,1616.47 2963.65,1825.7 3213.38,1782.68 3463.11,1929.34 "/>
<polyline clip-path="url(#clip602)" style="stroke:#000000; stroke-linecap:round; stroke-linejoin:round; stroke-width:4; stroke-opacity:1; fill:none" points="-2782.22,2505.2 6720.25,2505.2 "/>
<path clip-path="url(#clip600)" d="M490.85 551.02 L1915.89 551.02 L1915.89 136.3 L490.85 136.3  Z" fill="#ffffff" fill-rule="evenodd" fill-opacity="1"/>
<polyline clip-path="url(#clip600)" style="stroke:#000000; stroke-linecap:round; stroke-linejoin:round; stroke-width:4; stroke-opacity:1; fill:none" points="490.85,551.02 1915.89,551.02 1915.89,136.3 490.85,136.3 490.85,551.02 "/>
<polyline clip-path="url(#clip600)" style="stroke:#e26f46; stroke-linecap:round; stroke-linejoin:round; stroke-width:8; stroke-opacity:1; fill:none" points="526.044,239.98 737.21,239.98 "/>
<path clip-path="url(#clip600)" d="M782.78 266.042 Q772.404 255.321 772.404 239.956 Q772.404 224.541 782.878 213.869 Q793.353 203.197 807.582 203.197 Q811.139 203.197 814.153 204.037 Q817.216 204.827 819.637 206.458 Q822.058 208.039 823.293 209.126 Q824.578 210.163 826.307 211.893 L831.396 204.432 Q832.186 203.197 832.977 203.197 Q833.817 203.197 833.965 203.691 Q834.113 204.136 834.113 205.618 L834.113 229.63 Q834.113 231.26 833.916 231.655 Q833.718 232.051 832.483 232.051 Q831.495 232.051 831.297 231.754 Q831.099 231.458 830.852 230.321 Q829.321 219.402 823.194 212.881 Q817.117 206.359 808.817 206.359 Q806.396 206.359 803.679 206.903 Q801.011 207.446 797.058 209.521 Q793.155 211.596 790.141 215.005 Q787.177 218.365 785.003 224.887 Q782.829 231.359 782.829 239.956 Q782.829 248.454 785.003 254.975 Q787.177 261.497 790.191 264.906 Q793.254 268.266 797.206 270.39 Q801.208 272.515 804.025 273.108 Q806.89 273.651 809.41 273.651 Q811.139 273.651 813.165 273.305 Q815.19 272.91 818.204 271.823 Q821.267 270.687 823.194 268.019 Q825.121 265.351 825.121 261.398 L825.121 254.926 Q825.121 251.912 823.639 250.973 Q822.157 250.035 815.685 250.035 L812.473 250.035 L812.473 246.922 Q816.129 247.218 828.728 247.218 Q829.864 247.218 841.08 246.922 L841.08 250.035 Q836.238 250.035 835.151 250.776 Q834.113 251.467 834.113 254.481 L834.113 272.119 Q834.113 274.442 833.224 274.442 Q832.433 274.442 830.062 272.169 Q827.74 269.896 826.702 268.167 Q824.281 272.416 818.995 274.59 Q813.758 276.764 807.779 276.764 Q793.204 276.764 782.78 266.042 Z" fill="#000000" fill-rule="nonzero" fill-opacity="1" /><path clip-path="url(#clip600)" d="M850.269 264.906 Q850.269 256.309 860.398 251.764 Q866.475 248.849 879.024 248.108 L879.024 244.402 Q879.024 238.128 875.714 234.817 Q872.453 231.458 868.303 231.458 Q860.892 231.458 857.334 236.102 Q860.348 236.201 861.435 237.732 Q862.522 239.215 862.522 240.746 Q862.522 242.772 861.238 244.106 Q860.002 245.39 857.878 245.39 Q855.852 245.39 854.518 244.155 Q853.184 242.871 853.184 240.647 Q853.184 235.707 857.631 232.446 Q862.127 229.185 868.5 229.185 Q876.801 229.185 882.334 234.768 Q884.063 236.497 884.903 238.72 Q885.793 240.944 885.891 242.426 Q885.99 243.859 885.99 246.724 L885.99 266.932 Q885.99 267.525 886.188 268.513 Q886.386 269.501 887.275 270.785 Q888.214 272.021 889.745 272.021 Q893.401 272.021 893.352 265.548 L893.352 259.867 L895.921 259.867 L895.921 265.548 Q895.921 270.934 893.055 273.058 Q890.239 275.133 887.621 275.133 Q884.261 275.133 882.137 272.663 Q880.012 270.193 879.716 266.833 Q878.184 270.687 874.676 273.206 Q871.218 275.677 866.475 275.677 Q862.819 275.677 859.36 274.738 Q855.951 273.849 853.085 271.329 Q850.269 268.76 850.269 264.906 M858.075 264.807 Q858.075 268.562 860.743 270.983 Q863.411 273.404 867.166 273.404 Q871.415 273.404 875.22 270.143 Q879.024 266.833 879.024 260.361 L879.024 250.232 Q867.809 250.628 862.917 255.124 Q858.075 259.57 858.075 264.807 Z" fill="#000000" fill-rule="nonzero" fill-opacity="1" /><path clip-path="url(#clip600)" d="M899.874 234.076 L899.874 230.914 L914.745 229.827 L914.745 263.424 Q914.745 265.845 914.943 267.278 Q915.14 268.661 915.931 270.291 Q916.771 271.922 918.648 272.663 Q920.575 273.404 923.638 273.404 Q929.122 273.404 932.482 268.908 Q935.891 264.412 935.891 257.742 L935.891 239.709 Q935.891 235.954 934.557 235.015 Q933.223 234.076 927.986 234.076 L927.986 230.914 L942.857 229.827 L942.857 265.746 Q942.857 269.501 944.142 270.489 Q945.476 271.428 950.762 271.428 L950.762 274.54 L936.187 275.677 L936.187 266.536 Q931.939 275.627 923.144 275.677 Q918.698 275.677 915.634 274.54 Q912.62 273.404 911.089 272.021 Q909.557 270.588 908.717 267.87 Q907.927 265.153 907.828 263.473 Q907.729 261.793 907.729 258.533 L907.729 243.365 Q907.729 236.497 906.741 235.311 Q905.753 234.076 899.874 234.076 Z" fill="#000000" fill-rule="nonzero" fill-opacity="1" /><path clip-path="url(#clip600)" d="M956.098 273.206 L956.098 259.867 Q956.098 258.73 956.148 258.335 Q956.197 257.94 956.494 257.643 Q956.79 257.347 957.383 257.347 Q958.075 257.347 958.322 257.643 Q958.618 257.94 958.816 259.076 Q960.347 266.042 963.608 269.748 Q966.918 273.404 972.897 273.404 Q978.578 273.404 981.444 270.884 Q984.31 268.365 984.31 264.214 Q984.31 256.803 973.786 254.926 Q967.709 253.691 965.189 252.9 Q962.669 252.06 960.446 250.232 Q956.098 246.675 956.098 241.635 Q956.098 236.596 959.903 232.891 Q963.756 229.185 972.254 229.185 Q977.936 229.185 981.79 232.051 Q982.926 231.161 983.519 230.42 Q984.853 229.185 985.545 229.185 Q986.335 229.185 986.484 229.728 Q986.632 230.223 986.632 231.655 L986.632 241.833 Q986.632 242.969 986.582 243.365 Q986.533 243.76 986.237 244.056 Q985.94 244.303 985.298 244.303 Q984.161 244.303 984.112 243.365 Q983.322 231.112 972.254 231.112 Q966.276 231.112 963.608 233.434 Q960.94 235.707 960.94 238.819 Q960.94 240.549 961.731 241.883 Q962.571 243.167 963.608 243.958 Q964.695 244.699 966.671 245.44 Q968.648 246.132 969.833 246.379 Q971.069 246.626 973.391 247.12 Q981.493 248.651 984.903 251.961 Q989.152 256.21 989.152 261.596 Q989.152 267.574 985.1 271.625 Q981.049 275.677 972.897 275.677 Q966.326 275.677 961.731 271.28 Q961.138 271.872 960.693 272.416 Q960.249 272.91 960.051 273.108 Q959.903 273.305 959.853 273.453 Q959.804 273.552 959.705 273.651 Q957.679 275.677 957.185 275.677 Q956.395 275.677 956.247 275.133 Q956.098 274.639 956.098 273.206 Z" fill="#000000" fill-rule="nonzero" fill-opacity="1" /><path clip-path="url(#clip600)" d="M995.92 273.206 L995.92 259.867 Q995.92 258.73 995.97 258.335 Q996.019 257.94 996.315 257.643 Q996.612 257.347 997.205 257.347 Q997.896 257.347 998.144 257.643 Q998.44 257.94 998.638 259.076 Q1000.17 266.042 1003.43 269.748 Q1006.74 273.404 1012.72 273.404 Q1018.4 273.404 1021.27 270.884 Q1024.13 268.365 1024.13 264.214 Q1024.13 256.803 1013.61 254.926 Q1007.53 253.691 1005.01 252.9 Q1002.49 252.06 1000.27 250.232 Q995.92 246.675 995.92 241.635 Q995.92 236.596 999.725 232.891 Q1003.58 229.185 1012.08 229.185 Q1017.76 229.185 1021.61 232.051 Q1022.75 231.161 1023.34 230.42 Q1024.67 229.185 1025.37 229.185 Q1026.16 229.185 1026.31 229.728 Q1026.45 230.223 1026.45 231.655 L1026.45 241.833 Q1026.45 242.969 1026.4 243.365 Q1026.35 243.76 1026.06 244.056 Q1025.76 244.303 1025.12 244.303 Q1023.98 244.303 1023.93 243.365 Q1023.14 231.112 1012.08 231.112 Q1006.1 231.112 1003.43 233.434 Q1000.76 235.707 1000.76 238.819 Q1000.76 240.549 1001.55 241.883 Q1002.39 243.167 1003.43 243.958 Q1004.52 244.699 1006.49 245.44 Q1008.47 246.132 1009.66 246.379 Q1010.89 246.626 1013.21 247.12 Q1021.32 248.651 1024.72 251.961 Q1028.97 256.21 1028.97 261.596 Q1028.97 267.574 1024.92 271.625 Q1020.87 275.677 1012.72 275.677 Q1006.15 275.677 1001.55 271.28 Q1000.96 271.872 1000.52 272.416 Q1000.07 272.91 999.873 273.108 Q999.725 273.305 999.675 273.453 Q999.626 273.552 999.527 273.651 Q997.501 275.677 997.007 275.677 Q996.217 275.677 996.068 275.133 Q995.92 274.639 995.92 273.206 Z" fill="#000000" fill-rule="nonzero" fill-opacity="1" /><path clip-path="url(#clip600)" d="M1035.74 274.54 L1035.74 271.428 Q1041.13 271.428 1042.36 270.785 Q1043.6 270.094 1043.6 266.833 L1043.6 239.61 Q1043.6 235.855 1042.31 234.966 Q1041.08 234.076 1036.14 234.076 L1036.14 230.914 L1050.27 229.827 L1050.27 266.932 Q1050.27 269.946 1051.35 270.687 Q1052.44 271.428 1057.38 271.428 L1057.38 274.54 Q1047.06 274.244 1046.86 274.244 Q1045.48 274.244 1035.74 274.54 M1039.99 212.189 Q1039.99 210.163 1041.52 208.533 Q1043.1 206.853 1045.33 206.853 Q1047.55 206.853 1049.13 208.385 Q1050.71 209.867 1050.71 212.238 Q1050.71 214.561 1049.13 216.092 Q1047.55 217.574 1045.33 217.574 Q1043 217.574 1041.47 215.944 Q1039.99 214.314 1039.99 212.189 Z" fill="#000000" fill-rule="nonzero" fill-opacity="1" /><path clip-path="url(#clip600)" d="M1064.64 264.906 Q1064.64 256.309 1074.77 251.764 Q1080.85 248.849 1093.4 248.108 L1093.4 244.402 Q1093.4 238.128 1090.09 234.817 Q1086.83 231.458 1082.68 231.458 Q1075.27 231.458 1071.71 236.102 Q1074.72 236.201 1075.81 237.732 Q1076.9 239.215 1076.9 240.746 Q1076.9 242.772 1075.61 244.106 Q1074.38 245.39 1072.25 245.39 Q1070.23 245.39 1068.89 244.155 Q1067.56 242.871 1067.56 240.647 Q1067.56 235.707 1072.01 232.446 Q1076.5 229.185 1082.88 229.185 Q1091.18 229.185 1096.71 234.768 Q1098.44 236.497 1099.28 238.72 Q1100.17 240.944 1100.27 242.426 Q1100.37 243.859 1100.37 246.724 L1100.37 266.932 Q1100.37 267.525 1100.56 268.513 Q1100.76 269.501 1101.65 270.785 Q1102.59 272.021 1104.12 272.021 Q1107.78 272.021 1107.73 265.548 L1107.73 259.867 L1110.3 259.867 L1110.3 265.548 Q1110.3 270.934 1107.43 273.058 Q1104.62 275.133 1102 275.133 Q1098.64 275.133 1096.51 272.663 Q1094.39 270.193 1094.09 266.833 Q1092.56 270.687 1089.05 273.206 Q1085.59 275.677 1080.85 275.677 Q1077.19 275.677 1073.74 274.738 Q1070.33 273.849 1067.46 271.329 Q1064.64 268.76 1064.64 264.906 M1072.45 264.807 Q1072.45 268.562 1075.12 270.983 Q1077.79 273.404 1081.54 273.404 Q1085.79 273.404 1089.6 270.143 Q1093.4 266.833 1093.4 260.361 L1093.4 250.232 Q1082.18 250.628 1077.29 255.124 Q1072.45 259.57 1072.45 264.807 Z" fill="#000000" fill-rule="nonzero" fill-opacity="1" /><path clip-path="url(#clip600)" d="M1114.25 274.54 L1114.25 271.428 Q1119.63 271.428 1120.87 270.785 Q1122.1 270.094 1122.1 266.833 L1122.1 239.709 Q1122.1 235.954 1120.77 235.015 Q1119.49 234.076 1114.25 234.076 L1114.25 230.914 L1128.48 229.827 L1128.48 240.45 Q1133.22 229.827 1143.45 229.827 Q1151.06 229.827 1154.07 233.582 Q1156.29 236.102 1156.74 238.918 Q1157.23 241.734 1157.23 249.047 L1157.23 268.365 Q1157.33 270.489 1158.96 270.983 Q1160.59 271.428 1165.14 271.428 L1165.14 274.54 Q1154.81 274.244 1153.77 274.244 Q1152.98 274.244 1142.36 274.54 L1142.36 271.428 Q1147.75 271.428 1148.98 270.785 Q1150.27 270.094 1150.27 266.833 L1150.27 243.266 Q1150.27 238.128 1148.69 235.114 Q1147.1 232.051 1142.76 232.051 Q1137.52 232.051 1133.32 236.448 Q1129.12 240.845 1129.12 248.256 L1129.12 266.833 Q1129.12 270.094 1130.36 270.785 Q1131.64 271.428 1136.98 271.428 L1136.98 274.54 Q1126.65 274.244 1125.66 274.244 Q1124.87 274.244 1114.25 274.54 Z" fill="#000000" fill-rule="nonzero" fill-opacity="1" /><path clip-path="url(#clip600)" d="M1170.87 274.54 L1170.87 271.428 Q1174.53 271.428 1176.85 270.736 Q1179.17 269.995 1180.01 268.661 Q1180.9 267.278 1181.1 266.388 Q1181.29 265.45 1181.29 263.918 L1181.29 213.325 Q1181.29 210.41 1180.01 209.521 Q1178.77 208.582 1173.29 208.582 L1170.87 208.582 L1170.87 205.42 L1187.96 205.42 Q1189.79 205.42 1190.29 205.766 Q1190.78 206.063 1191.52 207.644 L1213.46 264.313 L1235.59 207.347 Q1236.09 205.914 1236.53 205.667 Q1237.03 205.42 1238.95 205.42 L1256.05 205.42 L1256.05 208.582 L1253.63 208.582 Q1248.14 208.582 1246.86 209.521 Q1245.62 210.41 1245.62 213.325 L1245.62 266.635 Q1245.62 269.55 1246.86 270.489 Q1248.14 271.428 1253.63 271.428 L1256.05 271.428 L1256.05 274.54 Q1252.29 274.244 1241.57 274.244 Q1230.75 274.244 1227 274.54 L1227 271.428 L1229.47 271.428 Q1234.95 271.428 1236.19 270.538 Q1237.42 269.6 1237.42 266.635 L1237.42 208.582 L1237.32 208.582 L1212.47 272.614 Q1211.78 274.54 1210.64 274.54 Q1209.41 274.54 1208.62 272.317 L1184.21 209.373 L1184.11 209.373 L1184.11 263.918 Q1184.11 265.45 1184.31 266.388 Q1184.51 267.278 1185.35 268.661 Q1186.23 269.995 1188.56 270.736 Q1190.88 271.428 1194.54 271.428 L1194.54 274.54 Q1183.91 274.244 1182.68 274.244 Q1181.49 274.244 1170.87 274.54 Z" fill="#000000" fill-rule="nonzero" fill-opacity="1" /><path clip-path="url(#clip600)" d="M1263.11 274.54 L1263.11 271.428 Q1268.5 271.428 1269.73 270.785 Q1270.97 270.094 1270.97 266.833 L1270.97 239.61 Q1270.97 235.855 1269.68 234.966 Q1268.45 234.076 1263.51 234.076 L1263.51 230.914 L1277.64 229.827 L1277.64 266.932 Q1277.64 269.946 1278.72 270.687 Q1279.81 271.428 1284.75 271.428 L1284.75 274.54 Q1274.43 274.244 1274.23 274.244 Q1272.84 274.244 1263.11 274.54 M1267.36 212.189 Q1267.36 210.163 1268.89 208.533 Q1270.47 206.853 1272.7 206.853 Q1274.92 206.853 1276.5 208.385 Q1278.08 209.867 1278.08 212.238 Q1278.08 214.561 1276.5 216.092 Q1274.92 217.574 1272.7 217.574 Q1270.37 217.574 1268.84 215.944 Q1267.36 214.314 1267.36 212.189 Z" fill="#000000" fill-rule="nonzero" fill-opacity="1" /><path clip-path="url(#clip600)" d="M1289 274.54 L1289 271.428 Q1296.91 271.428 1301.95 265.351 Q1301.95 265.351 1311.43 253.295 L1301.4 240.252 Q1297.84 235.707 1296.26 234.916 Q1294.73 234.076 1289.49 234.076 L1289.49 230.914 Q1293.65 231.211 1299.08 231.211 Q1302.09 231.211 1310.05 230.914 L1310.05 234.076 Q1306.49 234.274 1306.49 236.596 Q1306.49 237.387 1307.38 238.424 L1315.29 248.651 L1321.56 240.746 Q1323.09 238.918 1323.09 237.189 Q1323.09 234.373 1320.13 234.076 L1320.13 230.914 Q1324.08 231.211 1329.86 231.211 Q1334.21 231.211 1338.16 230.914 L1338.16 234.076 Q1330.45 234.274 1326.11 239.313 Q1324.18 241.438 1316.82 250.776 L1330.35 268.266 Q1331.98 270.39 1333.81 270.934 Q1335.64 271.428 1339.99 271.428 L1339.99 274.54 Q1335.44 274.244 1330.26 274.244 Q1328.43 274.244 1319.34 274.54 L1319.34 271.428 Q1321.16 271.329 1322.05 270.538 Q1322.99 269.699 1322.99 268.859 Q1322.99 268.463 1320.87 265.548 L1313.16 255.42 Q1305.45 264.511 1304.47 266.635 Q1304.07 267.525 1304.07 268.266 Q1304.07 270.983 1306.98 271.428 L1306.98 274.54 Q1299.72 274.244 1297.4 274.244 Q1292.95 274.244 1289 274.54 Z" fill="#000000" fill-rule="nonzero" fill-opacity="1" /><path clip-path="url(#clip600)" d="M1343 234.076 L1343 231.853 Q1347.65 231.655 1350.71 228.394 Q1353.82 225.084 1354.86 221.033 Q1355.95 216.982 1356.05 212.288 L1358.57 212.288 L1358.57 230.914 L1373.04 230.914 L1373.04 234.076 L1358.57 234.076 L1358.57 262.189 Q1358.57 273.108 1365.38 273.108 Q1368.3 273.108 1370.23 270.143 Q1372.15 267.129 1372.15 261.793 L1372.15 256.21 L1374.67 256.21 L1374.67 261.991 Q1374.67 267.475 1372.15 271.576 Q1369.63 275.677 1364.64 275.677 Q1362.81 275.677 1360.99 275.183 Q1359.21 274.738 1356.84 273.552 Q1354.51 272.317 1353.03 269.353 Q1351.6 266.339 1351.6 261.991 L1351.6 234.076 L1343 234.076 Z" fill="#000000" fill-rule="nonzero" fill-opacity="1" /><path clip-path="url(#clip600)" d="M1383.57 234.076 L1383.57 230.914 L1398.44 229.827 L1398.44 263.424 Q1398.44 265.845 1398.63 267.278 Q1398.83 268.661 1399.62 270.291 Q1400.46 271.922 1402.34 272.663 Q1404.27 273.404 1407.33 273.404 Q1412.81 273.404 1416.17 268.908 Q1419.58 264.412 1419.58 257.742 L1419.58 239.709 Q1419.58 235.954 1418.25 235.015 Q1416.91 234.076 1411.68 234.076 L1411.68 230.914 L1426.55 229.827 L1426.55 265.746 Q1426.55 269.501 1427.83 270.489 Q1429.17 271.428 1434.45 271.428 L1434.45 274.54 L1419.88 275.677 L1419.88 266.536 Q1415.63 275.627 1406.84 275.677 Q1402.39 275.677 1399.33 274.54 Q1396.31 273.404 1394.78 272.021 Q1393.25 270.588 1392.41 267.87 Q1391.62 265.153 1391.52 263.473 Q1391.42 261.793 1391.42 258.533 L1391.42 243.365 Q1391.42 236.497 1390.43 235.311 Q1389.44 234.076 1383.57 234.076 Z" fill="#000000" fill-rule="nonzero" fill-opacity="1" /><path clip-path="url(#clip600)" d="M1439.25 274.54 L1439.25 271.428 Q1444.63 271.428 1445.87 270.785 Q1447.15 270.094 1447.15 266.833 L1447.15 239.709 Q1447.15 235.954 1445.82 235.015 Q1444.53 234.076 1439.25 234.076 L1439.25 230.914 L1453.33 229.827 L1453.33 240.944 Q1454.76 236.596 1457.77 233.236 Q1460.84 229.827 1465.78 229.827 Q1469.04 229.827 1471.11 231.655 Q1473.24 233.483 1473.24 236.003 Q1473.24 238.226 1471.86 239.363 Q1470.52 240.45 1468.89 240.45 Q1467.06 240.45 1465.78 239.313 Q1464.54 238.128 1464.54 236.102 Q1464.54 234.867 1465.09 233.928 Q1465.68 232.94 1466.12 232.594 Q1466.57 232.248 1466.87 232.149 Q1466.67 232.051 1465.78 232.051 Q1460.2 232.051 1456.98 237.634 Q1453.82 243.167 1453.82 251.072 L1453.82 266.635 Q1453.82 269.55 1455.01 270.489 Q1456.24 271.428 1461.53 271.428 L1463.65 271.428 L1463.65 274.54 Q1459.6 274.244 1450.81 274.244 Q1449.57 274.244 1447.65 274.293 Q1445.72 274.343 1443.2 274.442 Q1440.68 274.54 1439.25 274.54 Z" fill="#000000" fill-rule="nonzero" fill-opacity="1" /><path clip-path="url(#clip600)" d="M1478.77 252.258 Q1478.77 242.722 1484.9 235.954 Q1491.02 229.185 1499.82 229.185 Q1508.71 229.185 1513.31 234.966 Q1517.95 240.746 1517.95 249.047 Q1517.95 250.578 1517.56 250.875 Q1517.16 251.171 1515.43 251.171 L1487.17 251.171 Q1487.17 261.497 1490.23 266.339 Q1494.48 273.108 1501.65 273.108 Q1502.64 273.108 1503.82 272.91 Q1505.01 272.712 1507.43 271.872 Q1509.85 270.983 1511.97 268.661 Q1514.1 266.339 1515.33 262.683 Q1515.63 261.25 1516.62 261.299 Q1517.95 261.299 1517.95 262.485 Q1517.95 263.374 1516.96 265.4 Q1516.02 267.376 1514.2 269.748 Q1512.37 272.119 1508.81 273.898 Q1505.3 275.677 1501.05 275.677 Q1492.16 275.677 1485.44 268.957 Q1478.77 262.189 1478.77 252.258 M1487.27 249.047 L1511.28 249.047 Q1511.28 246.922 1510.89 244.55 Q1510.54 242.179 1509.45 238.918 Q1508.42 235.608 1505.95 233.533 Q1503.48 231.458 1499.82 231.458 Q1498.19 231.458 1496.41 232.149 Q1494.68 232.841 1492.56 234.521 Q1490.43 236.201 1488.95 240.005 Q1487.47 243.809 1487.27 249.047 Z" fill="#000000" fill-rule="nonzero" fill-opacity="1" /><path clip-path="url(#clip600)" d="M1524.62 274.54 L1524.62 271.428 Q1528.28 271.428 1530.6 270.736 Q1532.92 269.995 1533.76 268.661 Q1534.65 267.278 1534.85 266.388 Q1535.05 265.45 1535.05 263.918 L1535.05 213.325 Q1535.05 210.41 1533.76 209.521 Q1532.53 208.582 1527.04 208.582 L1524.62 208.582 L1524.62 205.42 L1541.72 205.42 Q1543.54 205.42 1544.04 205.766 Q1544.53 206.063 1545.27 207.644 L1567.21 264.313 L1589.34 207.347 Q1589.84 205.914 1590.28 205.667 Q1590.78 205.42 1592.7 205.42 L1609.8 205.42 L1609.8 208.582 L1607.38 208.582 Q1601.89 208.582 1600.61 209.521 Q1599.37 210.41 1599.37 213.325 L1599.37 266.635 Q1599.37 269.55 1600.61 270.489 Q1601.89 271.428 1607.38 271.428 L1609.8 271.428 L1609.8 274.54 Q1606.04 274.244 1595.32 274.244 Q1584.5 274.244 1580.75 274.54 L1580.75 271.428 L1583.22 271.428 Q1588.7 271.428 1589.94 270.538 Q1591.17 269.6 1591.17 266.635 L1591.17 208.582 L1591.07 208.582 L1566.22 272.614 Q1565.53 274.54 1564.39 274.54 Q1563.16 274.54 1562.37 272.317 L1537.96 209.373 L1537.86 209.373 L1537.86 263.918 Q1537.86 265.45 1538.06 266.388 Q1538.26 267.278 1539.1 268.661 Q1539.99 269.995 1542.31 270.736 Q1544.63 271.428 1548.29 271.428 L1548.29 274.54 Q1537.66 274.244 1536.43 274.244 Q1535.24 274.244 1524.62 274.54 Z" fill="#000000" fill-rule="nonzero" fill-opacity="1" /><path clip-path="url(#clip600)" d="M1622.99 269.106 Q1616.32 262.485 1616.32 252.9 Q1616.32 243.266 1622.84 236.25 Q1629.41 229.185 1638.8 229.185 Q1647.99 229.185 1654.56 236.201 Q1661.18 243.167 1661.18 252.9 Q1661.18 262.436 1654.51 269.056 Q1647.89 275.677 1638.7 275.677 Q1629.71 275.677 1622.99 269.106 M1624.72 252.06 Q1624.72 261.892 1627.29 266.339 Q1631.24 273.108 1638.8 273.108 Q1642.56 273.108 1645.67 271.082 Q1648.83 269.056 1650.56 265.647 Q1652.78 261.201 1652.78 252.06 Q1652.78 242.327 1650.11 238.029 Q1646.16 231.458 1638.7 231.458 Q1635.44 231.458 1632.23 233.187 Q1629.07 234.867 1627.14 238.226 Q1624.72 242.673 1624.72 252.06 Z" fill="#000000" fill-rule="nonzero" fill-opacity="1" /><path clip-path="url(#clip600)" d="M1670.37 252.801 Q1670.37 243.167 1677.09 236.497 Q1683.81 229.827 1692.9 229.827 Q1700.61 229.827 1705.65 236.102 L1705.65 214.215 Q1705.65 210.46 1704.31 209.521 Q1703.03 208.582 1697.79 208.582 L1697.79 205.42 L1712.37 204.333 L1712.37 265.746 Q1712.37 269.501 1713.65 270.489 Q1714.99 271.428 1720.22 271.428 L1720.22 274.54 L1705.35 275.677 L1705.35 268.957 Q1700.11 275.627 1691.81 275.677 Q1683.12 275.677 1676.74 269.007 Q1670.37 262.337 1670.37 252.801 M1678.77 252.9 Q1678.77 262.288 1681.69 266.932 Q1685.74 273.404 1692.31 273.404 Q1699.82 273.404 1704.26 266.339 Q1705.4 264.61 1705.35 262.584 L1705.35 241.833 Q1705.35 239.807 1704.26 238.128 Q1700.11 232.051 1693.35 232.051 Q1686.28 232.051 1681.88 238.523 Q1678.77 243.365 1678.77 252.9 Z" fill="#000000" fill-rule="nonzero" fill-opacity="1" /><path clip-path="url(#clip600)" d="M1725.86 252.258 Q1725.86 242.722 1731.98 235.954 Q1738.11 229.185 1746.9 229.185 Q1755.8 229.185 1760.39 234.966 Q1765.03 240.746 1765.03 249.047 Q1765.03 250.578 1764.64 250.875 Q1764.24 251.171 1762.51 251.171 L1734.25 251.171 Q1734.25 261.497 1737.32 266.339 Q1741.57 273.108 1748.73 273.108 Q1749.72 273.108 1750.9 272.91 Q1752.09 272.712 1754.51 271.872 Q1756.93 270.983 1759.06 268.661 Q1761.18 266.339 1762.42 262.683 Q1762.71 261.25 1763.7 261.299 Q1765.03 261.299 1765.03 262.485 Q1765.03 263.374 1764.05 265.4 Q1763.11 267.376 1761.28 269.748 Q1759.45 272.119 1755.89 273.898 Q1752.39 275.677 1748.14 275.677 Q1739.24 275.677 1732.52 268.957 Q1725.86 262.189 1725.86 252.258 M1734.35 249.047 L1758.36 249.047 Q1758.36 246.922 1757.97 244.55 Q1757.62 242.179 1756.54 238.918 Q1755.5 235.608 1753.03 233.533 Q1750.56 231.458 1746.9 231.458 Q1745.27 231.458 1743.49 232.149 Q1741.76 232.841 1739.64 234.521 Q1737.52 236.201 1736.03 240.005 Q1734.55 243.809 1734.35 249.047 Z" fill="#000000" fill-rule="nonzero" fill-opacity="1" /><path clip-path="url(#clip600)" d="M1771.31 274.54 L1771.31 271.428 Q1776.69 271.428 1777.93 270.785 Q1779.16 270.094 1779.16 266.833 L1779.16 214.215 Q1779.16 210.46 1777.83 209.521 Q1776.55 208.582 1771.31 208.582 L1771.31 205.42 L1785.83 204.333 L1785.83 266.833 Q1785.83 270.094 1787.12 270.785 Q1788.4 271.428 1793.74 271.428 L1793.74 274.54 Q1792.5 274.54 1789.94 274.442 Q1787.37 274.343 1785.49 274.293 Q1783.61 274.244 1782.52 274.244 Q1781.34 274.244 1771.31 274.54 Z" fill="#000000" fill-rule="nonzero" fill-opacity="1" /><path clip-path="url(#clip600)" d="M1806.09 272.91 Q1804.56 271.28 1804.56 269.155 Q1804.56 267.031 1806.09 265.499 Q1807.62 263.918 1809.95 263.918 Q1812.17 263.918 1813.65 265.4 Q1815.18 266.833 1815.18 269.204 Q1815.18 271.527 1813.55 273.058 Q1811.97 274.54 1809.95 274.54 Q1807.62 274.54 1806.09 272.91 Z" fill="#000000" fill-rule="nonzero" fill-opacity="1" /><path clip-path="url(#clip600)" d="M1820.02 287.188 Q1820.02 285.163 1821.31 283.829 Q1822.54 282.544 1824.67 282.544 Q1826.79 282.544 1828.03 283.829 Q1829.31 285.163 1829.31 287.188 Q1829.31 289.017 1828.23 290.153 Q1827.19 291.339 1825.8 291.734 Q1828.42 293.068 1831.24 293.068 Q1833.56 293.068 1835.14 291.685 Q1836.72 290.301 1837.42 288.028 Q1838.16 285.756 1838.4 283.829 Q1838.65 281.951 1838.65 279.777 L1838.65 239.709 Q1838.65 235.954 1837.17 235.015 Q1835.74 234.076 1829.96 234.076 L1829.96 230.914 L1845.32 229.827 L1845.32 279.58 Q1845.32 286.349 1841.27 290.795 Q1837.22 295.291 1831.49 295.291 Q1826.84 295.291 1823.43 293.117 Q1820.02 290.943 1820.02 287.188 M1836.18 216.043 Q1834.6 214.462 1834.6 212.238 Q1834.6 210.015 1836.18 208.434 Q1837.76 206.853 1839.98 206.853 Q1842.21 206.853 1843.79 208.434 Q1845.37 210.015 1845.37 212.238 Q1845.37 214.462 1843.79 216.043 Q1842.21 217.574 1839.98 217.574 Q1837.76 217.574 1836.18 216.043 Z" fill="#000000" fill-rule="nonzero" fill-opacity="1" /><path clip-path="url(#clip600)" d="M1858.27 274.54 L1858.27 271.428 Q1863.65 271.428 1864.89 270.785 Q1866.12 270.094 1866.12 266.833 L1866.12 214.215 Q1866.12 210.46 1864.79 209.521 Q1863.5 208.582 1858.27 208.582 L1858.27 205.42 L1872.79 204.333 L1872.79 266.833 Q1872.79 270.094 1874.08 270.785 Q1875.36 271.428 1880.7 271.428 L1880.7 274.54 Q1879.46 274.54 1876.89 274.442 Q1874.32 274.343 1872.44 274.293 Q1870.57 274.244 1869.48 274.244 Q1868.29 274.244 1858.27 274.54 Z" fill="#000000" fill-rule="nonzero" fill-opacity="1" /><polyline clip-path="url(#clip600)" style="stroke:#3da44d; stroke-linecap:round; stroke-linejoin:round; stroke-width:8; stroke-opacity:1; fill:none" points="526.044,343.66 737.21,343.66 "/>
<path clip-path="url(#clip600)" d="M772.404 378.22 L772.404 375.108 Q777.79 375.108 779.025 374.465 Q780.26 373.774 780.26 370.513 L780.26 343.389 Q780.26 339.634 778.926 338.695 Q777.641 337.756 772.404 337.756 L772.404 334.594 L786.633 333.507 L786.633 344.13 Q791.376 333.507 801.604 333.507 Q813.461 333.507 815.092 343.389 Q816.821 339.535 820.428 336.521 Q824.084 333.507 829.765 333.507 Q837.374 333.507 840.388 337.262 Q842.611 339.782 843.056 342.598 Q843.5 345.414 843.5 352.727 L843.5 372.045 Q843.599 374.169 845.23 374.663 Q846.86 375.108 851.406 375.108 L851.406 378.22 Q841.08 377.924 840.091 377.924 Q839.301 377.924 828.629 378.22 L828.629 375.108 Q834.014 375.108 835.25 374.465 Q836.534 373.774 836.534 370.513 L836.534 346.946 Q836.534 341.808 834.953 338.794 Q833.372 335.731 829.024 335.731 Q823.787 335.731 819.588 340.128 Q815.388 344.525 815.388 351.936 L815.388 370.513 Q815.388 373.774 816.623 374.465 Q817.908 375.108 823.293 375.108 L823.293 378.22 Q812.967 377.924 811.93 377.924 Q811.139 377.924 800.517 378.22 L800.517 375.108 Q805.902 375.108 807.137 374.465 Q808.422 373.774 808.422 370.513 L808.422 346.946 Q808.422 341.808 806.841 338.794 Q805.26 335.731 800.912 335.731 Q795.675 335.731 791.475 340.128 Q787.276 344.525 787.276 351.936 L787.276 370.513 Q787.276 373.774 788.511 374.465 Q789.795 375.108 795.131 375.108 L795.131 378.22 Q784.805 377.924 783.817 377.924 Q783.027 377.924 772.404 378.22 Z" fill="#000000" fill-rule="nonzero" fill-opacity="1" /><path clip-path="url(#clip600)" d="M856.741 378.22 L856.741 375.108 Q862.127 375.108 863.362 374.465 Q864.597 373.774 864.597 370.513 L864.597 343.29 Q864.597 339.535 863.313 338.646 Q862.077 337.756 857.137 337.756 L857.137 334.594 L871.267 333.507 L871.267 370.612 Q871.267 373.626 872.354 374.367 Q873.441 375.108 878.382 375.108 L878.382 378.22 Q868.056 377.924 867.858 377.924 Q866.475 377.924 856.741 378.22 M860.99 315.869 Q860.99 313.843 862.522 312.213 Q864.103 310.533 866.326 310.533 Q868.55 310.533 870.131 312.065 Q871.712 313.547 871.712 315.918 Q871.712 318.241 870.131 319.772 Q868.55 321.254 866.326 321.254 Q864.004 321.254 862.473 319.624 Q860.99 317.994 860.99 315.869 Z" fill="#000000" fill-rule="nonzero" fill-opacity="1" /><path clip-path="url(#clip600)" d="M882.631 378.22 L882.631 375.108 Q890.536 375.108 895.575 369.031 Q895.575 369.031 905.061 356.975 L895.032 343.932 Q891.474 339.387 889.893 338.596 Q888.362 337.756 883.125 337.756 L883.125 334.594 Q887.275 334.891 892.71 334.891 Q895.723 334.891 903.678 334.594 L903.678 337.756 Q900.121 337.954 900.121 340.276 Q900.121 341.067 901.01 342.104 L908.915 352.331 L915.19 344.426 Q916.721 342.598 916.721 340.869 Q916.721 338.053 913.757 337.756 L913.757 334.594 Q917.709 334.891 923.49 334.891 Q927.838 334.891 931.79 334.594 L931.79 337.756 Q924.083 337.954 919.735 342.993 Q917.808 345.118 910.447 354.456 L923.984 371.946 Q925.614 374.07 927.443 374.614 Q929.271 375.108 933.618 375.108 L933.618 378.22 Q929.073 377.924 923.885 377.924 Q922.057 377.924 912.966 378.22 L912.966 375.108 Q914.794 375.009 915.684 374.218 Q916.622 373.379 916.622 372.539 Q916.622 372.143 914.498 369.228 L906.79 359.1 Q899.083 368.191 898.095 370.315 Q897.7 371.205 897.7 371.946 Q897.7 374.663 900.615 375.108 L900.615 378.22 Q893.352 377.924 891.03 377.924 Q886.583 377.924 882.631 378.22 Z" fill="#000000" fill-rule="nonzero" fill-opacity="1" /><path clip-path="url(#clip600)" d="M936.632 337.756 L936.632 335.533 Q941.276 335.335 944.34 332.074 Q947.452 328.764 948.49 324.713 Q949.577 320.662 949.676 315.968 L952.195 315.968 L952.195 334.594 L966.671 334.594 L966.671 337.756 L952.195 337.756 L952.195 365.869 Q952.195 376.788 959.013 376.788 Q961.928 376.788 963.855 373.823 Q965.782 370.809 965.782 365.473 L965.782 359.89 L968.302 359.89 L968.302 365.671 Q968.302 371.155 965.782 375.256 Q963.262 379.357 958.272 379.357 Q956.444 379.357 954.616 378.863 Q952.838 378.418 950.466 377.232 Q948.144 375.997 946.662 373.033 Q945.229 370.019 945.229 365.671 L945.229 337.756 L936.632 337.756 Z" fill="#000000" fill-rule="nonzero" fill-opacity="1" /><path clip-path="url(#clip600)" d="M983.42 372.786 Q976.75 366.165 976.75 356.58 Q976.75 346.946 983.272 339.93 Q989.843 332.865 999.23 332.865 Q1008.42 332.865 1014.99 339.881 Q1021.61 346.847 1021.61 356.58 Q1021.61 366.116 1014.94 372.736 Q1008.32 379.357 999.132 379.357 Q990.14 379.357 983.42 372.786 M985.15 355.74 Q985.15 365.572 987.719 370.019 Q991.671 376.788 999.23 376.788 Q1002.99 376.788 1006.1 374.762 Q1009.26 372.736 1010.99 369.327 Q1013.21 364.881 1013.21 355.74 Q1013.21 346.007 1010.54 341.709 Q1006.59 335.138 999.132 335.138 Q995.871 335.138 992.659 336.867 Q989.497 338.547 987.57 341.906 Q985.15 346.353 985.15 355.74 Z" fill="#000000" fill-rule="nonzero" fill-opacity="1" /><path clip-path="url(#clip600)" d="M1036.83 372.786 Q1030.16 366.165 1030.16 356.58 Q1030.16 346.946 1036.68 339.93 Q1043.25 332.865 1052.64 332.865 Q1061.83 332.865 1068.4 339.881 Q1075.02 346.847 1075.02 356.58 Q1075.02 366.116 1068.35 372.736 Q1061.73 379.357 1052.54 379.357 Q1043.55 379.357 1036.83 372.786 M1038.56 355.74 Q1038.56 365.572 1041.13 370.019 Q1045.08 376.788 1052.64 376.788 Q1056.39 376.788 1059.51 374.762 Q1062.67 372.736 1064.4 369.327 Q1066.62 364.881 1066.62 355.74 Q1066.62 346.007 1063.95 341.709 Q1060 335.138 1052.54 335.138 Q1049.28 335.138 1046.07 336.867 Q1042.91 338.547 1040.98 341.906 Q1038.56 346.353 1038.56 355.74 Z" fill="#000000" fill-rule="nonzero" fill-opacity="1" /><path clip-path="url(#clip600)" d="M1081.3 378.22 L1081.3 375.108 Q1086.68 375.108 1087.92 374.465 Q1089.15 373.774 1089.15 370.513 L1089.15 317.895 Q1089.15 314.14 1087.82 313.201 Q1086.53 312.262 1081.3 312.262 L1081.3 309.1 L1095.82 308.013 L1095.82 370.513 Q1095.82 373.774 1097.11 374.465 Q1098.39 375.108 1103.73 375.108 L1103.73 378.22 Q1102.49 378.22 1099.92 378.122 Q1097.35 378.023 1095.47 377.973 Q1093.6 377.924 1092.51 377.924 Q1091.32 377.924 1081.3 378.22 Z" fill="#000000" fill-rule="nonzero" fill-opacity="1" /><path clip-path="url(#clip600)" d="M1109.31 376.886 L1109.31 363.547 Q1109.31 362.41 1109.36 362.015 Q1109.41 361.62 1109.7 361.323 Q1110 361.027 1110.59 361.027 Q1111.28 361.027 1111.53 361.323 Q1111.83 361.62 1112.03 362.756 Q1113.56 369.722 1116.82 373.428 Q1120.13 377.084 1126.11 377.084 Q1131.79 377.084 1134.65 374.564 Q1137.52 372.045 1137.52 367.894 Q1137.52 360.483 1127 358.606 Q1120.92 357.371 1118.4 356.58 Q1115.88 355.74 1113.66 353.912 Q1109.31 350.355 1109.31 345.315 Q1109.31 340.276 1113.11 336.571 Q1116.97 332.865 1125.46 332.865 Q1131.15 332.865 1135 335.731 Q1136.14 334.841 1136.73 334.1 Q1138.06 332.865 1138.76 332.865 Q1139.55 332.865 1139.69 333.408 Q1139.84 333.903 1139.84 335.335 L1139.84 345.513 Q1139.84 346.649 1139.79 347.045 Q1139.74 347.44 1139.45 347.736 Q1139.15 347.983 1138.51 347.983 Q1137.37 347.983 1137.32 347.045 Q1136.53 334.792 1125.46 334.792 Q1119.49 334.792 1116.82 337.114 Q1114.15 339.387 1114.15 342.499 Q1114.15 344.229 1114.94 345.563 Q1115.78 346.847 1116.82 347.638 Q1117.91 348.379 1119.88 349.12 Q1121.86 349.812 1123.04 350.059 Q1124.28 350.306 1126.6 350.8 Q1134.7 352.331 1138.11 355.641 Q1142.36 359.89 1142.36 365.276 Q1142.36 371.254 1138.31 375.305 Q1134.26 379.357 1126.11 379.357 Q1119.54 379.357 1114.94 374.96 Q1114.35 375.552 1113.9 376.096 Q1113.46 376.59 1113.26 376.788 Q1113.11 376.985 1113.06 377.133 Q1113.01 377.232 1112.92 377.331 Q1110.89 379.357 1110.4 379.357 Q1109.61 379.357 1109.46 378.813 Q1109.31 378.319 1109.31 376.886 Z" fill="#000000" fill-rule="nonzero" fill-opacity="1" /><path clip-path="url(#clip600)" d="M1155.9 376.59 Q1154.37 374.96 1154.37 372.835 Q1154.37 370.711 1155.9 369.179 Q1157.43 367.598 1159.75 367.598 Q1161.98 367.598 1163.46 369.08 Q1164.99 370.513 1164.99 372.884 Q1164.99 375.207 1163.36 376.738 Q1161.78 378.22 1159.75 378.22 Q1157.43 378.22 1155.9 376.59 Z" fill="#000000" fill-rule="nonzero" fill-opacity="1" /><path clip-path="url(#clip600)" d="M1177.44 378.22 L1177.44 375.108 L1179.86 375.108 Q1185.35 375.108 1186.58 374.218 Q1187.87 373.28 1187.87 370.315 L1187.87 317.005 Q1187.87 314.09 1186.58 313.201 Q1185.3 312.262 1179.86 312.262 L1177.44 312.262 L1177.44 309.1 L1209.21 309.1 Q1220.23 309.1 1227.88 314.535 Q1235.59 319.92 1235.59 327.331 Q1235.59 333.013 1230.6 337.46 Q1225.61 341.906 1217.9 343.833 Q1227.93 347.292 1230.26 355.543 L1231.54 363.645 Q1231.94 366.56 1232.18 368.043 Q1232.48 369.525 1232.92 371.55 Q1233.37 373.576 1233.81 374.564 Q1234.31 375.503 1235 376.541 Q1235.69 377.529 1236.58 377.875 Q1237.52 378.22 1238.75 378.22 Q1241.08 378.22 1243.05 376.145 Q1245.03 374.07 1245.42 369.228 Q1245.62 367.598 1246.66 367.598 Q1247.94 367.598 1247.94 369.228 Q1247.94 370.661 1247.55 372.341 Q1247.15 373.971 1246.17 375.898 Q1245.23 377.825 1243.15 379.11 Q1241.08 380.444 1238.36 380.444 Q1230.45 380.444 1225.61 376.195 Q1223.59 374.367 1222.65 371.995 Q1221.76 369.624 1221.61 367.746 Q1221.46 365.869 1221.46 361.719 Q1221.46 355.839 1220.82 353.27 Q1220.23 350.701 1217.61 348.181 Q1214.05 344.723 1208.17 344.723 L1196.56 344.723 L1196.56 370.315 Q1196.56 373.23 1197.8 374.169 Q1199.08 375.108 1204.56 375.108 L1206.99 375.108 L1206.99 378.22 Q1203.33 377.924 1192.21 377.924 Q1181.1 377.924 1177.44 378.22 M1196.56 342.499 L1207.78 342.499 Q1213.16 342.499 1216.77 341.215 Q1220.42 339.881 1222.15 337.509 Q1223.88 335.138 1224.53 332.766 Q1225.17 330.345 1225.17 327.331 Q1225.17 323.774 1224.38 321.106 Q1223.59 318.438 1221.86 316.857 Q1220.13 315.276 1218.4 314.288 Q1216.67 313.251 1214 312.855 Q1211.33 312.46 1209.51 312.361 Q1207.68 312.262 1204.76 312.262 Q1199.82 312.262 1198.78 312.46 Q1197.65 312.559 1197.2 313.102 Q1196.76 313.646 1196.66 314.288 Q1196.56 314.881 1196.56 316.314 L1196.56 342.499 Z" fill="#000000" fill-rule="nonzero" fill-opacity="1" /><polyline clip-path="url(#clip600)" style="stroke:#c271d2; stroke-linecap:round; stroke-linejoin:round; stroke-width:8; stroke-opacity:1; fill:none" points="526.044,447.34 737.21,447.34 "/>
<path clip-path="url(#clip600)" d="M772.404 481.703 L772.404 461.446 Q772.404 460.31 772.454 459.914 Q772.503 459.519 772.799 459.223 Q773.096 458.926 773.689 458.926 Q774.825 458.926 774.924 459.964 Q775.22 469.993 781.199 475.527 Q787.078 481.011 797.157 481.011 Q803.234 481.011 806.989 476.663 Q810.744 472.266 810.744 466.535 Q810.744 461.051 807.582 457.197 Q806.248 455.468 804.568 454.381 Q802.938 453.244 801.9 452.899 Q800.912 452.553 798.985 452.059 Q786.436 449.045 785.645 448.699 Q779.667 446.673 776.011 441.584 Q772.404 436.446 772.404 430.172 Q772.404 422.069 778.086 416.338 Q783.817 410.557 792.118 410.557 Q796.268 410.557 799.726 411.891 Q803.234 413.176 804.667 414.361 Q806.1 415.547 808.323 417.672 L811.831 411.891 Q812.621 410.557 813.362 410.557 Q814.153 410.557 814.301 411.051 Q814.499 411.496 814.499 412.978 L814.499 433.334 Q814.499 434.47 814.449 434.865 Q814.4 435.26 814.054 435.507 Q813.758 435.754 813.165 435.754 Q812.177 435.754 811.93 434.569 Q809.113 413.423 792.216 413.423 Q786.436 413.423 782.631 417.326 Q778.877 421.18 778.877 426.664 Q778.877 431.11 781.643 434.766 Q784.41 438.373 789.104 439.509 L802.048 442.622 Q808.521 444.154 812.868 449.885 Q817.216 455.616 817.216 463.076 Q817.216 471.673 811.584 477.898 Q806.001 484.124 797.256 484.124 Q790.981 484.124 786.139 482.049 Q781.297 479.974 778.679 477.059 Q776.653 480.418 775.319 482.296 L775.023 482.79 Q774.232 484.124 773.491 484.124 Q772.701 484.124 772.552 483.63 Q772.404 483.136 772.404 481.703 Z" fill="#000000" fill-rule="nonzero" fill-opacity="1" /><path clip-path="url(#clip600)" d="M825.665 481.9 L825.665 478.788 Q831.05 478.788 832.285 478.145 Q833.57 477.454 833.57 474.193 L833.57 421.575 Q833.57 417.82 832.236 416.881 Q830.951 415.942 825.665 415.942 L825.665 412.78 L840.24 411.693 L840.24 460.26 L854.518 447.909 Q856.741 445.982 856.741 443.956 Q856.741 441.634 853.826 441.436 L853.826 438.274 Q858.075 438.571 865.141 438.571 Q869.291 438.571 872.206 438.274 L872.206 441.436 Q865.832 441.733 859.459 446.871 Q858.026 448.007 854.617 450.972 Q851.257 453.887 851.257 454.183 Q851.257 454.282 851.356 454.529 Q851.504 454.776 851.702 454.974 Q851.9 455.171 851.9 455.27 L864.745 473.402 Q867.364 477.059 869.291 477.948 Q871.218 478.788 874.577 478.788 L874.577 481.9 Q870.23 481.604 865.734 481.604 Q863.313 481.604 854.815 481.9 L854.815 478.788 Q858.471 478.788 858.471 476.416 Q858.471 474.786 850.269 463.472 Q849.676 462.681 848.342 460.952 Q847.107 459.124 846.415 458.235 L839.943 463.768 L839.943 474.193 Q839.943 477.454 841.178 478.145 Q842.463 478.788 847.848 478.788 L847.848 481.9 Q841.771 481.604 836.732 481.604 Q835.694 481.604 825.665 481.9 Z" fill="#000000" fill-rule="nonzero" fill-opacity="1" /><path clip-path="url(#clip600)" d="M879.518 481.9 L879.518 478.788 Q884.903 478.788 886.138 478.145 Q887.374 477.454 887.374 474.193 L887.374 421.575 Q887.374 417.82 886.04 416.881 Q884.755 415.942 879.518 415.942 L879.518 412.78 L894.044 411.693 L894.044 474.193 Q894.044 477.454 895.328 478.145 Q896.613 478.788 901.949 478.788 L901.949 481.9 Q900.713 481.9 898.144 481.802 Q895.575 481.703 893.698 481.653 Q891.82 481.604 890.733 481.604 Q889.548 481.604 879.518 481.9 Z" fill="#000000" fill-rule="nonzero" fill-opacity="1" /><path clip-path="url(#clip600)" d="M906.988 459.618 Q906.988 450.082 913.115 443.314 Q919.241 436.545 928.035 436.545 Q936.929 436.545 941.523 442.326 Q946.168 448.106 946.168 456.407 Q946.168 457.938 945.772 458.235 Q945.377 458.531 943.648 458.531 L915.387 458.531 Q915.387 468.857 918.45 473.699 Q922.699 480.468 929.863 480.468 Q930.852 480.468 932.037 480.27 Q933.223 480.072 935.644 479.232 Q938.065 478.343 940.189 476.021 Q942.314 473.699 943.549 470.043 Q943.846 468.61 944.834 468.659 Q946.168 468.659 946.168 469.845 Q946.168 470.734 945.18 472.76 Q944.241 474.736 942.413 477.108 Q940.585 479.479 937.027 481.258 Q933.52 483.037 929.271 483.037 Q920.377 483.037 913.658 476.317 Q906.988 469.549 906.988 459.618 M915.486 456.407 L939.498 456.407 Q939.498 454.282 939.102 451.91 Q938.757 449.539 937.67 446.278 Q936.632 442.968 934.162 440.893 Q931.691 438.818 928.035 438.818 Q926.405 438.818 924.626 439.509 Q922.897 440.201 920.773 441.881 Q918.648 443.561 917.166 447.365 Q915.684 451.169 915.486 456.407 Z" fill="#000000" fill-rule="nonzero" fill-opacity="1" /><path clip-path="url(#clip600)" d="M953.332 472.266 Q953.332 463.669 963.46 459.124 Q969.537 456.209 982.086 455.468 L982.086 451.762 Q982.086 445.488 978.776 442.177 Q975.515 438.818 971.365 438.818 Q963.954 438.818 960.397 443.462 Q963.411 443.561 964.498 445.092 Q965.584 446.575 965.584 448.106 Q965.584 450.132 964.3 451.466 Q963.065 452.75 960.94 452.75 Q958.915 452.75 957.581 451.515 Q956.247 450.231 956.247 448.007 Q956.247 443.067 960.693 439.806 Q965.189 436.545 971.563 436.545 Q979.863 436.545 985.397 442.128 Q987.126 443.857 987.966 446.08 Q988.855 448.304 988.954 449.786 Q989.053 451.219 989.053 454.084 L989.053 474.292 Q989.053 474.885 989.25 475.873 Q989.448 476.861 990.337 478.145 Q991.276 479.381 992.808 479.381 Q996.464 479.381 996.414 472.908 L996.414 467.227 L998.983 467.227 L998.983 472.908 Q998.983 478.294 996.118 480.418 Q993.302 482.493 990.683 482.493 Q987.323 482.493 985.199 480.023 Q983.074 477.553 982.778 474.193 Q981.246 478.047 977.739 480.566 Q974.28 483.037 969.537 483.037 Q965.881 483.037 962.422 482.098 Q959.013 481.209 956.148 478.689 Q953.332 476.12 953.332 472.266 M961.138 472.167 Q961.138 475.922 963.806 478.343 Q966.474 480.764 970.229 480.764 Q974.478 480.764 978.282 477.503 Q982.086 474.193 982.086 467.721 L982.086 457.592 Q970.871 457.988 965.98 462.484 Q961.138 466.93 961.138 472.167 Z" fill="#000000" fill-rule="nonzero" fill-opacity="1" /><path clip-path="url(#clip600)" d="M1002.49 481.9 L1002.49 478.788 Q1007.88 478.788 1009.11 478.145 Q1010.4 477.454 1010.4 474.193 L1010.4 447.069 Q1010.4 443.314 1009.06 442.375 Q1007.78 441.436 1002.49 441.436 L1002.49 438.274 L1016.57 437.187 L1016.57 448.304 Q1018.01 443.956 1021.02 440.596 Q1024.08 437.187 1029.02 437.187 Q1032.28 437.187 1034.36 439.015 Q1036.48 440.843 1036.48 443.363 Q1036.48 445.586 1035.1 446.723 Q1033.77 447.81 1032.14 447.81 Q1030.31 447.81 1029.02 446.673 Q1027.79 445.488 1027.79 443.462 Q1027.79 442.227 1028.33 441.288 Q1028.92 440.3 1029.37 439.954 Q1029.81 439.608 1030.11 439.509 Q1029.91 439.411 1029.02 439.411 Q1023.44 439.411 1020.23 444.994 Q1017.07 450.527 1017.07 458.432 L1017.07 473.995 Q1017.07 476.91 1018.25 477.849 Q1019.49 478.788 1024.77 478.788 L1026.9 478.788 L1026.9 481.9 Q1022.85 481.604 1014.05 481.604 Q1012.82 481.604 1010.89 481.653 Q1008.96 481.703 1006.44 481.802 Q1003.92 481.9 1002.49 481.9 Z" fill="#000000" fill-rule="nonzero" fill-opacity="1" /><path clip-path="url(#clip600)" d="M1042.46 481.9 L1042.46 478.788 Q1047.85 478.788 1049.08 478.145 Q1050.32 477.454 1050.32 474.193 L1050.32 447.069 Q1050.32 443.314 1048.98 442.375 Q1047.7 441.436 1042.46 441.436 L1042.46 438.274 L1056.69 437.187 L1056.69 447.81 Q1061.43 437.187 1071.66 437.187 Q1079.27 437.187 1082.28 440.942 Q1084.51 443.462 1084.95 446.278 Q1085.45 449.094 1085.45 456.407 L1085.45 475.725 Q1085.54 477.849 1087.17 478.343 Q1088.8 478.788 1093.35 478.788 L1093.35 481.9 Q1083.02 481.604 1081.99 481.604 Q1081.2 481.604 1070.57 481.9 L1070.57 478.788 Q1075.96 478.788 1077.19 478.145 Q1078.48 477.454 1078.48 474.193 L1078.48 450.626 Q1078.48 445.488 1076.9 442.474 Q1075.32 439.411 1070.97 439.411 Q1065.73 439.411 1061.53 443.808 Q1057.33 448.205 1057.33 455.616 L1057.33 474.193 Q1057.33 477.454 1058.57 478.145 Q1059.85 478.788 1065.19 478.788 L1065.19 481.9 Q1054.86 481.604 1053.87 481.604 Q1053.08 481.604 1042.46 481.9 Z" fill="#000000" fill-rule="nonzero" fill-opacity="1" /><path clip-path="url(#clip600)" d="M1105.45 480.27 Q1103.92 478.64 1103.92 476.515 Q1103.92 474.391 1105.45 472.859 Q1106.99 471.278 1109.31 471.278 Q1111.53 471.278 1113.01 472.76 Q1114.55 474.193 1114.55 476.564 Q1114.55 478.887 1112.92 480.418 Q1111.33 481.9 1109.31 481.9 Q1106.99 481.9 1105.45 480.27 Z" fill="#000000" fill-rule="nonzero" fill-opacity="1" /><path clip-path="url(#clip600)" d="M1126.26 498.402 Q1131.64 498.402 1132.88 497.711 Q1134.16 497.068 1134.16 493.857 L1134.16 446.476 Q1134.16 443.116 1132.88 442.276 Q1131.64 441.436 1126.26 441.436 L1126.26 438.274 L1140.83 437.187 L1140.83 443.857 Q1146.91 437.187 1155.01 437.187 Q1163.61 437.187 1169.88 443.857 Q1176.16 450.527 1176.16 460.063 Q1176.16 469.697 1169.49 476.367 Q1162.82 483.037 1153.58 483.037 Q1148.54 483.037 1145.13 480.468 Q1141.77 477.849 1141.13 475.922 L1141.13 476.861 L1141.13 493.857 Q1141.13 497.118 1142.41 497.76 Q1143.7 498.402 1149.03 498.402 L1149.03 501.515 Q1138.41 501.218 1137.62 501.218 Q1136.63 501.218 1126.26 501.515 L1126.26 498.402 M1141.13 470.389 Q1141.13 471.92 1141.32 472.464 Q1141.57 473.007 1142.56 474.638 Q1146.56 480.764 1153.08 480.764 Q1153.13 480.764 1153.18 480.764 Q1158.96 480.764 1163.36 474.885 Q1167.76 468.956 1167.76 460.063 Q1167.76 451.565 1163.75 445.636 Q1159.75 439.707 1154.22 439.707 Q1150.27 439.707 1146.81 441.832 Q1143.35 443.956 1141.13 447.81 L1141.13 470.389 Z" fill="#000000" fill-rule="nonzero" fill-opacity="1" /><path clip-path="url(#clip600)" d="M1178.68 494.45 Q1178.68 492.325 1179.91 491.189 Q1181.2 490.102 1182.92 490.102 Q1184.75 490.102 1185.94 491.238 Q1187.17 492.424 1187.17 494.351 Q1187.17 498.106 1183.22 498.6 Q1185.15 500.428 1187.96 500.428 Q1190.98 500.428 1193.4 498.205 Q1195.87 495.981 1196.91 493.857 Q1197.99 491.732 1199.53 487.879 Q1200.96 484.865 1202.05 481.9 L1186.88 444.944 Q1185.89 442.523 1184.36 441.98 Q1182.83 441.436 1178.68 441.436 L1178.68 438.274 Q1183.22 438.571 1188.51 438.571 Q1191.62 438.571 1199.53 438.274 L1199.53 441.436 Q1193.84 441.436 1193.84 444.055 Q1193.84 444.351 1194.44 445.883 L1205.7 473.106 L1215.93 448.205 Q1216.52 446.772 1216.52 445.784 Q1216.52 441.634 1211.78 441.436 L1211.78 438.274 Q1218.45 438.571 1220.57 438.571 Q1224.72 438.571 1228.13 438.274 L1228.13 441.436 Q1221.36 441.436 1218.74 447.909 L1200.91 491.09 Q1196.07 502.602 1187.96 502.651 Q1184.11 502.651 1181.39 500.28 Q1178.68 497.908 1178.68 494.45 Z" fill="#000000" fill-rule="nonzero" fill-opacity="1" /></svg>
