<?xml version="1.0" encoding="utf-8"?>
<svg xmlns="http://www.w3.org/2000/svg" xmlns:xlink="http://www.w3.org/1999/xlink" width="900" height="800" viewBox="0 0 3600 3200">
<defs>
  <clipPath id="clip270">
    <rect x="0" y="0" width="3600" height="3200"/>
  </clipPath>
</defs>
<path clip-path="url(#clip270)" d="M0 3200 L3600 3200 L3600 0 L0 0  Z" fill="#ffffff" fill-rule="evenodd" fill-opacity="1"/>
<defs>
  <clipPath id="clip271">
    <rect x="720" y="0" width="2521" height="2521"/>
  </clipPath>
</defs>
<path clip-path="url(#clip270)" d="M263.281 2718.93 L3552.76 2718.93 L3552.76 47.2441 L263.281 47.2441  Z" fill="#ffffff" fill-rule="evenodd" fill-opacity="1"/>
<defs>
  <clipPath id="clip272">
    <rect x="263" y="47" width="3290" height="2673"/>
  </clipPath>
</defs>
<polyline clip-path="url(#clip272)" style="stroke:#000000; stroke-linecap:round; stroke-linejoin:round; stroke-width:2; stroke-opacity:0.1; fill:none" points="615.726,2718.93 615.726,47.2441 "/>
<polyline clip-path="url(#clip272)" style="stroke:#000000; stroke-linecap:round; stroke-linejoin:round; stroke-width:2; stroke-opacity:0.1; fill:none" points="1477.25,2718.93 1477.25,47.2441 "/>
<polyline clip-path="url(#clip272)" style="stroke:#000000; stroke-linecap:round; stroke-linejoin:round; stroke-width:2; stroke-opacity:0.1; fill:none" points="2338.78,2718.93 2338.78,47.2441 "/>
<polyline clip-path="url(#clip272)" style="stroke:#000000; stroke-linecap:round; stroke-linejoin:round; stroke-width:2; stroke-opacity:0.1; fill:none" points="3200.31,2718.93 3200.31,47.2441 "/>
<polyline clip-path="url(#clip272)" style="stroke:#000000; stroke-linecap:round; stroke-linejoin:round; stroke-width:2; stroke-opacity:0.1; fill:none" points="263.281,2718.93 3552.76,2718.93 "/>
<polyline clip-path="url(#clip272)" style="stroke:#000000; stroke-linecap:round; stroke-linejoin:round; stroke-width:2; stroke-opacity:0.1; fill:none" points="263.281,2152.47 3552.76,2152.47 "/>
<polyline clip-path="url(#clip272)" style="stroke:#000000; stroke-linecap:round; stroke-linejoin:round; stroke-width:2; stroke-opacity:0.1; fill:none" points="263.281,1586.01 3552.76,1586.01 "/>
<polyline clip-path="url(#clip272)" style="stroke:#000000; stroke-linecap:round; stroke-linejoin:round; stroke-width:2; stroke-opacity:0.1; fill:none" points="263.281,1019.54 3552.76,1019.54 "/>
<polyline clip-path="url(#clip272)" style="stroke:#000000; stroke-linecap:round; stroke-linejoin:round; stroke-width:2; stroke-opacity:0.1; fill:none" points="263.281,453.079 3552.76,453.079 "/>
<polyline clip-path="url(#clip270)" style="stroke:#000000; stroke-linecap:round; stroke-linejoin:round; stroke-width:4; stroke-opacity:1; fill:none" points="263.281,2718.93 3552.76,2718.93 "/>
<polyline clip-path="url(#clip270)" style="stroke:#000000; stroke-linecap:round; stroke-linejoin:round; stroke-width:4; stroke-opacity:1; fill:none" points="615.726,2718.93 615.726,2700.03 "/>
<polyline clip-path="url(#clip270)" style="stroke:#000000; stroke-linecap:round; stroke-linejoin:round; stroke-width:4; stroke-opacity:1; fill:none" points="1477.25,2718.93 1477.25,2700.03 "/>
<polyline clip-path="url(#clip270)" style="stroke:#000000; stroke-linecap:round; stroke-linejoin:round; stroke-width:4; stroke-opacity:1; fill:none" points="2338.78,2718.93 2338.78,2700.03 "/>
<polyline clip-path="url(#clip270)" style="stroke:#000000; stroke-linecap:round; stroke-linejoin:round; stroke-width:4; stroke-opacity:1; fill:none" points="3200.31,2718.93 3200.31,2700.03 "/>
<path clip-path="url(#clip270)" d="M554.594 2807.7 L554.594 2804.53 Q566.748 2804.53 573.023 2798.06 Q574.752 2798.06 575.049 2798.46 Q575.345 2798.85 575.345 2800.68 L575.345 2857.45 Q575.345 2860.46 576.827 2861.4 Q578.309 2862.34 584.782 2862.34 L587.993 2862.34 L587.993 2865.45 Q584.436 2865.16 571.59 2865.16 Q558.744 2865.16 555.236 2865.45 L555.236 2862.34 L558.448 2862.34 Q564.821 2862.34 566.353 2861.45 Q567.885 2860.51 567.885 2857.45 L567.885 2805.03 Q562.598 2807.7 554.594 2807.7 Z" fill="#000000" fill-rule="nonzero" fill-opacity="1" /><path clip-path="url(#clip270)" d="M600.147 2833.09 Q600.147 2818.22 603.902 2810.12 Q609.139 2798.06 621.491 2798.06 Q624.109 2798.06 626.827 2798.8 Q629.594 2799.49 633.052 2802.21 Q636.56 2804.93 638.684 2809.38 Q642.736 2817.97 642.736 2833.09 Q642.736 2847.86 638.981 2855.92 Q633.497 2867.68 621.392 2867.68 Q616.847 2867.68 612.202 2865.35 Q607.608 2863.03 604.693 2857.45 Q600.147 2849.1 600.147 2833.09 M608.546 2831.86 Q608.546 2847.12 609.633 2853.2 Q610.868 2859.77 614.228 2862.64 Q617.637 2865.45 621.392 2865.45 Q625.443 2865.45 628.803 2862.44 Q632.212 2859.38 633.25 2852.8 Q634.386 2846.33 634.337 2831.86 Q634.337 2817.77 633.349 2812.14 Q632.015 2805.57 628.457 2802.95 Q624.949 2800.28 621.392 2800.28 Q620.058 2800.28 618.625 2800.68 Q617.242 2801.08 615.216 2802.21 Q613.191 2803.35 611.61 2806.16 Q610.078 2808.98 609.337 2813.23 Q608.546 2818.71 608.546 2831.86 Z" fill="#000000" fill-rule="nonzero" fill-opacity="1" /><path clip-path="url(#clip270)" d="M642.736 2799.55 Q642.736 2797.1 644.141 2795.94 Q645.546 2794.78 647.352 2794.78 Q649.239 2794.78 650.564 2796.02 Q651.929 2797.22 651.929 2799.35 Q651.929 2801.64 650.323 2802.92 Q648.757 2804.21 646.509 2803.89 Q648.476 2807.18 652.089 2808.66 Q655.742 2810.15 659.114 2810.15 Q662.647 2810.15 665.497 2807.1 Q668.387 2804.05 668.387 2796.58 Q668.387 2790.24 665.898 2786.59 Q663.45 2782.93 658.592 2782.93 L654.979 2782.93 Q653.735 2782.93 653.374 2782.81 Q653.012 2782.69 653.012 2782.01 Q653.012 2781.21 654.257 2781.05 Q655.501 2781.05 657.468 2780.81 Q662.245 2780.64 664.774 2776.51 Q667.062 2772.66 667.062 2767.16 Q667.062 2762.14 664.654 2760.05 Q662.285 2757.92 659.194 2757.92 Q656.304 2757.92 653.133 2759.13 Q649.962 2760.33 648.235 2763.02 Q653.334 2763.02 653.334 2767.16 Q653.334 2768.96 652.169 2770.17 Q651.045 2771.33 649.159 2771.33 Q647.352 2771.33 646.148 2770.21 Q644.944 2769.04 644.944 2767.08 Q644.944 2762.38 649.119 2759.13 Q653.334 2755.88 659.516 2755.88 Q665.617 2755.88 670.113 2759.09 Q674.649 2762.3 674.649 2767.24 Q674.649 2772.09 671.438 2776.07 Q668.227 2780.04 663.128 2781.69 Q669.391 2782.93 673.124 2787.19 Q676.857 2791.4 676.857 2796.58 Q676.857 2803 671.799 2807.74 Q666.741 2812.44 659.355 2812.44 Q652.531 2812.44 647.633 2808.74 Q642.736 2805.05 642.736 2799.55 Z" fill="#000000" fill-rule="nonzero" fill-opacity="1" /><path clip-path="url(#clip270)" d="M1414.96 2807.7 L1414.96 2804.53 Q1427.11 2804.53 1433.39 2798.06 Q1435.12 2798.06 1435.41 2798.46 Q1435.71 2798.85 1435.71 2800.68 L1435.71 2857.45 Q1435.71 2860.46 1437.19 2861.4 Q1438.67 2862.34 1445.15 2862.34 L1448.36 2862.34 L1448.36 2865.45 Q1444.8 2865.16 1431.95 2865.16 Q1419.11 2865.16 1415.6 2865.45 L1415.6 2862.34 L1418.81 2862.34 Q1425.19 2862.34 1426.72 2861.45 Q1428.25 2860.51 1428.25 2857.45 L1428.25 2805.03 Q1422.96 2807.7 1414.96 2807.7 Z" fill="#000000" fill-rule="nonzero" fill-opacity="1" /><path clip-path="url(#clip270)" d="M1460.51 2833.09 Q1460.51 2818.22 1464.27 2810.12 Q1469.5 2798.06 1481.86 2798.06 Q1484.47 2798.06 1487.19 2798.8 Q1489.96 2799.49 1493.42 2802.21 Q1496.92 2804.93 1499.05 2809.38 Q1503.1 2817.97 1503.1 2833.09 Q1503.1 2847.86 1499.35 2855.92 Q1493.86 2867.68 1481.76 2867.68 Q1477.21 2867.68 1472.57 2865.35 Q1467.97 2863.03 1465.06 2857.45 Q1460.51 2849.1 1460.51 2833.09 M1468.91 2831.86 Q1468.91 2847.12 1470 2853.2 Q1471.23 2859.77 1474.59 2862.64 Q1478 2865.45 1481.76 2865.45 Q1485.81 2865.45 1489.17 2862.44 Q1492.58 2859.38 1493.61 2852.8 Q1494.75 2846.33 1494.7 2831.86 Q1494.7 2817.77 1493.71 2812.14 Q1492.38 2805.57 1488.82 2802.95 Q1485.31 2800.28 1481.76 2800.28 Q1480.42 2800.28 1478.99 2800.68 Q1477.61 2801.08 1475.58 2802.21 Q1473.56 2803.35 1471.97 2806.16 Q1470.44 2808.98 1469.7 2813.23 Q1468.91 2818.71 1468.91 2831.86 Z" fill="#000000" fill-rule="nonzero" fill-opacity="1" /><path clip-path="url(#clip270)" d="M1503.1 2797.06 L1503.1 2794.53 L1528.35 2755.96 Q1528.99 2754.95 1530 2754.99 Q1530.92 2754.99 1531.12 2755.35 Q1531.32 2755.72 1531.32 2757.12 L1531.32 2794.53 L1539.55 2794.53 L1539.55 2797.06 L1531.32 2797.06 L1531.32 2804.21 Q1531.32 2806.58 1532.28 2807.34 Q1533.29 2808.1 1537.54 2808.1 L1539.27 2808.1 L1539.27 2810.63 Q1535.9 2810.39 1528.11 2810.39 Q1520.36 2810.39 1516.99 2810.63 L1516.99 2808.1 L1518.72 2808.1 Q1522.97 2808.1 1523.97 2807.38 Q1524.98 2806.62 1524.98 2804.21 L1524.98 2797.06 L1503.1 2797.06 M1505.43 2794.53 L1525.46 2794.53 L1525.46 2763.87 L1505.43 2794.53 Z" fill="#000000" fill-rule="nonzero" fill-opacity="1" /><path clip-path="url(#clip270)" d="M2278.29 2807.7 L2278.29 2804.53 Q2290.45 2804.53 2296.72 2798.06 Q2298.45 2798.06 2298.75 2798.46 Q2299.04 2798.85 2299.04 2800.68 L2299.04 2857.45 Q2299.04 2860.46 2300.53 2861.4 Q2302.01 2862.34 2308.48 2862.34 L2311.69 2862.34 L2311.69 2865.45 Q2308.14 2865.16 2295.29 2865.16 Q2282.44 2865.16 2278.94 2865.45 L2278.94 2862.34 L2282.15 2862.34 Q2288.52 2862.34 2290.05 2861.45 Q2291.58 2860.51 2291.58 2857.45 L2291.58 2805.03 Q2286.3 2807.7 2278.29 2807.7 Z" fill="#000000" fill-rule="nonzero" fill-opacity="1" /><path clip-path="url(#clip270)" d="M2323.85 2833.09 Q2323.85 2818.22 2327.6 2810.12 Q2332.84 2798.06 2345.19 2798.06 Q2347.81 2798.06 2350.53 2798.8 Q2353.29 2799.49 2356.75 2802.21 Q2360.26 2804.93 2362.38 2809.38 Q2366.44 2817.97 2366.44 2833.09 Q2366.44 2847.86 2362.68 2855.92 Q2357.2 2867.68 2345.09 2867.68 Q2340.55 2867.68 2335.9 2865.35 Q2331.31 2863.03 2328.39 2857.45 Q2323.85 2849.1 2323.85 2833.09 M2332.25 2831.86 Q2332.25 2847.12 2333.33 2853.2 Q2334.57 2859.77 2337.93 2862.64 Q2341.34 2865.45 2345.09 2865.45 Q2349.14 2865.45 2352.5 2862.44 Q2355.91 2859.38 2356.95 2852.8 Q2358.09 2846.33 2358.04 2831.86 Q2358.04 2817.77 2357.05 2812.14 Q2355.71 2805.57 2352.16 2802.95 Q2348.65 2800.28 2345.09 2800.28 Q2343.76 2800.28 2342.32 2800.68 Q2340.94 2801.08 2338.92 2802.21 Q2336.89 2803.35 2335.31 2806.16 Q2333.78 2808.98 2333.04 2813.23 Q2332.25 2818.71 2332.25 2831.86 Z" fill="#000000" fill-rule="nonzero" fill-opacity="1" /><path clip-path="url(#clip270)" d="M2366.44 2797.38 Q2366.44 2794.94 2367.76 2794.01 Q2369.08 2793.05 2370.49 2793.05 Q2372.38 2793.05 2373.46 2794.25 Q2374.58 2795.42 2374.58 2797.06 Q2374.58 2798.71 2373.46 2799.91 Q2372.38 2801.08 2370.49 2801.08 Q2369.57 2801.08 2369.08 2800.92 Q2370.17 2804.69 2373.46 2807.42 Q2376.79 2810.15 2381.17 2810.15 Q2386.67 2810.15 2389.96 2804.81 Q2391.93 2801.36 2391.93 2793.53 Q2391.93 2786.63 2390.44 2783.17 Q2388.15 2777.92 2383.46 2777.92 Q2376.79 2777.92 2372.86 2783.66 Q2372.38 2784.38 2371.81 2784.42 Q2371.01 2784.42 2370.81 2783.98 Q2370.65 2783.49 2370.65 2782.25 L2370.65 2757.92 Q2370.65 2755.96 2371.45 2755.96 Q2371.77 2755.96 2372.46 2756.2 Q2377.64 2758.49 2383.38 2758.53 Q2389.28 2758.53 2394.58 2756.12 Q2394.98 2755.88 2395.22 2755.88 Q2396.02 2755.88 2396.06 2756.8 Q2396.06 2757.12 2395.38 2758.08 Q2394.74 2759.01 2393.33 2760.25 Q2391.93 2761.46 2390.12 2762.62 Q2388.31 2763.78 2385.66 2764.59 Q2383.05 2765.35 2380.16 2765.35 Q2376.71 2765.35 2373.18 2764.27 L2373.18 2780.28 Q2377.43 2776.11 2383.62 2776.11 Q2390.2 2776.11 2394.74 2781.41 Q2399.27 2786.71 2399.27 2794.09 Q2399.27 2801.84 2393.89 2807.14 Q2388.55 2812.44 2381.33 2812.44 Q2374.74 2812.44 2370.57 2807.74 Q2366.44 2803.04 2366.44 2797.38 Z" fill="#000000" fill-rule="nonzero" fill-opacity="1" /><path clip-path="url(#clip270)" d="M3139.18 2807.7 L3139.18 2804.53 Q3151.33 2804.53 3157.61 2798.06 Q3159.34 2798.06 3159.63 2798.46 Q3159.93 2798.85 3159.93 2800.68 L3159.93 2857.45 Q3159.93 2860.46 3161.41 2861.4 Q3162.9 2862.34 3169.37 2862.34 L3172.58 2862.34 L3172.58 2865.45 Q3169.02 2865.16 3156.18 2865.16 Q3143.33 2865.16 3139.82 2865.45 L3139.82 2862.34 L3143.03 2862.34 Q3149.41 2862.34 3150.94 2861.45 Q3152.47 2860.51 3152.47 2857.45 L3152.47 2805.03 Q3147.18 2807.7 3139.18 2807.7 Z" fill="#000000" fill-rule="nonzero" fill-opacity="1" /><path clip-path="url(#clip270)" d="M3184.73 2833.09 Q3184.73 2818.22 3188.49 2810.12 Q3193.73 2798.06 3206.08 2798.06 Q3208.7 2798.06 3211.41 2798.8 Q3214.18 2799.49 3217.64 2802.21 Q3221.15 2804.93 3223.27 2809.38 Q3227.32 2817.97 3227.32 2833.09 Q3227.32 2847.86 3223.57 2855.92 Q3218.08 2867.68 3205.98 2867.68 Q3201.43 2867.68 3196.79 2865.35 Q3192.19 2863.03 3189.28 2857.45 Q3184.73 2849.1 3184.73 2833.09 M3193.13 2831.86 Q3193.13 2847.12 3194.22 2853.2 Q3195.45 2859.77 3198.81 2862.64 Q3202.22 2865.45 3205.98 2865.45 Q3210.03 2865.45 3213.39 2862.44 Q3216.8 2859.38 3217.84 2852.8 Q3218.97 2846.33 3218.92 2831.86 Q3218.92 2817.77 3217.93 2812.14 Q3216.6 2805.57 3213.04 2802.95 Q3209.54 2800.28 3205.98 2800.28 Q3204.64 2800.28 3203.21 2800.68 Q3201.83 2801.08 3199.8 2802.21 Q3197.78 2803.35 3196.2 2806.16 Q3194.66 2808.98 3193.92 2813.23 Q3193.13 2818.71 3193.13 2831.86 Z" fill="#000000" fill-rule="nonzero" fill-opacity="1" /><path clip-path="url(#clip270)" d="M3227.32 2784.66 Q3227.32 2771.73 3233.91 2763.82 Q3240.49 2755.88 3248.96 2755.88 Q3253.9 2755.88 3256.63 2758.41 Q3259.4 2760.89 3259.4 2764.75 Q3259.4 2766.88 3258.15 2767.8 Q3256.91 2768.72 3255.62 2768.72 Q3254.14 2768.72 3252.97 2767.72 Q3251.81 2766.72 3251.81 2764.91 Q3251.81 2761.22 3256.35 2761.22 Q3254.22 2757.92 3249.12 2757.92 Q3247.55 2757.92 3245.95 2758.41 Q3244.34 2758.85 3242.25 2760.37 Q3240.17 2761.9 3238.56 2764.31 Q3236.96 2766.72 3235.83 2771.25 Q3234.71 2775.79 3234.71 2781.69 L3234.71 2783.66 Q3238.08 2775.51 3244.98 2775.55 Q3251.89 2775.55 3256.67 2780.81 Q3261.44 2786.06 3261.44 2793.85 Q3261.44 2801.84 3256.47 2807.14 Q3251.49 2812.44 3244.5 2812.44 Q3241.37 2812.44 3238.52 2811.11 Q3235.71 2809.83 3233.06 2806.86 Q3230.45 2803.89 3228.89 2798.19 Q3227.32 2792.49 3227.32 2784.66 M3234.87 2792.05 Q3234.87 2800.11 3236.35 2803.97 Q3236.59 2804.61 3237.12 2805.49 Q3237.68 2806.38 3238.6 2807.54 Q3239.57 2808.66 3241.13 2809.43 Q3242.7 2810.15 3244.5 2810.15 Q3250 2810.15 3252.65 2804.81 Q3254.06 2801.84 3254.06 2793.77 Q3254.06 2785.54 3252.57 2782.53 Q3250.04 2777.43 3244.9 2777.43 Q3241.45 2777.43 3239.04 2779.8 Q3236.67 2782.17 3235.75 2785.34 Q3234.87 2788.51 3234.87 2792.05 Z" fill="#000000" fill-rule="nonzero" fill-opacity="1" /><path clip-path="url(#clip270)" d="M1955.97 2924.12 Q1955.97 2926.28 1954.12 2926.28 Q1948.17 2926.49 1945.74 2928.49 Q1943.37 2930.44 1942.48 2934.24 L1927.41 2994.37 Q1926.88 2996.26 1926.56 2996.48 Q1926.25 2996.63 1925.67 2996.63 Q1924.93 2996.63 1924.51 2996.26 Q1924.14 2995.9 1923.61 2994.58 L1896.73 2931.02 Q1896.52 2930.6 1896.26 2930.02 Q1896 2929.44 1895.78 2929.07 L1881.5 2986.04 Q1881.08 2987.67 1881.08 2988.52 Q1881.08 2990.57 1882.5 2991.89 Q1883.98 2993.16 1888.2 2993.31 Q1890.36 2993.31 1890.36 2994.47 Q1890.36 2996.63 1888.41 2996.63 Q1886.61 2996.63 1882.87 2996.48 Q1879.13 2996.32 1877.29 2996.32 Q1875.5 2996.32 1871.86 2996.48 Q1868.22 2996.63 1866.48 2996.63 Q1865.11 2996.63 1865.11 2995.42 Q1865.11 2994.47 1865.48 2994 Q1865.85 2993.47 1866.17 2993.42 Q1866.48 2993.31 1866.96 2993.31 Q1870.12 2993.21 1872.28 2992.58 Q1874.44 2991.94 1875.65 2990.73 Q1876.92 2989.52 1877.5 2988.31 Q1878.13 2987.04 1878.6 2985.2 L1893.04 2927.23 Q1893.04 2926.28 1885.72 2926.28 Q1884.45 2926.28 1883.93 2926.23 Q1883.45 2926.17 1883.08 2925.91 Q1882.72 2925.65 1882.72 2925.07 Q1882.72 2923.59 1883.35 2923.27 Q1883.98 2922.91 1885.82 2922.91 L1900.32 2922.91 Q1902.16 2922.91 1902.64 2923.22 Q1903.11 2923.49 1903.74 2924.96 L1927.62 2981.3 L1939.68 2933.29 Q1940 2932.34 1940 2931.02 Q1940 2928.91 1938.42 2927.65 Q1936.89 2926.33 1932.68 2926.28 Q1930.73 2926.28 1930.73 2925.07 Q1930.73 2924.06 1931.09 2923.59 Q1931.52 2923.06 1931.83 2923.01 Q1932.2 2922.91 1932.68 2922.91 Q1934.47 2922.91 1938.16 2923.06 Q1941.85 2923.22 1943.69 2923.22 Q1945.48 2923.22 1949.12 2923.06 Q1952.81 2922.91 1954.6 2922.91 Q1955.23 2922.91 1955.55 2923.22 Q1955.92 2923.49 1955.97 2923.8 L1955.97 2924.12 Z" fill="#000000" fill-rule="nonzero" fill-opacity="1" /><polyline clip-path="url(#clip270)" style="stroke:#000000; stroke-linecap:round; stroke-linejoin:round; stroke-width:4; stroke-opacity:1; fill:none" points="263.281,2718.93 263.281,47.2441 "/>
<polyline clip-path="url(#clip270)" style="stroke:#000000; stroke-linecap:round; stroke-linejoin:round; stroke-width:4; stroke-opacity:1; fill:none" points="263.281,2718.93 282.179,2718.93 "/>
<polyline clip-path="url(#clip270)" style="stroke:#000000; stroke-linecap:round; stroke-linejoin:round; stroke-width:4; stroke-opacity:1; fill:none" points="263.281,2152.47 282.179,2152.47 "/>
<polyline clip-path="url(#clip270)" style="stroke:#000000; stroke-linecap:round; stroke-linejoin:round; stroke-width:4; stroke-opacity:1; fill:none" points="263.281,1586.01 282.179,1586.01 "/>
<polyline clip-path="url(#clip270)" style="stroke:#000000; stroke-linecap:round; stroke-linejoin:round; stroke-width:4; stroke-opacity:1; fill:none" points="263.281,1019.54 282.179,1019.54 "/>
<polyline clip-path="url(#clip270)" style="stroke:#000000; stroke-linecap:round; stroke-linejoin:round; stroke-width:4; stroke-opacity:1; fill:none" points="263.281,453.079 282.179,453.079 "/>
<path clip-path="url(#clip270)" d="M166.693 2721.13 Q166.693 2706.26 170.448 2698.16 Q175.685 2686.1 188.037 2686.1 Q190.655 2686.1 193.372 2686.84 Q196.139 2687.53 199.598 2690.25 Q203.106 2692.97 205.23 2697.42 Q209.281 2706.01 209.281 2721.13 Q209.281 2735.9 205.527 2743.96 Q200.042 2755.72 187.938 2755.72 Q183.392 2755.72 178.748 2753.39 Q174.153 2751.07 171.238 2745.49 Q166.693 2737.14 166.693 2721.13 M175.092 2719.9 Q175.092 2735.16 176.179 2741.24 Q177.414 2747.81 180.774 2750.68 Q184.183 2753.49 187.938 2753.49 Q191.989 2753.49 195.349 2750.48 Q198.758 2747.42 199.795 2740.84 Q200.932 2734.37 200.882 2719.9 Q200.882 2705.81 199.894 2700.18 Q198.56 2693.61 195.003 2690.99 Q191.495 2688.32 187.938 2688.32 Q186.604 2688.32 185.171 2688.72 Q183.788 2689.12 181.762 2690.25 Q179.736 2691.39 178.155 2694.2 Q176.624 2697.02 175.883 2701.27 Q175.092 2706.75 175.092 2719.9 Z" fill="#000000" fill-rule="nonzero" fill-opacity="1" /><path clip-path="url(#clip270)" d="M168.867 2187.03 Q168.867 2185.2 169.015 2184.66 Q169.213 2184.11 170.003 2183.27 L189.42 2161.63 Q200.042 2149.68 200.042 2139.25 Q200.042 2132.48 196.485 2127.64 Q192.977 2122.8 186.505 2122.8 Q182.058 2122.8 178.303 2125.52 Q174.549 2128.24 172.819 2133.08 Q173.116 2132.98 174.153 2132.98 Q176.673 2132.98 178.056 2134.56 Q179.489 2136.14 179.489 2138.26 Q179.489 2140.98 177.711 2142.32 Q175.981 2143.6 174.252 2143.6 Q173.56 2143.6 172.622 2143.45 Q171.732 2143.3 170.3 2141.92 Q168.867 2140.49 168.867 2137.97 Q168.867 2130.9 174.203 2125.27 Q179.588 2119.64 187.79 2119.64 Q197.078 2119.64 203.155 2125.17 Q209.281 2130.66 209.281 2139.25 Q209.281 2142.27 208.343 2145.03 Q207.453 2147.75 206.218 2149.88 Q205.032 2152 201.772 2155.41 Q198.511 2158.82 195.892 2161.24 Q193.274 2163.66 187.394 2168.8 L176.673 2179.22 L194.904 2179.22 Q203.797 2179.22 204.489 2178.43 Q205.477 2177 206.712 2169.44 L209.281 2169.44 L206.416 2187.03 L168.867 2187.03 Z" fill="#000000" fill-rule="nonzero" fill-opacity="1" /><path clip-path="url(#clip270)" d="M164.42 1603.87 L164.42 1600.75 L195.497 1553.27 Q196.287 1552.04 197.523 1552.09 Q198.659 1552.09 198.906 1552.53 Q199.153 1552.98 199.153 1554.71 L199.153 1600.75 L209.281 1600.75 L209.281 1603.87 L199.153 1603.87 L199.153 1612.66 Q199.153 1615.58 200.339 1616.51 Q201.574 1617.45 206.811 1617.45 L208.936 1617.45 L208.936 1620.57 Q204.785 1620.27 195.201 1620.27 Q185.665 1620.27 181.515 1620.57 L181.515 1617.45 L183.639 1617.45 Q188.876 1617.45 190.112 1616.56 Q191.347 1615.63 191.347 1612.66 L191.347 1603.87 L164.42 1603.87 M167.286 1600.75 L191.94 1600.75 L191.94 1563.01 L167.286 1600.75 Z" fill="#000000" fill-rule="nonzero" fill-opacity="1" /><path clip-path="url(#clip270)" d="M167.286 1022.14 Q167.286 1006.23 175.388 996.494 Q183.491 986.712 193.916 986.712 Q199.993 986.712 203.353 989.825 Q206.762 992.888 206.762 997.631 Q206.762 1000.25 205.23 1001.39 Q203.698 1002.52 202.117 1002.52 Q200.289 1002.52 198.857 1001.29 Q197.424 1000.05 197.424 997.828 Q197.424 993.283 203.007 993.283 Q200.388 989.232 194.114 989.232 Q192.187 989.232 190.21 989.825 Q188.234 990.368 185.665 992.245 Q183.096 994.123 181.12 997.087 Q179.143 1000.05 177.76 1005.63 Q176.377 1011.22 176.377 1018.48 L176.377 1020.9 Q180.527 1010.87 189.025 1010.92 Q197.523 1010.92 203.402 1017.39 Q209.281 1023.87 209.281 1033.45 Q209.281 1043.28 203.155 1049.8 Q197.029 1056.33 188.432 1056.33 Q184.578 1056.33 181.07 1054.7 Q177.612 1053.11 174.351 1049.46 Q171.139 1045.8 169.213 1038.79 Q167.286 1031.77 167.286 1022.14 M176.574 1031.23 Q176.574 1041.16 178.402 1045.9 Q178.699 1046.69 179.341 1047.78 Q180.033 1048.87 181.169 1050.3 Q182.355 1051.68 184.282 1052.62 Q186.209 1053.51 188.432 1053.51 Q195.201 1053.51 198.461 1046.94 Q200.191 1043.28 200.191 1033.35 Q200.191 1023.22 198.363 1019.52 Q195.25 1013.24 188.926 1013.24 Q184.677 1013.24 181.713 1016.16 Q178.798 1019.07 177.661 1022.98 Q176.574 1026.88 176.574 1031.23 Z" fill="#000000" fill-rule="nonzero" fill-opacity="1" /><path clip-path="url(#clip270)" d="M167.286 472.373 Q167.286 461.059 181.861 453.746 Q175.586 449.497 174.45 448.262 Q170.003 443.322 170.003 437.146 Q170.003 430.081 175.339 425.189 Q180.724 420.249 188.333 420.249 Q195.596 420.249 201.08 424.448 Q206.564 428.648 206.564 435.318 Q206.564 444.705 194.311 451.029 Q202.414 456.069 204.341 458.193 Q209.281 463.677 209.281 470.644 Q209.281 478.746 203.056 484.329 Q196.831 489.863 188.234 489.863 Q179.835 489.863 173.56 484.971 Q167.286 480.08 167.286 472.373 M172.325 472.373 Q172.325 478.647 177.019 482.847 Q181.762 487.047 188.333 487.047 Q194.706 487.047 199.45 483.39 Q204.242 479.734 204.242 474.3 Q204.242 472.175 203.501 470.347 Q202.809 468.519 201.376 467.086 Q199.993 465.604 199.104 464.962 Q198.264 464.27 196.633 463.134 L184.183 455.278 Q172.325 461.849 172.325 472.373 M174.45 433.193 Q174.45 438.035 179.539 441.395 L192.088 449.497 Q202.117 443.618 202.117 435.318 Q202.117 429.932 198.017 426.375 Q193.916 422.768 188.234 422.768 Q182.651 422.768 178.55 425.733 Q174.45 428.648 174.45 433.193 Z" fill="#000000" fill-rule="nonzero" fill-opacity="1" /><path clip-path="url(#clip270)" d="M35.6227 1695.3 L10.0547 1693.13 L10.0547 1623.59 L35.6227 1621.43 L35.6227 1624.26 Q30.5091 1624.71 27.5632 1625.15 Q24.6174 1625.54 21.8382 1626.54 Q19.0035 1627.48 17.6695 1628.71 Q16.28 1629.87 15.2239 1632.15 Q14.1123 1634.43 13.8343 1637.38 Q13.5564 1640.32 13.5564 1644.77 Q13.5564 1650 13.7788 1651.27 Q14.1123 1652.66 15.1127 1653 Q16.0576 1653.33 18.1142 1653.33 L78.0878 1653.33 Q80.3667 1653.33 81.3116 1652.89 Q82.2009 1652.39 82.9235 1649.77 Q83.5905 1647.16 83.5905 1641.38 L83.5905 1636.82 L87.0922 1636.82 Q86.7587 1641.49 86.7587 1658.44 Q86.7587 1675.29 87.0922 1679.95 L83.5905 1679.95 L83.5905 1675.4 Q83.5905 1669.62 82.9235 1667 Q82.2009 1664.34 81.3116 1663.89 Q80.3667 1663.45 78.0878 1663.45 L18.1142 1663.45 Q16.5023 1663.45 15.8353 1663.56 Q15.1683 1663.67 14.6125 1664.17 Q14.0011 1664.67 13.7788 1665.84 Q13.5564 1666.95 13.5564 1671.95 Q13.5564 1676.4 13.8343 1679.4 Q14.1123 1682.34 15.2239 1684.62 Q16.28 1686.9 17.6695 1688.13 Q19.0035 1689.29 21.8382 1690.29 Q24.6174 1691.24 27.5632 1691.63 Q30.5091 1692.02 35.6227 1692.46 L35.6227 1695.3 Z" fill="#000000" fill-rule="nonzero" fill-opacity="1" /><path clip-path="url(#clip270)" d="M87.0922 1613.48 L83.5905 1613.48 Q83.5905 1607.42 82.8679 1606.03 Q82.0897 1604.64 78.4213 1604.64 L47.7953 1604.64 Q43.571 1604.64 42.5705 1606.09 Q41.57 1607.48 41.57 1613.03 L38.0128 1613.03 L36.7899 1597.14 L78.5324 1597.14 Q81.923 1597.14 82.7567 1595.91 Q83.5905 1594.69 83.5905 1589.13 L87.0922 1589.13 Q86.7587 1600.75 86.7587 1600.97 Q86.7587 1602.53 87.0922 1613.48 M16.947 1608.7 Q14.6681 1608.7 12.8339 1606.97 Q10.9441 1605.2 10.9441 1602.69 Q10.9441 1600.19 12.6671 1598.42 Q14.3346 1596.64 17.0026 1596.64 Q19.6149 1596.64 21.338 1598.42 Q23.0055 1600.19 23.0055 1602.69 Q23.0055 1605.31 21.1712 1607.03 Q19.337 1608.7 16.947 1608.7 Z" fill="#000000" fill-rule="nonzero" fill-opacity="1" /><path clip-path="url(#clip270)" d="M87.0922 1582.07 L83.5905 1582.07 Q83.5905 1576.02 82.8679 1574.63 Q82.0897 1573.24 78.4213 1573.24 L47.9065 1573.24 Q43.6822 1573.24 42.6261 1574.74 Q41.57 1576.18 41.57 1582.07 L38.0128 1582.07 L36.7899 1566.07 L48.7402 1566.07 Q36.7899 1560.73 36.7899 1549.22 Q36.7899 1535.88 47.9065 1534.05 Q43.571 1532.11 40.1805 1528.05 Q36.7899 1523.93 36.7899 1517.54 Q36.7899 1508.98 41.0142 1505.59 Q43.8489 1503.09 47.0171 1502.59 Q50.1853 1502.09 58.4116 1502.09 L80.1443 1502.09 Q82.5344 1501.98 83.0902 1500.15 Q83.5905 1498.31 83.5905 1493.2 L87.0922 1493.2 Q86.7587 1504.81 86.7587 1505.93 Q86.7587 1506.82 87.0922 1518.82 L83.5905 1518.82 Q83.5905 1512.76 82.8679 1511.37 Q82.0897 1509.93 78.4213 1509.93 L51.9084 1509.93 Q46.1278 1509.93 42.7373 1511.71 Q39.2912 1513.48 39.2912 1518.38 Q39.2912 1524.27 44.238 1528.99 Q49.1849 1533.72 57.5222 1533.72 L78.4213 1533.72 Q82.0897 1533.72 82.8679 1532.33 Q83.5905 1530.88 83.5905 1524.82 L87.0922 1524.82 Q86.7587 1536.44 86.7587 1537.61 Q86.7587 1538.5 87.0922 1550.45 L83.5905 1550.45 Q83.5905 1544.39 82.8679 1543 Q82.0897 1541.55 78.4213 1541.55 L51.9084 1541.55 Q46.1278 1541.55 42.7373 1543.33 Q39.2912 1545.11 39.2912 1550 Q39.2912 1555.89 44.238 1560.62 Q49.1849 1565.34 57.5222 1565.34 L78.4213 1565.34 Q82.0897 1565.34 82.8679 1563.95 Q83.5905 1562.51 83.5905 1556.51 L87.0922 1556.51 Q86.7587 1568.12 86.7587 1569.23 Q86.7587 1570.12 87.0922 1582.07 Z" fill="#000000" fill-rule="nonzero" fill-opacity="1" /><path clip-path="url(#clip270)" d="M87.0922 1487.19 L83.5905 1487.19 Q83.5905 1481.14 82.8679 1479.75 Q82.0897 1478.36 78.4213 1478.36 L47.7953 1478.36 Q43.571 1478.36 42.5705 1479.8 Q41.57 1481.19 41.57 1486.75 L38.0128 1486.75 L36.7899 1470.85 L78.5324 1470.85 Q81.923 1470.85 82.7567 1469.63 Q83.5905 1468.41 83.5905 1462.85 L87.0922 1462.85 Q86.7587 1474.47 86.7587 1474.69 Q86.7587 1476.24 87.0922 1487.19 M16.947 1482.41 Q14.6681 1482.41 12.8339 1480.69 Q10.9441 1478.91 10.9441 1476.41 Q10.9441 1473.91 12.6671 1472.13 Q14.3346 1470.35 17.0026 1470.35 Q19.6149 1470.35 21.338 1472.13 Q23.0055 1473.91 23.0055 1476.41 Q23.0055 1479.02 21.1712 1480.75 Q19.337 1482.41 16.947 1482.41 Z" fill="#000000" fill-rule="nonzero" fill-opacity="1" /><path clip-path="url(#clip270)" d="M87.0922 1455.79 L83.5905 1455.79 Q83.5905 1449.73 82.8679 1448.34 Q82.0897 1446.95 78.4213 1446.95 L47.9065 1446.95 Q43.6822 1446.95 42.6261 1448.45 Q41.57 1449.9 41.57 1455.79 L38.0128 1455.79 L36.7899 1439.78 L48.7402 1439.78 Q36.7899 1434.45 36.7899 1422.94 Q36.7899 1414.38 41.0142 1410.99 Q43.8489 1408.49 47.0171 1407.99 Q50.1853 1407.43 58.4116 1407.43 L80.1443 1407.43 Q82.5344 1407.32 83.0902 1405.49 Q83.5905 1403.65 83.5905 1398.54 L87.0922 1398.54 Q86.7587 1410.16 86.7587 1411.32 Q86.7587 1412.21 87.0922 1424.16 L83.5905 1424.16 Q83.5905 1418.11 82.8679 1416.72 Q82.0897 1415.27 78.4213 1415.27 L51.9084 1415.27 Q46.1278 1415.27 42.7373 1417.05 Q39.2912 1418.83 39.2912 1423.72 Q39.2912 1429.61 44.238 1434.34 Q49.1849 1439.06 57.5222 1439.06 L78.4213 1439.06 Q82.0897 1439.06 82.8679 1437.67 Q83.5905 1436.23 83.5905 1430.22 L87.0922 1430.22 Q86.7587 1441.84 86.7587 1442.95 Q86.7587 1443.84 87.0922 1455.79 Z" fill="#000000" fill-rule="nonzero" fill-opacity="1" /><path clip-path="url(#clip270)" d="M96.0965 1393.15 Q92.4281 1393.15 89.2599 1390.37 Q86.0917 1387.53 84.7021 1382.64 Q81.5339 1387.65 74.5861 1387.65 Q69.2502 1387.65 65.137 1384.14 Q60.6904 1389.48 53.4091 1389.48 Q46.6836 1389.48 41.7368 1384.14 Q36.7899 1378.81 36.7899 1371.03 Q36.7899 1364.19 40.9031 1358.97 Q35.5671 1353.52 35.5115 1346.9 Q35.5115 1343.96 37.3458 1342.57 Q39.18 1341.12 41.1254 1341.12 Q42.8484 1341.12 43.6822 1342.24 Q44.5159 1343.29 44.5159 1344.4 Q44.5159 1345.79 43.6266 1346.79 Q42.6817 1347.74 41.2365 1347.74 Q38.8465 1347.74 38.1239 1345.9 Q38.0128 1346.24 38.0128 1347.02 Q38.0128 1352.57 42.4594 1357.3 Q46.7948 1352.63 53.5203 1352.63 Q60.2458 1352.63 65.1926 1357.96 Q70.1395 1363.3 70.1395 1371.03 Q70.1395 1377.42 66.5822 1382.31 Q68.8611 1384.26 71.9737 1384.26 Q74.8084 1384.26 77.0317 1382.53 Q79.255 1380.81 79.5885 1378.2 Q79.6997 1377.42 79.6997 1369.69 Q79.6997 1365.14 79.8108 1362.63 Q79.922 1360.13 80.7002 1356.58 Q81.4227 1352.96 82.8679 1350.13 Q86.981 1342.74 95.8742 1342.68 Q102.377 1342.68 106.435 1350.18 Q110.548 1357.63 110.548 1367.97 Q110.548 1378.42 106.379 1385.81 Q102.266 1393.15 96.0965 1393.15 M96.0965 1387.2 Q100.765 1387.2 104.323 1381.7 Q107.936 1376.2 107.936 1367.86 Q107.936 1359.69 104.378 1354.19 Q100.877 1348.63 96.0965 1348.63 Q92.706 1348.63 90.5383 1350.57 Q88.3706 1352.52 87.4812 1356.52 Q86.6475 1360.47 86.4807 1363.25 Q86.314 1366.02 86.314 1371.14 L86.314 1377.86 Q86.5363 1381.75 89.371 1384.48 Q92.2058 1387.2 96.0965 1387.2 M53.5203 1380.98 Q67.5271 1380.98 67.5271 1371.03 Q67.5271 1366.02 62.9693 1362.97 Q59.9123 1361.13 53.4091 1361.13 Q39.4023 1361.13 39.4023 1371.03 Q39.4023 1376.03 43.9601 1379.14 Q47.0171 1380.98 53.5203 1380.98 Z" fill="#000000" fill-rule="nonzero" fill-opacity="1" /><path clip-path="url(#clip270)" d="M87.0922 1298.38 L83.5905 1298.38 Q83.5905 1292.32 82.8679 1290.93 Q82.0897 1289.49 78.4213 1289.49 L47.9065 1289.49 Q43.6822 1289.49 42.6261 1290.99 Q41.57 1292.43 41.57 1298.38 L38.0128 1298.38 L36.7899 1282.54 L49.296 1282.54 Q44.4048 1280.93 40.6251 1277.54 Q36.7899 1274.09 36.7899 1268.53 Q36.7899 1264.86 38.8465 1262.53 Q40.9031 1260.14 43.7378 1260.14 Q46.239 1260.14 47.5174 1261.7 Q48.7402 1263.2 48.7402 1265.03 Q48.7402 1267.09 47.4618 1268.53 Q46.1278 1269.92 43.8489 1269.92 Q42.4594 1269.92 41.4033 1269.31 Q40.2916 1268.64 39.9026 1268.14 Q39.5135 1267.64 39.4023 1267.31 Q39.2912 1267.53 39.2912 1268.53 Q39.2912 1274.81 45.572 1278.43 Q51.7972 1281.98 60.6904 1281.98 L78.1989 1281.98 Q81.4783 1281.98 82.5344 1280.65 Q83.5905 1279.26 83.5905 1273.31 L83.5905 1270.92 L87.0922 1270.92 Q86.7587 1275.48 86.7587 1285.37 Q86.7587 1286.76 86.8142 1288.93 Q86.8698 1291.1 86.981 1293.93 Q87.0922 1296.77 87.0922 1298.38 Z" fill="#000000" fill-rule="nonzero" fill-opacity="1" /><path clip-path="url(#clip270)" d="M76.2536 1252.3 Q66.5822 1252.3 61.4686 1240.91 Q58.1892 1234.07 57.3555 1219.95 L53.1868 1219.95 Q46.1278 1219.95 42.4038 1223.68 Q38.6242 1227.35 38.6242 1232.01 Q38.6242 1240.35 43.8489 1244.35 Q43.9601 1240.96 45.6832 1239.74 Q47.3506 1238.52 49.0737 1238.52 Q51.3526 1238.52 52.8533 1239.96 Q54.2984 1241.35 54.2984 1243.74 Q54.2984 1246.02 52.9089 1247.52 Q51.4637 1249.02 48.9625 1249.02 Q43.4043 1249.02 39.7358 1244.02 Q36.0674 1238.96 36.0674 1231.79 Q36.0674 1222.45 42.3482 1216.23 Q44.2936 1214.28 46.7948 1213.34 Q49.296 1212.34 50.9635 1212.23 Q52.5754 1212.12 55.7992 1212.12 L78.5324 1212.12 Q79.1994 1212.12 80.3111 1211.89 Q81.4227 1211.67 82.8679 1210.67 Q84.2574 1209.62 84.2574 1207.89 Q84.2574 1203.78 76.9761 1203.83 L70.5841 1203.83 L70.5841 1200.94 L76.9761 1200.94 Q83.0346 1200.94 85.4247 1204.17 Q87.7591 1207.34 87.7591 1210.28 Q87.7591 1214.06 84.98 1216.45 Q82.2009 1218.84 78.4213 1219.18 Q82.7567 1220.9 85.5914 1224.84 Q88.3706 1228.74 88.3706 1234.07 Q88.3706 1238.18 87.3145 1242.08 Q86.314 1245.91 83.4793 1249.13 Q80.589 1252.3 76.2536 1252.3 M76.1424 1243.52 Q80.3667 1243.52 83.0902 1240.52 Q85.8138 1237.52 85.8138 1233.29 Q85.8138 1228.51 82.1453 1224.23 Q78.4213 1219.95 71.14 1219.95 L59.7455 1219.95 Q60.1902 1232.57 65.2482 1238.07 Q70.2506 1243.52 76.1424 1243.52 Z" fill="#000000" fill-rule="nonzero" fill-opacity="1" /><path clip-path="url(#clip270)" d="M41.57 1198 L39.0688 1198 Q38.8465 1192.77 35.178 1189.33 Q31.454 1185.83 26.8962 1184.66 Q22.3385 1183.44 17.0581 1183.32 L17.0581 1180.49 L38.0128 1180.49 L38.0128 1164.2 L41.57 1164.2 L41.57 1180.49 L73.1965 1180.49 Q85.4803 1180.49 85.4803 1172.82 Q85.4803 1169.54 82.1453 1167.37 Q78.7548 1165.2 72.7519 1165.2 L66.471 1165.2 L66.471 1162.37 L72.9742 1162.37 Q79.1439 1162.37 83.7572 1165.2 Q88.3706 1168.04 88.3706 1173.65 Q88.3706 1175.71 87.8147 1177.77 Q87.3145 1179.77 85.9805 1182.44 Q84.5909 1185.05 81.256 1186.72 Q77.8655 1188.33 72.9742 1188.33 L41.57 1188.33 L41.57 1198 Z" fill="#000000" fill-rule="nonzero" fill-opacity="1" /><path clip-path="url(#clip270)" d="M87.0922 1152.25 L83.5905 1152.25 Q83.5905 1146.2 82.8679 1144.81 Q82.0897 1143.42 78.4213 1143.42 L47.7953 1143.42 Q43.571 1143.42 42.5705 1144.86 Q41.57 1146.25 41.57 1151.81 L38.0128 1151.81 L36.7899 1135.91 L78.5324 1135.91 Q81.923 1135.91 82.7567 1134.69 Q83.5905 1133.47 83.5905 1127.91 L87.0922 1127.91 Q86.7587 1139.53 86.7587 1139.75 Q86.7587 1141.3 87.0922 1152.25 M16.947 1147.47 Q14.6681 1147.47 12.8339 1145.75 Q10.9441 1143.97 10.9441 1141.47 Q10.9441 1138.97 12.6671 1137.19 Q14.3346 1135.41 17.0026 1135.41 Q19.6149 1135.41 21.338 1137.19 Q23.0055 1138.97 23.0055 1141.47 Q23.0055 1144.08 21.1712 1145.81 Q19.337 1147.47 16.947 1147.47 Z" fill="#000000" fill-rule="nonzero" fill-opacity="1" /><path clip-path="url(#clip270)" d="M80.9781 1113.85 Q73.53 1121.35 62.747 1121.35 Q51.9084 1121.35 44.0157 1114.01 Q36.0674 1106.62 36.0674 1096.06 Q36.0674 1085.72 43.9601 1078.33 Q51.7972 1070.88 62.747 1070.88 Q73.4744 1070.88 80.9225 1078.38 Q88.3706 1085.83 88.3706 1096.17 Q88.3706 1106.29 80.9781 1113.85 M61.8021 1111.9 Q72.863 1111.9 77.8655 1109.01 Q85.4803 1104.56 85.4803 1096.06 Q85.4803 1091.84 83.2014 1088.33 Q80.9225 1084.78 77.0873 1082.83 Q72.0849 1080.33 61.8021 1080.33 Q50.8523 1080.33 46.0166 1083.33 Q38.6242 1087.78 38.6242 1096.17 Q38.6242 1099.84 40.5696 1103.45 Q42.4594 1107.01 46.239 1109.18 Q51.2414 1111.9 61.8021 1111.9 Z" fill="#000000" fill-rule="nonzero" fill-opacity="1" /><polyline clip-path="url(#clip272)" style="stroke:#e26f46; stroke-linecap:round; stroke-linejoin:round; stroke-width:4; stroke-opacity:1; fill:none" points="356.38,2478.84 615.726,2517.35 1217.91,2540.75 1477.25,2547.86 2079.44,2560.27 2338.78,2548.16 2940.97,2504.57 3200.31,2463.37 3459.66,2494.58 "/>
<polyline clip-path="url(#clip272)" style="stroke:#3da44d; stroke-linecap:round; stroke-linejoin:round; stroke-width:4; stroke-opacity:1; fill:none" points="356.38,120.611 615.726,451.469 1217.91,744.525 1477.25,792.179 2079.44,814.924 2338.78,862.926 2940.97,841.939 3200.31,278.429 3459.66,682.857 "/>
<polyline clip-path="url(#clip272)" style="stroke:#c271d2; stroke-linecap:round; stroke-linejoin:round; stroke-width:4; stroke-opacity:1; fill:none" points="356.38,47.2441 615.726,1268.83 1217.91,1510.43 1477.25,1619.86 2079.44,1675.82 2338.78,1527.26 2940.97,1622.47 3200.31,1425.5 3459.66,1653.68 "/>
<polyline clip-path="url(#clip272)" style="stroke:#000000; stroke-linecap:round; stroke-linejoin:round; stroke-width:4; stroke-opacity:1; fill:none" points="-3026.19,2435.7 6842.23,2435.7 "/>
<path clip-path="url(#clip270)" d="M372.931 551.02 L2109.13 551.02 L2109.13 136.3 L372.931 136.3  Z" fill="#ffffff" fill-rule="evenodd" fill-opacity="1"/>
<polyline clip-path="url(#clip270)" style="stroke:#000000; stroke-linecap:round; stroke-linejoin:round; stroke-width:4; stroke-opacity:1; fill:none" points="372.931,551.02 2109.13,551.02 2109.13,136.3 372.931,136.3 372.931,551.02 "/>
<polyline clip-path="url(#clip270)" style="stroke:#e26f46; stroke-linecap:round; stroke-linejoin:round; stroke-width:8; stroke-opacity:1; fill:none" points="409.48,239.98 628.779,239.98 "/>
<path clip-path="url(#clip270)" d="M675.704 266.042 Q665.328 255.321 665.328 239.956 Q665.328 224.541 675.803 213.869 Q686.277 203.197 700.506 203.197 Q704.063 203.197 707.077 204.037 Q710.14 204.827 712.561 206.458 Q714.982 208.039 716.217 209.126 Q717.502 210.163 719.231 211.893 L724.32 204.432 Q725.11 203.197 725.901 203.197 Q726.741 203.197 726.889 203.691 Q727.037 204.136 727.037 205.618 L727.037 229.63 Q727.037 231.26 726.84 231.655 Q726.642 232.051 725.407 232.051 Q724.419 232.051 724.221 231.754 Q724.024 231.458 723.776 230.321 Q722.245 219.402 716.118 212.881 Q710.041 206.359 701.741 206.359 Q699.32 206.359 696.603 206.903 Q693.935 207.446 689.982 209.521 Q686.079 211.596 683.065 215.005 Q680.101 218.365 677.927 224.887 Q675.753 231.359 675.753 239.956 Q675.753 248.454 677.927 254.975 Q680.101 261.497 683.115 264.906 Q686.178 268.266 690.131 270.39 Q694.132 272.515 696.949 273.108 Q699.814 273.651 702.334 273.651 Q704.063 273.651 706.089 273.305 Q708.115 272.91 711.128 271.823 Q714.192 270.687 716.118 268.019 Q718.045 265.351 718.045 261.398 L718.045 254.926 Q718.045 251.912 716.563 250.973 Q715.081 250.035 708.609 250.035 L705.397 250.035 L705.397 246.922 Q709.053 247.218 721.652 247.218 Q722.788 247.218 734.004 246.922 L734.004 250.035 Q729.162 250.035 728.075 250.776 Q727.037 251.467 727.037 254.481 L727.037 272.119 Q727.037 274.442 726.148 274.442 Q725.357 274.442 722.986 272.169 Q720.664 269.896 719.626 268.167 Q717.205 272.416 711.919 274.59 Q706.682 276.764 700.704 276.764 Q686.129 276.764 675.704 266.042 Z" fill="#000000" fill-rule="nonzero" fill-opacity="1" /><path clip-path="url(#clip270)" d="M743.193 264.906 Q743.193 256.309 753.322 251.764 Q759.399 248.849 771.948 248.108 L771.948 244.402 Q771.948 238.128 768.638 234.817 Q765.377 231.458 761.227 231.458 Q753.816 231.458 750.258 236.102 Q753.272 236.201 754.359 237.732 Q755.446 239.215 755.446 240.746 Q755.446 242.772 754.162 244.106 Q752.926 245.39 750.802 245.39 Q748.776 245.39 747.442 244.155 Q746.108 242.871 746.108 240.647 Q746.108 235.707 750.555 232.446 Q755.051 229.185 761.424 229.185 Q769.725 229.185 775.258 234.768 Q776.988 236.497 777.827 238.72 Q778.717 240.944 778.816 242.426 Q778.914 243.859 778.914 246.724 L778.914 266.932 Q778.914 267.525 779.112 268.513 Q779.31 269.501 780.199 270.785 Q781.138 272.021 782.669 272.021 Q786.325 272.021 786.276 265.548 L786.276 259.867 L788.845 259.867 L788.845 265.548 Q788.845 270.934 785.98 273.058 Q783.163 275.133 780.545 275.133 Q777.185 275.133 775.061 272.663 Q772.936 270.193 772.64 266.833 Q771.108 270.687 767.6 273.206 Q764.142 275.677 759.399 275.677 Q755.743 275.677 752.284 274.738 Q748.875 273.849 746.01 271.329 Q743.193 268.76 743.193 264.906 M751 264.807 Q751 268.562 753.668 270.983 Q756.336 273.404 760.09 273.404 Q764.339 273.404 768.144 270.143 Q771.948 266.833 771.948 260.361 L771.948 250.232 Q760.733 250.628 755.841 255.124 Q751 259.57 751 264.807 Z" fill="#000000" fill-rule="nonzero" fill-opacity="1" /><path clip-path="url(#clip270)" d="M792.798 234.076 L792.798 230.914 L807.669 229.827 L807.669 263.424 Q807.669 265.845 807.867 267.278 Q808.064 268.661 808.855 270.291 Q809.695 271.922 811.572 272.663 Q813.499 273.404 816.562 273.404 Q822.046 273.404 825.406 268.908 Q828.815 264.412 828.815 257.742 L828.815 239.709 Q828.815 235.954 827.481 235.015 Q826.147 234.076 820.91 234.076 L820.91 230.914 L835.782 229.827 L835.782 265.746 Q835.782 269.501 837.066 270.489 Q838.4 271.428 843.687 271.428 L843.687 274.54 L829.112 275.677 L829.112 266.536 Q824.863 275.627 816.068 275.677 Q811.622 275.677 808.558 274.54 Q805.545 273.404 804.013 272.021 Q802.481 270.588 801.641 267.87 Q800.851 265.153 800.752 263.473 Q800.653 261.793 800.653 258.533 L800.653 243.365 Q800.653 236.497 799.665 235.311 Q798.677 234.076 792.798 234.076 Z" fill="#000000" fill-rule="nonzero" fill-opacity="1" /><path clip-path="url(#clip270)" d="M849.023 273.206 L849.023 259.867 Q849.023 258.73 849.072 258.335 Q849.121 257.94 849.418 257.643 Q849.714 257.347 850.307 257.347 Q850.999 257.347 851.246 257.643 Q851.542 257.94 851.74 259.076 Q853.271 266.042 856.532 269.748 Q859.843 273.404 865.821 273.404 Q871.503 273.404 874.368 270.884 Q877.234 268.365 877.234 264.214 Q877.234 256.803 866.71 254.926 Q860.633 253.691 858.113 252.9 Q855.594 252.06 853.37 250.232 Q849.023 246.675 849.023 241.635 Q849.023 236.596 852.827 232.891 Q856.681 229.185 865.179 229.185 Q870.86 229.185 874.714 232.051 Q875.85 231.161 876.443 230.42 Q877.777 229.185 878.469 229.185 Q879.259 229.185 879.408 229.728 Q879.556 230.223 879.556 231.655 L879.556 241.833 Q879.556 242.969 879.506 243.365 Q879.457 243.76 879.161 244.056 Q878.864 244.303 878.222 244.303 Q877.086 244.303 877.036 243.365 Q876.246 231.112 865.179 231.112 Q859.2 231.112 856.532 233.434 Q853.864 235.707 853.864 238.819 Q853.864 240.549 854.655 241.883 Q855.495 243.167 856.532 243.958 Q857.619 244.699 859.596 245.44 Q861.572 246.132 862.758 246.379 Q863.993 246.626 866.315 247.12 Q874.418 248.651 877.827 251.961 Q882.076 256.21 882.076 261.596 Q882.076 267.574 878.024 271.625 Q873.973 275.677 865.821 275.677 Q859.25 275.677 854.655 271.28 Q854.062 271.872 853.617 272.416 Q853.173 272.91 852.975 273.108 Q852.827 273.305 852.777 273.453 Q852.728 273.552 852.629 273.651 Q850.604 275.677 850.109 275.677 Q849.319 275.677 849.171 275.133 Q849.023 274.639 849.023 273.206 Z" fill="#000000" fill-rule="nonzero" fill-opacity="1" /><path clip-path="url(#clip270)" d="M888.844 273.206 L888.844 259.867 Q888.844 258.73 888.894 258.335 Q888.943 257.94 889.24 257.643 Q889.536 257.347 890.129 257.347 Q890.821 257.347 891.068 257.643 Q891.364 257.94 891.562 259.076 Q893.093 266.042 896.354 269.748 Q899.664 273.404 905.643 273.404 Q911.324 273.404 914.19 270.884 Q917.056 268.365 917.056 264.214 Q917.056 256.803 906.532 254.926 Q900.455 253.691 897.935 252.9 Q895.415 252.06 893.192 250.232 Q888.844 246.675 888.844 241.635 Q888.844 236.596 892.649 232.891 Q896.502 229.185 905 229.185 Q910.682 229.185 914.536 232.051 Q915.672 231.161 916.265 230.42 Q917.599 229.185 918.291 229.185 Q919.081 229.185 919.229 229.728 Q919.378 230.223 919.378 231.655 L919.378 241.833 Q919.378 242.969 919.328 243.365 Q919.279 243.76 918.982 244.056 Q918.686 244.303 918.044 244.303 Q916.907 244.303 916.858 243.365 Q916.067 231.112 905 231.112 Q899.022 231.112 896.354 233.434 Q893.686 235.707 893.686 238.819 Q893.686 240.549 894.477 241.883 Q895.317 243.167 896.354 243.958 Q897.441 244.699 899.417 245.44 Q901.394 246.132 902.579 246.379 Q903.815 246.626 906.137 247.12 Q914.239 248.651 917.648 251.961 Q921.897 256.21 921.897 261.596 Q921.897 267.574 917.846 271.625 Q913.795 275.677 905.643 275.677 Q899.072 275.677 894.477 271.28 Q893.884 271.872 893.439 272.416 Q892.994 272.91 892.797 273.108 Q892.649 273.305 892.599 273.453 Q892.55 273.552 892.451 273.651 Q890.425 275.677 889.931 275.677 Q889.141 275.677 888.993 275.133 Q888.844 274.639 888.844 273.206 Z" fill="#000000" fill-rule="nonzero" fill-opacity="1" /><path clip-path="url(#clip270)" d="M928.666 274.54 L928.666 271.428 Q934.051 271.428 935.287 270.785 Q936.522 270.094 936.522 266.833 L936.522 239.61 Q936.522 235.855 935.237 234.966 Q934.002 234.076 929.061 234.076 L929.061 230.914 L943.192 229.827 L943.192 266.932 Q943.192 269.946 944.279 270.687 Q945.366 271.428 950.306 271.428 L950.306 274.54 Q939.98 274.244 939.783 274.244 Q938.399 274.244 928.666 274.54 M932.915 212.189 Q932.915 210.163 934.447 208.533 Q936.028 206.853 938.251 206.853 Q940.474 206.853 942.055 208.385 Q943.636 209.867 943.636 212.238 Q943.636 214.561 942.055 216.092 Q940.474 217.574 938.251 217.574 Q935.929 217.574 934.397 215.944 Q932.915 214.314 932.915 212.189 Z" fill="#000000" fill-rule="nonzero" fill-opacity="1" /><path clip-path="url(#clip270)" d="M957.569 264.906 Q957.569 256.309 967.697 251.764 Q973.774 248.849 986.324 248.108 L986.324 244.402 Q986.324 238.128 983.014 234.817 Q979.753 231.458 975.603 231.458 Q968.192 231.458 964.634 236.102 Q967.648 236.201 968.735 237.732 Q969.822 239.215 969.822 240.746 Q969.822 242.772 968.537 244.106 Q967.302 245.39 965.178 245.39 Q963.152 245.39 961.818 244.155 Q960.484 242.871 960.484 240.647 Q960.484 235.707 964.931 232.446 Q969.427 229.185 975.8 229.185 Q984.1 229.185 989.634 234.768 Q991.363 236.497 992.203 238.72 Q993.093 240.944 993.191 242.426 Q993.29 243.859 993.29 246.724 L993.29 266.932 Q993.29 267.525 993.488 268.513 Q993.685 269.501 994.575 270.785 Q995.513 272.021 997.045 272.021 Q1000.7 272.021 1000.65 265.548 L1000.65 259.867 L1003.22 259.867 L1003.22 265.548 Q1003.22 270.934 1000.36 273.058 Q997.539 275.133 994.921 275.133 Q991.561 275.133 989.436 272.663 Q987.312 270.193 987.015 266.833 Q985.484 270.687 981.976 273.206 Q978.518 275.677 973.774 275.677 Q970.118 275.677 966.66 274.738 Q963.251 273.849 960.385 271.329 Q957.569 268.76 957.569 264.906 M965.375 264.807 Q965.375 268.562 968.043 270.983 Q970.711 273.404 974.466 273.404 Q978.715 273.404 982.519 270.143 Q986.324 266.833 986.324 260.361 L986.324 250.232 Q975.108 250.628 970.217 255.124 Q965.375 259.57 965.375 264.807 Z" fill="#000000" fill-rule="nonzero" fill-opacity="1" /><path clip-path="url(#clip270)" d="M1007.17 274.54 L1007.17 271.428 Q1012.56 271.428 1013.79 270.785 Q1015.03 270.094 1015.03 266.833 L1015.03 239.709 Q1015.03 235.954 1013.7 235.015 Q1012.41 234.076 1007.17 234.076 L1007.17 230.914 L1021.4 229.827 L1021.4 240.45 Q1026.15 229.827 1036.37 229.827 Q1043.98 229.827 1047 233.582 Q1049.22 236.102 1049.66 238.918 Q1050.16 241.734 1050.16 249.047 L1050.16 268.365 Q1050.26 270.489 1051.89 270.983 Q1053.52 271.428 1058.06 271.428 L1058.06 274.54 Q1047.74 274.244 1046.7 274.244 Q1045.91 274.244 1035.29 274.54 L1035.29 271.428 Q1040.67 271.428 1041.91 270.785 Q1043.19 270.094 1043.19 266.833 L1043.19 243.266 Q1043.19 238.128 1041.61 235.114 Q1040.03 232.051 1035.68 232.051 Q1030.44 232.051 1026.24 236.448 Q1022.04 240.845 1022.04 248.256 L1022.04 266.833 Q1022.04 270.094 1023.28 270.785 Q1024.56 271.428 1029.9 271.428 L1029.9 274.54 Q1019.57 274.244 1018.59 274.244 Q1017.8 274.244 1007.17 274.54 Z" fill="#000000" fill-rule="nonzero" fill-opacity="1" /><path clip-path="url(#clip270)" d="M1063.79 274.54 L1063.79 271.428 Q1067.45 271.428 1069.77 270.736 Q1072.09 269.995 1072.93 268.661 Q1073.82 267.278 1074.02 266.388 Q1074.22 265.45 1074.22 263.918 L1074.22 213.325 Q1074.22 210.41 1072.93 209.521 Q1071.7 208.582 1066.21 208.582 L1063.79 208.582 L1063.79 205.42 L1080.89 205.42 Q1082.72 205.42 1083.21 205.766 Q1083.7 206.063 1084.45 207.644 L1106.38 264.313 L1128.52 207.347 Q1129.01 205.914 1129.46 205.667 Q1129.95 205.42 1131.88 205.42 L1148.97 205.42 L1148.97 208.582 L1146.55 208.582 Q1141.07 208.582 1139.78 209.521 Q1138.55 210.41 1138.55 213.325 L1138.55 266.635 Q1138.55 269.55 1139.78 270.489 Q1141.07 271.428 1146.55 271.428 L1148.97 271.428 L1148.97 274.54 Q1145.22 274.244 1134.49 274.244 Q1123.67 274.244 1119.92 274.54 L1119.92 271.428 L1122.39 271.428 Q1127.87 271.428 1129.11 270.538 Q1130.34 269.6 1130.34 266.635 L1130.34 208.582 L1130.25 208.582 L1105.39 272.614 Q1104.7 274.54 1103.57 274.54 Q1102.33 274.54 1101.54 272.317 L1077.13 209.373 L1077.03 209.373 L1077.03 263.918 Q1077.03 265.45 1077.23 266.388 Q1077.43 267.278 1078.27 268.661 Q1079.16 269.995 1081.48 270.736 Q1083.8 271.428 1087.46 271.428 L1087.46 274.54 Q1076.84 274.244 1075.6 274.244 Q1074.42 274.244 1063.79 274.54 Z" fill="#000000" fill-rule="nonzero" fill-opacity="1" /><path clip-path="url(#clip270)" d="M1156.04 274.54 L1156.04 271.428 Q1161.42 271.428 1162.66 270.785 Q1163.89 270.094 1163.89 266.833 L1163.89 239.61 Q1163.89 235.855 1162.61 234.966 Q1161.37 234.076 1156.43 234.076 L1156.43 230.914 L1170.56 229.827 L1170.56 266.932 Q1170.56 269.946 1171.65 270.687 Q1172.74 271.428 1177.68 271.428 L1177.68 274.54 Q1167.35 274.244 1167.15 274.244 Q1165.77 274.244 1156.04 274.54 M1160.28 212.189 Q1160.28 210.163 1161.82 208.533 Q1163.4 206.853 1165.62 206.853 Q1167.84 206.853 1169.43 208.385 Q1171.01 209.867 1171.01 212.238 Q1171.01 214.561 1169.43 216.092 Q1167.84 217.574 1165.62 217.574 Q1163.3 217.574 1161.77 215.944 Q1160.28 214.314 1160.28 212.189 Z" fill="#000000" fill-rule="nonzero" fill-opacity="1" /><path clip-path="url(#clip270)" d="M1181.92 274.54 L1181.92 271.428 Q1189.83 271.428 1194.87 265.351 Q1194.87 265.351 1204.36 253.295 L1194.33 240.252 Q1190.77 235.707 1189.19 234.916 Q1187.66 234.076 1182.42 234.076 L1182.42 230.914 Q1186.57 231.211 1192 231.211 Q1195.02 231.211 1202.97 230.914 L1202.97 234.076 Q1199.41 234.274 1199.41 236.596 Q1199.41 237.387 1200.3 238.424 L1208.21 248.651 L1214.48 240.746 Q1216.02 238.918 1216.02 237.189 Q1216.02 234.373 1213.05 234.076 L1213.05 230.914 Q1217 231.211 1222.78 231.211 Q1227.13 231.211 1231.08 230.914 L1231.08 234.076 Q1223.38 234.274 1219.03 239.313 Q1217.1 241.438 1209.74 250.776 L1223.28 268.266 Q1224.91 270.39 1226.74 270.934 Q1228.56 271.428 1232.91 271.428 L1232.91 274.54 Q1228.37 274.244 1223.18 274.244 Q1221.35 274.244 1212.26 274.54 L1212.26 271.428 Q1214.09 271.329 1214.98 270.538 Q1215.92 269.699 1215.92 268.859 Q1215.92 268.463 1213.79 265.548 L1206.08 255.42 Q1198.38 264.511 1197.39 266.635 Q1196.99 267.525 1196.99 268.266 Q1196.99 270.983 1199.91 271.428 L1199.91 274.54 Q1192.65 274.244 1190.32 274.244 Q1185.88 274.244 1181.92 274.54 Z" fill="#000000" fill-rule="nonzero" fill-opacity="1" /><path clip-path="url(#clip270)" d="M1235.93 234.076 L1235.93 231.853 Q1240.57 231.655 1243.63 228.394 Q1246.75 225.084 1247.78 221.033 Q1248.87 216.982 1248.97 212.288 L1251.49 212.288 L1251.49 230.914 L1265.97 230.914 L1265.97 234.076 L1251.49 234.076 L1251.49 262.189 Q1251.49 273.108 1258.31 273.108 Q1261.22 273.108 1263.15 270.143 Q1265.08 267.129 1265.08 261.793 L1265.08 256.21 L1267.6 256.21 L1267.6 261.991 Q1267.6 267.475 1265.08 271.576 Q1262.56 275.677 1257.57 275.677 Q1255.74 275.677 1253.91 275.183 Q1252.13 274.738 1249.76 273.552 Q1247.44 272.317 1245.96 269.353 Q1244.52 266.339 1244.52 261.991 L1244.52 234.076 L1235.93 234.076 Z" fill="#000000" fill-rule="nonzero" fill-opacity="1" /><path clip-path="url(#clip270)" d="M1276.49 234.076 L1276.49 230.914 L1291.36 229.827 L1291.36 263.424 Q1291.36 265.845 1291.56 267.278 Q1291.76 268.661 1292.55 270.291 Q1293.39 271.922 1295.26 272.663 Q1297.19 273.404 1300.25 273.404 Q1305.74 273.404 1309.1 268.908 Q1312.51 264.412 1312.51 257.742 L1312.51 239.709 Q1312.51 235.954 1311.17 235.015 Q1309.84 234.076 1304.6 234.076 L1304.6 230.914 L1319.47 229.827 L1319.47 265.746 Q1319.47 269.501 1320.76 270.489 Q1322.09 271.428 1327.38 271.428 L1327.38 274.54 L1312.8 275.677 L1312.8 266.536 Q1308.55 275.627 1299.76 275.677 Q1295.31 275.677 1292.25 274.54 Q1289.24 273.404 1287.7 272.021 Q1286.17 270.588 1285.33 267.87 Q1284.54 265.153 1284.44 263.473 Q1284.35 261.793 1284.35 258.533 L1284.35 243.365 Q1284.35 236.497 1283.36 235.311 Q1282.37 234.076 1276.49 234.076 Z" fill="#000000" fill-rule="nonzero" fill-opacity="1" /><path clip-path="url(#clip270)" d="M1332.17 274.54 L1332.17 271.428 Q1337.56 271.428 1338.79 270.785 Q1340.08 270.094 1340.08 266.833 L1340.08 239.709 Q1340.08 235.954 1338.74 235.015 Q1337.46 234.076 1332.17 234.076 L1332.17 230.914 L1346.25 229.827 L1346.25 240.944 Q1347.68 236.596 1350.7 233.236 Q1353.76 229.827 1358.7 229.827 Q1361.96 229.827 1364.04 231.655 Q1366.16 233.483 1366.16 236.003 Q1366.16 238.226 1364.78 239.363 Q1363.45 240.45 1361.81 240.45 Q1359.99 240.45 1358.7 239.313 Q1357.47 238.128 1357.47 236.102 Q1357.47 234.867 1358.01 233.928 Q1358.6 232.94 1359.05 232.594 Q1359.49 232.248 1359.79 232.149 Q1359.59 232.051 1358.7 232.051 Q1353.12 232.051 1349.91 237.634 Q1346.75 243.167 1346.75 251.072 L1346.75 266.635 Q1346.75 269.55 1347.93 270.489 Q1349.17 271.428 1354.45 271.428 L1356.58 271.428 L1356.58 274.54 Q1352.53 274.244 1343.73 274.244 Q1342.5 274.244 1340.57 274.293 Q1338.64 274.343 1336.12 274.442 Q1333.6 274.54 1332.17 274.54 Z" fill="#000000" fill-rule="nonzero" fill-opacity="1" /><path clip-path="url(#clip270)" d="M1371.7 252.258 Q1371.7 242.722 1377.82 235.954 Q1383.95 229.185 1392.74 229.185 Q1401.64 229.185 1406.23 234.966 Q1410.88 240.746 1410.88 249.047 Q1410.88 250.578 1410.48 250.875 Q1410.09 251.171 1408.36 251.171 L1380.1 251.171 Q1380.1 261.497 1383.16 266.339 Q1387.41 273.108 1394.57 273.108 Q1395.56 273.108 1396.75 272.91 Q1397.93 272.712 1400.35 271.872 Q1402.77 270.983 1404.9 268.661 Q1407.02 266.339 1408.26 262.683 Q1408.55 261.25 1409.54 261.299 Q1410.88 261.299 1410.88 262.485 Q1410.88 263.374 1409.89 265.4 Q1408.95 267.376 1407.12 269.748 Q1405.29 272.119 1401.74 273.898 Q1398.23 275.677 1393.98 275.677 Q1385.09 275.677 1378.37 268.957 Q1371.7 262.189 1371.7 252.258 M1380.19 249.047 L1404.21 249.047 Q1404.21 246.922 1403.81 244.55 Q1403.46 242.179 1402.38 238.918 Q1401.34 235.608 1398.87 233.533 Q1396.4 231.458 1392.74 231.458 Q1391.11 231.458 1389.33 232.149 Q1387.61 232.841 1385.48 234.521 Q1383.36 236.201 1381.87 240.005 Q1380.39 243.809 1380.19 249.047 Z" fill="#000000" fill-rule="nonzero" fill-opacity="1" /><path clip-path="url(#clip270)" d="M1417.55 274.54 L1417.55 271.428 Q1421.2 271.428 1423.52 270.736 Q1425.85 269.995 1426.69 268.661 Q1427.58 267.278 1427.77 266.388 Q1427.97 265.45 1427.97 263.918 L1427.97 213.325 Q1427.97 210.41 1426.69 209.521 Q1425.45 208.582 1419.97 208.582 L1417.55 208.582 L1417.55 205.42 L1434.64 205.42 Q1436.47 205.42 1436.96 205.766 Q1437.46 206.063 1438.2 207.644 L1460.13 264.313 L1482.27 207.347 Q1482.76 205.914 1483.21 205.667 Q1483.7 205.42 1485.63 205.42 L1502.72 205.42 L1502.72 208.582 L1500.3 208.582 Q1494.82 208.582 1493.53 209.521 Q1492.3 210.41 1492.3 213.325 L1492.3 266.635 Q1492.3 269.55 1493.53 270.489 Q1494.82 271.428 1500.3 271.428 L1502.72 271.428 L1502.72 274.54 Q1498.97 274.244 1488.25 274.244 Q1477.43 274.244 1473.67 274.54 L1473.67 271.428 L1476.14 271.428 Q1481.63 271.428 1482.86 270.538 Q1484.1 269.6 1484.1 266.635 L1484.1 208.582 L1484 208.582 L1459.15 272.614 Q1458.45 274.54 1457.32 274.54 Q1456.08 274.54 1455.29 272.317 L1430.89 209.373 L1430.79 209.373 L1430.79 263.918 Q1430.79 265.45 1430.98 266.388 Q1431.18 267.278 1432.02 268.661 Q1432.91 269.995 1435.23 270.736 Q1437.56 271.428 1441.21 271.428 L1441.21 274.54 Q1430.59 274.244 1429.35 274.244 Q1428.17 274.244 1417.55 274.54 Z" fill="#000000" fill-rule="nonzero" fill-opacity="1" /><path clip-path="url(#clip270)" d="M1515.91 269.106 Q1509.24 262.485 1509.24 252.9 Q1509.24 243.266 1515.77 236.25 Q1522.34 229.185 1531.72 229.185 Q1540.91 229.185 1547.49 236.201 Q1554.11 243.167 1554.11 252.9 Q1554.11 262.436 1547.44 269.056 Q1540.82 275.677 1531.63 275.677 Q1522.63 275.677 1515.91 269.106 M1517.64 252.06 Q1517.64 261.892 1520.21 266.339 Q1524.17 273.108 1531.72 273.108 Q1535.48 273.108 1538.59 271.082 Q1541.75 269.056 1543.48 265.647 Q1545.71 261.201 1545.71 252.06 Q1545.71 242.327 1543.04 238.029 Q1539.09 231.458 1531.63 231.458 Q1528.36 231.458 1525.15 233.187 Q1521.99 234.867 1520.06 238.226 Q1517.64 242.673 1517.64 252.06 Z" fill="#000000" fill-rule="nonzero" fill-opacity="1" /><path clip-path="url(#clip270)" d="M1563.3 252.801 Q1563.3 243.167 1570.01 236.497 Q1576.73 229.827 1585.82 229.827 Q1593.53 229.827 1598.57 236.102 L1598.57 214.215 Q1598.57 210.46 1597.24 209.521 Q1595.95 208.582 1590.72 208.582 L1590.72 205.42 L1605.29 204.333 L1605.29 265.746 Q1605.29 269.501 1606.58 270.489 Q1607.91 271.428 1613.15 271.428 L1613.15 274.54 L1598.28 275.677 L1598.28 268.957 Q1593.04 275.627 1584.74 275.677 Q1576.04 275.677 1569.67 269.007 Q1563.3 262.337 1563.3 252.801 M1571.69 252.9 Q1571.69 262.288 1574.61 266.932 Q1578.66 273.404 1585.23 273.404 Q1592.74 273.404 1597.19 266.339 Q1598.32 264.61 1598.28 262.584 L1598.28 241.833 Q1598.28 239.807 1597.19 238.128 Q1593.04 232.051 1586.27 232.051 Q1579.2 232.051 1574.81 238.523 Q1571.69 243.365 1571.69 252.9 Z" fill="#000000" fill-rule="nonzero" fill-opacity="1" /><path clip-path="url(#clip270)" d="M1618.78 252.258 Q1618.78 242.722 1624.91 235.954 Q1631.03 229.185 1639.83 229.185 Q1648.72 229.185 1653.31 234.966 Q1657.96 240.746 1657.96 249.047 Q1657.96 250.578 1657.56 250.875 Q1657.17 251.171 1655.44 251.171 L1627.18 251.171 Q1627.18 261.497 1630.24 266.339 Q1634.49 273.108 1641.65 273.108 Q1642.64 273.108 1643.83 272.91 Q1645.01 272.712 1647.44 271.872 Q1649.86 270.983 1651.98 268.661 Q1654.11 266.339 1655.34 262.683 Q1655.64 261.25 1656.62 261.299 Q1657.96 261.299 1657.96 262.485 Q1657.96 263.374 1656.97 265.4 Q1656.03 267.376 1654.2 269.748 Q1652.38 272.119 1648.82 273.898 Q1645.31 275.677 1641.06 275.677 Q1632.17 275.677 1625.45 268.957 Q1618.78 262.189 1618.78 252.258 M1627.28 249.047 L1651.29 249.047 Q1651.29 246.922 1650.89 244.55 Q1650.55 242.179 1649.46 238.918 Q1648.42 235.608 1645.95 233.533 Q1643.48 231.458 1639.83 231.458 Q1638.2 231.458 1636.42 232.149 Q1634.69 232.841 1632.56 234.521 Q1630.44 236.201 1628.96 240.005 Q1627.47 243.809 1627.28 249.047 Z" fill="#000000" fill-rule="nonzero" fill-opacity="1" /><path clip-path="url(#clip270)" d="M1664.23 274.54 L1664.23 271.428 Q1669.62 271.428 1670.85 270.785 Q1672.09 270.094 1672.09 266.833 L1672.09 214.215 Q1672.09 210.46 1670.76 209.521 Q1669.47 208.582 1664.23 208.582 L1664.23 205.42 L1678.76 204.333 L1678.76 266.833 Q1678.76 270.094 1680.04 270.785 Q1681.33 271.428 1686.66 271.428 L1686.66 274.54 Q1685.43 274.54 1682.86 274.442 Q1680.29 274.343 1678.41 274.293 Q1676.54 274.244 1675.45 274.244 Q1674.26 274.244 1664.23 274.54 Z" fill="#000000" fill-rule="nonzero" fill-opacity="1" /><path clip-path="url(#clip270)" d="M1699.02 272.91 Q1697.48 271.28 1697.48 269.155 Q1697.48 267.031 1699.02 265.499 Q1700.55 263.918 1702.87 263.918 Q1705.09 263.918 1706.57 265.4 Q1708.11 266.833 1708.11 269.204 Q1708.11 271.527 1706.48 273.058 Q1704.9 274.54 1702.87 274.54 Q1700.55 274.54 1699.02 272.91 Z" fill="#000000" fill-rule="nonzero" fill-opacity="1" /><path clip-path="url(#clip270)" d="M1712.95 287.188 Q1712.95 285.163 1714.23 283.829 Q1715.47 282.544 1717.59 282.544 Q1719.72 282.544 1720.95 283.829 Q1722.24 285.163 1722.24 287.188 Q1722.24 289.017 1721.15 290.153 Q1720.11 291.339 1718.73 291.734 Q1721.35 293.068 1724.16 293.068 Q1726.49 293.068 1728.07 291.685 Q1729.65 290.301 1730.34 288.028 Q1731.08 285.756 1731.33 283.829 Q1731.57 281.951 1731.57 279.777 L1731.57 239.709 Q1731.57 235.954 1730.09 235.015 Q1728.66 234.076 1722.88 234.076 L1722.88 230.914 L1738.24 229.827 L1738.24 279.58 Q1738.24 286.349 1734.19 290.795 Q1730.14 295.291 1724.41 295.291 Q1719.77 295.291 1716.36 293.117 Q1712.95 290.943 1712.95 287.188 M1729.1 216.043 Q1727.52 214.462 1727.52 212.238 Q1727.52 210.015 1729.1 208.434 Q1730.69 206.853 1732.91 206.853 Q1735.13 206.853 1736.71 208.434 Q1738.29 210.015 1738.29 212.238 Q1738.29 214.462 1736.71 216.043 Q1735.13 217.574 1732.91 217.574 Q1730.69 217.574 1729.1 216.043 Z" fill="#000000" fill-rule="nonzero" fill-opacity="1" /><path clip-path="url(#clip270)" d="M1751.19 274.54 L1751.19 271.428 Q1756.57 271.428 1757.81 270.785 Q1759.04 270.094 1759.04 266.833 L1759.04 214.215 Q1759.04 210.46 1757.71 209.521 Q1756.43 208.582 1751.19 208.582 L1751.19 205.42 L1765.71 204.333 L1765.71 266.833 Q1765.71 270.094 1767 270.785 Q1768.28 271.428 1773.62 271.428 L1773.62 274.54 Q1772.38 274.54 1769.82 274.442 Q1767.25 274.343 1765.37 274.293 Q1763.49 274.244 1762.4 274.244 Q1761.22 274.244 1751.19 274.54 Z" fill="#000000" fill-rule="nonzero" fill-opacity="1" /><path clip-path="url(#clip270)" d="M1781.62 298.404 Q1781.62 297.91 1782.02 296.823 L1817.74 201.369 Q1817.74 201.27 1817.99 200.727 Q1818.23 200.183 1818.38 199.837 Q1818.53 199.442 1818.83 199.146 Q1819.17 198.849 1819.57 198.849 Q1820.56 198.849 1820.56 200.084 Q1820.56 200.183 1820.26 201.369 L1784.44 296.922 Q1783.85 298.651 1783.45 299.145 Q1783.11 299.639 1782.51 299.639 Q1781.62 299.639 1781.62 298.404 Z" fill="#000000" fill-rule="nonzero" fill-opacity="1" /><path clip-path="url(#clip270)" d="M1829.8 274.54 L1829.8 271.428 L1832.22 271.428 Q1837.7 271.428 1838.94 270.538 Q1840.22 269.6 1840.22 266.635 L1840.22 213.622 Q1840.22 210.707 1838.94 209.818 Q1837.65 208.879 1832.22 208.879 L1829.8 208.879 L1829.8 205.717 L1886.76 205.717 L1889.58 228.493 L1887.06 228.493 Q1886.37 222.713 1885.43 219.402 Q1884.54 216.043 1882.31 213.474 Q1880.14 210.905 1876.53 209.916 Q1872.98 208.879 1867.2 208.879 L1854.15 208.879 Q1850.69 208.879 1849.95 209.62 Q1849.21 210.312 1849.21 212.93 L1849.21 237.189 L1858.3 237.189 Q1865.27 237.189 1867.25 234.768 Q1869.22 232.347 1869.22 225.381 L1871.79 225.381 L1871.79 252.159 L1869.22 252.159 Q1869.22 245.292 1867.25 242.821 Q1865.27 240.351 1858.3 240.351 L1849.21 240.351 L1849.21 267.376 Q1849.21 269.995 1849.95 270.736 Q1850.74 271.428 1854.15 271.428 L1867.64 271.428 Q1871.99 271.428 1875.15 270.884 Q1878.36 270.291 1880.59 268.908 Q1882.81 267.475 1884.29 265.845 Q1885.82 264.214 1886.86 261.299 Q1887.95 258.335 1888.54 255.618 Q1889.18 252.9 1889.87 248.454 L1892.39 248.454 L1888.14 274.54 L1829.8 274.54 Z" fill="#000000" fill-rule="nonzero" fill-opacity="1" /><path clip-path="url(#clip270)" d="M1898.96 274.54 L1898.96 271.428 Q1902.62 271.428 1904.94 270.736 Q1907.27 269.995 1908.1 268.661 Q1908.99 267.278 1909.19 266.388 Q1909.39 265.45 1909.39 263.918 L1909.39 213.325 Q1909.39 210.41 1908.1 209.521 Q1906.87 208.582 1901.39 208.582 L1898.96 208.582 L1898.96 205.42 L1916.06 205.42 Q1917.89 205.42 1918.38 205.766 Q1918.88 206.063 1919.62 207.644 L1941.55 264.313 L1963.69 207.347 Q1964.18 205.914 1964.63 205.667 Q1965.12 205.42 1967.05 205.42 L1984.14 205.42 L1984.14 208.582 L1981.72 208.582 Q1976.24 208.582 1974.95 209.521 Q1973.72 210.41 1973.72 213.325 L1973.72 266.635 Q1973.72 269.55 1974.95 270.489 Q1976.24 271.428 1981.72 271.428 L1984.14 271.428 L1984.14 274.54 Q1980.39 274.244 1969.67 274.244 Q1958.85 274.244 1955.09 274.54 L1955.09 271.428 L1957.56 271.428 Q1963.05 271.428 1964.28 270.538 Q1965.52 269.6 1965.52 266.635 L1965.52 208.582 L1965.42 208.582 L1940.57 272.614 Q1939.87 274.54 1938.74 274.54 Q1937.5 274.54 1936.71 272.317 L1912.3 209.373 L1912.21 209.373 L1912.21 263.918 Q1912.21 265.45 1912.4 266.388 Q1912.6 267.278 1913.44 268.661 Q1914.33 269.995 1916.65 270.736 Q1918.97 271.428 1922.63 271.428 L1922.63 274.54 Q1912.01 274.244 1910.77 274.244 Q1909.59 274.244 1898.96 274.54 Z" fill="#000000" fill-rule="nonzero" fill-opacity="1" /><path clip-path="url(#clip270)" d="M1997.98 272.91 Q1996.44 271.28 1996.44 269.155 Q1996.44 267.031 1997.98 265.499 Q1999.51 263.918 2001.83 263.918 Q2004.05 263.918 2005.53 265.4 Q2007.07 266.833 2007.07 269.204 Q2007.07 271.527 2005.44 273.058 Q2003.86 274.54 2001.83 274.54 Q1999.51 274.54 1997.98 272.91 Z" fill="#000000" fill-rule="nonzero" fill-opacity="1" /><path clip-path="url(#clip270)" d="M2011.91 287.188 Q2011.91 285.163 2013.19 283.829 Q2014.43 282.544 2016.55 282.544 Q2018.68 282.544 2019.91 283.829 Q2021.2 285.163 2021.2 287.188 Q2021.2 289.017 2020.11 290.153 Q2019.07 291.339 2017.69 291.734 Q2020.31 293.068 2023.12 293.068 Q2025.45 293.068 2027.03 291.685 Q2028.61 290.301 2029.3 288.028 Q2030.04 285.756 2030.29 283.829 Q2030.53 281.951 2030.53 279.777 L2030.53 239.709 Q2030.53 235.954 2029.05 235.015 Q2027.62 234.076 2021.84 234.076 L2021.84 230.914 L2037.2 229.827 L2037.2 279.58 Q2037.2 286.349 2033.15 290.795 Q2029.1 295.291 2023.37 295.291 Q2018.73 295.291 2015.32 293.117 Q2011.91 290.943 2011.91 287.188 M2028.06 216.043 Q2026.48 214.462 2026.48 212.238 Q2026.48 210.015 2028.06 208.434 Q2029.65 206.853 2031.87 206.853 Q2034.09 206.853 2035.67 208.434 Q2037.25 210.015 2037.25 212.238 Q2037.25 214.462 2035.67 216.043 Q2034.09 217.574 2031.87 217.574 Q2029.65 217.574 2028.06 216.043 Z" fill="#000000" fill-rule="nonzero" fill-opacity="1" /><path clip-path="url(#clip270)" d="M2050.15 274.54 L2050.15 271.428 Q2055.53 271.428 2056.77 270.785 Q2058 270.094 2058 266.833 L2058 214.215 Q2058 210.46 2056.67 209.521 Q2055.39 208.582 2050.15 208.582 L2050.15 205.42 L2064.67 204.333 L2064.67 266.833 Q2064.67 270.094 2065.96 270.785 Q2067.24 271.428 2072.58 271.428 L2072.58 274.54 Q2071.34 274.54 2068.78 274.442 Q2066.21 274.343 2064.33 274.293 Q2062.45 274.244 2061.36 274.244 Q2060.18 274.244 2050.15 274.54 Z" fill="#000000" fill-rule="nonzero" fill-opacity="1" /><polyline clip-path="url(#clip270)" style="stroke:#3da44d; stroke-linecap:round; stroke-linejoin:round; stroke-width:8; stroke-opacity:1; fill:none" points="409.48,343.66 628.779,343.66 "/>
<path clip-path="url(#clip270)" d="M665.328 378.22 L665.328 375.108 Q670.714 375.108 671.949 374.465 Q673.184 373.774 673.184 370.513 L673.184 343.389 Q673.184 339.634 671.85 338.695 Q670.565 337.756 665.328 337.756 L665.328 334.594 L679.557 333.507 L679.557 344.13 Q684.301 333.507 694.528 333.507 Q706.385 333.507 708.016 343.389 Q709.745 339.535 713.352 336.521 Q717.008 333.507 722.69 333.507 Q730.298 333.507 733.312 337.262 Q735.535 339.782 735.98 342.598 Q736.425 345.414 736.425 352.727 L736.425 372.045 Q736.523 374.169 738.154 374.663 Q739.784 375.108 744.33 375.108 L744.33 378.22 Q734.004 377.924 733.016 377.924 Q732.225 377.924 721.553 378.22 L721.553 375.108 Q726.939 375.108 728.174 374.465 Q729.458 373.774 729.458 370.513 L729.458 346.946 Q729.458 341.808 727.877 338.794 Q726.296 335.731 721.948 335.731 Q716.711 335.731 712.512 340.128 Q708.312 344.525 708.312 351.936 L708.312 370.513 Q708.312 373.774 709.547 374.465 Q710.832 375.108 716.217 375.108 L716.217 378.22 Q705.891 377.924 704.854 377.924 Q704.063 377.924 693.441 378.22 L693.441 375.108 Q698.826 375.108 700.061 374.465 Q701.346 373.774 701.346 370.513 L701.346 346.946 Q701.346 341.808 699.765 338.794 Q698.184 335.731 693.836 335.731 Q688.599 335.731 684.399 340.128 Q680.2 344.525 680.2 351.936 L680.2 370.513 Q680.2 373.774 681.435 374.465 Q682.72 375.108 688.055 375.108 L688.055 378.22 Q677.729 377.924 676.741 377.924 Q675.951 377.924 665.328 378.22 Z" fill="#000000" fill-rule="nonzero" fill-opacity="1" /><path clip-path="url(#clip270)" d="M749.666 378.22 L749.666 375.108 Q755.051 375.108 756.286 374.465 Q757.521 373.774 757.521 370.513 L757.521 343.29 Q757.521 339.535 756.237 338.646 Q755.002 337.756 750.061 337.756 L750.061 334.594 L764.191 333.507 L764.191 370.612 Q764.191 373.626 765.278 374.367 Q766.365 375.108 771.306 375.108 L771.306 378.22 Q760.98 377.924 760.782 377.924 Q759.399 377.924 749.666 378.22 M753.915 315.869 Q753.915 313.843 755.446 312.213 Q757.027 310.533 759.251 310.533 Q761.474 310.533 763.055 312.065 Q764.636 313.547 764.636 315.918 Q764.636 318.241 763.055 319.772 Q761.474 321.254 759.251 321.254 Q756.928 321.254 755.397 319.624 Q753.915 317.994 753.915 315.869 Z" fill="#000000" fill-rule="nonzero" fill-opacity="1" /><path clip-path="url(#clip270)" d="M775.555 378.22 L775.555 375.108 Q783.46 375.108 788.499 369.031 Q788.499 369.031 797.985 356.975 L787.956 343.932 Q784.399 339.387 782.818 338.596 Q781.286 337.756 776.049 337.756 L776.049 334.594 Q780.199 334.891 785.634 334.891 Q788.648 334.891 796.602 334.594 L796.602 337.756 Q793.045 337.954 793.045 340.276 Q793.045 341.067 793.934 342.104 L801.839 352.331 L808.114 344.426 Q809.645 342.598 809.645 340.869 Q809.645 338.053 806.681 337.756 L806.681 334.594 Q810.633 334.891 816.414 334.891 Q820.762 334.891 824.714 334.594 L824.714 337.756 Q817.007 337.954 812.659 342.993 Q810.732 345.118 803.371 354.456 L816.908 371.946 Q818.539 374.07 820.367 374.614 Q822.195 375.108 826.542 375.108 L826.542 378.22 Q821.997 377.924 816.809 377.924 Q814.981 377.924 805.89 378.22 L805.89 375.108 Q807.718 375.009 808.608 374.218 Q809.547 373.379 809.547 372.539 Q809.547 372.143 807.422 369.228 L799.715 359.1 Q792.007 368.191 791.019 370.315 Q790.624 371.205 790.624 371.946 Q790.624 374.663 793.539 375.108 L793.539 378.22 Q786.276 377.924 783.954 377.924 Q779.507 377.924 775.555 378.22 Z" fill="#000000" fill-rule="nonzero" fill-opacity="1" /><path clip-path="url(#clip270)" d="M829.556 337.756 L829.556 335.533 Q834.201 335.335 837.264 332.074 Q840.376 328.764 841.414 324.713 Q842.501 320.662 842.6 315.968 L845.119 315.968 L845.119 334.594 L859.596 334.594 L859.596 337.756 L845.119 337.756 L845.119 365.869 Q845.119 376.788 851.938 376.788 Q854.853 376.788 856.779 373.823 Q858.706 370.809 858.706 365.473 L858.706 359.89 L861.226 359.89 L861.226 365.671 Q861.226 371.155 858.706 375.256 Q856.186 379.357 851.196 379.357 Q849.368 379.357 847.54 378.863 Q845.762 378.418 843.39 377.232 Q841.068 375.997 839.586 373.033 Q838.153 370.019 838.153 365.671 L838.153 337.756 L829.556 337.756 Z" fill="#000000" fill-rule="nonzero" fill-opacity="1" /><path clip-path="url(#clip270)" d="M876.344 372.786 Q869.675 366.165 869.675 356.58 Q869.675 346.946 876.196 339.93 Q882.767 332.865 892.155 332.865 Q901.344 332.865 907.915 339.881 Q914.536 346.847 914.536 356.58 Q914.536 366.116 907.866 372.736 Q901.245 379.357 892.056 379.357 Q883.064 379.357 876.344 372.786 M878.074 355.74 Q878.074 365.572 880.643 370.019 Q884.595 376.788 892.155 376.788 Q895.909 376.788 899.022 374.762 Q902.184 372.736 903.913 369.327 Q906.137 364.881 906.137 355.74 Q906.137 346.007 903.469 341.709 Q899.516 335.138 892.056 335.138 Q888.795 335.138 885.583 336.867 Q882.421 338.547 880.495 341.906 Q878.074 346.353 878.074 355.74 Z" fill="#000000" fill-rule="nonzero" fill-opacity="1" /><path clip-path="url(#clip270)" d="M929.753 372.786 Q923.083 366.165 923.083 356.58 Q923.083 346.946 929.605 339.93 Q936.176 332.865 945.563 332.865 Q954.753 332.865 961.324 339.881 Q967.944 346.847 967.944 356.58 Q967.944 366.116 961.275 372.736 Q954.654 379.357 945.464 379.357 Q936.472 379.357 929.753 372.786 M931.482 355.74 Q931.482 365.572 934.051 370.019 Q938.004 376.788 945.563 376.788 Q949.318 376.788 952.431 374.762 Q955.593 372.736 957.322 369.327 Q959.545 364.881 959.545 355.74 Q959.545 346.007 956.877 341.709 Q952.925 335.138 945.464 335.138 Q942.204 335.138 938.992 336.867 Q935.83 338.547 933.903 341.906 Q931.482 346.353 931.482 355.74 Z" fill="#000000" fill-rule="nonzero" fill-opacity="1" /><path clip-path="url(#clip270)" d="M974.219 378.22 L974.219 375.108 Q979.604 375.108 980.84 374.465 Q982.075 373.774 982.075 370.513 L982.075 317.895 Q982.075 314.14 980.741 313.201 Q979.456 312.262 974.219 312.262 L974.219 309.1 L988.745 308.013 L988.745 370.513 Q988.745 373.774 990.029 374.465 Q991.314 375.108 996.65 375.108 L996.65 378.22 Q995.415 378.22 992.845 378.122 Q990.276 378.023 988.399 377.973 Q986.521 377.924 985.434 377.924 Q984.249 377.924 974.219 378.22 Z" fill="#000000" fill-rule="nonzero" fill-opacity="1" /><path clip-path="url(#clip270)" d="M1002.23 376.886 L1002.23 363.547 Q1002.23 362.41 1002.28 362.015 Q1002.33 361.62 1002.63 361.323 Q1002.92 361.027 1003.52 361.027 Q1004.21 361.027 1004.46 361.323 Q1004.75 361.62 1004.95 362.756 Q1006.48 369.722 1009.74 373.428 Q1013.05 377.084 1019.03 377.084 Q1024.71 377.084 1027.58 374.564 Q1030.44 372.045 1030.44 367.894 Q1030.44 360.483 1019.92 358.606 Q1013.84 357.371 1011.32 356.58 Q1008.8 355.74 1006.58 353.912 Q1002.23 350.355 1002.23 345.315 Q1002.23 340.276 1006.04 336.571 Q1009.89 332.865 1018.39 332.865 Q1024.07 332.865 1027.92 335.731 Q1029.06 334.841 1029.65 334.1 Q1030.99 332.865 1031.68 332.865 Q1032.47 332.865 1032.62 333.408 Q1032.77 333.903 1032.77 335.335 L1032.77 345.513 Q1032.77 346.649 1032.72 347.045 Q1032.67 347.44 1032.37 347.736 Q1032.07 347.983 1031.43 347.983 Q1030.3 347.983 1030.25 347.045 Q1029.46 334.792 1018.39 334.792 Q1012.41 334.792 1009.74 337.114 Q1007.07 339.387 1007.07 342.499 Q1007.07 344.229 1007.87 345.563 Q1008.71 346.847 1009.74 347.638 Q1010.83 348.379 1012.81 349.12 Q1014.78 349.812 1015.97 350.059 Q1017.2 350.306 1019.53 350.8 Q1027.63 352.331 1031.04 355.641 Q1035.29 359.89 1035.29 365.276 Q1035.29 371.254 1031.23 375.305 Q1027.18 379.357 1019.03 379.357 Q1012.46 379.357 1007.87 374.96 Q1007.27 375.552 1006.83 376.096 Q1006.38 376.59 1006.19 376.788 Q1006.04 376.985 1005.99 377.133 Q1005.94 377.232 1005.84 377.331 Q1003.81 379.357 1003.32 379.357 Q1002.53 379.357 1002.38 378.813 Q1002.23 378.319 1002.23 376.886 Z" fill="#000000" fill-rule="nonzero" fill-opacity="1" /><path clip-path="url(#clip270)" d="M1048.82 376.59 Q1047.29 374.96 1047.29 372.835 Q1047.29 370.711 1048.82 369.179 Q1050.35 367.598 1052.68 367.598 Q1054.9 367.598 1056.38 369.08 Q1057.91 370.513 1057.91 372.884 Q1057.91 375.207 1056.28 376.738 Q1054.7 378.22 1052.68 378.22 Q1050.35 378.22 1048.82 376.59 Z" fill="#000000" fill-rule="nonzero" fill-opacity="1" /><path clip-path="url(#clip270)" d="M1070.36 378.22 L1070.36 375.108 L1072.79 375.108 Q1078.27 375.108 1079.5 374.218 Q1080.79 373.28 1080.79 370.315 L1080.79 317.005 Q1080.79 314.09 1079.5 313.201 Q1078.22 312.262 1072.79 312.262 L1070.36 312.262 L1070.36 309.1 L1102.13 309.1 Q1113.15 309.1 1120.81 314.535 Q1128.52 319.92 1128.52 327.331 Q1128.52 333.013 1123.53 337.46 Q1118.54 341.906 1110.83 343.833 Q1120.86 347.292 1123.18 355.543 L1124.46 363.645 Q1124.86 366.56 1125.11 368.043 Q1125.4 369.525 1125.85 371.55 Q1126.29 373.576 1126.74 374.564 Q1127.23 375.503 1127.92 376.541 Q1128.62 377.529 1129.5 377.875 Q1130.44 378.22 1131.68 378.22 Q1134 378.22 1135.98 376.145 Q1137.95 374.07 1138.35 369.228 Q1138.55 367.598 1139.58 367.598 Q1140.87 367.598 1140.87 369.228 Q1140.87 370.661 1140.47 372.341 Q1140.08 373.971 1139.09 375.898 Q1138.15 377.825 1136.08 379.11 Q1134 380.444 1131.28 380.444 Q1123.38 380.444 1118.54 376.195 Q1116.51 374.367 1115.57 371.995 Q1114.68 369.624 1114.53 367.746 Q1114.39 365.869 1114.39 361.719 Q1114.39 355.839 1113.74 353.27 Q1113.15 350.701 1110.53 348.181 Q1106.97 344.723 1101.1 344.723 L1089.49 344.723 L1089.49 370.315 Q1089.49 373.23 1090.72 374.169 Q1092 375.108 1097.49 375.108 L1099.91 375.108 L1099.91 378.22 Q1096.25 377.924 1085.14 377.924 Q1074.02 377.924 1070.36 378.22 M1089.49 342.499 L1100.7 342.499 Q1106.09 342.499 1109.69 341.215 Q1113.35 339.881 1115.08 337.509 Q1116.81 335.138 1117.45 332.766 Q1118.09 330.345 1118.09 327.331 Q1118.09 323.774 1117.3 321.106 Q1116.51 318.438 1114.78 316.857 Q1113.05 315.276 1111.32 314.288 Q1109.59 313.251 1106.93 312.855 Q1104.26 312.46 1102.43 312.361 Q1100.6 312.262 1097.69 312.262 Q1092.75 312.262 1091.71 312.46 Q1090.57 312.559 1090.13 313.102 Q1089.68 313.646 1089.58 314.288 Q1089.49 314.881 1089.49 316.314 L1089.49 342.499 Z" fill="#000000" fill-rule="nonzero" fill-opacity="1" /><path clip-path="url(#clip270)" d="M1147.04 402.084 Q1147.04 401.59 1147.44 400.503 L1183.16 305.049 Q1183.16 304.95 1183.41 304.407 Q1183.65 303.863 1183.8 303.517 Q1183.95 303.122 1184.25 302.826 Q1184.59 302.529 1184.99 302.529 Q1185.98 302.529 1185.98 303.764 Q1185.98 303.863 1185.68 305.049 L1149.86 400.602 Q1149.27 402.331 1148.87 402.825 Q1148.53 403.319 1147.93 403.319 Q1147.04 403.319 1147.04 402.084 Z" fill="#000000" fill-rule="nonzero" fill-opacity="1" /><path clip-path="url(#clip270)" d="M1195.22 378.22 L1195.22 375.108 L1197.64 375.108 Q1203.12 375.108 1204.36 374.218 Q1205.64 373.28 1205.64 370.315 L1205.64 317.302 Q1205.64 314.387 1204.36 313.498 Q1203.07 312.559 1197.64 312.559 L1195.22 312.559 L1195.22 309.397 L1252.18 309.397 L1255 332.173 L1252.48 332.173 Q1251.79 326.393 1250.85 323.082 Q1249.96 319.723 1247.73 317.154 Q1245.56 314.585 1241.95 313.596 Q1238.4 312.559 1232.62 312.559 L1219.57 312.559 Q1216.11 312.559 1215.37 313.3 Q1214.63 313.992 1214.63 316.61 L1214.63 340.869 L1223.72 340.869 Q1230.69 340.869 1232.67 338.448 Q1234.64 336.027 1234.64 329.061 L1237.21 329.061 L1237.21 355.839 L1234.64 355.839 Q1234.64 348.972 1232.67 346.501 Q1230.69 344.031 1223.72 344.031 L1214.63 344.031 L1214.63 371.056 Q1214.63 373.675 1215.37 374.416 Q1216.16 375.108 1219.57 375.108 L1233.06 375.108 Q1237.41 375.108 1240.57 374.564 Q1243.78 373.971 1246.01 372.588 Q1248.23 371.155 1249.71 369.525 Q1251.24 367.894 1252.28 364.979 Q1253.37 362.015 1253.96 359.298 Q1254.6 356.58 1255.29 352.134 L1257.81 352.134 L1253.56 378.22 L1195.22 378.22 Z" fill="#000000" fill-rule="nonzero" fill-opacity="1" /><path clip-path="url(#clip270)" d="M1264.38 378.22 L1264.38 375.108 Q1268.04 375.108 1270.36 374.416 Q1272.69 373.675 1273.53 372.341 Q1274.41 370.958 1274.61 370.068 Q1274.81 369.13 1274.81 367.598 L1274.81 317.005 Q1274.81 314.09 1273.53 313.201 Q1272.29 312.262 1266.81 312.262 L1264.38 312.262 L1264.38 309.1 L1281.48 309.1 Q1283.31 309.1 1283.8 309.446 Q1284.3 309.743 1285.04 311.324 L1306.97 367.993 L1329.11 311.027 Q1329.6 309.594 1330.05 309.347 Q1330.54 309.1 1332.47 309.1 L1349.56 309.1 L1349.56 312.262 L1347.14 312.262 Q1341.66 312.262 1340.37 313.201 Q1339.14 314.09 1339.14 317.005 L1339.14 370.315 Q1339.14 373.23 1340.37 374.169 Q1341.66 375.108 1347.14 375.108 L1349.56 375.108 L1349.56 378.22 Q1345.81 377.924 1335.09 377.924 Q1324.27 377.924 1320.51 378.22 L1320.51 375.108 L1322.98 375.108 Q1328.47 375.108 1329.7 374.218 Q1330.94 373.28 1330.94 370.315 L1330.94 312.262 L1330.84 312.262 L1305.99 376.294 Q1305.29 378.22 1304.16 378.22 Q1302.92 378.22 1302.13 375.997 L1277.72 313.053 L1277.63 313.053 L1277.63 367.598 Q1277.63 369.13 1277.82 370.068 Q1278.02 370.958 1278.86 372.341 Q1279.75 373.675 1282.07 374.416 Q1284.39 375.108 1288.05 375.108 L1288.05 378.22 Q1277.43 377.924 1276.19 377.924 Q1275.01 377.924 1264.38 378.22 Z" fill="#000000" fill-rule="nonzero" fill-opacity="1" /><path clip-path="url(#clip270)" d="M1363.4 376.59 Q1361.86 374.96 1361.86 372.835 Q1361.86 370.711 1363.4 369.179 Q1364.93 367.598 1367.25 367.598 Q1369.47 367.598 1370.96 369.08 Q1372.49 370.513 1372.49 372.884 Q1372.49 375.207 1370.86 376.738 Q1369.28 378.22 1367.25 378.22 Q1364.93 378.22 1363.4 376.59 Z" fill="#000000" fill-rule="nonzero" fill-opacity="1" /><path clip-path="url(#clip270)" d="M1377.33 390.868 Q1377.33 388.843 1378.61 387.509 Q1379.85 386.224 1381.97 386.224 Q1384.1 386.224 1385.33 387.509 Q1386.62 388.843 1386.62 390.868 Q1386.62 392.697 1385.53 393.833 Q1384.49 395.019 1383.11 395.414 Q1385.73 396.748 1388.54 396.748 Q1390.87 396.748 1392.45 395.365 Q1394.03 393.981 1394.72 391.708 Q1395.46 389.436 1395.71 387.509 Q1395.95 385.631 1395.95 383.457 L1395.95 343.389 Q1395.95 339.634 1394.47 338.695 Q1393.04 337.756 1387.26 337.756 L1387.26 334.594 L1402.62 333.507 L1402.62 383.26 Q1402.62 390.029 1398.57 394.475 Q1394.52 398.971 1388.79 398.971 Q1384.15 398.971 1380.74 396.797 Q1377.33 394.623 1377.33 390.868 M1393.48 319.723 Q1391.9 318.142 1391.9 315.918 Q1391.9 313.695 1393.48 312.114 Q1395.07 310.533 1397.29 310.533 Q1399.51 310.533 1401.09 312.114 Q1402.67 313.695 1402.67 315.918 Q1402.67 318.142 1401.09 319.723 Q1399.51 321.254 1397.29 321.254 Q1395.07 321.254 1393.48 319.723 Z" fill="#000000" fill-rule="nonzero" fill-opacity="1" /><path clip-path="url(#clip270)" d="M1415.57 378.22 L1415.57 375.108 Q1420.95 375.108 1422.19 374.465 Q1423.43 373.774 1423.43 370.513 L1423.43 317.895 Q1423.43 314.14 1422.09 313.201 Q1420.81 312.262 1415.57 312.262 L1415.57 309.1 L1430.09 308.013 L1430.09 370.513 Q1430.09 373.774 1431.38 374.465 Q1432.66 375.108 1438 375.108 L1438 378.22 Q1436.76 378.22 1434.2 378.122 Q1431.63 378.023 1429.75 377.973 Q1427.87 377.924 1426.78 377.924 Q1425.6 377.924 1415.57 378.22 Z" fill="#000000" fill-rule="nonzero" fill-opacity="1" /><polyline clip-path="url(#clip270)" style="stroke:#c271d2; stroke-linecap:round; stroke-linejoin:round; stroke-width:8; stroke-opacity:1; fill:none" points="409.48,447.34 628.779,447.34 "/>
<path clip-path="url(#clip270)" d="M665.328 481.703 L665.328 461.446 Q665.328 460.31 665.378 459.914 Q665.427 459.519 665.724 459.223 Q666.02 458.926 666.613 458.926 Q667.749 458.926 667.848 459.964 Q668.145 469.993 674.123 475.527 Q680.002 481.011 690.081 481.011 Q696.158 481.011 699.913 476.663 Q703.668 472.266 703.668 466.535 Q703.668 461.051 700.506 457.197 Q699.172 455.468 697.492 454.381 Q695.862 453.244 694.824 452.899 Q693.836 452.553 691.909 452.059 Q679.36 449.045 678.569 448.699 Q672.591 446.673 668.935 441.584 Q665.328 436.446 665.328 430.172 Q665.328 422.069 671.01 416.338 Q676.741 410.557 685.042 410.557 Q689.192 410.557 692.65 411.891 Q696.158 413.176 697.591 414.361 Q699.024 415.547 701.247 417.672 L704.755 411.891 Q705.545 410.557 706.287 410.557 Q707.077 410.557 707.225 411.051 Q707.423 411.496 707.423 412.978 L707.423 433.334 Q707.423 434.47 707.373 434.865 Q707.324 435.26 706.978 435.507 Q706.682 435.754 706.089 435.754 Q705.101 435.754 704.854 434.569 Q702.038 413.423 685.14 413.423 Q679.36 413.423 675.556 417.326 Q671.801 421.18 671.801 426.664 Q671.801 431.11 674.567 434.766 Q677.334 438.373 682.028 439.509 L694.972 442.622 Q701.445 444.154 705.792 449.885 Q710.14 455.616 710.14 463.076 Q710.14 471.673 704.508 477.898 Q698.925 484.124 690.18 484.124 Q683.905 484.124 679.063 482.049 Q674.222 479.974 671.603 477.059 Q669.577 480.418 668.243 482.296 L667.947 482.79 Q667.156 484.124 666.415 484.124 Q665.625 484.124 665.477 483.63 Q665.328 483.136 665.328 481.703 Z" fill="#000000" fill-rule="nonzero" fill-opacity="1" /><path clip-path="url(#clip270)" d="M718.589 481.9 L718.589 478.788 Q723.974 478.788 725.209 478.145 Q726.494 477.454 726.494 474.193 L726.494 421.575 Q726.494 417.82 725.16 416.881 Q723.875 415.942 718.589 415.942 L718.589 412.78 L733.164 411.693 L733.164 460.26 L747.442 447.909 Q749.666 445.982 749.666 443.956 Q749.666 441.634 746.751 441.436 L746.751 438.274 Q751 438.571 758.065 438.571 Q762.215 438.571 765.13 438.274 L765.13 441.436 Q758.756 441.733 752.383 446.871 Q750.95 448.007 747.541 450.972 Q744.181 453.887 744.181 454.183 Q744.181 454.282 744.28 454.529 Q744.428 454.776 744.626 454.974 Q744.824 455.171 744.824 455.27 L757.669 473.402 Q760.288 477.059 762.215 477.948 Q764.142 478.788 767.501 478.788 L767.501 481.9 Q763.154 481.604 758.658 481.604 Q756.237 481.604 747.739 481.9 L747.739 478.788 Q751.395 478.788 751.395 476.416 Q751.395 474.786 743.193 463.472 Q742.6 462.681 741.266 460.952 Q740.031 459.124 739.34 458.235 L732.867 463.768 L732.867 474.193 Q732.867 477.454 734.102 478.145 Q735.387 478.788 740.772 478.788 L740.772 481.9 Q734.695 481.604 729.656 481.604 Q728.618 481.604 718.589 481.9 Z" fill="#000000" fill-rule="nonzero" fill-opacity="1" /><path clip-path="url(#clip270)" d="M772.442 481.9 L772.442 478.788 Q777.827 478.788 779.063 478.145 Q780.298 477.454 780.298 474.193 L780.298 421.575 Q780.298 417.82 778.964 416.881 Q777.679 415.942 772.442 415.942 L772.442 412.78 L786.968 411.693 L786.968 474.193 Q786.968 477.454 788.252 478.145 Q789.537 478.788 794.873 478.788 L794.873 481.9 Q793.638 481.9 791.068 481.802 Q788.499 481.703 786.622 481.653 Q784.744 481.604 783.657 481.604 Q782.472 481.604 772.442 481.9 Z" fill="#000000" fill-rule="nonzero" fill-opacity="1" /><path clip-path="url(#clip270)" d="M799.912 459.618 Q799.912 450.082 806.039 443.314 Q812.165 436.545 820.96 436.545 Q829.853 436.545 834.448 442.326 Q839.092 448.106 839.092 456.407 Q839.092 457.938 838.697 458.235 Q838.301 458.531 836.572 458.531 L808.311 458.531 Q808.311 468.857 811.375 473.699 Q815.624 480.468 822.788 480.468 Q823.776 480.468 824.961 480.27 Q826.147 480.072 828.568 479.232 Q830.989 478.343 833.114 476.021 Q835.238 473.699 836.473 470.043 Q836.77 468.61 837.758 468.659 Q839.092 468.659 839.092 469.845 Q839.092 470.734 838.104 472.76 Q837.165 474.736 835.337 477.108 Q833.509 479.479 829.952 481.258 Q826.444 483.037 822.195 483.037 Q813.301 483.037 806.582 476.317 Q799.912 469.549 799.912 459.618 M808.41 456.407 L832.422 456.407 Q832.422 454.282 832.027 451.91 Q831.681 449.539 830.594 446.278 Q829.556 442.968 827.086 440.893 Q824.616 438.818 820.96 438.818 Q819.329 438.818 817.55 439.509 Q815.821 440.201 813.697 441.881 Q811.572 443.561 810.09 447.365 Q808.608 451.169 808.41 456.407 Z" fill="#000000" fill-rule="nonzero" fill-opacity="1" /><path clip-path="url(#clip270)" d="M846.256 472.266 Q846.256 463.669 856.384 459.124 Q862.461 456.209 875.01 455.468 L875.01 451.762 Q875.01 445.488 871.7 442.177 Q868.439 438.818 864.289 438.818 Q856.878 438.818 853.321 443.462 Q856.335 443.561 857.422 445.092 Q858.509 446.575 858.509 448.106 Q858.509 450.132 857.224 451.466 Q855.989 452.75 853.864 452.75 Q851.839 452.75 850.505 451.515 Q849.171 450.231 849.171 448.007 Q849.171 443.067 853.617 439.806 Q858.113 436.545 864.487 436.545 Q872.787 436.545 878.321 442.128 Q880.05 443.857 880.89 446.08 Q881.779 448.304 881.878 449.786 Q881.977 451.219 881.977 454.084 L881.977 474.292 Q881.977 474.885 882.174 475.873 Q882.372 476.861 883.261 478.145 Q884.2 479.381 885.732 479.381 Q889.388 479.381 889.338 472.908 L889.338 467.227 L891.908 467.227 L891.908 472.908 Q891.908 478.294 889.042 480.418 Q886.226 482.493 883.607 482.493 Q880.248 482.493 878.123 480.023 Q875.999 477.553 875.702 474.193 Q874.171 478.047 870.663 480.566 Q867.204 483.037 862.461 483.037 Q858.805 483.037 855.347 482.098 Q851.938 481.209 849.072 478.689 Q846.256 476.12 846.256 472.266 M854.062 472.167 Q854.062 475.922 856.73 478.343 Q859.398 480.764 863.153 480.764 Q867.402 480.764 871.206 477.503 Q875.01 474.193 875.01 467.721 L875.01 457.592 Q863.795 457.988 858.904 462.484 Q854.062 466.93 854.062 472.167 Z" fill="#000000" fill-rule="nonzero" fill-opacity="1" /><path clip-path="url(#clip270)" d="M895.415 481.9 L895.415 478.788 Q900.801 478.788 902.036 478.145 Q903.321 477.454 903.321 474.193 L903.321 447.069 Q903.321 443.314 901.987 442.375 Q900.702 441.436 895.415 441.436 L895.415 438.274 L909.496 437.187 L909.496 448.304 Q910.929 443.956 913.943 440.596 Q917.006 437.187 921.947 437.187 Q925.208 437.187 927.283 439.015 Q929.407 440.843 929.407 443.363 Q929.407 445.586 928.024 446.723 Q926.69 447.81 925.059 447.81 Q923.231 447.81 921.947 446.673 Q920.712 445.488 920.712 443.462 Q920.712 442.227 921.255 441.288 Q921.848 440.3 922.293 439.954 Q922.737 439.608 923.034 439.509 Q922.836 439.411 921.947 439.411 Q916.364 439.411 913.152 444.994 Q909.99 450.527 909.99 458.432 L909.99 473.995 Q909.99 476.91 911.176 477.849 Q912.411 478.788 917.698 478.788 L919.822 478.788 L919.822 481.9 Q915.771 481.604 906.977 481.604 Q905.741 481.604 903.815 481.653 Q901.888 481.703 899.368 481.802 Q896.848 481.9 895.415 481.9 Z" fill="#000000" fill-rule="nonzero" fill-opacity="1" /><path clip-path="url(#clip270)" d="M935.385 481.9 L935.385 478.788 Q940.771 478.788 942.006 478.145 Q943.241 477.454 943.241 474.193 L943.241 447.069 Q943.241 443.314 941.907 442.375 Q940.623 441.436 935.385 441.436 L935.385 438.274 L949.615 437.187 L949.615 447.81 Q954.358 437.187 964.585 437.187 Q972.193 437.187 975.207 440.942 Q977.431 443.462 977.875 446.278 Q978.369 449.094 978.369 456.407 L978.369 475.725 Q978.468 477.849 980.099 478.343 Q981.729 478.788 986.274 478.788 L986.274 481.9 Q975.948 481.604 974.911 481.604 Q974.12 481.604 963.498 481.9 L963.498 478.788 Q968.883 478.788 970.118 478.145 Q971.403 477.454 971.403 474.193 L971.403 450.626 Q971.403 445.488 969.822 442.474 Q968.241 439.411 963.893 439.411 Q958.656 439.411 954.456 443.808 Q950.257 448.205 950.257 455.616 L950.257 474.193 Q950.257 477.454 951.492 478.145 Q952.777 478.788 958.113 478.788 L958.113 481.9 Q947.787 481.604 946.798 481.604 Q946.008 481.604 935.385 481.9 Z" fill="#000000" fill-rule="nonzero" fill-opacity="1" /><path clip-path="url(#clip270)" d="M998.379 480.27 Q996.847 478.64 996.847 476.515 Q996.847 474.391 998.379 472.859 Q999.911 471.278 1002.23 471.278 Q1004.46 471.278 1005.94 472.76 Q1007.47 474.193 1007.47 476.564 Q1007.47 478.887 1005.84 480.418 Q1004.26 481.9 1002.23 481.9 Q999.911 481.9 998.379 480.27 Z" fill="#000000" fill-rule="nonzero" fill-opacity="1" /><path clip-path="url(#clip270)" d="M1019.18 498.402 Q1024.56 498.402 1025.8 497.711 Q1027.08 497.068 1027.08 493.857 L1027.08 446.476 Q1027.08 443.116 1025.8 442.276 Q1024.56 441.436 1019.18 441.436 L1019.18 438.274 L1033.75 437.187 L1033.75 443.857 Q1039.83 437.187 1047.93 437.187 Q1056.53 437.187 1062.81 443.857 Q1069.08 450.527 1069.08 460.063 Q1069.08 469.697 1062.41 476.367 Q1055.74 483.037 1046.5 483.037 Q1041.46 483.037 1038.05 480.468 Q1034.69 477.849 1034.05 475.922 L1034.05 476.861 L1034.05 493.857 Q1034.05 497.118 1035.34 497.76 Q1036.62 498.402 1041.96 498.402 L1041.96 501.515 Q1031.33 501.218 1030.54 501.218 Q1029.55 501.218 1019.18 501.515 L1019.18 498.402 M1034.05 470.389 Q1034.05 471.92 1034.25 472.464 Q1034.5 473.007 1035.48 474.638 Q1039.49 480.764 1046.01 480.764 Q1046.06 480.764 1046.11 480.764 Q1051.89 480.764 1056.28 474.885 Q1060.68 468.956 1060.68 460.063 Q1060.68 451.565 1056.68 445.636 Q1052.68 439.707 1047.14 439.707 Q1043.19 439.707 1039.73 441.832 Q1036.27 443.956 1034.05 447.81 L1034.05 470.389 Z" fill="#000000" fill-rule="nonzero" fill-opacity="1" /><path clip-path="url(#clip270)" d="M1071.6 494.45 Q1071.6 492.325 1072.83 491.189 Q1074.12 490.102 1075.85 490.102 Q1077.68 490.102 1078.86 491.238 Q1080.1 492.424 1080.1 494.351 Q1080.1 498.106 1076.15 498.6 Q1078.07 500.428 1080.89 500.428 Q1083.9 500.428 1086.32 498.205 Q1088.79 495.981 1089.83 493.857 Q1090.92 491.732 1092.45 487.879 Q1093.88 484.865 1094.97 481.9 L1079.8 444.944 Q1078.81 442.523 1077.28 441.98 Q1075.75 441.436 1071.6 441.436 L1071.6 438.274 Q1076.15 438.571 1081.43 438.571 Q1084.54 438.571 1092.45 438.274 L1092.45 441.436 Q1086.77 441.436 1086.77 444.055 Q1086.77 444.351 1087.36 445.883 L1098.63 473.106 L1108.85 448.205 Q1109.45 446.772 1109.45 445.784 Q1109.45 441.634 1104.7 441.436 L1104.7 438.274 Q1111.37 438.571 1113.5 438.571 Q1117.65 438.571 1121.06 438.274 L1121.06 441.436 Q1114.29 441.436 1111.67 447.909 L1093.83 491.09 Q1088.99 502.602 1080.89 502.651 Q1077.03 502.651 1074.32 500.28 Q1071.6 497.908 1071.6 494.45 Z" fill="#000000" fill-rule="nonzero" fill-opacity="1" /><path clip-path="url(#clip270)" d="M1128.76 505.764 Q1128.76 505.27 1129.16 504.183 L1164.88 408.729 Q1164.88 408.63 1165.13 408.087 Q1165.37 407.543 1165.52 407.197 Q1165.67 406.802 1165.97 406.506 Q1166.31 406.209 1166.71 406.209 Q1167.7 406.209 1167.7 407.444 Q1167.7 407.543 1167.4 408.729 L1131.58 504.282 Q1130.99 506.011 1130.59 506.505 Q1130.25 506.999 1129.65 506.999 Q1128.76 506.999 1128.76 505.764 Z" fill="#000000" fill-rule="nonzero" fill-opacity="1" /><path clip-path="url(#clip270)" d="M1176.93 481.9 L1176.93 478.788 L1179.36 478.788 Q1184.84 478.788 1186.08 477.898 Q1187.36 476.96 1187.36 473.995 L1187.36 420.982 Q1187.36 418.067 1186.08 417.178 Q1184.79 416.239 1179.36 416.239 L1176.93 416.239 L1176.93 413.077 L1233.9 413.077 L1236.72 435.853 L1234.2 435.853 Q1233.51 430.073 1232.57 426.762 Q1231.68 423.403 1229.45 420.834 Q1227.28 418.265 1223.67 417.276 Q1220.12 416.239 1214.34 416.239 L1201.29 416.239 Q1197.83 416.239 1197.09 416.98 Q1196.35 417.672 1196.35 420.29 L1196.35 444.549 L1205.44 444.549 Q1212.41 444.549 1214.39 442.128 Q1216.36 439.707 1216.36 432.741 L1218.93 432.741 L1218.93 459.519 L1216.36 459.519 Q1216.36 452.652 1214.39 450.181 Q1212.41 447.711 1205.44 447.711 L1196.35 447.711 L1196.35 474.736 Q1196.35 477.355 1197.09 478.096 Q1197.88 478.788 1201.29 478.788 L1214.78 478.788 Q1219.13 478.788 1222.29 478.244 Q1225.5 477.651 1227.73 476.268 Q1229.95 474.835 1231.43 473.205 Q1232.96 471.574 1234 468.659 Q1235.09 465.695 1235.68 462.978 Q1236.32 460.26 1237.01 455.814 L1239.53 455.814 L1235.28 481.9 L1176.93 481.9 Z" fill="#000000" fill-rule="nonzero" fill-opacity="1" /><path clip-path="url(#clip270)" d="M1246.1 481.9 L1246.1 478.788 Q1249.76 478.788 1252.08 478.096 Q1254.4 477.355 1255.24 476.021 Q1256.13 474.638 1256.33 473.748 Q1256.53 472.81 1256.53 471.278 L1256.53 420.685 Q1256.53 417.77 1255.24 416.881 Q1254.01 415.942 1248.53 415.942 L1246.1 415.942 L1246.1 412.78 L1263.2 412.78 Q1265.03 412.78 1265.52 413.126 Q1266.02 413.423 1266.76 415.004 L1288.69 471.673 L1310.83 414.707 Q1311.32 413.274 1311.77 413.027 Q1312.26 412.78 1314.19 412.78 L1331.28 412.78 L1331.28 415.942 L1328.86 415.942 Q1323.38 415.942 1322.09 416.881 Q1320.86 417.77 1320.86 420.685 L1320.86 473.995 Q1320.86 476.91 1322.09 477.849 Q1323.38 478.788 1328.86 478.788 L1331.28 478.788 L1331.28 481.9 Q1327.53 481.604 1316.81 481.604 Q1305.99 481.604 1302.23 481.9 L1302.23 478.788 L1304.7 478.788 Q1310.18 478.788 1311.42 477.898 Q1312.66 476.96 1312.66 473.995 L1312.66 415.942 L1312.56 415.942 L1287.7 479.974 Q1287.01 481.9 1285.88 481.9 Q1284.64 481.9 1283.85 479.677 L1259.44 416.733 L1259.35 416.733 L1259.35 471.278 Q1259.35 472.81 1259.54 473.748 Q1259.74 474.638 1260.58 476.021 Q1261.47 477.355 1263.79 478.096 Q1266.11 478.788 1269.77 478.788 L1269.77 481.9 Q1259.15 481.604 1257.91 481.604 Q1256.73 481.604 1246.1 481.9 Z" fill="#000000" fill-rule="nonzero" fill-opacity="1" /><path clip-path="url(#clip270)" d="M1345.12 480.27 Q1343.58 478.64 1343.58 476.515 Q1343.58 474.391 1345.12 472.859 Q1346.65 471.278 1348.97 471.278 Q1351.19 471.278 1352.67 472.76 Q1354.21 474.193 1354.21 476.564 Q1354.21 478.887 1352.58 480.418 Q1350.99 481.9 1348.97 481.9 Q1346.65 481.9 1345.12 480.27 Z" fill="#000000" fill-rule="nonzero" fill-opacity="1" /><path clip-path="url(#clip270)" d="M1359.05 494.548 Q1359.05 492.523 1360.33 491.189 Q1361.57 489.904 1363.69 489.904 Q1365.82 489.904 1367.05 491.189 Q1368.34 492.523 1368.34 494.548 Q1368.34 496.377 1367.25 497.513 Q1366.21 498.699 1364.83 499.094 Q1367.45 500.428 1370.26 500.428 Q1372.59 500.428 1374.17 499.045 Q1375.75 497.661 1376.44 495.388 Q1377.18 493.116 1377.43 491.189 Q1377.67 489.311 1377.67 487.137 L1377.67 447.069 Q1377.67 443.314 1376.19 442.375 Q1374.76 441.436 1368.98 441.436 L1368.98 438.274 L1384.34 437.187 L1384.34 486.94 Q1384.34 493.709 1380.29 498.155 Q1376.24 502.651 1370.51 502.651 Q1365.87 502.651 1362.46 500.477 Q1359.05 498.303 1359.05 494.548 M1375.2 423.403 Q1373.62 421.822 1373.62 419.598 Q1373.62 417.375 1375.2 415.794 Q1376.79 414.213 1379.01 414.213 Q1381.23 414.213 1382.81 415.794 Q1384.39 417.375 1384.39 419.598 Q1384.39 421.822 1382.81 423.403 Q1381.23 424.934 1379.01 424.934 Q1376.79 424.934 1375.2 423.403 Z" fill="#000000" fill-rule="nonzero" fill-opacity="1" /><path clip-path="url(#clip270)" d="M1397.29 481.9 L1397.29 478.788 Q1402.67 478.788 1403.91 478.145 Q1405.14 477.454 1405.14 474.193 L1405.14 421.575 Q1405.14 417.82 1403.81 416.881 Q1402.53 415.942 1397.29 415.942 L1397.29 412.78 L1411.81 411.693 L1411.81 474.193 Q1411.81 477.454 1413.1 478.145 Q1414.38 478.788 1419.72 478.788 L1419.72 481.9 Q1418.48 481.9 1415.92 481.802 Q1413.35 481.703 1411.47 481.653 Q1409.59 481.604 1408.5 481.604 Q1407.32 481.604 1397.29 481.9 Z" fill="#000000" fill-rule="nonzero" fill-opacity="1" /></svg>
